<?xml version="1.0" standalone="no"?>
<!DOCTYPE svg PUBLIC "-//W3C//DTD SVG 1.1//EN" "http://www.w3.org/Graphics/SVG/1.1/DTD/svg11.dtd" >
<svg xmlns="http://www.w3.org/2000/svg" xmlns:xlink="http://www.w3.org/1999/xlink" version="1.1">
<metadata>
Created by FontForge 20201107 at Wed Dec 16 15:14:26 2020
 By 
Copyright 2020 The Truculenta Project Authors (https://github.com/Omnibus-Type/Truculenta)
</metadata>
<defs>
<font id="Truculenta18ptCondensed-Regular" horiz-adv-x="0" >
  <font-face 
    font-family="Truculenta 18pt Condensed"
    font-weight="400"
    font-stretch="condensed"
    units-per-em="1000"
    panose-1="0 0 0 0 0 0 0 0 0 0"
    ascent="800"
    descent="-200"
    x-height="519"
    cap-height="701"
    bbox="-371 -290 934 970"
    underline-thickness="45"
    underline-position="-161"
    unicode-range="U+000D-1FA9D"
  />
<missing-glyph horiz-adv-x="468" 
d="M365 0l-71 11l0.5 27t2 70t2.5 93t1.5 97.5t0.5 82.5t-0.5 77t-0.5 84t-0.5 77t-1 56l-0.5 21l70 12l-1 -26.5t-2.5 -72t-2.5 -104t-1 -122.5t0.5 -131.5t1.5 -124.5t1.5 -92zM365 0l-262 2l13 52l239 6zM103 2l0.5 30.5t1.5 81.5t1.5 113t0.5 126t-1 126t-2.5 112
t-2.5 80l-1 30l70 -3l-0.5 -24.5t-0.5 -64t-0.5 -86t-1 -91.5t-0.5 -80t0.5 -80.5t1 -92.5t1 -87t1 -64.5l0.5 -24.5zM336 646l-196 4l-40 51l268 7z" />
    <glyph glyph-name="fi" unicode="fi" horiz-adv-x="401" 
d="M12 504l1 54l11.5 -0.5t29.5 -1t38 -1t38 -0.5h40.5t55.5 0.5t56 1t43 0.5h17l-3 -49q1 0 -19 0h-49.5h-61.5h-55h-27q-19 0 -38.5 -1t-37 -1.5t-28.5 -1zM340 641q-40 5 -74 7.5t-56 2.5q-23 0 -37.5 -3.5t-22.5 -11.5t-11.5 -20t-4.5 -30q0 -29 -1.5 -75t-3.5 -106
t-2 -132q0 -54 1 -104.5t2.5 -91.5t2.5 -65l1 -24l-69 7l1.5 39t3 102t1.5 136q0 55 0.5 95.5t0.5 73t0.5 62t0.5 61.5q0 44 11 75t42 47t92 16q24 0 57.5 -2.5t67.5 -7.5zM345 0l-69 1l1 23.5t2.5 64t2.5 91.5t1 106q0 73 -1.5 133t-3.5 95.5l-2 35.5l66 7l-0.5 -22
t-1.5 -60.5t-1.5 -87t-0.5 -102.5t1 -105t2.5 -91.5t2.5 -64.5z" />
    <glyph glyph-name="fl" unicode="fl" horiz-adv-x="407" 
d="M12 500l1 54l11.5 -0.5t29.5 -1t38 -1t39 -0.5q24 0 44.5 0.5t33 0.5h12.5l-3 -48h-12.5t-33 0.5t-45.5 -0.5q-19 0 -38.5 -1t-37 -1.5t-28.5 -1zM352 641q-40 5 -77.5 7.5t-59.5 2.5q-25 0 -40.5 -3.5t-24 -11.5t-12 -20t-4.5 -30q0 -29 -1.5 -75t-3.5 -106t-2 -132
q0 -54 1 -104.5t2.5 -91.5t2.5 -65l1 -24l-69 7l1.5 39t3 102t1.5 136q0 55 0.5 95.5t0.5 73t0.5 62t0.5 61.5q0 44 11 75t43.5 47t95.5 16q24 0 61 -2.5t71 -7.5zM290 0q1 23 1.5 62t1 88t0.5 102.5v104.5v90t-0.5 91.5t-1 80t-0.5 57v21.5l64 -5l-0.5 -20.5t-1.5 -55
t-2.5 -78t-2 -90t-0.5 -90.5q0 -55 1.5 -115.5t3.5 -114t3.5 -87l1.5 -33.5z" />
    <glyph glyph-name="f_f" unicode="ff" horiz-adv-x="433" 
d="M12 500l1 54l11.5 -0.5t29.5 -1t38 -1t38 -0.5h40h63.5t72.5 0.5t68.5 0.5h51h19.5l-3 -48h-19.5h-50.5h-68h-73h-63.5h-40.5q-19 0 -38.5 -1t-37 -1.5t-28.5 -1zM216 644q-7 2 -16 3.5t-18 1.5q-22 0 -35 -18t-13 -71q0 -29 -1.5 -68.5t-3.5 -93t-2 -125.5
q0 -54 1 -104.5t2.5 -91.5t2.5 -65l1 -24l-69 7l1.5 39t3 102t1.5 136q0 55 0.5 95.5t0.5 73t0.5 62t0.5 61.5q0 46 12 76.5t36 46.5t60 16q10 0 21 -1.5t22 -3.5zM395 706q42 0 64.5 -15t31.5 -41.5t7 -61.5l-61 2q3 40 -8.5 53.5t-33.5 13.5q-16 0 -27.5 -10t-17.5 -28.5
t-7 -45.5q-2 -67 -3.5 -118t-2 -94.5t-0.5 -88.5q0 -72 1.5 -134t3 -100l1.5 -38l-69 -3l2 38t3.5 100.5t1.5 134.5v82.5v69.5v67t1 75q0 25 5.5 50t18.5 46t34.5 33.5t54.5 12.5z" />
    <glyph glyph-name="f_f_i" unicode="ffi" horiz-adv-x="611" 
d="M216 644q-7 2 -16 3.5t-18 1.5q-22 0 -35 -18t-13 -71q0 -29 -1.5 -68.5t-3.5 -93t-2 -125.5q0 -54 1 -104.5t2.5 -91.5t2.5 -65l1 -24l-69 7l1.5 39t3 102t1.5 136q0 55 0.5 95t0.5 71.5t0.5 61.5t0.5 64q0 46 12 76.5t36 46.5t60 16q10 0 21 -1.5t22 -3.5zM12 504l1 54
h20.5t53.5 -0.5t72 -1t75.5 -1t65 -0.5h40.5h40.5t55.5 0.5t56 1t43 0.5h17l-3 -49q1 0 -19 0h-49.5h-61.5h-55h-27q-12 0 -40.5 -0.5t-65 -1t-75 -1t-71.5 -1t-53 -0.5h-20zM550 641q-40 5 -74 7.5t-56 2.5q-23 0 -37.5 -3.5t-22.5 -11.5t-11.5 -20t-4.5 -30
q0 -29 -1.5 -75t-3.5 -106t-2 -132q0 -54 1 -104.5t2.5 -91.5t2.5 -65l1 -24l-69 7l1.5 39t3 102t1.5 136q0 55 0.5 95.5t0.5 73t0.5 62t0.5 61.5q0 44 11 75t42 47t92 16q24 0 57.5 -2.5t67.5 -7.5zM555 0l-69 1l1 23.5t2.5 64t2.5 91.5t1 106q0 73 -1.5 133t-3.5 95.5
l-2 35.5l66 7l-0.5 -22t-1.5 -60.5t-1.5 -87t-0.5 -102.5t1 -105t2.5 -91.5t2.5 -64.5z" />
    <glyph glyph-name="f_f_l" unicode="ffl" horiz-adv-x="617" 
d="M216 644q-7 2 -16 3.5t-18 1.5q-22 0 -35 -18t-13 -71q0 -29 -1.5 -68.5t-3.5 -93t-2 -125.5q0 -54 1 -104.5t2.5 -91.5t2.5 -65l1 -24l-69 7l1.5 39t3 102t1.5 136q0 55 0.5 95.5t0.5 73t0.5 62t0.5 61.5q0 46 12 76.5t36 46.5t60 16q10 0 21 -1.5t22 -3.5zM12 500l1 54
h20.5t53.5 -0.5t72 -1t75.5 -1t65 -0.5h40.5h24h22t18 0.5t14 0.5h9.5h3.5l-3 -48h-3h-9h-14.5h-18.5h-21.5h-24.5q-12 0 -40.5 -0.5t-65 -1t-75 -1t-71.5 -1t-53 -0.5h-20zM562 641q-40 5 -77.5 7.5t-59.5 2.5q-25 0 -40.5 -3.5t-24 -11.5t-12 -20t-4.5 -30q0 -29 -1.5 -75
t-3.5 -106t-2 -132q0 -54 1 -104.5t2.5 -91.5t2.5 -65l1 -24l-69 7l1.5 39t3 102t1.5 136q0 55 0.5 95.5t0.5 73t0.5 62t0.5 61.5q0 44 11 75t43.5 47t95.5 16q24 0 61 -2.5t71 -7.5zM500 0q1 23 1.5 62t1 88t0.5 102.5v104.5v90t-0.5 91.5t-1 80t-0.5 57v21.5l64 -5
l-0.5 -20.5t-1.5 -55t-2.5 -78t-2 -90t-0.5 -90.5q0 -55 1.5 -115.5t3.5 -114t3.5 -87l1.5 -33.5z" />
    <glyph glyph-name=".notdef" horiz-adv-x="468" 
d="M365 0l-71 11l0.5 27t2 70t2.5 93t1.5 97.5t0.5 82.5t-0.5 77t-0.5 84t-0.5 77t-1 56l-0.5 21l70 12l-1 -26.5t-2.5 -72t-2.5 -104t-1 -122.5t0.5 -131.5t1.5 -124.5t1.5 -92zM365 0l-262 2l13 52l239 6zM103 2l0.5 30.5t1.5 81.5t1.5 113t0.5 126t-1 126t-2.5 112
t-2.5 80l-1 30l70 -3l-0.5 -24.5t-0.5 -64t-0.5 -86t-1 -91.5t-0.5 -80t0.5 -80.5t1 -92.5t1 -87t1 -64.5l0.5 -24.5zM336 646l-196 4l-40 51l268 7z" />
    <glyph glyph-name=".null" 
 />
    <glyph glyph-name="nonmarkingreturn" horiz-adv-x="333" 
 />
    <glyph glyph-name="CR" unicode="&#xd;" horiz-adv-x="600" 
 />
    <glyph glyph-name="space" unicode=" " horiz-adv-x="206" 
 />
    <glyph glyph-name="exclam" unicode="!" horiz-adv-x="252" 
d="M96 238l-0.5 24t-1.5 65.5t-2 95.5q-1 41 -2.5 89.5t-3 92t-2.5 71.5l-1 28l86 5l-1 -22t-2 -56.5t-2.5 -73.5t-2.5 -74t-2 -58q0 -28 -0.5 -60.5t-1 -60.5t-1 -46l-0.5 -18zM168 0h-81l4 133l70 2z" />
    <glyph glyph-name="quotedbl" unicode="&#x22;" horiz-adv-x="416" 
d="M243 493l1 16.5t2 42.5t1 52q2 38 2 68v30l94 -1l-3.5 -12.5t-8 -32.5t-7.5 -41q-3 -15 -6 -34.5t-5.5 -37t-3.5 -29l-1 -11.5zM85 490l-0.5 16.5t-1.5 42.5t-3 52q-1 38 -4 67.5l-3 29.5l94 8l-2.5 -13t-5 -33t-4.5 -42q-2 -15 -3 -34.5t-2 -37.5t-1 -29.5v-11.5z" />
    <glyph glyph-name="numbersign" unicode="#" horiz-adv-x="708" 
d="M108 -1l100 386l65 311l71 4l-81 -326l-82 -371zM49 175l2 65l20 -0.5t53 -0.5t73 -0.5l80 -1t74 -0.5q35 0 71.5 0.5t70 0.5t59.5 0.5t41.5 1l15.5 0.5l4 -63h-15.5t-42 0.5t-60.5 0.5t-71.5 0.5t-75.5 0.5h-77t-80.5 -1t-71.5 -1.5t-51 -1zM359 -2l100 387l62 302
l71 -1l-81 -323l-79 -362zM99 462l-8 65l21 -0.5t55.5 -0.5t76 -0.5t82.5 -1t75 -0.5q35 0 71.5 0.5t70 1t59.5 0.5t41.5 0.5l15.5 0.5v-64h-15t-41 0.5t-59 1t-70.5 1t-74.5 0.5h-77t-80.5 -1t-72 -1.5t-51.5 -1z" />
    <glyph glyph-name="dollar" unicode="$" horiz-adv-x="416" 
d="M214 -11q-51 0 -84 19t-49 53t-16 79q0 20 1 36t4 38l56 1l-2 -38t-1 -41q0 -35 13.5 -55t33 -27.5t35.5 -7.5q29 0 45.5 12t24 32.5t7.5 43.5q0 25 -9.5 47t-26 42.5t-39 42.5t-48.5 47q-26 24 -43.5 48t-28.5 49.5t-15.5 56t-4.5 68.5q0 54 19 91.5t53.5 57t78.5 19.5
q24 0 47.5 -8t43 -26t31 -48t11.5 -74q0 -26 -1 -48.5t-2.5 -44t-3.5 -45.5l-62 -4q5 45 7 73.5t2 59.5q0 33 -9.5 57t-26 37t-38.5 13t-39 -7.5t-28.5 -22.5t-17.5 -38t-6 -54q0 -39 10.5 -69t28 -54t36.5 -44q15 -15 38 -36t47 -48.5t40 -59.5t16 -70q0 -47 -14.5 -81.5
t-43 -53t-70.5 -18.5zM236 -110l-51 1l1 36.5t2.5 98.5t2.5 140t1 160q0 66 -0.5 133t-0.5 128.5t-0.5 109.5t-1 76l-0.5 28l51 -3l-1 -25t-2.5 -67t-3 -93.5t-3 -106t-2.5 -104.5t-1 -87q0 -45 1 -101t2.5 -113t2.5 -104.5t2 -77z" />
    <glyph glyph-name="percent" unicode="%" horiz-adv-x="714" 
d="M192 0q13 32 31 77t38 95.5t39 98.5t33 85q18 46 36 94t35.5 93.5t31.5 84t24 65.5h66q-10 -24 -26 -61t-35 -83t-39 -95t-38 -97q-16 -40 -34 -90t-36.5 -101t-34 -94.5t-25.5 -71.5h-66zM169 367q-36 0 -61 18.5t-38 56.5t-13 97q0 54 14 89.5t42.5 53t69.5 17.5
q39 0 62.5 -20t34.5 -56t11 -85q0 -54 -13.5 -92.5t-40.5 -58.5t-68 -20zM171 424q29 0 42.5 17t18 44t4.5 57q0 40 -7.5 62.5t-21 31.5t-31.5 9q-22 0 -36 -12t-21 -35.5t-7 -60.5q0 -61 17 -87t42 -26zM531 -1q-38 0 -62 21.5t-35 59t-11 86.5q0 54 13 90.5t40.5 55.5
t68.5 19q36 0 61 -17t38 -54t13 -96q0 -54 -14 -90.5t-42 -55.5t-70 -19zM537 53q23 0 37 13t20.5 38.5t6.5 61.5q0 41 -7.5 64.5t-20.5 33.5t-30 10q-29 0 -43 -15.5t-18 -41.5t-4 -56q0 -60 16.5 -84t42.5 -24z" />
    <glyph glyph-name="ampersand" unicode="&#x26;" horiz-adv-x="511" 
d="M209 -10q-47 0 -79.5 22.5t-48.5 67.5t-16 112q0 47 12 83t31 63.5t41 49.5t41 40q17 16 31 30.5t24.5 30t16.5 34t6 41.5q0 27 -4.5 44.5t-12.5 26t-19 8.5q-16 0 -33 -16.5t-17 -69.5q0 -48 10 -92t31.5 -95t54.5 -117l79 -158q7 -13 17 -21.5t21.5 -13t24.5 -6
t26 -1.5l-9 -60q-20 0 -46.5 4.5t-51.5 21t-43 50.5q-43 82 -77 150.5t-57.5 127.5t-36 112t-12.5 104q0 52 18 82.5t45 43.5t53 13q28 0 52 -11.5t39 -38t15 -72.5q0 -35 -9.5 -63.5t-25 -52t-33.5 -42.5t-36 -36q-19 -18 -36.5 -37t-31.5 -41t-22 -50t-8 -66
q0 -61 15.5 -92t35.5 -41t34 -10q27 0 47 23t34.5 61.5t23.5 84.5t13.5 93t4.5 87l63 -7q0 -60 -6 -118t-19.5 -109t-36 -90t-55.5 -61.5t-78 -22.5z" />
    <glyph glyph-name="quotesingle" unicode="'" horiz-adv-x="240" 
d="M85 490l-0.5 16.5t-1.5 42.5t-3 52q-1 38 -4 67.5l-3 29.5l94 8l-2.5 -13t-5 -33t-4.5 -42q-2 -15 -3 -34.5t-2 -37.5t-1 -29.5v-11.5z" />
    <glyph glyph-name="parenleft" unicode="(" horiz-adv-x="283" 
d="M191 -140q-29 11 -51 37t-36.5 73.5t-22 123.5t-7.5 187q0 112 7.5 188t22 123.5t36.5 73.5t51 37l17 -52q-28 -27 -42.5 -67t-20.5 -89.5t-7 -104t-1 -109.5q0 -54 1 -108.5t7 -104t20.5 -89.5t42.5 -67z" />
    <glyph glyph-name="parenright" unicode=")" horiz-adv-x="283" 
d="M91 703q29 -11 51 -37t36.5 -73.5t22 -123.5t7.5 -187q0 -112 -7.5 -188t-22 -123.5t-36.5 -73.5t-51 -37l-17 52q28 27 42.5 67t20.5 89.5t7 104t1 109.5q0 54 -1 108.5t-7 104t-20.5 89.5t-42.5 67z" />
    <glyph glyph-name="asterisk" unicode="*" horiz-adv-x="540" 
d="M405 427l-16 12l-40 30t-49.5 35.5t-44.5 28.5q-20 12 -49 27t-57 29.5t-47 24l-19 9.5l45 55l15.5 -11.5t39 -28t48.5 -33t43 -27.5q18 -10 48 -27.5t61 -35t52.5 -30l21.5 -12.5zM119 415l-25 58l20 12.5t49.5 30t58 35t46.5 27.5q18 11 45 29t53.5 36.5t44.5 31
l18 12.5l19 -64l-17.5 -9.5t-43.5 -24t-53 -29.5t-47 -27q-15 -9 -36.5 -23.5t-44.5 -30.5t-42.5 -30.5t-32 -24zM309 357l-70 7l1 14t2 37t2.5 50t2 52t-0.5 44q0 24 -1.5 55t-3 60t-2.5 48l-1 19l69 -7l-1.5 -17t-3.5 -44t-3.5 -57t-1.5 -56q0 -20 1 -46.5t3 -54.5
t4 -51.5t3 -38z" />
    <glyph glyph-name="plus" unicode="+" horiz-adv-x="400" 
d="M235 148l-70 -4l1 15.5t2 40t1.5 51.5t-0.5 50q0 24 -1 49t-2 46t-1.5 34l-0.5 13l69 4l-1 -12.5t-2.5 -34t-2.5 -47t-1 -51.5q0 -25 1.5 -52t3 -50t3 -37.5zM65 258l7 63h13.5t35 -0.5t45 -0.5h44.5t43 1t40.5 1.5t30 1l11.5 0.5l-16 -65l-8 1t-23 1.5t-34.5 1.5
t-42.5 1q-18 0 -38 -0.5t-39 -1.5t-34.5 -2t-25 -1.5z" />
    <glyph glyph-name="comma" unicode="," horiz-adv-x="247" 
d="M127 -134l-35 17q17 29 24.5 56t7.5 58l-39 3l-2 118l81 7v-124q0 -38 -10 -72t-27 -63z" />
    <glyph glyph-name="hyphen" unicode="-" horiz-adv-x="299" 
d="M54 259l4 62l7.5 -0.5t21 -1t30 -1t34.5 -0.5h34.5t29.5 1t20.5 1.5l7.5 0.5l2 -62l-9 0.5t-24 0.5t-32.5 0.5t-33.5 0.5q-17 0 -33.5 -0.5t-29.5 -0.5t-21 -0.5z" />
    <glyph glyph-name="period" unicode="." horiz-adv-x="243" 
d="M157 0h-72l-2 126l77 6z" />
    <glyph glyph-name="slash" unicode="/" horiz-adv-x="273" 
d="M22 -1l9 32t22.5 83.5t29 110.5t27.5 114q10 44 20.5 93t20 96t16.5 85t11.5 61l4.5 23l68 -2l-5.5 -22.5t-15 -60.5t-20.5 -85t-22.5 -95.5t-21.5 -91.5q-12 -54 -25.5 -113t-25.5 -110.5t-19 -84l-7 -32.5z" />
    <glyph glyph-name="zero" unicode="0" horiz-adv-x="402" 
d="M194 -10q-49 0 -77 25.5t-40.5 72.5t-16 112t-3.5 143q0 61 3 115.5t11.5 100t25.5 78.5t44 51.5t67 18.5t66 -18t40.5 -51t21 -78.5t8 -100.5t1.5 -117q0 -73 -4.5 -137t-19 -112t-45 -75.5t-82.5 -27.5zM198 45q29 0 46 26t25.5 70t11 99t2.5 113q0 48 -1.5 99.5
t-8.5 96t-23 72.5t-45 28t-46 -29.5t-25 -77t-10.5 -101.5t-2.5 -103q0 -88 4.5 -154t20.5 -102.5t52 -36.5z" />
    <glyph glyph-name="one" unicode="1" horiz-adv-x="243" 
d="M107 0l0.5 24t1 63t1.5 85t1.5 90.5t0.5 79.5v65t-0.5 74t-1 74t-0.5 64l37 75h35l-1 -30.5t-2 -82t-2 -114t-1 -126.5t1 -125t1.5 -109.5t1.5 -77.5l1 -29h-74zM23 588l-4 57q15 3 32.5 7t35 10t33.5 14t27 18l-6 -85q-12 -4 -26.5 -8t-30 -7t-31.5 -4.5t-30 -1.5z" />
    <glyph glyph-name="two" unicode="2" horiz-adv-x="376" 
d="M97 40l-58 17q31 34 61.5 75.5t58 88.5t48.5 96t33.5 97t12.5 92q0 45 -7 74.5t-21.5 44t-37.5 14.5q-20 0 -36 -12t-25 -37.5t-9 -64.5q0 -27 2.5 -52.5t5.5 -48.5l-67 -1q-2 21 -4 51.5t-2 60.5q0 51 13.5 83t34.5 50t45.5 25t46.5 7q26 0 49 -11t40 -33t26.5 -56.5
t9.5 -81.5q0 -50 -14.5 -105.5t-38 -111t-53 -106t-59 -90.5t-55.5 -65zM37 -4l2 61h40h40t39 0.5t36 0.5q13 0 27 0.5t27.5 1l27 1t25.5 1.5t22 2l1 -64h-27h-28.5h-29.5h-29h-27q-11 0 -24 -0.5t-26 -0.5t-26 -0.5t-25.5 -1t-23.5 -0.5t-21 -1z" />
    <glyph glyph-name="three" unicode="3" horiz-adv-x="347" 
d="M170 -10q-37 0 -62 10.5t-40.5 28.5t-23 40t-7.5 45l61 1q0 -18 6 -30.5t16 -21t23 -12t28 -3.5q26 0 42 11.5t23.5 32t6.5 47.5q-1 54 -17 81t-39.5 35.5t-47.5 8.5h-11h-12.5t-12.5 -0.5t-11 -1.5l-2 63q5 0 10 -0.5t10.5 -1t11.5 -0.5h12q25 0 48 18.5t38 56.5t15 98
q0 47 -6.5 79t-21.5 48t-43 16q-16 0 -28 -8t-20 -21.5t-12 -30.5t-4 -36h-62q-1 43 10.5 72.5t30.5 47.5t42 26t45 8q33 0 58 -11.5t41.5 -35.5t25 -61t8.5 -87q0 -47 -8 -87t-26 -70t-50 -47q16 -1 36.5 -18t37 -50t16.5 -83q1 -51 -14.5 -86t-46 -53t-74.5 -18z" />
    <glyph glyph-name="four" unicode="4" horiz-adv-x="373" 
d="M82 177l-57 32l8 23.5t20.5 60t26 77t23.5 74.5q12 41 25 85.5t24.5 83t18.5 63l7 24.5l100 -4l-11.5 -8t-26 -23.5t-23.5 -40.5q-8 -23 -18 -55t-20.5 -67t-21.5 -67q-24 -74 -41 -132.5t-25.5 -92zM40 146l-15 63l10 -0.5t26.5 -1t37.5 -1t43 -0.5t42 1q26 1 54 2.5
t52.5 3t39.5 2.5l15 1v-65h-15.5h-40h-52.5h-52q-19 0 -39 -0.5t-39 -1.5t-34 -1.5t-24 -1zM207 -3l0.5 28t1 73t1 97t1 101t0.5 84q0 44 -0.5 96.5t-1 100.5t-1 79l-0.5 31l70 9l-0.5 -25.5t-1.5 -69.5t-1.5 -101.5t-0.5 -121.5t0.5 -130.5t1 -122.5t1 -90.5l0.5 -34.5z
" />
    <glyph glyph-name="five" unicode="5" horiz-adv-x="367" 
d="M177 -10q-27 0 -51 8t-43 25.5t-30 48t-11 75.5l63 4q0 -40 8 -62t24.5 -30.5t41.5 -8.5q23 0 43 15.5t32 56t12 113.5q0 39 -7 73t-23 54.5t-43 20.5q-21 0 -37 -13t-26.5 -32t-14.5 -37l-10 81q8 10 22.5 24.5t34 26t39.5 11.5q39 0 64 -20t39.5 -52.5t20 -71.5
t5.5 -77q0 -69 -12.5 -114t-34 -71t-49 -37t-57.5 -11zM115 301l-62 -4l1 20.5t3 52.5t3.5 68t2.5 67q1 32 1 66.5v64t-0.5 48l-0.5 18.5l70 -6l-1 -18.5t-2.5 -48t-2.5 -63.5t-2 -64q-1 -28 -2.5 -63t-3.5 -66t-3 -51.5zM86 636l-23 65l12 -0.5t31 -1t41 -1t42 -0.5
t41 -0.5t38.5 -0.5h28.5h11l-4 -60l-10.5 0.5t-28 0.5t-37 0.5t-37.5 0.5q-19 0 -38 -0.5t-34 -1t-24 -1z" />
    <glyph glyph-name="six" unicode="6" horiz-adv-x="384" 
d="M200 -10q-55 0 -87.5 31.5t-46.5 104.5t-14 195q0 113 9.5 188.5t29 120.5t51 64t75.5 19q43 0 67 -25.5t34 -61.5t10 -69q0 -19 -1 -36t-5 -37l-63 -2q2 17 3 33t1 31q0 33 -5.5 57.5t-17 38t-29.5 13.5q-26 0 -43 -19t-27.5 -53t-16 -79t-7 -97t-1.5 -107q0 -50 1 -95
t8.5 -80t24.5 -55t49 -20q15 0 27.5 7.5t22.5 24.5t15.5 43.5t5.5 65.5q0 59 -16 96t-51 37q-23 0 -43 -12.5t-32 -37t-12 -61.5l-24 89q7 19 20.5 38t36.5 32t56 13q44 0 72.5 -23.5t42 -68.5t13.5 -110q0 -50 -10.5 -86.5t-28.5 -60t-42 -35t-52 -11.5z" />
    <glyph glyph-name="seven" unicode="7" horiz-adv-x="299" 
d="M78 -1q0 41 3 93t9 109t15.5 111.5t23.5 99.5q12 40 29 84.5t36 85.5t39.5 72.5t40.5 45.5v-73q-13 -27 -31 -68t-34.5 -86t-27.5 -87q-14 -56 -21 -124t-8 -136.5t2 -125.5zM21 633l-1 67h27t32 -0.5t33.5 -1t29.5 -0.5h31t35 0.5t35.5 1t30.5 0.5l-7 -63
q-15 0 -33.5 -0.5t-37.5 -1t-36.5 -0.5h-30.5h-27.5t-29.5 -0.5t-28 -1t-23 -0.5z" />
    <glyph glyph-name="eight" unicode="8" horiz-adv-x="366" 
d="M175 274q-35 0 -63 23t-44 67t-16 107q0 69 12.5 122t42.5 83.5t80 30.5q48 0 75.5 -27t39.5 -77.5t12 -121.5q0 -75 -18 -120.5t-49.5 -66t-71.5 -20.5zM174 -10q-41 0 -72.5 18t-48.5 53.5t-17 85.5q0 47 14 89t47.5 68t90.5 26q53 0 84 -23.5t44.5 -63t13.5 -88.5
q0 -60 -19.5 -96.5t-54.5 -52.5t-82 -16zM183 45q46 0 65.5 25.5t19.5 79.5q0 70 -24 97t-61 27q-24 0 -43 -13t-30.5 -39t-11.5 -66q0 -58 21.5 -84.5t63.5 -26.5zM183 330q22 0 37 17.5t23 50.5t8 78q0 68 -7 104.5t-21 51t-37 14.5q-34 0 -52 -37t-18 -126q0 -49 8 -83
t23 -52t36 -18z" />
    <glyph glyph-name="nine" unicode="9" horiz-adv-x="378" 
d="M163 -10q-30 0 -55.5 14t-41.5 42t-16 71q0 20 1 35t4 29l62 2q-2 -9 -3 -25.5t-1 -28.5q0 -25 5.5 -43t18 -28t33.5 -10q32 0 50.5 24t27.5 65t11.5 91.5t2.5 102.5v132t-6 101.5t-22.5 65.5t-49.5 23q-22 0 -39 -17.5t-27 -55.5t-10 -98q0 -41 6.5 -78t21.5 -60t42 -23
q31 0 49.5 22t26.5 56t8 71l24 -108q-3 -19 -16 -42.5t-37 -41t-60 -17.5q-44 0 -72.5 29.5t-42 81.5t-13.5 118q0 75 19 123.5t50 72t68 23.5q55 0 86.5 -31.5t44.5 -103.5t13 -194q0 -115 -8.5 -191t-28 -119.5t-50.5 -61.5t-76 -18z" />
    <glyph glyph-name="colon" unicode=":" horiz-adv-x="242" 
d="M159 0h-73l-3 131l76 7v-138zM159 387h-73l-3 130l76 7v-137z" />
    <glyph glyph-name="semicolon" unicode=";" horiz-adv-x="247" 
d="M127 -134l-35 17q17 29 24.5 56t7.5 58l-39 3l-2 118l81 7v-124q0 -38 -10 -72t-27 -63zM162 387h-73l-3 130l76 7v-137z" />
    <glyph glyph-name="less" unicode="&#x3c;" horiz-adv-x="508" 
d="M428 476l5 -81l-14.5 -6t-38.5 -15t-52 -20l-56 -22q-27 -11 -60.5 -25t-65 -27.5t-51.5 -22l-20 -8.5l7 61l14 7l37 18.5t50 24.5t52 25q20 9 47.5 22t56 26.5t52.5 25t37 17.5zM433 104q-15 8 -37 18t-47 20.5t-50.5 20.5t-47.5 17q-27 11 -58 22.5t-57.5 22.5
t-43.5 17.5l-17 6.5l7 61l18 -7t46 -17.5t59.5 -22.5t57.5 -21q25 -9 54 -19t54.5 -18.5t41.5 -14l16 -5.5z" />
    <glyph glyph-name="equal" unicode="=" horiz-adv-x="374" 
d="M56 189l-1 63l12 -0.5t31 -1t41.5 -1t43.5 0.5q22 0 45.5 1t44 1.5t33.5 1l13 0.5l-7 -62l-11.5 0.5t-30 0.5h-40h-42.5q-19 0 -42 -1t-43.5 -1.5t-33.5 -1zM56 325l8 62l11.5 -0.5t29.5 -1t40 -1t43 0.5q22 1 44.5 1.5t41 1.5t29.5 1.5l11 0.5l-2 -62h-11.5t-30 0.5
t-40 0.5h-42.5q-19 0 -42 -1t-43.5 -1.5t-33.5 -1z" />
    <glyph glyph-name="greater" unicode="&#x3e;" horiz-adv-x="508" 
d="M80 104l-5 81l14.5 6t38.5 15t52 20.5t56 21.5q27 11 60.5 25t65 27.5t51.5 22l20 8.5l-7 -61l-14 -7l-37 -18.5t-50 -24.5t-52 -25q-24 -11 -56.5 -26.5t-63.5 -30t-52 -24.5zM75 476q7 -3 27 -12t47 -20.5t55.5 -23t52.5 -20.5q27 -10 58 -22t57.5 -23t43.5 -17.5
l17 -6.5l-7 -61l-18 7t-46 17.5t-59.5 22.5t-57.5 21q-25 9 -54 19t-54.5 18.5t-41.5 14l-16 5.5z" />
    <glyph glyph-name="question" unicode="?" horiz-adv-x="413" 
d="M234 215l-64 1q-2 11 -4 29t-2 37q0 30 8 52t20.5 40t26.5 36q14 19 27 40t21 50t8 69q0 21 -7.5 40.5t-22 32t-37.5 12.5q-20 0 -36 -9.5t-24.5 -32t-8.5 -61.5q0 -28 3 -50.5t7 -45.5l-64 1q-5 20 -8 47t-3 57q0 51 13 81.5t34.5 46.5t46 21.5t46.5 5.5q35 0 63 -16
t45 -48t17 -80q0 -54 -10.5 -89.5t-25.5 -59.5t-31 -44q-18 -22 -31.5 -44.5t-13.5 -57.5q0 -19 2 -32.5t5 -28.5zM247 -3l-80 3l1 126l70 2z" />
    <glyph glyph-name="at" unicode="@" horiz-adv-x="812" 
d="M388 -154q-82 0 -143.5 26t-102 76.5t-60.5 122.5t-20 163q0 81 18.5 151.5t52 128t80 98.5t104 63.5t121.5 22.5q68 0 125 -22t98.5 -65.5t64.5 -109.5t23 -154q0 -72 -14 -136.5t-41 -114t-67.5 -78t-94.5 -28.5q-32 0 -51.5 12t-29 30.5t-13.5 38.5q-11 -24 -26 -42.5
t-34 -28.5t-43 -10q-29 0 -50 18t-32.5 53t-11.5 86q0 52 6 109.5t18.5 111.5t32.5 97.5t49 69.5t67 26q30 0 46.5 -18t22.5 -46l6 58l61 10q-8 -49 -16 -104.5t-15.5 -110.5t-13.5 -103t-9.5 -83t-3.5 -50q0 -16 2.5 -33.5t13 -29.5t33.5 -12q27 0 54 18t49.5 55.5t36.5 96
t14 138.5q0 79 -17.5 136t-51 94t-81 54.5t-107.5 17.5q-66 0 -124 -28.5t-102.5 -83t-69.5 -131t-25 -172.5q0 -81 17.5 -144t51.5 -106.5t84.5 -66t117.5 -22.5q69 0 130 11.5t107 34.5l24 -43q-54 -27 -119.5 -39.5t-141.5 -12.5zM349 45q27 0 45.5 23t31.5 71.5
t23 123.5l13 99q5 36 2 68.5t-15 53.5t-35 21t-41.5 -23.5t-32.5 -62.5t-23 -85.5t-13.5 -92.5t-4.5 -84q0 -37 4.5 -61.5t15.5 -37.5t30 -13z" />
    <glyph glyph-name="A" unicode="A" horiz-adv-x="340" 
d="M259 -6q-8 61 -16 121t-16 118.5t-16 114.5q-6 40 -11.5 79t-11 76t-11 72t-11.5 67l-49 60l108 2q5 -40 10 -82t11 -85t13 -87.5t14 -88.5q10 -61 20 -123.5t21 -122.5t21 -116zM68 164v64l196 -4v-53zM76 5l-70 1q8 43 17.5 99.5t20.5 120.5t21 128q11 67 21 131.5
t18 120.5t13 96l108 2l-53 -68q-7 -40 -14.5 -86t-15.5 -95.5t-16 -102.5q-8 -57 -17 -116.5t-17.5 -117.5t-15.5 -113z" />
    <glyph glyph-name="B" unicode="B" horiz-adv-x="368" 
d="M117 213l-4 47q38 0 67 9.5t48.5 32.5t29.5 64t10 103q0 74 -9 115.5t-28 59t-48 17.5q-42 0 -59.5 -2t-36.5 -7l-23 61q24 2 50.5 4t61.5 2q53 0 87.5 -20.5t51 -74t16.5 -152.5q0 -73 -13 -123t-39.5 -80t-66.5 -43t-95 -13zM183 -10q-23 0 -45 0.5t-41.5 1.5t-35.5 2
l34 62q19 -2 45.5 -5t45.5 -3q31 0 50.5 9t29 26.5t9.5 42.5q0 24 -8.5 41t-31.5 27.5t-71 11.5h-14t-17.5 0.5t-15.5 -0.5l-4 54q79 0 128.5 -14.5t73 -44.5t23.5 -77q0 -45 -19.5 -74.5t-54.5 -44.5t-81 -15zM61 -6l0.5 28.5t1.5 77t1.5 109t0.5 124.5v131t-0.5 123.5
t-0.5 91v34.5l71 -9l-1 -26.5t-2 -69.5t-2.5 -93t-2.5 -97.5t-1 -82.5t0.5 -79t1.5 -88t1.5 -81.5t1 -60l0.5 -22.5z" />
    <glyph glyph-name="C" unicode="C" horiz-adv-x="353" 
d="M190 -10q-43 0 -71 13.5t-43.5 40t-23.5 66.5q-5 29 -7.5 64t-2.5 77v89q0 34 0.5 68.5t2.5 66.5t6.5 61.5t11.5 55.5q9 33 26 57.5t44 38t65 13.5q47 0 74.5 -23.5t38.5 -64.5t11 -92q1 -40 -3 -83t-11 -86l-62 1q3 25 6.5 52.5t5 56.5t1.5 56q0 35 -5.5 63t-19.5 44.5
t-38 16.5q-29 0 -46.5 -20t-26.5 -55q-5 -21 -8.5 -46t-5 -53t-2 -56t-0.5 -54v-121t3 -91q6 -48 24 -72.5t58 -24.5q26 0 38.5 15.5t17.5 39.5t5 49q0 14 -0.5 27.5t-1.5 25.5l60 2q2 -13 3 -28.5t1 -29.5q0 -41 -12.5 -77.5t-39.5 -59.5t-73 -23z" />
    <glyph glyph-name="D" unicode="D" horiz-adv-x="381" 
d="M183 -10q-29 0 -48 0.5t-35 2.5t-36 4l45 63q8 -2 19.5 -4t24.5 -2.5t28 -0.5q26 0 44.5 14.5t30 48t16.5 92t5 146.5q0 70 -3 125t-13 93.5t-30 58.5t-54 20t-56.5 -3t-36.5 -8l-23 62q24 2 50.5 4t61.5 2q52 0 85 -19t50.5 -60t24.5 -107.5t7 -162.5q0 -60 -2.5 -115
t-10.5 -101t-25 -80.5t-46.5 -53.5t-72.5 -19zM64 -3q1 42 2 104t1.5 131t0.5 131q0 63 -1 127.5t-2.5 120t-3.5 91.5l70 -10q0 -23 -0.5 -54t-1 -67t-0.5 -73t-0.5 -72.5t-0.5 -64.5v-59.5t0.5 -74t1 -80.5t1 -79.5t1.5 -70.5h-68z" />
    <glyph glyph-name="E" unicode="E" horiz-adv-x="340" 
d="M61 -5l0.5 24.5t0.5 65.5v92.5t0.5 107t0.5 106.5q0 64 -0.5 120t-0.5 98t-0.5 66l-0.5 24l70 -9l-0.5 -19.5t-0.5 -51.5t-0.5 -71.5t-1 -79.5t-0.5 -75t0.5 -84.5t1 -102t1 -98.5t1 -74.5l0.5 -28.5zM61 -5l44 67l204 -5v-57zM100 205v64l206 -3l-2 -57zM93 629l-32 70
l236 -6v-63z" />
    <glyph glyph-name="F" unicode="F" horiz-adv-x="328" 
d="M61 -3l0.5 26.5t1 72.5t1 105t0.5 123t-0.5 131.5t-0.5 125t-0.5 93l-0.5 35.5l70 -10l-0.5 -27.5t-1 -71.5t-1 -95.5t-1 -99.5t-0.5 -83t0.5 -77.5t1 -85.5t1 -79t1 -58l0.5 -22zM102 243v64l198 -2l2 -53zM105 642l-43 67l234 -7l-3 -58z" />
    <glyph glyph-name="G" unicode="G" horiz-adv-x="357" 
d="M42 347v76t1 64t4 53.5t7 46.5q13 56 43.5 89.5t91.5 33.5q50 0 77 -23.5t38 -62t11 -87.5q0 -35 -3 -73.5t-8 -77.5h-63q5 34 9.5 71.5t4.5 72.5t-6.5 62t-21 43t-39.5 16q-31 0 -48 -22t-25 -59q-5 -24 -6.5 -46.5t-2 -48t0 -58t0.5 -75.5q0 -37 0.5 -72t1.5 -63t3 -46
q5 -51 23 -80.5t58 -29.5q25 0 39.5 16.5t20 42t5.5 52.5v19t-1 19l-68 -2v58l126 -2l6 -254h-26l-18 45q-15 -22 -42 -37t-57 -15q-37 0 -62 15t-39.5 42.5t-22.5 63.5q-5 29 -7.5 64t-3.5 77.5t-1 91.5z" />
    <glyph glyph-name="H" unicode="H" horiz-adv-x="407" 
d="M273 0l0.5 28t2 72.5t2.5 96.5t1.5 100.5t0.5 83.5t-0.5 78t-1 86.5t-1 80t-0.5 58.5v22l70 2l-1.5 -26.5t-2.5 -72t-2 -104t-1 -122.5t0.5 -131.5t1.5 -124.5t1.5 -92l0.5 -35h-71zM101 247l214 7v-64l-214 4v53zM64 2l0.5 30.5t1.5 81.5t1.5 113t0.5 126t-1.5 125
t-2.5 109.5t-2 77.5l-1 29l70 4l-0.5 -24.5t-1 -64t-0.5 -86t-0.5 -91.5t-0.5 -80t0.5 -80.5t1 -92.5t1 -87t1 -64.5l0.5 -24.5z" />
    <glyph glyph-name="I" unicode="I" horiz-adv-x="198" 
d="M64 699l74 2l-1 -27t-2.5 -70t-3 -93.5t-2 -98t-0.5 -82.5v-79t1 -88t1.5 -81.5t1 -60l0.5 -22.5l-73 2l0.5 17.5t1 48.5t1.5 72t1.5 89.5t0.5 99.5v119v110.5v88.5t-1 53z" />
    <glyph glyph-name="J" unicode="J" horiz-adv-x="337" 
d="M150 -10q-52 0 -78.5 24t-35.5 60t-9 71q0 50 2.5 83t4.5 71l64 -1q-4 -40 -5.5 -66t-2 -46t-0.5 -40q0 -26 4.5 -48t17 -36t40.5 -14q19 0 31.5 7t20 22t10.5 41t3 64v39v54t-0.5 61t-0.5 60v63t-1 79.5t-1.5 83t-2.5 73.5l71 2q-1 -70 -1.5 -148.5t-0.5 -146.5v-74.5
v-81.5v-76q0 -37 -6 -70t-20.5 -57.5t-39.5 -38.5t-64 -14z" />
    <glyph glyph-name="K" unicode="K" horiz-adv-x="359" 
d="M275 1q-21 44 -48 91.5t-56 95.5t-59 93q24 58 48.5 117.5t47.5 116t42 104.5t32 83l75 2q-15 -30 -33 -70t-38 -85l-40 -90t-37 -86t-28 -72q19 -35 41.5 -72t45 -74.5t47 -75t49.5 -74.5zM61 0l0.5 23t1.5 61t1.5 85t1 95.5t0.5 91.5q0 54 -0.5 114t-0.5 113t-0.5 86.5
l-0.5 33.5l72 -1l-0.5 -21.5t-1.5 -58t-2 -81.5t-1.5 -92.5t-0.5 -91.5q0 -43 0.5 -92t1 -96t1 -85t1 -61l0.5 -23h-73z" />
    <glyph glyph-name="L" unicode="L" horiz-adv-x="310" 
d="M61 -5l0.5 35.5t1 93.5t1 125.5t0.5 131.5t-0.5 121.5t-1 102t-1 70l-0.5 25.5l73 6l-0.5 -22t-1.5 -58t-2.5 -79t-2 -86t-0.5 -78t0.5 -83.5t1 -100t1 -95.5t1 -71.5l0.5 -27.5zM61 -5l44 68l204 -3v-57z" />
    <glyph glyph-name="M" unicode="M" horiz-adv-x="542" 
d="M61 -1l0.5 30t1.5 80.5t1.5 113t0.5 126.5t-0.5 126.5t-1 114t-1 82l-0.5 30.5l93 2l5 -30.5t14 -82t19.5 -114.5t21.5 -128q5 -31 12 -69.5t15 -79.5t15 -78t12 -65q5 27 11.5 64.5t14 79.5t15 81.5t12.5 70.5q7 43 14.5 86t14.5 86t14.5 86t14.5 86h101l-0.5 -26
t-1 -70.5t-1 -102.5t-0.5 -122t0.5 -130.5t1.5 -122.5t1.5 -90.5l0.5 -34.5l-66 2v23.5t0.5 61.5t0.5 83.5t0.5 90t0.5 80.5v55v60.5t-0.5 66.5t-0.5 66q-5 -30 -12 -64.5t-13.5 -71t-13.5 -74.5l-24 -132t-22.5 -119.5t-17 -86l-6.5 -32.5l-79 3l-6.5 32t-17.5 86t-24 120
t-25 133q-6 37 -12.5 72t-12.5 68t-12 63q0 -36 0.5 -72t0.5 -72.5v-72.5q0 -35 0.5 -82.5t1 -97t0.5 -92.5t0.5 -69.5l0.5 -26.5h-62z" />
    <glyph glyph-name="N" unicode="N" horiz-adv-x="416" 
d="M61 704h90l6 -27t18 -74t27 -107.5t31 -126.5q12 -46 24 -94.5t23 -90t17 -67.5v66.5t-0.5 73.5t-0.5 70v54q0 35 -0.5 79t-0.5 88.5t-0.5 82.5t-1 61l-0.5 23h63l-1 -27.5t-2 -74.5t-2 -106.5t-1 -123.5t0.5 -130t1.5 -121t1.5 -89l0.5 -34l-93 -8l-7 29t-19.5 78.5
t-26.5 110.5t-29 125q-5 22 -12.5 53.5t-16 66t-16.5 67t-14 57.5v-55t0.5 -62t0.5 -62v-55q0 -35 0.5 -81t1 -93.5t0.5 -88.5t0.5 -66l0.5 -25l-60 1l0.5 31t1 82.5t1 114.5t0.5 127t-1 126t-2 112t-2 80z" />
    <glyph glyph-name="O" unicode="O" horiz-adv-x="380" 
d="M183 -5q-43 0 -69.5 17t-41.5 48.5t-22 74.5q-4 31 -6 67t-2 75.5v79.5v53.5t1 53.5t3.5 51t6.5 46q11 66 44.5 105t101.5 39q42 0 68.5 -17.5t41.5 -48.5t21 -74q7 -45 8 -99t1 -111q0 -41 -1 -79.5t-4 -74.5t-10 -68q-13 -62 -45 -100t-96 -38zM186 52q26 0 41.5 15
t24.5 43.5t13 67.5q5 39 5.5 85.5t0.5 96.5q0 49 -0.5 91.5t-2.5 75.5q-3 58 -19 91t-54 33q-39 0 -57.5 -31t-23.5 -84q-2 -19 -3 -41.5t-1.5 -47t-0.5 -50.5v-52q0 -48 -0.5 -92.5t2.5 -83.5q3 -36 11 -62.5t23.5 -40.5t40.5 -14z" />
    <glyph glyph-name="P" unicode="P" horiz-adv-x="348" 
d="M115 211l-4 61q38 0 68 5.5t49 23.5t29 54.5t10 98.5q0 74 -10 118t-31.5 64t-56.5 20q-18 0 -32 -0.5t-26.5 -2t-26.5 -3.5l-22 60q16 1 32.5 1.5t36 1t42.5 0.5q53 0 88 -23t52 -78.5t17 -154.5q0 -98 -25.5 -151.5t-73.5 -74t-116 -20.5zM61 -6q1 42 2 103t1.5 129.5
t0.5 130.5q0 63 -0.5 129.5t-1 125.5t-1.5 98l73 -7q-1 -27 -1.5 -61t-1.5 -71t-1.5 -74.5t-1 -73t-0.5 -64.5v-59.5t0.5 -74t1 -80t1 -78t1.5 -69.5z" />
    <glyph glyph-name="Q" unicode="Q" horiz-adv-x="380" 
d="M183 -5q-43 0 -69.5 17t-41.5 48.5t-22 74.5q-4 31 -6 67t-2 75.5v79.5v53.5t1 53.5t3.5 51t6.5 46q11 66 44.5 105t101.5 39q42 0 68.5 -17.5t41.5 -48.5t21 -74q7 -45 8 -99t1 -111q0 -41 -1 -79.5t-4 -74.5t-10 -68q-13 -62 -45 -100t-96 -38zM186 52q26 0 42 14.5
t25 43t13 67.5q3 26 4 55.5t1 62v65.5q0 49 -0.5 91.5t-2.5 75.5q-3 58 -19 91t-54 33q-39 0 -57.5 -31t-23.5 -84q-2 -19 -3 -41.5t-1.5 -47t-0.5 -50.5v-52q0 -31 -0.5 -62t0 -59.5t2.5 -54.5q5 -55 21 -86t54 -31zM311 -69l-142 173l33 34l158 -163z" />
    <glyph glyph-name="R" unicode="R" horiz-adv-x="376" 
d="M114 219l-4 62q37 0 66.5 5.5t49 23t30 54t10.5 98.5q0 68 -10 109.5t-31.5 60.5t-56.5 19q-28 0 -46 -1.5t-38 -5.5l-23 61q17 1 33.5 1.5t35.5 1t43 0.5q52 0 87 -22t52 -74.5t17 -145.5q0 -98 -26 -152t-74 -74.5t-115 -20.5zM61 -6q1 40 2 100t1.5 128t0.5 130
q0 63 -0.5 129.5t-1.5 125.5t-2 98l73 -7q-1 -29 -2 -65t-1.5 -74t-1 -75.5t-1 -70.5t-0.5 -59q0 -32 0.5 -76.5t1 -94t1 -97.5t1.5 -86zM276 -6q-19 68 -43.5 136t-54.5 141l61 30q24 -73 54 -148.5t67 -155.5z" />
    <glyph glyph-name="S" unicode="S" horiz-adv-x="345" 
d="M170 -10q-39 0 -65 11.5t-42.5 32t-23.5 49t-7 62.5q0 17 1.5 35t4.5 37h60q-1 -17 -2 -33t-1 -31q0 -32 6 -56t21.5 -37t43.5 -13t46.5 10.5t27.5 30t9 46.5q0 25 -9 45t-25 38t-39 38t-50 45q-28 24 -46 48t-29 50t-15.5 56.5t-4.5 67.5q0 63 19.5 103t51.5 59.5
t70 19.5q55 0 86 -24.5t44 -68t13 -99.5q0 -20 -1 -40t-2.5 -38.5t-3.5 -39.5h-66q3 33 5 62.5t2 56.5q0 39 -6.5 68.5t-22.5 46.5t-44 17q-22 0 -37 -8.5t-24.5 -25.5t-14 -42t-4.5 -59q0 -38 10 -68.5t28 -54.5t41 -44q17 -15 40.5 -34.5t46.5 -44t38 -55t15 -68.5
q0 -51 -18.5 -84.5t-51 -50t-75.5 -16.5z" />
    <glyph glyph-name="T" unicode="T" horiz-adv-x="317" 
d="M116 2q1 15 2 48.5t2.5 77t2.5 90t1.5 89.5t0.5 74q0 44 -1 96.5t-1.5 99.5t-1.5 77.5l-1 30.5l73 -1l-0.5 -16t-1 -44.5t-1 -67.5t-1 -86t-0.5 -98t0.5 -104t1.5 -101t1.5 -86t1 -60l0.5 -22zM0 634l3 67h14.5t36 0.5t45.5 0.5h42h37t45 0.5t44 1t34 0.5h13l3 -62h-12
t-31 -0.5t-41 -1t-43 -0.5h-36t-35 -1t-40.5 -1.5t-38.5 -1.5t-29 -1.5z" />
    <glyph glyph-name="U" unicode="U" horiz-adv-x="388" 
d="M197 -10q-37 0 -63 11.5t-43.5 34.5t-26 55.5t-8.5 75.5q0 35 0.5 76.5t0.5 83v75.5v95.5t-0.5 101.5t-2.5 97l71 -1q-1 -33 -2 -74t-1.5 -83t-1 -79t-0.5 -63q0 -29 -0.5 -60.5t-0.5 -62v-55v-39.5q0 -48 8 -77t25 -42t44 -13q22 0 36 9.5t22.5 26t12 37.5t3.5 46
q0 10 0.5 41t0.5 78.5v108.5q0 64 -1.5 124t-2.5 109t-2 80l69 -1q0 -33 -0.5 -68t-1 -73t-1 -80.5t-0.5 -92.5q1 -85 1 -142.5v-80.5q0 -32 -5.5 -63.5t-20 -57.5t-41 -42t-68.5 -16z" />
    <glyph glyph-name="V" unicode="V" horiz-adv-x="366" 
d="M18 712l76 1q8 -65 15.5 -125t15.5 -116.5t15 -109.5q8 -49 15 -98.5t14.5 -97.5t15.5 -96q7 45 14.5 91.5t14.5 95t14 97.5q6 45 12.5 90l13 90t12.5 87.5t11 83.5l71 3q-6 -37 -14 -79.5t-16.5 -90.5t-17 -99t-16.5 -104l-14 -86t-13.5 -85.5t-12 -83.5t-10.5 -80
l-99 3q-6 40 -12 81t-13 83.5t-13.5 85.5t-14.5 86q-8 52 -16.5 101.5t-16.5 96.5t-16 91t-15 84z" />
    <glyph glyph-name="W" unicode="W" horiz-adv-x="603" 
d="M228 0h-108q-4 36 -11.5 92.5t-16 123t-17.5 131.5q-7 49 -14.5 99.5t-15.5 98t-15 88t-12 68.5h76q7 -57 14.5 -114.5t14.5 -114.5t14 -115q3 -28 8 -67t10 -80.5t10.5 -79t9.5 -63.5q5 24 10 55t11 69t12 80t12 86q8 54 15.5 110t14.5 104t11 79l83 1q5 -26 11.5 -72.5
t14.5 -105t15 -122.5q4 -28 9 -66t11.5 -78t12.5 -76t10 -62q6 31 12 74.5t12.5 96.5t14.5 111q8 54 16.5 121t17 131t13.5 110l71 1q-6 -31 -13 -75t-15.5 -94.5t-16.5 -102.5t-15 -100q-10 -65 -18.5 -130.5t-15.5 -120.5t-11 -91l-107 1q-4 26 -10 63.5t-13 83t-14 95.5
t-12 99q-3 24 -7.5 61t-9 74.5t-7.5 60.5q-3 -22 -7.5 -59t-8.5 -73.5t-7 -58.5q-7 -48 -14 -98t-13.5 -96.5t-12 -86t-9.5 -66.5z" />
    <glyph glyph-name="X" unicode="X" horiz-adv-x="343" 
d="M-5 -2l13 31.5t34 83.5t46 116t50 130q23 63 44 122.5t37.5 107t26.5 75.5l10 28l76 -1l-13 -29t-34 -77.5t-45.5 -109.5t-48.5 -125q-25 -66 -46.5 -128.5t-38 -112.5t-26 -80l-9.5 -30zM267 -6l-9.5 30t-25.5 81t-36.5 113.5t-43.5 127.5q-23 64 -46.5 125t-43 110.5
t-31.5 79l-12 29.5l80 -2l8.5 -26t23 -71t34 -102t41.5 -120q18 -52 38 -105t38 -101t33 -85.5t24 -59.5l9 -22z" />
    <glyph glyph-name="Y" unicode="Y" horiz-adv-x="313" 
d="M118 0l1.5 56t-0.5 177l62 -9q1 -41 2 -81t2 -72t1.5 -51l0.5 -19zM-6 704h81q6 -35 12 -75t14 -82.5t16 -90.5q6 -27 11.5 -56t12 -60t13.5 -63q7 29 13.5 59l13 60t12.5 59q6 30 12.5 61t12 62t11.5 60.5t11 57.5l79 2q-6 -25 -14.5 -55t-16.5 -63t-17 -67.5t-18 -71.5
q-9 -39 -19 -79t-19 -78t-17.5 -74.5t-15.5 -68.5h-60q-7 35 -14.5 71t-15.5 73t-15.5 73t-16.5 72q-8 37 -16.5 73t-16.5 70.5t-16.5 67t-16.5 63.5z" />
    <glyph glyph-name="Z" unicode="Z" horiz-adv-x="309" 
d="M32 693q10 -1 25 -1.5t32.5 -0.5t36.5 0.5t36 0.5q27 1 46 1.5t36.5 1t39.5 0.5l2 -65q-20 -56 -38.5 -107.5t-36 -101t-34.5 -97.5q-14 -43 -28.5 -86t-28.5 -86.5t-29 -89.5h29h27h24q22 1 41.5 1.5t38.5 1t41 0.5l-3 -65q-18 0 -34.5 0.5t-32.5 1t-32.5 1t-34.5 0.5
q-25 0 -48.5 -0.5t-43 -0.5t-31.5 -0.5l-12 -0.5l-3 61q24 67 50.5 141.5t50.5 149.5q26 77 49.5 148.5t41.5 130.5q-11 0 -21.5 0.5t-21 0.5h-22.5q-21 0 -41.5 -0.5t-37 -1t-26.5 -1l-10 -0.5z" />
    <glyph glyph-name="bracketleft" unicode="[" horiz-adv-x="335" 
d="M74 -137l1 26t3 71t3.5 102.5t2.5 119.5t1 122q0 75 -0.5 144.5t-1.5 124t-1.5 86.5l-0.5 32l62 -20v-23.5v-62.5v-86v-95v-89v-98v-117.5v-112.5v-84.5v-32.5zM74 -137l25 66q15 -1 35.5 -1.5t42.5 -1t41 -1t30.5 -0.5h11.5l-3 -55l-14 -0.5t-36 -1.5t-47 -2t-48 -1.5
t-38 -1.5zM108 631l-27 60h36t45.5 0.5t44.5 1t34 0.5h13l7 -60h-11t-28.5 -0.5t-38 -0.5t-40.5 -0.5t-35 -0.5z" />
    <glyph glyph-name="backslash" unicode="\" horiz-adv-x="273" 
d="M251 -1l-67 1q-7 36 -15.5 74.5t-18.5 80t-20.5 88t-22.5 97.5q-9 41 -18 78t-17.5 71.5t-17 68.5t-16.5 68t-16 69l68 2q6 -38 12 -72.5t12.5 -68t14 -67.5t16 -71t18.5 -79q12 -51 22.5 -96.5t21 -87t21.5 -80.5t23 -76z" />
    <glyph glyph-name="bracketright" unicode="]" horiz-adv-x="335" 
d="M255 -135l-62 20v89.5v88.5v88.5v89.5v88.5v89.5v89.5v89v88.5l69 7q-1 -55 -2.5 -110t-3 -110.5t-2.5 -110.5t-3 -110q0 -48 0.5 -96.5t1.5 -97t1.5 -97t0.5 -96.5zM82 -137l-7 60q15 0 30.5 0.5t31 0.5h30.5t30.5 0.5t30.5 0.5l27 -60q-17 0 -34.5 -0.5t-35 -0.5h-34.5
t-34.5 -0.5t-34.5 -0.5zM76 632l3 55q17 1 37.5 1.5t41.5 1.5t40.5 1.5t36 1.5t27.5 1l-25 -66q-16 0 -32 0.5t-32.5 1t-33.5 1t-32.5 1t-30.5 0.5z" />
    <glyph glyph-name="asciicircum" unicode="^" horiz-adv-x="472" 
d="M327 370l-9 23l-22.5 57.5t-27.5 67.5q-10 26 -23 56t-25 57t-20 44.5l-8 17.5l64 4l6 -13t16 -34.5t21.5 -46.5t22.5 -48q11 -22 25 -53t28 -60.5t23 -49l9 -19.5zM140 373l-75 3l6.5 15.5t17 40.5t22 53t20.5 53q14 35 28 70.5t23.5 60l9.5 24.5l64 4l-6.5 -17
t-16.5 -43.5t-20.5 -55.5t-18.5 -53q-8 -23 -17.5 -50t-18 -51t-13.5 -39z" />
    <glyph glyph-name="underscore" unicode="_" horiz-adv-x="336" 
d="M37 -111l-1 63l12 -0.5t31 -1t41.5 -1t43.5 0.5q22 0 45.5 1t44 1.5t33.5 1l13 0.5l-7 -62l-11.5 0.5t-30 0.5h-40h-42.5q-19 0 -42 -1t-43.5 -1.5t-33.5 -1z" />
    <glyph glyph-name="grave" unicode="`" horiz-adv-x="212" 
d="M142 621l-8.5 5t-21 12.5t-23.5 13.5q-11 7 -22.5 12t-19 8.5l-7.5 3.5l38 46l14 -12t32 -26l34 -25.5l14 -10.5z" />
    <glyph glyph-name="a" unicode="a" horiz-adv-x="298" 
d="M207 0l-3 208l1 168q1 62 -12.5 83.5t-47.5 21.5q-33 0 -45.5 -25.5t-12.5 -59.5q0 -15 1.5 -31t4.5 -30l-53 -3q-3 17 -5 33t-2 33q0 39 12 68t37.5 46t64.5 17q36 0 57.5 -12.5t33 -33.5t15 -46t2.5 -50l-3 -128l7 -259h-52zM113 -10q-31 0 -51 13.5t-29.5 38
t-9.5 55.5t9 55t24 42.5t33 34t37 30.5q15 13 29.5 25t25.5 26t17.5 30.5t6.5 35.5l27 -7q0 -39 -11.5 -66t-29.5 -46t-38 -35t-38 -33t-29 -38t-11 -52q0 -19 4.5 -31.5t14 -18.5t24.5 -6q28 0 47 22t29 62t10 94l37 71q-1 -62 -8 -116.5t-21.5 -96.5t-38.5 -65.5
t-60 -23.5z" />
    <glyph glyph-name="b" unicode="b" horiz-adv-x="342" 
d="M189 -7q-32 0 -52.5 19t-31.5 50.5t-16 67.5t-6.5 70t-1.5 59l28 -42q0 -51 8 -89t24 -58t38 -20t33.5 13t17 33t7.5 41q3 27 4.5 59t2.5 64t1.5 59.5t-0.5 44.5q-1 26 -4 50t-13.5 39.5t-32.5 15.5q-25 0 -44 -23.5t-30 -63t-11 -87.5l-29 -42q0 22 1.5 50.5t6 59.5
t13 60.5t22 53t33.5 37.5t48 14q34 0 54 -18.5t29.5 -51.5t11.5 -77q2 -35 2.5 -65.5t-0.5 -60t-3 -62t-7 -71.5q-6 -58 -31 -93.5t-72 -35.5zM102 -1l-51 2l0.5 21.5t1 58t1 81.5t1 92.5t0.5 90.5q0 54 -1 113.5t-2.5 111t-2.5 84l-1 32.5l66 5l-0.5 -26.5t-1 -70t-1 -95.5
t-1 -104.5t-0.5 -96.5q0 -21 -0.5 -36t-0.5 -28.5v-30.5z" />
    <glyph glyph-name="c" unicode="c" horiz-adv-x="319" 
d="M161 -13q-47 0 -72 27t-36 71q-9 37 -11 80.5t-2 88.5q0 38 1.5 74t6.5 68q6 40 21 69.5t42 45.5t69 16q40 0 62.5 -19.5t32 -51t9.5 -69.5q0 -27 -3 -52t-6 -48l-56 1q4 22 6.5 45.5t2.5 44.5q0 26 -5 47.5t-17.5 33.5t-33.5 12q-32 0 -47 -21t-20 -60q-4 -27 -5 -62
t-1 -76v-49t1.5 -45t3.5 -39q6 -36 20 -57.5t43 -21.5q26 0 39 11t18 29t5 39q0 12 -0.5 24.5t-1.5 23.5l55 2q1 -10 1.5 -20t0.5 -22q0 -38 -10.5 -69.5t-37.5 -51t-75 -19.5z" />
    <glyph glyph-name="d" unicode="d" horiz-adv-x="342" 
d="M40 258q0 41 2 83t9 78q11 49 35.5 80t71.5 31q19 0 33.5 -6t25 -15t17.5 -20q0 21 -0.5 46.5t-1 53t-1 53.5t-0.5 47l64 4q-2 -71 -3.5 -138.5t-2 -124t-0.5 -95.5v-65.5t0.5 -63t1 -64t1 -67.5t1.5 -75h-55l-3 51q-8 -16 -19.5 -30t-28 -22.5t-38.5 -8.5
q-28 0 -47 11.5t-31 32t-19 48.5q-9 38 -10.5 83.5t-1.5 92.5zM98 254q0 -40 0.5 -73t3.5 -58q5 -38 17.5 -59t39.5 -21q26 0 40.5 22t21.5 52q6 25 9 53.5t3.5 56t0.5 48.5v61t-5 61q-4 34 -18.5 55.5t-45.5 21.5q-19 0 -31.5 -10t-19.5 -28.5t-11 -43.5q-4 -30 -4.5 -66.5
t-0.5 -71.5z" />
    <glyph glyph-name="e" unicode="e" horiz-adv-x="320" 
d="M164 -12q-49 0 -76 23.5t-36 78.5q-5 35 -8.5 77.5t-3.5 89.5q0 30 1.5 61.5t4.5 63.5q8 76 40 111t87 35q43 0 66.5 -23t33 -61t9.5 -84q0 -30 -2.5 -59.5t-4.5 -55.5l-55 51q2 20 3 37.5t1 34.5q0 31 -5 54t-17 36.5t-33 13.5q-35 0 -49 -26.5t-17 -66.5
q-2 -27 -3 -58.5t-1 -64.5q0 -25 0.5 -50.5t2 -48t3.5 -39.5q5 -37 18 -57t47 -20q23 0 36 10.5t18 28t5 36.5q0 13 -1.5 26t-3.5 24h56q2 -14 3.5 -27.5t1.5 -27.5q0 -35 -11.5 -63t-38 -44t-71.5 -16zM61 238l-1 58l215 2v-53h-14.5t-37.5 -1t-51.5 -1.5t-57 -1.5
t-53.5 -3z" />
    <glyph glyph-name="f" unicode="f" horiz-adv-x="234" 
d="M12 462l4 59l12.5 -0.5t32 -0.5t40.5 -0.5t39 -0.5q22 0 41 0.5t33.5 0.5t23 0.5l8.5 0.5l-3 -55h-8h-22t-33 -0.5t-42 -0.5q-19 0 -40.5 -0.5t-41 -1t-32 -1zM196 706q42 0 64.5 -15.5t31.5 -42.5t7 -60l-61 2q3 40 -8.5 53.5t-33.5 13.5q-16 0 -27.5 -10t-17.5 -28.5
t-7 -45.5q-2 -67 -3.5 -118t-2 -94.5t-0.5 -88.5q0 -72 1.5 -134t3 -100l1.5 -38l-69 -3l2 38t3.5 100.5t1.5 134.5v82.5v69v66t1 74.5q0 25 5.5 50t18.5 46.5t34.5 34.5t54.5 13z" />
    <glyph glyph-name="g" unicode="g" horiz-adv-x="334" 
d="M155 -156q-32 0 -56.5 10t-37.5 28.5t-13 42.5q0 4 0.5 9t1.5 10l57 8q-1 -4 -1 -7v-6q0 -15 7 -25t19.5 -14.5t27.5 -4.5q21 0 36.5 12.5t24 35.5t8.5 54q1 16 1 61v106.5v123.5q0 43 0.5 79.5t1.5 66t2 51.5t2 34h63q0 -2 -2 -20t-4.5 -49.5t-4.5 -75t-2 -96.5
q0 -34 0.5 -65.5t0.5 -63.5t0.5 -68.5t0.5 -80.5q0 -34 -8.5 -63t-25.5 -49.5t-42 -32t-57 -11.5zM147 -9q-36 0 -60.5 23t-34.5 71q-7 34 -9.5 76.5t-2.5 85.5q0 27 1 54t3 51.5t5 45.5q8 60 32.5 94.5t75.5 34.5q37 0 59 -26t31.5 -86.5t9.5 -163.5l-27 42q0 57 -5.5 96.5
t-20 59.5t-39.5 20q-22 0 -38.5 -18t-21.5 -68q-4 -39 -6 -75.5t-2 -73.5q0 -20 0.5 -41.5t2.5 -42t4 -40.5q3 -21 9 -34t16 -19.5t26 -6.5q22 0 38 16t26 52.5t11 96.5l27 42q0 -25 -1.5 -59t-6.5 -70t-17 -67.5t-32.5 -50.5t-52.5 -19z" />
    <glyph glyph-name="h" unicode="h" horiz-adv-x="352" 
d="M56 0l0.5 33t1 85.5t1 112.5t0.5 115q0 44 -0.5 92.5t-1 95.5t-0.5 85t-0.5 61l-0.5 23h67l-0.5 -28t-2 -75t-2.5 -101.5t-1.5 -108.5t-0.5 -97q0 -54 1 -106t2 -94.5t2 -67.5l1 -25h-66zM300 0l-67 1q1 22 2.5 44.5t2.5 48.5t1.5 57t0.5 70v71v56v47q0 29 -4 45
t-13 22.5t-24 6.5q-19 0 -38 -18.5t-32 -57.5t-13 -100l-26 -14q0 34 3.5 69t11 66.5t21.5 56t35.5 39t51.5 14.5q27 0 45.5 -12t27.5 -37.5t9 -68.5v-55v-58v-71q0 -43 0.5 -76t1 -59t1.5 -47t2 -40z" />
    <glyph glyph-name="i" unicode="i" horiz-adv-x="177" 
d="M122 0l-69 1q1 22 2.5 48.5t2.5 60t1.5 73t0.5 85.5q0 62 -1 108.5t-2.5 81.5t-3.5 62l66 1q-1 -23 -2 -59.5t-1.5 -84.5t-0.5 -110q0 -46 1 -85t2 -72.5t2 -60.5t2 -49zM117 617l-62 -4l-2 85l67 4z" />
    <glyph glyph-name="j" unicode="j" horiz-adv-x="189" 
d="M10 -156l-2 46q22 0 35 9t19 28t6 50q1 33 1 76.5v100v128.5t-1 125t-2 82.5l-1 29.5l69 -1l-2 -28.5t-4 -81t-2 -125.5v-79v-64.5t-0.5 -55.5t-0.5 -51.5v-52.5q0 -34 -7 -59.5t-21 -42.5t-36 -25.5t-51 -8.5zM67 613l-2 86l67 3l-3 -86z" />
    <glyph glyph-name="k" unicode="k" horiz-adv-x="328" 
d="M265 0q-36 66 -78 134t-86 137q35 58 59.5 100.5t44.5 79t39 74.5l65 -2q-24 -40 -46.5 -78t-46 -78t-51.5 -88q43 -70 84.5 -135.5t91.5 -140.5zM56 0l0.5 23t1.5 61.5t2 85.5t1.5 95.5t0.5 91.5t-0.5 90.5t-1 92.5t-0.5 81t-0.5 57.5l-0.5 21.5l65 -2l-0.5 -21
t-2 -56.5t-2.5 -79.5t-1.5 -91t-0.5 -91t0.5 -93t2 -96t2.5 -85t1.5 -61l0.5 -23z" />
    <glyph glyph-name="l" unicode="l" horiz-adv-x="174" 
d="M57 0q1 23 1.5 62t1 88t0.5 102.5v104.5v85t-0.5 92.5t-1 88.5t-0.5 74l67 1q-1 -31 -3 -72.5t-3.5 -88.5t-2.5 -93t-1 -86q0 -53 1.5 -118t4 -126.5t4.5 -105.5z" />
    <glyph glyph-name="m" unicode="m" horiz-adv-x="511" 
d="M222 1q1 22 2.5 44.5t2.5 48.5t1.5 57t0.5 70v71v56v47q0 29 -4 45t-11.5 22.5t-20.5 6.5q-19 0 -36.5 -18.5t-29.5 -57.5t-12 -100l-28 -14q0 45 5 89t18 79t36.5 56t59.5 21q25 0 40 -10t23 -29.5t11 -47.5t3.5 -64.5t0.5 -79.5t0.5 -86.5t1 -83.5t1.5 -71.5t2 -50.5
h-67zM53 1q2 28 3 56t2 58t1.5 67.5t0.5 85.5q0 49 -0.5 97.5t-1 90t-1.5 64.5l59 3q0 -22 -1 -55.5t-1 -77t1 -97.5v-114.5t1 -96.5t2 -81h-65zM458 0l-67 2q2 30 3.5 61t2.5 69t1 88v71.5v56.5v47q0 29 -3.5 45t-11.5 22.5t-20 6.5q-19 0 -37 -18.5t-30 -57.5t-12 -100
l-27 -14q0 43 4.5 87t17.5 79.5t36 57t61 21.5q26 0 43 -12t26 -37.5t9 -68.5v-55t-0.5 -58t-0.5 -71q0 -57 0.5 -97t2 -69.5t2.5 -55.5z" />
    <glyph glyph-name="n" unicode="n" horiz-adv-x="350" 
d="M298 0l-67 1q1 22 2.5 44.5t2.5 48.5t1.5 57t0.5 70v71v56v47q0 29 -4 45t-13 22.5t-24 6.5q-19 0 -38 -18.5t-32 -57.5t-13 -100l-26 -14q0 34 3 69t11 66.5t22 56t35.5 39t50.5 14.5q28 0 46.5 -12t27.5 -37.5t9 -68.5v-55v-58v-71q0 -43 0.5 -76t1 -59t1.5 -47t2 -40z
M52 1q2 28 3 56t2 58t1.5 67.5t0.5 85.5q0 64 -0.5 122t-1.5 94l-1 36l59 3q0 -22 -1 -55.5t-1 -77t1 -97.5v-114.5t1 -96.5t2 -81h-65z" />
    <glyph glyph-name="o" unicode="o" horiz-adv-x="330" 
d="M161 -10q-57 0 -80 36.5t-33 96.5q-4 26 -6 58.5t-2 65.5q0 28 1.5 57t4.5 55t7 46q13 65 41 95.5t81 30.5q52 0 77.5 -32t31.5 -88q3 -31 5 -64.5t2 -68.5q0 -50 -4.5 -99.5t-13.5 -89.5q-5 -23 -17.5 -46t-35 -38t-59.5 -15zM163 47q35 0 46.5 28t17.5 78q2 16 3 34.5
t1.5 39t0.5 41.5q0 33 -1 63t-3 53q-3 41 -14.5 67.5t-42.5 26.5q-24 0 -36.5 -12t-18 -29.5t-8.5 -36.5q-3 -23 -5.5 -49t-3.5 -52t-1 -51q0 -19 0.5 -37.5t2 -36.5t3.5 -37q5 -44 19 -67t40 -23z" />
    <glyph glyph-name="p" unicode="p" horiz-adv-x="345" 
d="M47 -146l1 22.5t2.5 60t2.5 83t2 90.5t1 83q0 40 -0.5 89t-1 97t-2 85.5t-4.5 54.5l67 2l-1 -55q9 18 20.5 31t27 20t36.5 7q45 0 67.5 -29.5t30.5 -75.5q7 -36 8 -78.5t1 -84.5q0 -28 -0.5 -56t-3 -53.5t-7.5 -48.5q-9 -48 -34 -79t-75 -31q-17 0 -31 6.5t-24 17.5
t-17 26l2 -183zM112 243q0 -62 8 -106.5t24.5 -69t39.5 -24.5q26 0 39.5 19.5t19.5 51.5t6 71v75q0 38 -0.5 74.5t-5.5 63.5q-6 32 -18.5 51t-37.5 19t-41.5 -24t-25 -63.5t-8.5 -88.5v-49z" />
    <glyph glyph-name="q" unicode="q" horiz-adv-x="343" 
d="M40 258q0 44 3 86.5t10 77.5q11 50 36 80t69 30q21 0 35.5 -6t25 -16.5t17.5 -25.5v45l65 2l-1 -23t-2.5 -61t-3.5 -84t-3 -91.5t-1 -84.5t0.5 -83.5t1.5 -89t1.5 -81t1 -58.5l0.5 -22l-67 1l4 190q-7 -15 -18.5 -27t-26 -19t-35.5 -7q-31 0 -52 16.5t-33.5 45
t-18.5 66.5q-4 32 -6 66.5t-2 72.5zM98 262q0 -33 0.5 -62.5t2.5 -56.5q5 -43 18 -69t44 -26q27 0 41.5 25t21.5 61q5 32 6.5 64t1.5 58q0 23 -0.5 48t-2 50.5t-6.5 46.5q-6 33 -19.5 55t-39.5 22q-18 0 -30 -9t-19.5 -25t-11.5 -38q-5 -28 -6 -65.5t-1 -78.5z" />
    <glyph glyph-name="r" unicode="r" horiz-adv-x="290" 
d="M216 249q5 42 9.5 82.5t4.5 74.5t-6.5 54t-25.5 20q-20 0 -39 -23.5t-31 -66t-12 -100.5l-29 -42q1 49 6 92t14.5 79t24 61.5t34.5 40t45 14.5q27 0 43 -15.5t22.5 -44t6.5 -66.5q0 -34 -4 -74t-10 -86h-53zM52 -2q2 27 3.5 53t3 54.5t2 63t0.5 80.5q0 23 -0.5 61.5
t-1 81.5t-1 78.5t-0.5 51.5l59 2q0 -37 -0.5 -76t-0.5 -79v-79v-87.5v-78.5t0.5 -68t0.5 -56z" />
    <glyph glyph-name="s" unicode="s" horiz-adv-x="297" 
d="M150 -10q-39 0 -64.5 15.5t-37 43.5t-11.5 65q0 9 0.5 18t1.5 18h56q-1 -8 -2 -15.5t-1 -17.5q1 -20 6.5 -37.5t18.5 -28.5t35 -11q21 0 34.5 8t20.5 23t7 34q0 25 -14 43t-36 34.5t-46 35.5q-17 13 -31.5 28t-26.5 32.5t-18.5 40.5t-6.5 52q0 52 17 86t44.5 52t61.5 18
q42 0 66 -18.5t34.5 -51.5t10.5 -78q0 -12 -0.5 -25.5t-1.5 -25.5t-3 -26h-57q2 21 3.5 40.5t1.5 37.5q0 39 -11 65.5t-45 26.5q-18 0 -32 -10.5t-22.5 -33t-8.5 -55.5q0 -28 8.5 -47t22.5 -34t31 -29q18 -16 38.5 -30.5t38 -32t28 -39t10.5 -50.5q0 -39 -15.5 -66
t-42.5 -41t-62 -14z" />
    <glyph glyph-name="t" unicode="t" horiz-adv-x="307" 
d="M165 -10q-24 0 -44 6.5t-34 21.5t-21.5 38t-7.5 55q0 31 1.5 80t4.5 109q1 29 2.5 64.5t2.5 73.5t2 72t1.5 60t-0.5 39l69 1q-3 -36 -5.5 -76t-5 -82.5t-5 -82t-4.5 -74.5q-2 -46 -3 -83.5t-1 -72.5q0 -34 4 -55t15 -31t31 -10q21 0 32 13t15.5 37.5t4.5 58.5q0 20 -1 38
t-2.5 40t-3.5 51l56 -1q2 -27 3.5 -47t2.5 -39.5t1 -43.5q0 -49 -9 -85t-32.5 -55.5t-68.5 -19.5zM18 461l4 59h6.5t18 -0.5t25.5 -0.5h29.5h30.5t33.5 0.5t38 1t35 0.5t25.5 0.5l10 0.5l-4 -52h-8t-21 -0.5t-29.5 -1t-33.5 -1t-32 -0.5q-19 0 -40.5 -1t-41.5 -2t-33 -2z
" />
    <glyph glyph-name="u" unicode="u" horiz-adv-x="334" 
d="M131 -8q-28 0 -47 15t-28 42.5t-9 66.5q0 33 1 65.5t2 59t1 41.5q1 18 1.5 43t1 55.5t0.5 66v75.5l63 6l-1 -23t-3 -59.5t-3.5 -79t-3.5 -83.5q0 -9 -1 -29.5t-1.5 -46.5t-1 -50.5t-0.5 -41.5q0 -22 3.5 -38.5t12 -25t24.5 -8.5q22 0 38.5 16t27.5 43t17 61t6 72l30 42
q0 -25 -1.5 -60.5t-7.5 -75t-19.5 -73.5t-38.5 -55t-63 -21zM237 0l1 105q-1 33 -3 66.5t-4 67.5q0 30 -0.5 66t-1 75t-1 77t-1.5 72l62 -1q-1 -20 -1.5 -46t-1 -54.5t-0.5 -55.5v-50.5v-37.5q1 -28 1.5 -56.5l1 -57l1 -57t1 -56.5t1.5 -57h-55z" />
    <glyph glyph-name="v" unicode="v" horiz-adv-x="306" 
d="M13 523h71q4 -23 8 -50.5t8.5 -58.5t9.5 -64.5t10 -67.5q6 -36 12 -73t12 -72t10 -66q4 22 8.5 47t9 52t9.5 55t9 55q8 43 15 85.5t13.5 81.5t10.5 71l66 3q-5 -25 -11 -54t-12 -61t-12.5 -65.5t-12.5 -67.5q-9 -51 -18 -101.5t-16 -95.5t-14 -82l-90 3q-4 31 -9.5 64
l-11.5 69t-12.5 73t-13.5 75q-6 32 -12.5 64t-12.5 63t-12 61t-12 57z" />
    <glyph glyph-name="w" unicode="w" horiz-adv-x="483" 
d="M105 -1q-4 29 -11 70.5t-16 92.5t-19 106q-6 35 -11.5 69.5t-12 67.5t-12 62t-10.5 52h67q3 -26 7 -55t8 -60t8.5 -62.5t9.5 -62.5q5 -34 10 -67.5t10 -65t10 -60.5q6 33 11 63.5t10 60t10 58.5q7 38 13 75t12 73.5t11 71.5l70 -1q5 -32 10.5 -67.5t11.5 -73.5t13 -77
q6 -30 10.5 -60t9.5 -59.5t9 -59.5q4 23 8 45l8 44t7 44.5t6 44.5q6 30 11 61.5t10 63.5t10 64.5t9 64.5l59 -1q-6 -32 -11.5 -64t-12 -63.5t-12 -63.5t-10.5 -64q-8 -43 -15.5 -85.5t-15 -86.5t-16.5 -95l-77 2q-5 38 -11.5 81t-13 87.5t-13.5 86.5q-7 39 -12.5 73t-9.5 60
q-4 -31 -10 -64t-12 -69q-7 -42 -15 -85t-15 -86t-13 -84z" />
    <glyph glyph-name="x" unicode="x" horiz-adv-x="282" 
d="M59 -4l-67 2l11 24t29.5 64.5t40.5 91t43 103.5q21 51 39 95t31.5 76.5t21 51l7.5 18.5h64l-10 -21t-27 -57t-37.5 -83t-42.5 -98q-21 -53 -40 -101t-33 -85t-22 -59zM227 -2l-8.5 21.5t-22.5 58.5t-33 84.5t-41 100.5q-22 51 -42 97.5t-37 82t-27 56l-10 20.5l70 3
l7 -18.5t20.5 -51t31.5 -76.5t38 -95q21 -53 42 -103t39 -90t28 -63.5l10 -23.5z" />
    <glyph glyph-name="y" unicode="y" horiz-adv-x="307" 
d="M162 -148l-66 2q9 37 17 74.5t15.5 74t15.5 73t15 71.5t14 68.5t14 65.5q7 41 14.5 81l15 80t14.5 78h66q-7 -32 -14.5 -64.5t-14.5 -64l-14 -63t-13 -61.5q-9 -42 -17.5 -83t-16.5 -82t-15.5 -82.5l-15 -83t-14.5 -84.5zM128 -9q-5 26 -10.5 53t-11.5 55.5t-12 57.5
t-12 57.5t-12 56.5q-8 37 -15.5 71t-15 65t-14.5 58t-12 49l68 3q5 -29 12 -66.5t15.5 -81t18.5 -91.5q6 -28 11.5 -58.5t11.5 -61t12.5 -61t12.5 -59.5z" />
    <glyph glyph-name="z" unicode="z" horiz-adv-x="263" 
d="M60 10l-44 43q15 33 29.5 68.5t29.5 71.5l30 72q17 42 33 82t31 78.5t27 73.5l51 -37q-16 -35 -32 -71.5t-31.5 -73.5t-32.5 -76q-15 -36 -30 -74.5l-30 -77t-31 -79.5zM17 -4l-1 57h12.5t33 -0.5t43.5 -0.5h45q18 0 37 0.5t34 1t25 1l10 0.5v-55h-12h-30h-39h-40
q-22 0 -43 -0.5t-38 -1.5t-27 -1.5zM25 462v54h11h28.5h38h39.5q15 0 32 0.5t33.5 1t26.5 1l10 0.5l3 -57l-14.5 0.5t-35.5 0.5t-40.5 0.5t-30.5 0.5q-18 0 -36.5 -0.5t-32.5 -0.5t-23 -0.5z" />
    <glyph glyph-name="braceleft" unicode="{" horiz-adv-x="405" 
d="M259 -130q-61 0 -86.5 34.5t-25.5 86.5q0 28 5.5 59.5t11 62.5t5.5 58q0 20 -8.5 34t-21.5 22.5t-28.5 12t-29.5 3.5l-7 59q14 0 30.5 4t31 12.5t24 22t9.5 33.5t-5 47t-11 56t-11 56.5t-5 48.5q0 53 23.5 87t84.5 34q23 0 40.5 -7t31.5 -17l-17 -50q-12 9 -24 14t-26 5
q-31 0 -43 -20t-12 -54q0 -13 4.5 -40t11 -60t11 -62.5t4.5 -47.5q0 -34 -22.5 -57.5t-47.5 -28.5q25 -5 48.5 -31t23.5 -60q0 -18 -3 -44.5t-7.5 -55t-7.5 -52.5t-3 -37q0 -34 11.5 -54.5t42.5 -20.5q14 0 29 5.5t28 14.5l13 -49q-14 -10 -31.5 -17t-40.5 -7z" />
    <glyph glyph-name="bar" unicode="|" horiz-adv-x="235" 
d="M152 -136l-69 2l0.5 27t1 72t0.5 100.5t0.5 113.5t0.5 109v107t-0.5 109t-1 95.5t-0.5 68v25.5l67 1l-1 -25t-2 -67.5t-2.5 -95t-2.5 -109t-1 -108.5t1 -110t2.5 -114t3 -101.5t2.5 -72.5z" />
    <glyph glyph-name="braceright" unicode="}" horiz-adv-x="405" 
d="M160 -130q-23 0 -40.5 7t-31.5 17l17 50q12 -9 24 -14t26 -5q31 0 43 20t12 54q0 13 -4.5 40t-11 60t-11 62.5t-4.5 47.5q0 34 22.5 57.5t47.5 28.5q-25 5 -48.5 31t-23.5 60q0 18 3 44.5t7.5 55t7.5 52.5t3 37q0 34 -11.5 54.5t-42.5 20.5q-14 0 -29 -5.5t-28 -14.5
l-13 49q14 10 31.5 17t40.5 7q61 0 86.5 -34t25.5 -87q0 -28 -5.5 -59.5t-11 -62.5t-5.5 -58q0 -20 8.5 -34t21.5 -22.5t28.5 -12t29.5 -3.5l7 -59q-14 0 -30.5 -4t-31 -12.5t-24 -22t-9.5 -33.5t5 -47t11 -56t11 -56.5t5 -48.5q0 -52 -23.5 -86.5t-84.5 -34.5z" />
    <glyph glyph-name="asciitilde" unicode="~" horiz-adv-x="393" 
d="M68 273l-3 51q14 10 31.5 15t33.5 5q25 0 42.5 -4t33.5 -8.5t36 -4.5q30 0 49 8t35 17l2 -53q-10 -7 -30 -15.5t-49 -8.5q-17 0 -37 4t-39 8t-36 4q-11 0 -24.5 -2.5t-25 -6.5t-19.5 -9z" />
    <glyph glyph-name="uni00A0" unicode="&#xa0;" horiz-adv-x="206" 
 />
    <glyph glyph-name="exclamdown" unicode="&#xa1;" horiz-adv-x="251" 
d="M84 -146l0.5 21t1.5 55t2 72t2 73t1 57q1 29 1.5 61.5t1 61.5t0.5 47.5v18.5l61 2l0.5 -25t1.5 -67.5t2 -97.5q1 -41 2.5 -89t3 -91t2.5 -70.5l1 -27.5zM87 423l-4 129l80 5l-7 -135z" />
    <glyph glyph-name="cent" unicode="&#xa2;" horiz-adv-x="384" 
d="M189 27q-49 0 -77.5 28.5t-33.5 83.5q-3 29 -5 56.5t-3 56.5t0 62.5t4 75.5q5 55 22.5 83.5t46 39t65.5 10.5q26 0 49.5 -11.5t39 -39t15.5 -74.5q0 -25 -0.5 -43.5t-1.5 -35.5h-56q1 19 1.5 36t0.5 30q0 29 -5 47t-17 26.5t-34 8.5q-37 0 -51 -19t-18 -72q-2 -25 -3 -52
t-1 -54.5t1 -54.5t3 -51q4 -40 17 -62t47 -22q33 0 47.5 18.5t15.5 40.5v22.5v22.5l55 9q1 -9 1 -19.5v-23.5q0 -28 -11.5 -56t-38.5 -47.5t-75 -19.5zM217 -44l-51 1l1 26t2.5 74t2.5 115.5t1 149.5q0 66 -0.5 114t-0.5 81t-0.5 53t-1 28.5l-0.5 8.5l51 -3l-2 -24.5
t-4.5 -66t-4.5 -94t-2 -108.5t1.5 -117.5t3 -115.5t3 -88z" />
    <glyph glyph-name="sterling" unicode="&#xa3;" horiz-adv-x="415" 
d="M155 52l-85 10q26 0 42 12.5t23.5 32t7.5 39.5q0 69 -9 120.5t-21 93t-21 80t-9 81.5q0 70 18 110.5t48 57.5t66 17q30 0 59 -12t48 -45.5t19 -97.5q0 -30 -3 -57t-8 -47l-58 -1q7 25 9 46.5t2 49.5q0 36 -6.5 60t-20 36.5t-36.5 12.5q-29 0 -46.5 -14t-25.5 -43.5
t-8 -75.5q0 -37 9 -71.5t20 -73t20 -88t9 -117.5q0 -37 -6.5 -61.5t-16.5 -37t-20 -17.5zM81 -4l-11 66h9t24 -0.5t33.5 -1t38.5 -0.5h39q23 0 46.5 0.5t44 1.5t33 2l12.5 1l-6 -66h-8t-21.5 0.5t-30 0.5h-34.5h-35q-22 0 -45.5 -0.5t-43.5 -1.5t-32.5 -1.5zM65 262l3 63
h11.5h29.5h38h37q18 0 36.5 1t34 2t25 1.5l9.5 0.5l-11 -65l-7 0.5t-19.5 1.5t-29 1.5t-35.5 0.5q-18 0 -39.5 -1t-40 -2.5t-30.5 -2.5z" />
    <glyph glyph-name="currency" unicode="&#xa4;" horiz-adv-x="600" 
d="M293 40q-51 0 -87 15.5t-58 45t-32.5 70t-10.5 89.5q0 75 22 133t67.5 91t115.5 33q65 0 108 -27t65 -74.5t22 -111.5q0 -58 -11.5 -106t-36.5 -83.5t-65.5 -55t-98.5 -19.5zM115 4l-54 46l81 91l48 -42zM156 400l-96 101l53 48l78 -97zM298 98q47 0 76 28t42.5 70.5
t13.5 87.5q0 51 -12 90t-39 61t-73 22q-39 0 -64.5 -17t-40 -44t-20.5 -58.5t-6 -60.5q0 -48 12 -89t39 -65.5t72 -24.5zM486 4l-71 92l38 50l87 -96zM455 415l-43 42l74 92l52 -48z" />
    <glyph glyph-name="yen" unicode="&#xa5;" horiz-adv-x="437" 
d="M180 0l2 230q-3 17 -12 56.5t-20.5 90t-22.5 98.5q-11 49 -23 93.5t-22 80t-17 55.5h81q5 -19 11.5 -52.5t15 -77t17.5 -92.5q5 -22 9.5 -42.5t9 -40t8.5 -37.5q4 15 9 33t10.5 39t10.5 44q7 30 13.5 61t13 60t11.5 53.5t8 41.5l79 4q-6 -19 -16.5 -53t-23 -78t-26.5 -93
q-14 -54 -24.5 -96.5t-19 -79t-17.5 -73.5l4 -224zM100 102l3 63h36.5h42h37.5q18 1 37.5 1.5t37.5 1.5t30 2l-11 -65q-8 1 -22.5 2t-32 1.5t-36.5 0.5q-18 0 -40.5 -1t-44 -2.5t-37.5 -3.5zM100 202l3 63h36.5h42h37.5q18 1 37.5 1.5t37.5 1.5t30 2l-11 -65q-8 1 -22.5 2
t-32 1.5t-36.5 0.5q-18 0 -40.5 -1t-44 -2.5t-37.5 -3.5z" />
    <glyph glyph-name="brokenbar" unicode="&#xa6;" horiz-adv-x="235" 
d="M86 351q0 60 -0.5 120.5t-0.5 110.5t-0.5 80.5l-0.5 30.5l67 1l-1 -30.5t-2.5 -80.5t-3 -110.5t-2.5 -121.5h-56zM83 -134q2 33 2.5 81t0.5 108.5v130.5h57q1 -58 2.5 -115t3 -104t2.5 -75l1 -28z" />
    <glyph glyph-name="section" unicode="&#xa7;" horiz-adv-x="347" 
d="M175 702q24 0 48.5 -10t41 -36.5t16.5 -77.5q0 -28 -0.5 -45t-1.5 -31t-3 -33h-61q4 34 5 56t1 46q0 26 -4.5 43.5t-13 27t-21.5 9.5q-17 0 -30 -11t-20 -33t-7 -56q0 -29 7 -51t19 -38.5t26 -31.5q11 -12 28.5 -26.5t35 -33t29.5 -41.5t12 -52t-8 -50.5t-22 -35.5
t-33.5 -21t-42.5 -7l-5 48q12 0 21.5 4t16.5 11.5t11 18.5t4 26q0 26 -11 44t-31 36t-46 43q-19 18 -32.5 36.5t-22 39t-12.5 44t-4 51.5q0 47 16 77.5t41.5 45t52.5 14.5zM172 -110q-23 0 -48 10t-41.5 36.5t-16.5 77.5q0 28 0.5 45t1.5 31t3 33h61q-4 -34 -5 -56t-1 -46
q0 -25 4.5 -43t13 -27.5t21.5 -9.5q18 0 30.5 11t19.5 33t7 56q0 30 -7 51.5t-18.5 38t-26.5 31.5q-11 12 -28.5 26.5t-35 33t-29.5 42t-12 51.5q0 29 8 50.5t22 35.5t33.5 21t42.5 7l5 -48q-12 0 -21.5 -3.5t-16.5 -11t-11 -19t-4 -26.5q0 -25 11 -43t31 -36t46 -44
q26 -24 41.5 -49t22.5 -54.5t7 -67.5q0 -47 -16 -77.5t-41 -45t-53 -14.5z" />
    <glyph glyph-name="dieresis" unicode="&#xa8;" horiz-adv-x="305" 
d="M261 631l-59 -1l-2 86l64 -7zM101 631l-59 -1l-2 86l64 -7z" />
    <glyph glyph-name="copyright" unicode="&#xa9;" horiz-adv-x="608" 
d="M294 68q-64 0 -108.5 25.5t-72 69.5t-40 101t-12.5 120q0 64 14.5 121.5t44.5 102t76.5 70t110.5 25.5q65 0 111 -26t74.5 -71t42 -103t13.5 -122q0 -63 -14.5 -119t-45.5 -100t-79 -69t-115 -25zM300 186q-30 0 -49 20.5t-24 58.5q-4 29 -5.5 56.5t-1.5 60.5
q0 24 1 52.5t3 52.5q5 49 26 71.5t62 22.5q21 0 36 -11t23.5 -30.5t8.5 -46.5q0 -34 -1.5 -53.5t-4.5 -40.5h-48q4 21 5.5 45.5t1.5 39.5q0 19 -2.5 29.5t-8 15.5t-15.5 5q-17 0 -25 -11t-10 -45q-1 -19 -2 -45.5t-1 -52.5q0 -34 1 -58.5t2 -37.5q2 -29 10.5 -40.5
t21.5 -11.5q9 0 15.5 4.5t10.5 12t4 17.5q1 9 0.5 23.5t-1 26.5t-0.5 13l45 1q2 -10 2.5 -24t0.5 -32q0 -27 -10 -46.5t-28.5 -30.5t-42.5 -11zM300 122q53 0 89 21.5t58 59t32 84t10 95.5q0 51 -10 98.5t-31.5 85.5t-57 60.5t-87.5 22.5q-40 0 -70 -14.5t-51.5 -40t-35 -59
t-20 -72t-6.5 -79.5q0 -50 9.5 -97t30 -84t55 -59t85.5 -22z" />
    <glyph glyph-name="ordfeminine" unicode="&#xaa;" horiz-adv-x="345" 
d="M74 521q0 19 9.5 31t24.5 21t33 18q17 9 31.5 14.5t24 11.5t9.5 15q0 14 -8.5 24t-27.5 10q-13 0 -28 -7.5t-15 -29.5l-44 6q0 33 24.5 50.5t62.5 17.5q35 0 53 -12t24.5 -29t5.5 -31l-3 -107q-1 -13 7 -25.5t14 -17.5l-43 -20q-7 5 -12 13.5t-8 16.5q-11 -13 -27 -21.5
t-39 -8.5q-20 0 -35.5 7t-24 20.5t-8.5 32.5zM120 521q0 -10 6.5 -17t18.5 -7q11 0 25 5.5t25.5 17t11.5 30.5l1 35q-7 -5 -16 -10t-19 -10q-26 -13 -39.5 -21t-13.5 -23z" />
    <glyph glyph-name="guillemotleft" unicode="&#xab;" horiz-adv-x="560" 
d="M79 249l-5 64l13.5 11.5t34 28.5t40.5 35q18 18 40 40.5t37.5 38.5l15.5 16l29 -68l-16 -11t-39.5 -28t-46.5 -36q-25 -21 -48.5 -42t-39 -35zM264 106l-14 13t-35.5 32.5t-44.5 37.5q-22 17 -43 30.5t-34.5 21.5l-13.5 8l-5 64q0 1 12.5 -6t31.5 -18.5t39 -24.5t36 -24
q24 -15 45.5 -29t34.5 -22.5l13 -8.5zM279 249l-5 64l13.5 11.5t34 28.5t40.5 35q18 18 39.5 40.5t37.5 38.5l16 16l29 -68l-16 -11t-39.5 -28t-46.5 -36q-25 -21 -48.5 -42t-39 -35zM464 106l-14 13t-35.5 32.5t-44.5 37.5q-22 17 -43 30.5t-34.5 21.5l-13.5 8l-5 64
q0 1 12.5 -6t31.5 -18.5t39 -24.5t36 -24q24 -15 45.5 -29t34.5 -22.5l13 -8.5z" />
    <glyph glyph-name="logicalnot" unicode="&#xac;" horiz-adv-x="537" 
d="M69 313l-4 63l15 -0.5t38.5 -1t50.5 -1t52 -0.5t42 1t43 1.5t54.5 1t53 1t40 1l15.5 0.5l-4 -63h-14.5t-38 0.5t-50 0.5h-50.5h-41q-16 0 -41 -0.5t-52.5 -1t-52.5 -1t-40.5 -1zM409 159l1 15t1.5 40t-0.5 53q0 19 -1 34t-1.5 29t-1.5 28l62 21l-0.5 -14.5t-0.5 -38
v-51.5q0 -26 1 -52t2 -43l1 -17z" />
    <glyph glyph-name="uni00AD" unicode="&#xad;" horiz-adv-x="299" 
d="M54 259l4 62l7.5 -0.5t21 -1t30 -1t34.5 -0.5h34.5t29.5 1t20.5 1.5l7.5 0.5l2 -62l-9 0.5t-24 0.5t-32.5 0.5t-33.5 0.5q-17 0 -33.5 -0.5t-29.5 -0.5t-21 -0.5z" />
    <glyph glyph-name="registered" unicode="&#xae;" horiz-adv-x="470" 
d="M228 229q-48 0 -81 19t-53.5 51.5t-30 75t-9.5 89.5q0 48 11 90.5t33.5 76t57 52.5t81.5 19q49 0 83.5 -19.5t55.5 -53t31 -76.5t10 -91q0 -46 -11 -88t-33.5 -75t-58.5 -51.5t-86 -18.5zM231 274q38 0 64.5 16t43 42.5t24 60.5t7.5 70q0 37 -7 71.5t-23 62t-42 44
t-64 16.5q-36 0 -61.5 -16t-41 -43.5t-23 -62t-7.5 -71.5q0 -36 7 -70t22 -61t40 -43t61 -16zM261 321q-7 23 -14 45t-16 44q-2 0 -4.5 -0.5t-4.5 -0.5q1 -17 2 -37.5t2 -49.5h-44q0 25 0.5 66t0.5 78v58.5v51t-1 33.5q9 1 16 1t14.5 0.5t15.5 0.5q33 0 47.5 -23.5
t14.5 -76.5q0 -32 -6.5 -53.5t-20.5 -33.5q8 -24 18.5 -48.5t23.5 -52.5zM221 443q12 1 20 6.5t11.5 19.5t3.5 40q0 25 -3 40.5t-9.5 22.5t-17.5 7h-2.5h-3.5v-15t-0.5 -22.5t-0.5 -26.5q0 -22 0.5 -43t1.5 -29z" />
    <glyph glyph-name="macron" unicode="&#xaf;" horiz-adv-x="305" 
d="M66 646v53l170 -3l4 -47z" />
    <glyph glyph-name="degree" unicode="&#xb0;" horiz-adv-x="343" 
d="M174 501q-39 0 -61.5 11t-33.5 27t-14 31.5t-3 23.5q0 50 29.5 79.5t79.5 29.5t80 -26.5t30 -67.5q0 -47 -30 -77.5t-77 -30.5zM175 530q25 0 39.5 11t21.5 29.5t7 40.5q0 32 -23.5 47.5t-48.5 15.5q-22 0 -38 -10.5t-24.5 -26.5t-8.5 -34q0 -17 6 -34t22.5 -28t46.5 -11
z" />
    <glyph glyph-name="plusminus" unicode="&#xb1;" horiz-adv-x="395" 
d="M235 218l-70 -4l1 12.5t2 33t1.5 44.5t-0.5 47q0 24 -1 46t-2 39t-1.5 27l-0.5 10l69 4l-1 -9.5t-2.5 -27t-2.5 -40t-1 -48.5q0 -25 1.5 -49t3 -43t3 -30.5zM70 103l-4 63l12 -0.5t31 -1t41.5 -1t43.5 0.5q22 1 45.5 1.5t44 1.5t33.5 1.5l13 0.5l-4 -63l-11.5 0.5
t-30 0.5h-40h-42.5q-19 0 -42 -0.5t-43.5 -1.5t-33.5 -1.5zM65 308l7 63h9h24t33 -0.5t37 -0.5h35q21 0 43 1t40.5 1.5t30 1l11.5 0.5l-16 -65l-8 1t-23 1.5t-34.5 1.5t-42.5 1q-18 0 -38 -0.5t-39 -1.5t-34.5 -2t-25 -1.5z" />
    <glyph glyph-name="uni00B2" unicode="&#xb2;" horiz-adv-x="243" 
d="M93 590l-44 11q24 20 46 39t35.5 40.5t13.5 50.5q0 23 -5.5 31.5t-17.5 8.5q-10 0 -17.5 -7.5t-7.5 -27.5q0 -9 1.5 -17t2.5 -16l-42 -1q-1 8 -2 18t-1 20q0 34 22 50t47 15q29 -1 46 -15.5t17 -46.5t-14.5 -62t-36.5 -53.5t-43 -37.5zM48 563l1 38h8.5t21.5 0.5
t25.5 0.5h20.5q10 1 25.5 1t27.5 0.5l12 0.5l1 -39h-13.5h-30h-27.5q-10 0 -27.5 -0.5t-31 -1z" />
    <glyph glyph-name="uni00B3" unicode="&#xb3;" horiz-adv-x="243" 
d="M118 559q-30 0 -44 12t-18 27.5t-4 26.5l41 1q0 -12 5 -21.5t21 -9.5q14 0 19.5 9t5.5 23q0 17 -11.5 20.5t-23.5 3.5h-7.5h-11h-8.5v32q4 -1 12.5 -1h12.5q9 0 18.5 1.5t16 10t6.5 30.5q0 23 -5 35t-21 12q-13 0 -19 -11.5t-6 -25.5q0 -5 0.5 -11t2.5 -14l-42 -1
q-1 5 -2 13t-1 16q0 32 19 50.5t48 18.5q32 0 50 -16.5t18 -49.5q0 -22 -8.5 -42t-22.5 -31q7 -3 17 -14t10 -31q0 -26 -15 -44.5t-53 -18.5z" />
    <glyph glyph-name="acute" unicode="&#xb4;" horiz-adv-x="212" 
d="M56 613l-23 30l8.5 6t21 15.5t25.5 19.5q12 9 26 21t24 21l10 9l34 -49l-10 -6t-23.5 -13.5t-25.5 -14.5q-11 -6 -24.5 -14t-25 -15t-17.5 -10z" />
    <glyph glyph-name="uni00B5" unicode="&#xb5;" horiz-adv-x="332" 
d="M50 -163q1 22 1.5 54t1.5 69.5t1.5 78t0.5 79.5v52t0.5 75t1 86.5t1 87t1.5 77.5t1 57l63 4q-2 -48 -3.5 -97t-3.5 -98t-4 -97q0 -12 -1 -37.5t-1.5 -54.5t-0.5 -51t3 -38t11.5 -24t24.5 -8q24 0 39 26.5t22.5 77.5t8.5 123q0 39 -0.5 79.5t-1 78t-1 69.5t-0.5 54l62 6
q0 -18 -0.5 -43t-1 -54t-1 -61t-0.5 -65v-65t0.5 -64.5t1 -63.5t1 -59t1 -51.5t1.5 -40.5l-64 -1l1 70q-12 -30 -31 -49.5t-48 -19.5q-9 0 -17 1.5t-15 3.5q1 -52 2 -97.5t2 -68.5z" />
    <glyph glyph-name="paragraph" unicode="&#xb6;" horiz-adv-x="501" 
d="M267 211q-48 0 -85 11t-61.5 38.5t-37.5 75.5t-13 121q0 99 17 154.5t50 78.5t81 23h26.5t24 -0.5l23 -1t23.5 -1.5zM249 -103l0.5 25.5t0.5 68t1 94t1 103.5t0.5 97t0.5 74q0 35 -0.5 80t-1.5 91t-2 85.5t-1.5 63.5l-0.5 24l68 7l-0.5 -30.5t-1 -82t-1 -114t-0.5 -126.5
q0 -51 0.5 -112.5t1 -122t1 -111t1 -81l0.5 -30.5zM364 -103l0.5 25.5t0.5 68t1 94t1 103.5t0.5 97t0.5 74q0 35 -0.5 80t-1.5 91t-2 85.5t-1.5 63.5l-0.5 24l68 7l-0.5 -30.5t-1 -82t-1 -114t-0.5 -126.5q0 -51 0.5 -112.5t1 -122t1 -111t1 -81l0.5 -30.5z" />
    <glyph glyph-name="periodcentered" unicode="&#xb7;" horiz-adv-x="246" 
d="M163 237l-76 2l-4 128l78 5z" />
    <glyph glyph-name="cedilla" unicode="&#xb8;" horiz-adv-x="305" 
d="M115 -162q-10 0 -21.5 0.5t-22.5 1.5l8 45q6 -1 14 -2.5t17 -2t18 -0.5q22 0 39 4.5t17 16.5q0 11 -15.5 17t-56.5 6l11 37q60 2 85 -15.5t25 -43.5q0 -24 -17 -38t-43.5 -20t-57.5 -6zM165 0l-17 -76h-36l17 76h36z" />
    <glyph glyph-name="uni00B9" unicode="&#xb9;" horiz-adv-x="243" 
d="M114 567q2 27 2.5 58.5t0.5 63.5t-1 62l25 50h23q-2 -40 -2.5 -79t0 -77.5t1.5 -77.5h-49zM62 727l-3 29q13 3 28 9.5t29.5 16t24.5 19.5l-4 -59q-10 -4 -23 -7.5t-26 -5.5t-26 -2z" />
    <glyph glyph-name="ordmasculine" unicode="&#xba;" horiz-adv-x="330" 
d="M163 469q-28 0 -48 13t-30.5 40t-10.5 68q0 38 11 63t32 37.5t51 12.5q34 0 53 -14t27 -39t8 -60q0 -38 -9.5 -65t-29.5 -41.5t-54 -14.5zM163 514q21 0 31 11t13 29.5t3 38.5q0 40 -11.5 54t-31.5 14q-25 0 -36 -17.5t-11 -54.5q0 -40 12 -57.5t31 -17.5z" />
    <glyph glyph-name="guillemotright" unicode="&#xbb;" horiz-adv-x="560" 
d="M486 276l-30 18t-29.5 18.5t-29.5 18.5l-30 18q-23 15 -46.5 30t-46.5 30l22 74q23 -21 47 -41.5t47 -41.5l46 -30t45 -30zM286 276l-30 18t-29.5 18.5t-29.5 18.5l-30 18q-23 15 -46.5 30t-46.5 30l22 74q23 -21 47 -41.5t47 -41.5l46 -30t45 -30zM305 106l-29 68
q26 19 51.5 37.5t50.5 37.5l52 46t51 45l5 -64q-22 -19 -44 -37.5t-44 -37.5q-23 -24 -46.5 -47.5t-46.5 -47.5zM105 106l-29 68q26 19 51.5 37.5t50.5 37.5l52 46t51 45l5 -64q-22 -19 -44 -37.5t-44 -37.5q-23 -24 -46.5 -47.5t-46.5 -47.5z" />
    <glyph glyph-name="onequarter" unicode="&#xbc;" horiz-adv-x="554" 
d="M84 -1q15 32 35 74.5t42 89.5t43 92.5t38 83.5q18 40 38.5 88t41 97t39 94t31.5 79l68 -2q-16 -34 -36.5 -78.5t-42.5 -93.5t-43.5 -96.5t-39.5 -86.5q-22 -50 -49.5 -113t-53 -123t-44.5 -104zM152 461q2 25 2.5 53t0.5 57.5t-1 57.5q-13 -4 -26.5 -6t-27.5 -2l-3 29
q13 3 28.5 9.5t29.5 16t24 19.5h23q-2 -40 -2.5 -79t0 -77.5t1.5 -77.5h-49zM380 -1l1 50l-83 -1l-5 41l29 77q7 17 13 35t13 35l77 -1q0 -22 -0.5 -43.5t-0.5 -43.5v-58l24 1v-42h-24l1 -49zM337 88h44l-1 123z" />
    <glyph glyph-name="onehalf" unicode="&#xbd;" horiz-adv-x="554" 
d="M84 -1q15 32 35 74.5t42 89.5t43 92.5t38 83.5q18 40 38.5 88t41 97t39 94t31.5 79l68 -2q-16 -34 -36.5 -78.5t-42.5 -93.5t-43.5 -96.5t-39.5 -86.5q-22 -50 -49.5 -113t-53 -123t-44.5 -104zM310 -2l1 38q24 20 45.5 39t35.5 40.5t14 50.5q0 23 -5.5 31.5t-17.5 8.5
q-10 0 -17.5 -7.5t-7.5 -27.5q0 -9 1.5 -17t2.5 -16l-42 -1q-1 8 -2 18t-1 20q0 34 22 50t47 15q29 -1 46 -15.5t17 -46.5q0 -28 -11.5 -54.5t-29.5 -48.5t-37 -38q13 1 28 1t29 0.5t24 0.5l1 -39h-71q-7 0 -20 -0.5t-27 -1t-25 -0.5zM152 461q2 25 2.5 53t0.5 57.5t-1 57.5
q-13 -4 -26.5 -6t-27.5 -2l-3 29q13 3 28.5 9.5t29.5 16t24 19.5h23q-2 -40 -2.5 -79t0 -77.5t1.5 -77.5h-49z" />
    <glyph glyph-name="threequarters" unicode="&#xbe;" horiz-adv-x="554" 
d="M84 -1q15 32 35 74.5t42 89.5t43 92.5t38 83.5q18 40 38.5 88t41 97t39 94t31.5 79l68 -2q-16 -34 -36.5 -78.5t-42.5 -93.5t-43.5 -96.5t-39.5 -86.5q-22 -50 -49.5 -113t-53 -123t-44.5 -104zM153 453q-31 0 -44.5 12t-17.5 27.5t-4 26.5l41 1q0 -12 5 -21.5t21 -9.5
q14 0 19.5 9t5.5 23q0 17 -11.5 20.5t-23.5 3.5h-7.5h-11h-8.5v32q4 -1 12.5 -1h12.5q9 0 18.5 1.5t16 10t6.5 30.5q0 23 -5 35t-21 12q-13 0 -19 -11.5t-6 -25.5q0 -5 0.5 -11t2.5 -14l-42 -1q-1 5 -2 13t-1 16q0 32 19 50.5t48 18.5q32 0 50 -16.5t18 -49.5
q0 -22 -8.5 -42t-22.5 -31q7 -3 17 -14t10 -31q0 -26 -15 -44.5t-53 -18.5zM380 -1l1 50l-83 -1l-5 41l29 77q7 17 13 35t13 35l77 -1q0 -22 -0.5 -43.5t-0.5 -43.5v-58l24 1v-42h-24l1 -49zM337 88h44l-1 123z" />
    <glyph glyph-name="questiondown" unicode="&#xbf;" horiz-adv-x="413" 
d="M177 347h66q2 -11 3.5 -31.5t1.5 -39.5q0 -36 -11 -58t-27.5 -39t-32.5 -37q-10 -13 -19 -30.5t-14.5 -40.5t-5.5 -55q0 -21 5.5 -47.5t21 -46.5t45.5 -20q21 0 35 10t21.5 32.5t7.5 61.5q0 27 -2.5 50t-5.5 36l64 1q3 -16 6 -41.5t3 -55.5q0 -51 -12.5 -81.5t-32.5 -46
t-43.5 -21t-46.5 -5.5q-42 0 -71 23t-44 62t-15 86q0 48 8 79t20.5 51t25.5 34q14 15 26.5 28.5t20.5 30.5t8 44q0 20 -0.5 34t-5.5 33zM251 561l-6 -131l-65 -2l-9 127z" />
    <glyph glyph-name="Agrave" unicode="&#xc0;" horiz-adv-x="340" 
d="M259 -6q-8 61 -16 121t-16 118.5t-16 114.5q-6 40 -11.5 79t-11 76t-11 72t-11.5 67l-49 60l108 2q5 -40 10 -82t11 -85t13 -87.5t14 -88.5q10 -61 20 -123.5t21 -122.5t21 -116zM68 164v64l196 -4v-53zM76 5l-70 1q8 43 17.5 99.5t20.5 120.5t21 128q11 67 21 131.5
t18 120.5t13 96l108 2l-53 -68q-7 -40 -14.5 -86t-15.5 -95.5t-16 -102.5q-8 -57 -17 -116.5t-17.5 -117.5t-15.5 -113zM196 744l-8.5 5t-21 12.5t-23.5 13.5q-11 7 -22.5 12t-19 8.5l-7.5 3.5l38 46l14 -12t32 -26l34 -25.5l14 -10.5z" />
    <glyph glyph-name="Aacute" unicode="&#xc1;" horiz-adv-x="340" 
d="M259 -6q-8 61 -16 121t-16 118.5t-16 114.5q-6 40 -11.5 79t-11 76t-11 72t-11.5 67l-49 60l108 2q5 -40 10 -82t11 -85t13 -87.5t14 -88.5q10 -61 20 -123.5t21 -122.5t21 -116zM68 164v64l196 -4v-53zM76 5l-70 1q8 43 17.5 99.5t20.5 120.5t21 128q11 67 21 131.5
t18 120.5t13 96l108 2l-53 -68q-7 -40 -14.5 -86t-15.5 -95.5t-16 -102.5q-8 -57 -17 -116.5t-17.5 -117.5t-15.5 -113zM132 736l-23 30q9 7 25 18.5t30 22.5q9 7 20 16t22 18.5t18 16.5l34 -49q-7 -4 -18 -10.5t-21.5 -12.5t-19.5 -11q-11 -6 -24.5 -14t-25 -15t-17.5 -10z
" />
    <glyph glyph-name="Acircumflex" unicode="&#xc2;" horiz-adv-x="340" 
d="M259 -6q-8 61 -16 121t-16 118.5t-16 114.5q-6 40 -11.5 79t-11 76t-11 72t-11.5 67l-49 60l108 2q5 -40 10 -82t11 -85t13 -87.5t14 -88.5q10 -61 20 -123.5t21 -122.5t21 -116zM68 164v64l196 -4v-53zM76 5l-70 1q8 43 17.5 99.5t20.5 120.5t21 128q11 67 21 131.5
t18 120.5t13 96l108 2l-53 -68q-7 -40 -14.5 -86t-15.5 -95.5t-16 -102.5q-8 -57 -17 -116.5t-17.5 -117.5t-15.5 -113zM235 749l-65 43l-63 -41l-30 23l66 66l54 -2l68 -62z" />
    <glyph glyph-name="Atilde" unicode="&#xc3;" horiz-adv-x="340" 
d="M259 -6q-8 61 -16 121t-16 118.5t-16 114.5q-6 40 -11.5 79t-11 76t-11 72t-11.5 67l-49 60l108 2q5 -40 10 -82t11 -85t13 -87.5t14 -88.5q10 -61 20 -123.5t21 -122.5t21 -116zM68 164v64l196 -4v-53zM76 5l-70 1q8 43 17.5 99.5t20.5 120.5t21 128q11 67 21 131.5
t18 120.5t13 96l108 2l-53 -68q-7 -40 -14.5 -86t-15.5 -95.5t-16 -102.5q-8 -57 -17 -116.5t-17.5 -117.5t-15.5 -113zM108 758h-40q2 26 10 41.5t21 22t29 6.5q23 0 45 -10.5t40 -10.5q11 0 16.5 4.5t5.5 16.5h40q-1 -26 -9.5 -41.5t-21.5 -22t-29 -6.5q-22 0 -44.5 10.5
t-40.5 10.5q-11 0 -16 -4.5t-6 -16.5z" />
    <glyph glyph-name="Adieresis" unicode="&#xc4;" horiz-adv-x="340" 
d="M259 -6q-8 61 -16 121t-16 118.5t-16 114.5q-6 40 -11.5 79t-11 76t-11 72t-11.5 67l-49 60l108 2q5 -40 10 -82t11 -85t13 -87.5t14 -88.5q10 -61 20 -123.5t21 -122.5t21 -116zM68 164v64l196 -4v-53zM76 5l-70 1q8 43 17.5 99.5t20.5 120.5t21 128q11 67 21 131.5
t18 120.5t13 96l108 2l-53 -68q-7 -40 -14.5 -86t-15.5 -95.5t-16 -102.5q-8 -57 -17 -116.5t-17.5 -117.5t-15.5 -113zM58 838l64 -7l-3 -78l-59 -1zM218 838l64 -7l-3 -78l-59 -1z" />
    <glyph glyph-name="Aring" unicode="&#xc5;" horiz-adv-x="340" 
d="M259 -6q-8 61 -16 121t-16 118.5t-16 114.5q-6 40 -11.5 79t-11 76t-11 72t-11.5 67l-49 60l108 2q5 -40 10 -82t11 -85t13 -87.5t14 -88.5q10 -61 20 -123.5t21 -122.5t21 -116zM68 164v64l196 -4v-53zM76 5l-70 1q8 43 17.5 99.5t20.5 120.5t21 128q11 67 21 131.5
t18 120.5t13 96l108 2l-53 -68q-7 -40 -14.5 -86t-15.5 -95.5t-16 -102.5q-8 -57 -17 -116.5t-17.5 -117.5t-15.5 -113zM171 739q-28 0 -41 10t-16.5 22t-3.5 18q0 27 16 43t43 16t43.5 -14t16.5 -37q0 -25 -16 -41.5t-42 -16.5zM171 767q4 0 11 2t13 8.5t6 19.5
q0 14 -10.5 18.5t-21.5 4.5q-15 0 -23 -8t-8 -23q0 -2 1.5 -7.5t8.5 -10t23 -4.5z" />
    <glyph glyph-name="AE" unicode="&#xc6;" horiz-adv-x="498" 
d="M15 1q8 28 19 67.5t23.5 85.5t25.5 95.5t26 96.5q17 64 33.5 130.5t31.5 125t24 96.5l261 -8l2 -58l-158 -2q0 -24 -0.5 -53t-1 -61t-0.5 -63.5v-59.5l1 -119l169 -3l-2 -57l-167 -3l2 -145l166 -5l4 -58l-239 -3l2 161l-113 -4q-10 -40 -19 -79t-19 -79zM237 216l1 175
q0 38 -0.5 73t-0.5 66.5t-1 57.5q-8 -31 -20.5 -72t-25 -88t-25.5 -98q-7 -28 -13.5 -56t-13.5 -56z" />
    <glyph glyph-name="Ccedilla" unicode="&#xc7;" horiz-adv-x="353" 
d="M190 -10q-43 0 -71 13.5t-43.5 40t-23.5 66.5q-5 29 -7.5 64t-2.5 77v89q0 34 0.5 68.5t2.5 66.5t6.5 61.5t11.5 55.5q9 33 26 57.5t44 38t65 13.5q47 0 74.5 -23.5t38.5 -64.5t11 -92q1 -40 -3 -83t-11 -86l-62 1q3 25 6.5 52.5t5 56.5t1.5 56q0 35 -5.5 63t-19.5 44.5
t-38 16.5q-29 0 -46.5 -20t-26.5 -55q-5 -21 -8.5 -46t-5 -53t-2 -56t-0.5 -54v-121t3 -91q6 -48 24 -72.5t58 -24.5q26 0 38.5 15.5t17.5 39.5t5 49q0 14 -0.5 27.5t-1.5 25.5l60 2q2 -13 3 -28.5t1 -29.5q0 -41 -12.5 -77.5t-39.5 -59.5t-73 -23zM146 -162
q-10 0 -21.5 0.5t-22.5 1.5l8 45q6 -1 14 -2.5t17 -2t18 -0.5q22 0 39 4.5t17 16.5q0 11 -15.5 17t-56.5 6l11 37q60 2 85 -15.5t25 -43.5q0 -24 -17 -38t-43.5 -20t-57.5 -6zM196 0l-17 -76h-36l17 76h36z" />
    <glyph glyph-name="Egrave" unicode="&#xc8;" horiz-adv-x="340" 
d="M61 -5l0.5 24.5t0.5 65.5v92.5t0.5 107t0.5 106.5q0 64 -0.5 120t-0.5 98t-0.5 66l-0.5 24l70 -9l-0.5 -19.5t-0.5 -51.5t-0.5 -71.5t-1 -79.5t-0.5 -75t0.5 -84.5t1 -102t1 -98.5t1 -74.5l0.5 -28.5zM61 -5l44 67l204 -5v-57zM100 205v64l206 -3l-2 -57zM93 629l-32 70
l236 -6v-63zM212 744l-8.5 5t-21 12.5t-23.5 13.5q-11 7 -22.5 12t-19 8.5l-7.5 3.5l38 46l14 -12t32 -26l34 -25.5l14 -10.5z" />
    <glyph glyph-name="Eacute" unicode="&#xc9;" horiz-adv-x="340" 
d="M61 -5l0.5 24.5t0.5 65.5v92.5t0.5 107t0.5 106.5q0 64 -0.5 120t-0.5 98t-0.5 66l-0.5 24l70 -9l-0.5 -19.5t-0.5 -51.5t-0.5 -71.5t-1 -79.5t-0.5 -75t0.5 -84.5t1 -102t1 -98.5t1 -74.5l0.5 -28.5zM61 -5l44 67l204 -5v-57zM100 205v64l206 -3l-2 -57zM93 629l-32 70
l236 -6v-63zM148 736l-23 30q9 7 25 18.5t30 22.5q9 7 20 16t22 18.5t18 16.5l34 -49q-7 -4 -18 -10.5t-21.5 -12.5t-19.5 -11q-11 -6 -24.5 -14t-25 -15t-17.5 -10z" />
    <glyph glyph-name="Ecircumflex" unicode="&#xca;" horiz-adv-x="340" 
d="M61 -5l0.5 24.5t0.5 65.5v92.5t0.5 107t0.5 106.5q0 64 -0.5 120t-0.5 98t-0.5 66l-0.5 24l70 -9l-0.5 -19.5t-0.5 -51.5t-0.5 -71.5t-1 -79.5t-0.5 -75t0.5 -84.5t1 -102t1 -98.5t1 -74.5l0.5 -28.5zM61 -5l44 67l204 -5v-57zM100 205v64l206 -3l-2 -57zM93 629l-32 70
l236 -6v-63zM251 749l-65 43l-63 -41l-30 23l66 66l54 -2l68 -62z" />
    <glyph glyph-name="Edieresis" unicode="&#xcb;" horiz-adv-x="340" 
d="M61 -5l0.5 24.5t0.5 65.5v92.5t0.5 107t0.5 106.5q0 64 -0.5 120t-0.5 98t-0.5 66l-0.5 24l70 -9l-0.5 -19.5t-0.5 -51.5t-0.5 -71.5t-1 -79.5t-0.5 -75t0.5 -84.5t1 -102t1 -98.5t1 -74.5l0.5 -28.5zM61 -5l44 67l204 -5v-57zM100 205v64l206 -3l-2 -57zM93 629l-32 70
l236 -6v-63zM74 838l64 -7l-3 -78l-59 -1zM234 838l64 -7l-3 -78l-59 -1z" />
    <glyph glyph-name="Igrave" unicode="&#xcc;" horiz-adv-x="198" 
d="M64 699l74 2l-1 -27t-2.5 -70t-3 -93.5t-2 -98t-0.5 -82.5v-79t1 -88t1.5 -81.5t1 -60l0.5 -22.5l-73 2l0.5 17.5t1 48.5t1.5 72t1.5 89.5t0.5 99.5v119v110.5v88.5t-1 53zM124 744l-8.5 5t-21 12.5t-23.5 13.5q-11 7 -22.5 12t-19 8.5l-7.5 3.5l38 46l14 -12t32 -26
l34 -25.5l14 -10.5z" />
    <glyph glyph-name="Iacute" unicode="&#xcd;" horiz-adv-x="198" 
d="M64 699l74 2l-1 -27t-2.5 -70t-3 -93.5t-2 -98t-0.5 -82.5v-79t1 -88t1.5 -81.5t1 -60l0.5 -22.5l-73 2l0.5 17.5t1 48.5t1.5 72t1.5 89.5t0.5 99.5v119v110.5v88.5t-1 53zM60 736l-23 30q9 7 25 18.5t30 22.5q9 7 20 16t22 18.5t18 16.5l34 -49q-7 -4 -18 -10.5
t-21.5 -12.5t-19.5 -11q-11 -6 -24.5 -14t-25 -15t-17.5 -10z" />
    <glyph glyph-name="Icircumflex" unicode="&#xce;" horiz-adv-x="198" 
d="M64 699l74 2l-1 -27t-2.5 -70t-3 -93.5t-2 -98t-0.5 -82.5v-79t1 -88t1.5 -81.5t1 -60l0.5 -22.5l-73 2l0.5 17.5t1 48.5t1.5 72t1.5 89.5t0.5 99.5v119v110.5v88.5t-1 53zM163 749l-65 43l-63 -41l-30 23l66 66l54 -2l68 -62z" />
    <glyph glyph-name="Idieresis" unicode="&#xcf;" horiz-adv-x="198" 
d="M64 699l74 2l-1 -27t-2.5 -70t-3 -93.5t-2 -98t-0.5 -82.5v-79t1 -88t1.5 -81.5t1 -60l0.5 -22.5l-73 2l0.5 17.5t1 48.5t1.5 72t1.5 89.5t0.5 99.5v119v110.5v88.5t-1 53zM-14 838l64 -7l-3 -78l-59 -1zM146 838l64 -7l-3 -78l-59 -1z" />
    <glyph glyph-name="Eth" unicode="&#xd0;" horiz-adv-x="381" 
d="M14 321l1 48q10 0 27.5 -0.5t40.5 -0.5t49 -1t58.5 0t52.5 2l1 -48q-15 0 -37 0.5t-43 0.5h-37q-35 0 -66.5 -0.5t-46.5 -0.5zM183 -10q-29 0 -48 0.5t-35 2.5t-36 4l45 63q8 -2 19.5 -4t24.5 -2.5t28 -0.5q26 0 44.5 14.5t30 48t16.5 92t5 146.5q0 70 -3 125t-13 93.5
t-30 58.5t-54 20t-56.5 -3t-36.5 -8l-23 62q24 2 50.5 4t61.5 2q52 0 85 -19t50.5 -60t24.5 -107.5t7 -162.5q0 -60 -2.5 -115t-10.5 -101t-25 -80.5t-46.5 -53.5t-72.5 -19zM64 -3q1 42 2 104t1.5 131t0.5 131q0 63 -1 127.5t-2.5 120t-3.5 91.5l70 -10q0 -23 -0.5 -54
t-1 -67t-0.5 -73t-0.5 -72.5t-0.5 -64.5v-59.5t0.5 -74t1 -80.5t1 -79.5t1.5 -70.5h-68z" />
    <glyph glyph-name="Ntilde" unicode="&#xd1;" horiz-adv-x="416" 
d="M61 704h90l6 -27t18 -74t27 -107.5t31 -126.5q12 -46 24 -94.5t23 -90t17 -67.5v66.5t-0.5 73.5t-0.5 70v54q0 35 -0.5 79t-0.5 88.5t-0.5 82.5t-1 61l-0.5 23h63l-1 -27.5t-2 -74.5t-2 -106.5t-1 -123.5t0.5 -130t1.5 -121t1.5 -89l0.5 -34l-93 -8l-7 29t-19.5 78.5
t-26.5 110.5t-29 125q-5 22 -12.5 53.5t-16 66t-16.5 67t-14 57.5v-55t0.5 -62t0.5 -62v-55q0 -35 0.5 -81t1 -93.5t0.5 -88.5t0.5 -66l0.5 -25l-60 1l0.5 31t1 82.5t1 114.5t0.5 127t-1 126t-2 112t-2 80zM151 758h-40q2 26 10 41.5t21 22t29 6.5q23 0 45 -10.5t40 -10.5
q11 0 16.5 4.5t5.5 16.5h40q-1 -26 -9.5 -41.5t-21.5 -22t-29 -6.5q-22 0 -44.5 10.5t-40.5 10.5q-11 0 -16 -4.5t-6 -16.5z" />
    <glyph glyph-name="Ograve" unicode="&#xd2;" horiz-adv-x="380" 
d="M183 -5q-43 0 -69.5 17t-41.5 48.5t-22 74.5q-4 31 -6 67t-2 75.5v79.5v53.5t1 53.5t3.5 51t6.5 46q11 66 44.5 105t101.5 39q42 0 68.5 -17.5t41.5 -48.5t21 -74q7 -45 8 -99t1 -111q0 -41 -1 -79.5t-4 -74.5t-10 -68q-13 -62 -45 -100t-96 -38zM186 52q26 0 41.5 15
t24.5 43.5t13 67.5q5 39 5.5 85.5t0.5 96.5q0 49 -0.5 91.5t-2.5 75.5q-3 58 -19 91t-54 33q-39 0 -57.5 -31t-23.5 -84q-2 -19 -3 -41.5t-1.5 -47t-0.5 -50.5v-52q0 -48 -0.5 -92.5t2.5 -83.5q3 -36 11 -62.5t23.5 -40.5t40.5 -14zM220 744l-8.5 5t-21 12.5t-23.5 13.5
q-11 7 -22.5 12t-19 8.5l-7.5 3.5l38 46l14 -12t32 -26l34 -25.5l14 -10.5z" />
    <glyph glyph-name="Oacute" unicode="&#xd3;" horiz-adv-x="380" 
d="M183 -5q-43 0 -69.5 17t-41.5 48.5t-22 74.5q-4 31 -6 67t-2 75.5v79.5v53.5t1 53.5t3.5 51t6.5 46q11 66 44.5 105t101.5 39q42 0 68.5 -17.5t41.5 -48.5t21 -74q7 -45 8 -99t1 -111q0 -41 -1 -79.5t-4 -74.5t-10 -68q-13 -62 -45 -100t-96 -38zM186 52q26 0 41.5 15
t24.5 43.5t13 67.5q5 39 5.5 85.5t0.5 96.5q0 49 -0.5 91.5t-2.5 75.5q-3 58 -19 91t-54 33q-39 0 -57.5 -31t-23.5 -84q-2 -19 -3 -41.5t-1.5 -47t-0.5 -50.5v-52q0 -48 -0.5 -92.5t2.5 -83.5q3 -36 11 -62.5t23.5 -40.5t40.5 -14zM156 736l-23 30q9 7 25 18.5t30 22.5
q9 7 20 16t22 18.5t18 16.5l34 -49q-7 -4 -18 -10.5t-21.5 -12.5t-19.5 -11q-11 -6 -24.5 -14t-25 -15t-17.5 -10z" />
    <glyph glyph-name="Ocircumflex" unicode="&#xd4;" horiz-adv-x="380" 
d="M183 -5q-43 0 -69.5 17t-41.5 48.5t-22 74.5q-4 31 -6 67t-2 75.5v79.5v53.5t1 53.5t3.5 51t6.5 46q11 66 44.5 105t101.5 39q42 0 68.5 -17.5t41.5 -48.5t21 -74q7 -45 8 -99t1 -111q0 -41 -1 -79.5t-4 -74.5t-10 -68q-13 -62 -45 -100t-96 -38zM186 52q26 0 41.5 15
t24.5 43.5t13 67.5q5 39 5.5 85.5t0.5 96.5q0 49 -0.5 91.5t-2.5 75.5q-3 58 -19 91t-54 33q-39 0 -57.5 -31t-23.5 -84q-2 -19 -3 -41.5t-1.5 -47t-0.5 -50.5v-52q0 -48 -0.5 -92.5t2.5 -83.5q3 -36 11 -62.5t23.5 -40.5t40.5 -14zM259 749l-65 43l-63 -41l-30 23l66 66
l54 -2l68 -62z" />
    <glyph glyph-name="Otilde" unicode="&#xd5;" horiz-adv-x="380" 
d="M183 -5q-43 0 -69.5 17t-41.5 48.5t-22 74.5q-4 31 -6 67t-2 75.5v79.5v53.5t1 53.5t3.5 51t6.5 46q11 66 44.5 105t101.5 39q42 0 68.5 -17.5t41.5 -48.5t21 -74q7 -45 8 -99t1 -111q0 -41 -1 -79.5t-4 -74.5t-10 -68q-13 -62 -45 -100t-96 -38zM186 52q26 0 41.5 15
t24.5 43.5t13 67.5q5 39 5.5 85.5t0.5 96.5q0 49 -0.5 91.5t-2.5 75.5q-3 58 -19 91t-54 33q-39 0 -57.5 -31t-23.5 -84q-2 -19 -3 -41.5t-1.5 -47t-0.5 -50.5v-52q0 -48 -0.5 -92.5t2.5 -83.5q3 -36 11 -62.5t23.5 -40.5t40.5 -14zM132 758h-40q2 26 10 41.5t21 22t29 6.5
q23 0 45 -10.5t40 -10.5q11 0 16.5 4.5t5.5 16.5h40q-1 -26 -9.5 -41.5t-21.5 -22t-29 -6.5q-22 0 -44.5 10.5t-40.5 10.5q-11 0 -16 -4.5t-6 -16.5z" />
    <glyph glyph-name="Odieresis" unicode="&#xd6;" horiz-adv-x="380" 
d="M183 -5q-43 0 -69.5 17t-41.5 48.5t-22 74.5q-4 31 -6 67t-2 75.5v79.5v53.5t1 53.5t3.5 51t6.5 46q11 66 44.5 105t101.5 39q42 0 68.5 -17.5t41.5 -48.5t21 -74q7 -45 8 -99t1 -111q0 -41 -1 -79.5t-4 -74.5t-10 -68q-13 -62 -45 -100t-96 -38zM186 52q26 0 41.5 15
t24.5 43.5t13 67.5q5 39 5.5 85.5t0.5 96.5q0 49 -0.5 91.5t-2.5 75.5q-3 58 -19 91t-54 33q-39 0 -57.5 -31t-23.5 -84q-2 -19 -3 -41.5t-1.5 -47t-0.5 -50.5v-52q0 -48 -0.5 -92.5t2.5 -83.5q3 -36 11 -62.5t23.5 -40.5t40.5 -14zM82 838l64 -7l-3 -78l-59 -1zM242 838
l64 -7l-3 -78l-59 -1z" />
    <glyph glyph-name="multiply" unicode="&#xd7;" horiz-adv-x="400" 
d="M330 207l-47 -44l-3.5 4t-11 12.5t-18.5 20.5t-26 28t-34 35q-16 16 -37.5 37t-42 41t-34.5 33l-14 13l50 40q8 -9 23 -25.5t32.5 -35t34 -35.5t27.5 -27q11 -11 21 -20.5t19 -18.5t18.5 -18t20 -19t22.5 -21zM117 157l-45 54l8 7t20.5 18.5t27.5 25.5t30.5 29t27.5 28
q14 14 27.5 29t26 28.5t22.5 24t15.5 16.5l5.5 6l44 -53l-5.5 -5t-15.5 -13t-22.5 -19.5t-27 -25t-29.5 -27.5q-14 -14 -29.5 -31t-29.5 -33t-25.5 -29.5t-18.5 -21.5z" />
    <glyph glyph-name="Oslash" unicode="&#xd8;" horiz-adv-x="389" 
d="M187 -5q-42 0 -69 17t-41.5 48.5t-21.5 74.5q-5 31 -7 67t-2 75.5v79.5v53.5t1 53.5t3.5 51t6.5 46q12 66 45 105t101 39q42 0 68.5 -17.5t41.5 -48.5t21 -74q8 -45 8.5 -99t0.5 -111q0 -41 -1 -79.5t-3.5 -74.5t-10.5 -68q-12 -62 -44 -100t-97 -38zM190 52q26 0 42 15
t25 43.5t13 67.5q5 39 5 85.5v96.5v91.5t-2 75.5q-4 58 -20 91t-54 33q-39 0 -57.5 -31t-22.5 -84q-3 -19 -4 -41.5t-1.5 -47t-0.5 -50.5v-52q0 -48 -0.5 -92.5t2.5 -83.5q4 -36 12 -62.5t23 -40.5t40 -14zM125 -34l-52 14l6 19.5t17.5 54t25 79.5t28.5 96.5t30 105.5
t30.5 109t29.5 106t24.5 91t16.5 63l6 23l53 -17l-6.5 -20t-17.5 -54.5t-25 -76.5t-28 -86.5t-26.5 -84.5t-21.5 -71q-10 -37 -22 -83t-24 -93t-22 -87l-16 -64z" />
    <glyph glyph-name="Ugrave" unicode="&#xd9;" horiz-adv-x="388" 
d="M197 -10q-37 0 -63 11.5t-43.5 34.5t-26 55.5t-8.5 75.5q0 35 0.5 76.5t0.5 83v75.5v95.5t-0.5 101.5t-2.5 97l71 -1q-1 -33 -2 -74t-1.5 -83t-1 -79t-0.5 -63q0 -29 -0.5 -60.5t-0.5 -62v-55v-39.5q0 -48 8 -77t25 -42t44 -13q22 0 36 9.5t22.5 26t12 37.5t3.5 46
q0 10 0.5 41t0.5 78.5v108.5q0 64 -1.5 124t-2.5 109t-2 80l69 -1q0 -33 -0.5 -68t-1 -73t-1 -80.5t-0.5 -92.5q1 -85 1 -142.5v-80.5q0 -32 -5.5 -63.5t-20 -57.5t-41 -42t-68.5 -16zM221 744l-8.5 5t-21 12.5t-23.5 13.5q-11 7 -22.5 12t-19 8.5l-7.5 3.5l38 46l14 -12
t32 -26l34 -25.5l14 -10.5z" />
    <glyph glyph-name="Uacute" unicode="&#xda;" horiz-adv-x="388" 
d="M197 -10q-37 0 -63 11.5t-43.5 34.5t-26 55.5t-8.5 75.5q0 35 0.5 76.5t0.5 83v75.5v95.5t-0.5 101.5t-2.5 97l71 -1q-1 -33 -2 -74t-1.5 -83t-1 -79t-0.5 -63q0 -29 -0.5 -60.5t-0.5 -62v-55v-39.5q0 -48 8 -77t25 -42t44 -13q22 0 36 9.5t22.5 26t12 37.5t3.5 46
q0 10 0.5 41t0.5 78.5v108.5q0 64 -1.5 124t-2.5 109t-2 80l69 -1q0 -33 -0.5 -68t-1 -73t-1 -80.5t-0.5 -92.5q1 -85 1 -142.5v-80.5q0 -32 -5.5 -63.5t-20 -57.5t-41 -42t-68.5 -16zM157 736l-23 30q9 7 25 18.5t30 22.5q9 7 20 16t22 18.5t18 16.5l34 -49
q-7 -4 -18 -10.5t-21.5 -12.5t-19.5 -11q-11 -6 -24.5 -14t-25 -15t-17.5 -10z" />
    <glyph glyph-name="Ucircumflex" unicode="&#xdb;" horiz-adv-x="388" 
d="M197 -10q-37 0 -63 11.5t-43.5 34.5t-26 55.5t-8.5 75.5q0 35 0.5 76.5t0.5 83v75.5v95.5t-0.5 101.5t-2.5 97l71 -1q-1 -33 -2 -74t-1.5 -83t-1 -79t-0.5 -63q0 -29 -0.5 -60.5t-0.5 -62v-55v-39.5q0 -48 8 -77t25 -42t44 -13q22 0 36 9.5t22.5 26t12 37.5t3.5 46
q0 10 0.5 41t0.5 78.5v108.5q0 64 -1.5 124t-2.5 109t-2 80l69 -1q0 -33 -0.5 -68t-1 -73t-1 -80.5t-0.5 -92.5q1 -85 1 -142.5v-80.5q0 -32 -5.5 -63.5t-20 -57.5t-41 -42t-68.5 -16zM260 749l-65 43l-63 -41l-30 23l66 66l54 -2l68 -62z" />
    <glyph glyph-name="Udieresis" unicode="&#xdc;" horiz-adv-x="388" 
d="M197 -10q-37 0 -63 11.5t-43.5 34.5t-26 55.5t-8.5 75.5q0 35 0.5 76.5t0.5 83v75.5v95.5t-0.5 101.5t-2.5 97l71 -1q-1 -33 -2 -74t-1.5 -83t-1 -79t-0.5 -63q0 -29 -0.5 -60.5t-0.5 -62v-55v-39.5q0 -48 8 -77t25 -42t44 -13q22 0 36 9.5t22.5 26t12 37.5t3.5 46
q0 10 0.5 41t0.5 78.5v108.5q0 64 -1.5 124t-2.5 109t-2 80l69 -1q0 -33 -0.5 -68t-1 -73t-1 -80.5t-0.5 -92.5q1 -85 1 -142.5v-80.5q0 -32 -5.5 -63.5t-20 -57.5t-41 -42t-68.5 -16zM83 838l64 -7l-3 -78l-59 -1zM243 838l64 -7l-3 -78l-59 -1z" />
    <glyph glyph-name="Yacute" unicode="&#xdd;" horiz-adv-x="313" 
d="M118 0l1.5 56t-0.5 177l62 -9q1 -41 2 -81t2 -72t1.5 -51l0.5 -19zM-6 704h81q6 -35 12 -75t14 -82.5t16 -90.5q6 -27 11.5 -56t12 -60t13.5 -63q7 29 13.5 59l13 60t12.5 59q6 30 12.5 61t12 62t11.5 60.5t11 57.5l79 2q-6 -25 -14.5 -55t-16.5 -63t-17 -67.5t-18 -71.5
q-9 -39 -19 -79t-19 -78t-17.5 -74.5t-15.5 -68.5h-60q-7 35 -14.5 71t-15.5 73t-15.5 73t-16.5 72q-8 37 -16.5 73t-16.5 70.5t-16.5 67t-16.5 63.5zM116 736l-23 30q9 7 25 18.5t30 22.5q9 7 20 16t22 18.5t18 16.5l34 -49q-7 -4 -18 -10.5t-21.5 -12.5t-19.5 -11
q-11 -6 -24.5 -14t-25 -15t-17.5 -10z" />
    <glyph glyph-name="Thorn" unicode="&#xde;" horiz-adv-x="348" 
d="M118 141l-4 61q39 0 67.5 4.5t47.5 19t28.5 43t9.5 75.5q0 54 -9.5 90t-29 54t-50.5 18q-15 0 -35.5 -0.5t-34.5 -2.5v59q14 1 36 1h38q36 0 64 -12t46.5 -37.5t28 -66.5t9.5 -100q0 -58 -14 -98t-41 -63.5t-66 -34t-91 -10.5zM61 0q1 40 2 100t1.5 127.5t0.5 129.5
q0 63 -0.5 127.5t-1 121t-1.5 92.5l73 5q-1 -20 -2 -51.5t-1.5 -70t-1 -78.5t-1 -77.5t-0.5 -66.5q0 -32 0.5 -77t1 -96t1 -100t1.5 -89z" />
    <glyph glyph-name="germandbls" unicode="&#xdf;" horiz-adv-x="420" 
d="M60 -3q1 21 2.5 51t2.5 66t2 76t1 80v77v59.5t0.5 49.5t0.5 46.5v50.5q0 33 9.5 60.5t28.5 46.5t46.5 30t62.5 11q45 0 73 -20t41.5 -49.5t13.5 -58.5q0 -30 -8.5 -53t-21 -41.5t-25.5 -35t-21.5 -33t-8.5 -36.5q0 -24 10.5 -41.5t25 -32t27.5 -30.5q16 -18 31.5 -36.5
t26.5 -42.5t11 -59q0 -42 -21 -71.5t-61.5 -45.5t-101.5 -16l5 53q28 0 50 5t38 15t24.5 24.5t8.5 33.5q0 25 -6 41t-17.5 30.5t-28.5 31.5q-25 27 -43 48t-27 43t-9 50q0 23 8.5 43t21.5 38.5t26 36t21.5 36t8.5 38.5q0 24 -8.5 42.5t-24 28.5t-38.5 10q-24 0 -44 -10.5
t-31.5 -31.5t-12.5 -56q-1 -24 -2 -50t-2 -59t-1.5 -74t-0.5 -95q0 -52 1 -104t3 -95.5t3 -71.5z" />
    <glyph glyph-name="agrave" unicode="&#xe0;" horiz-adv-x="298" 
d="M207 0l-3 208l1 168q1 62 -12.5 83.5t-47.5 21.5q-33 0 -45.5 -25.5t-12.5 -59.5q0 -15 1.5 -31t4.5 -30l-53 -3q-3 17 -5 33t-2 33q0 39 12 68t37.5 46t64.5 17q36 0 57.5 -12.5t33 -33.5t15 -46t2.5 -50l-3 -128l7 -259h-52zM113 -10q-31 0 -51 13.5t-29.5 38
t-9.5 55.5t9 55t24 42.5t33 34t37 30.5q15 13 29.5 25t25.5 26t17.5 30.5t6.5 35.5l27 -7q0 -39 -11.5 -66t-29.5 -46t-38 -35t-38 -33t-29 -38t-11 -52q0 -19 4.5 -31.5t14 -18.5t24.5 -6q28 0 47 22t29 62t10 94l37 71q-1 -62 -8 -116.5t-21.5 -96.5t-38.5 -65.5
t-60 -23.5zM171 585l-8.5 5t-21 12.5t-23.5 13.5q-11 7 -22.5 12t-19 8.5l-7.5 3.5l38 46l14 -12t32 -26l34 -25.5l14 -10.5z" />
    <glyph glyph-name="aacute" unicode="&#xe1;" horiz-adv-x="298" 
d="M207 0l-3 208l1 168q1 62 -12.5 83.5t-47.5 21.5q-33 0 -45.5 -25.5t-12.5 -59.5q0 -15 1.5 -31t4.5 -30l-53 -3q-3 17 -5 33t-2 33q0 39 12 68t37.5 46t64.5 17q36 0 57.5 -12.5t33 -33.5t15 -46t2.5 -50l-3 -128l7 -259h-52zM113 -10q-31 0 -51 13.5t-29.5 38
t-9.5 55.5t9 55t24 42.5t33 34t37 30.5q15 13 29.5 25t25.5 26t17.5 30.5t6.5 35.5l27 -7q0 -39 -11.5 -66t-29.5 -46t-38 -35t-38 -33t-29 -38t-11 -52q0 -19 4.5 -31.5t14 -18.5t24.5 -6q28 0 47 22t29 62t10 94l37 71q-1 -62 -8 -116.5t-21.5 -96.5t-38.5 -65.5
t-60 -23.5zM107 577l-23 30l8.5 6t21 15.5t25.5 19.5q12 9 26 21t24 21l10 9l34 -49l-10 -6t-23.5 -13.5t-25.5 -14.5q-11 -6 -24.5 -14t-25 -15t-17.5 -10z" />
    <glyph glyph-name="acircumflex" unicode="&#xe2;" horiz-adv-x="298" 
d="M207 0l-3 208l1 168q1 62 -12.5 83.5t-47.5 21.5q-33 0 -45.5 -25.5t-12.5 -59.5q0 -15 1.5 -31t4.5 -30l-53 -3q-3 17 -5 33t-2 33q0 39 12 68t37.5 46t64.5 17q36 0 57.5 -12.5t33 -33.5t15 -46t2.5 -50l-3 -128l7 -259h-52zM113 -10q-31 0 -51 13.5t-29.5 38
t-9.5 55.5t9 55t24 42.5t33 34t37 30.5q15 13 29.5 25t25.5 26t17.5 30.5t6.5 35.5l27 -7q0 -39 -11.5 -66t-29.5 -46t-38 -35t-38 -33t-29 -38t-11 -52q0 -19 4.5 -31.5t14 -18.5t24.5 -6q28 0 47 22t29 62t10 94l37 71q-1 -62 -8 -116.5t-21.5 -96.5t-38.5 -65.5
t-60 -23.5zM210 590l-65 43l-63 -41l-30 23l66 66l54 -2l68 -62z" />
    <glyph glyph-name="atilde" unicode="&#xe3;" horiz-adv-x="298" 
d="M207 0l-3 208l1 168q1 62 -12.5 83.5t-47.5 21.5q-33 0 -45.5 -25.5t-12.5 -59.5q0 -15 1.5 -31t4.5 -30l-53 -3q-3 17 -5 33t-2 33q0 39 12 68t37.5 46t64.5 17q36 0 57.5 -12.5t33 -33.5t15 -46t2.5 -50l-3 -128l7 -259h-52zM113 -10q-31 0 -51 13.5t-29.5 38
t-9.5 55.5t9 55t24 42.5t33 34t37 30.5q15 13 29.5 25t25.5 26t17.5 30.5t6.5 35.5l27 -7q0 -39 -11.5 -66t-29.5 -46t-38 -35t-38 -33t-29 -38t-11 -52q0 -19 4.5 -31.5t14 -18.5t24.5 -6q28 0 47 22t29 62t10 94l37 71q-1 -62 -8 -116.5t-21.5 -96.5t-38.5 -65.5
t-60 -23.5zM81 599h-40q2 26 10 41.5t21 22t29 6.5q23 0 45 -10.5t40 -10.5q11 0 16.5 4.5t5.5 16.5h40q-1 -26 -9.5 -41.5t-21.5 -22t-29 -6.5q-22 0 -44.5 10.5t-40.5 10.5q-11 0 -16 -4.5t-6 -16.5z" />
    <glyph glyph-name="adieresis" unicode="&#xe4;" horiz-adv-x="298" 
d="M207 0l-3 208l1 168q1 62 -12.5 83.5t-47.5 21.5q-33 0 -45.5 -25.5t-12.5 -59.5q0 -15 1.5 -31t4.5 -30l-53 -3q-3 17 -5 33t-2 33q0 39 12 68t37.5 46t64.5 17q36 0 57.5 -12.5t33 -33.5t15 -46t2.5 -50l-3 -128l7 -259h-52zM113 -10q-31 0 -51 13.5t-29.5 38
t-9.5 55.5t9 55t24 42.5t33 34t37 30.5q15 13 29.5 25t25.5 26t17.5 30.5t6.5 35.5l27 -7q0 -39 -11.5 -66t-29.5 -46t-38 -35t-38 -33t-29 -38t-11 -52q0 -19 4.5 -31.5t14 -18.5t24.5 -6q28 0 47 22t29 62t10 94l37 71q-1 -62 -8 -116.5t-21.5 -96.5t-38.5 -65.5
t-60 -23.5zM254 595l-59 -1l-2 86l64 -7zM94 595l-59 -1l-2 86l64 -7z" />
    <glyph glyph-name="aring" unicode="&#xe5;" horiz-adv-x="298" 
d="M207 0l-3 208l1 168q1 62 -12.5 83.5t-47.5 21.5q-33 0 -45.5 -25.5t-12.5 -59.5q0 -15 1.5 -31t4.5 -30l-53 -3q-3 17 -5 33t-2 33q0 39 12 68t37.5 46t64.5 17q36 0 57.5 -12.5t33 -33.5t15 -46t2.5 -50l-3 -128l7 -259h-52zM113 -10q-31 0 -51 13.5t-29.5 38
t-9.5 55.5t9 55t24 42.5t33 34t37 30.5q15 13 29.5 25t25.5 26t17.5 30.5t6.5 35.5l27 -7q0 -39 -11.5 -66t-29.5 -46t-38 -35t-38 -33t-29 -38t-11 -52q0 -19 4.5 -31.5t14 -18.5t24.5 -6q28 0 47 22t29 62t10 94l37 71q-1 -62 -8 -116.5t-21.5 -96.5t-38.5 -65.5
t-60 -23.5zM146 582q-28 0 -41 10t-16.5 22t-3.5 18q0 27 16 43t43 16t43.5 -14t16.5 -37q0 -25 -16 -41.5t-42 -16.5zM146 610q4 0 11 2t13 8.5t6 19.5q0 14 -10.5 18.5t-21.5 4.5q-15 0 -23 -8t-8 -23q0 -2 1.5 -7.5t8.5 -10t23 -4.5z" />
    <glyph glyph-name="ae" unicode="&#xe6;" horiz-adv-x="484" 
d="M113 -10q-30 0 -50.5 13.5t-30 37.5t-9.5 56q0 31 9 55t24 42.5t33 34t37 31.5q15 12 29 24t25.5 26t18.5 30t7 35q0 62 -13.5 84t-47.5 22q-32 0 -45 -25t-13 -60q0 -16 1.5 -31.5t4.5 -29.5l-53 -3q-3 17 -5 33t-2 33q0 39 12 68t37.5 46t64.5 17q25 0 42.5 -8.5
t30 -23.5t19.5 -35q17 34 41.5 50t55.5 16q44 0 67.5 -23t33 -61t9.5 -83q0 -30 -2.5 -60t-4.5 -56q-21 0 -51 -0.5t-63 -1.5t-62 -3q0 -34 1.5 -66.5t4.5 -55.5q4 -35 18 -55.5t47 -20.5q23 0 36 10.5t18 28t5 36.5q0 13 -1.5 25.5t-3.5 23.5l56 1q2 -14 3.5 -28t1.5 -28
q0 -35 -11.5 -62t-38 -43t-71.5 -16q-46 0 -71.5 23t-34.5 61q-11 -22 -26.5 -41.5t-35 -31t-47.5 -11.5zM117 43q28 0 47.5 22t29.5 62t10 94v17.5v17v17.5q-11 -16 -24 -28t-27 -23q-20 -16 -37.5 -33t-29 -38.5t-11.5 -51.5q0 -19 4.5 -31.5t14 -18.5t23.5 -6zM263 296
l121 2q2 19 2.5 36.5t0.5 33.5q1 31 -4 54.5t-17 36.5t-33 13q-35 0 -48.5 -26.5t-17.5 -66.5q-1 -12 -1.5 -25.5t-1 -27.5t-1.5 -30z" />
    <glyph glyph-name="ccedilla" unicode="&#xe7;" horiz-adv-x="319" 
d="M161 -13q-47 0 -72 27t-36 71q-9 37 -11 80.5t-2 88.5q0 38 1.5 74t6.5 68q6 40 21 69.5t42 45.5t69 16q40 0 62.5 -19.5t32 -51t9.5 -69.5q0 -27 -3 -52t-6 -48l-56 1q4 22 6.5 45.5t2.5 44.5q0 26 -5 47.5t-17.5 33.5t-33.5 12q-32 0 -47 -21t-20 -60q-4 -27 -5 -62
t-1 -76v-49t1.5 -45t3.5 -39q6 -36 20 -57.5t43 -21.5q26 0 39 11t18 29t5 39q0 12 -0.5 24.5t-1.5 23.5l55 2q1 -10 1.5 -20t0.5 -22q0 -38 -10.5 -69.5t-37.5 -51t-75 -19.5zM127 -162q-10 0 -21.5 0.5t-22.5 1.5l8 45q6 -1 14 -2.5t17 -2t18 -0.5q22 0 39 4.5t17 16.5
q0 11 -15.5 17t-56.5 6l11 37q60 2 85 -15.5t25 -43.5q0 -24 -17 -38t-43.5 -20t-57.5 -6zM177 0l-17 -76h-36l17 76h36z" />
    <glyph glyph-name="egrave" unicode="&#xe8;" horiz-adv-x="320" 
d="M164 -12q-49 0 -76 23.5t-36 78.5q-5 35 -8.5 77.5t-3.5 89.5q0 30 1.5 61.5t4.5 63.5q8 76 40 111t87 35q43 0 66.5 -23t33 -61t9.5 -84q0 -30 -2.5 -59.5t-4.5 -55.5l-55 51q2 20 3 37.5t1 34.5q0 31 -5 54t-17 36.5t-33 13.5q-35 0 -49 -26.5t-17 -66.5
q-2 -27 -3 -58.5t-1 -64.5q0 -25 0.5 -50.5t2 -48t3.5 -39.5q5 -37 18 -57t47 -20q23 0 36 10.5t18 28t5 36.5q0 13 -1.5 26t-3.5 24h56q2 -14 3.5 -27.5t1.5 -27.5q0 -35 -11.5 -63t-38 -44t-71.5 -16zM61 238l-1 58l215 2v-53h-14.5t-37.5 -1t-51.5 -1.5t-57 -1.5
t-53.5 -3zM195 585l-8.5 5t-21 12.5t-23.5 13.5q-11 7 -22.5 12t-19 8.5l-7.5 3.5l38 46l14 -12t32 -26l34 -25.5l14 -10.5z" />
    <glyph glyph-name="eacute" unicode="&#xe9;" horiz-adv-x="320" 
d="M164 -12q-49 0 -76 23.5t-36 78.5q-5 35 -8.5 77.5t-3.5 89.5q0 30 1.5 61.5t4.5 63.5q8 76 40 111t87 35q43 0 66.5 -23t33 -61t9.5 -84q0 -30 -2.5 -59.5t-4.5 -55.5l-55 51q2 20 3 37.5t1 34.5q0 31 -5 54t-17 36.5t-33 13.5q-35 0 -49 -26.5t-17 -66.5
q-2 -27 -3 -58.5t-1 -64.5q0 -25 0.5 -50.5t2 -48t3.5 -39.5q5 -37 18 -57t47 -20q23 0 36 10.5t18 28t5 36.5q0 13 -1.5 26t-3.5 24h56q2 -14 3.5 -27.5t1.5 -27.5q0 -35 -11.5 -63t-38 -44t-71.5 -16zM61 238l-1 58l215 2v-53h-14.5t-37.5 -1t-51.5 -1.5t-57 -1.5
t-53.5 -3zM131 577l-23 30l8.5 6t21 15.5t25.5 19.5q12 9 26 21t24 21l10 9l34 -49l-10 -6t-23.5 -13.5t-25.5 -14.5q-11 -6 -24.5 -14t-25 -15t-17.5 -10z" />
    <glyph glyph-name="ecircumflex" unicode="&#xea;" horiz-adv-x="320" 
d="M164 -12q-49 0 -76 23.5t-36 78.5q-5 35 -8.5 77.5t-3.5 89.5q0 30 1.5 61.5t4.5 63.5q8 76 40 111t87 35q43 0 66.5 -23t33 -61t9.5 -84q0 -30 -2.5 -59.5t-4.5 -55.5l-55 51q2 20 3 37.5t1 34.5q0 31 -5 54t-17 36.5t-33 13.5q-35 0 -49 -26.5t-17 -66.5
q-2 -27 -3 -58.5t-1 -64.5q0 -25 0.5 -50.5t2 -48t3.5 -39.5q5 -37 18 -57t47 -20q23 0 36 10.5t18 28t5 36.5q0 13 -1.5 26t-3.5 24h56q2 -14 3.5 -27.5t1.5 -27.5q0 -35 -11.5 -63t-38 -44t-71.5 -16zM61 238l-1 58l215 2v-53h-14.5t-37.5 -1t-51.5 -1.5t-57 -1.5
t-53.5 -3zM234 590l-65 43l-63 -41l-30 23l66 66l54 -2l68 -62z" />
    <glyph glyph-name="edieresis" unicode="&#xeb;" horiz-adv-x="320" 
d="M164 -12q-49 0 -76 23.5t-36 78.5q-5 35 -8.5 77.5t-3.5 89.5q0 30 1.5 61.5t4.5 63.5q8 76 40 111t87 35q43 0 66.5 -23t33 -61t9.5 -84q0 -30 -2.5 -59.5t-4.5 -55.5l-55 51q2 20 3 37.5t1 34.5q0 31 -5 54t-17 36.5t-33 13.5q-35 0 -49 -26.5t-17 -66.5
q-2 -27 -3 -58.5t-1 -64.5q0 -25 0.5 -50.5t2 -48t3.5 -39.5q5 -37 18 -57t47 -20q23 0 36 10.5t18 28t5 36.5q0 13 -1.5 26t-3.5 24h56q2 -14 3.5 -27.5t1.5 -27.5q0 -35 -11.5 -63t-38 -44t-71.5 -16zM61 238l-1 58l215 2v-53h-14.5t-37.5 -1t-51.5 -1.5t-57 -1.5
t-53.5 -3zM278 595l-59 -1l-2 86l64 -7zM118 595l-59 -1l-2 86l64 -7z" />
    <glyph glyph-name="igrave" unicode="&#xec;" horiz-adv-x="177" 
d="M122 0l-69 1q1 22 2.5 48.5t2.5 60t1.5 73t0.5 85.5q0 62 -1 109t-2.5 81.5t-3.5 61.5l66 1q-1 -23 -2 -59.5t-1.5 -84.5t-0.5 -110q0 -46 1 -85t2 -72.5t2 -60.5t2 -49zM111 585l-8.5 5t-21 12.5t-23.5 13.5q-11 7 -22.5 12t-19 8.5l-7.5 3.5l38 46l14 -12t32 -26
l34 -25.5l14 -10.5z" />
    <glyph glyph-name="iacute" unicode="&#xed;" horiz-adv-x="177" 
d="M122 0l-69 1q1 22 2.5 48.5t2.5 60t1.5 73t0.5 85.5q0 62 -1 109t-2.5 81.5t-3.5 61.5l66 1q-1 -23 -2 -59.5t-1.5 -84.5t-0.5 -110q0 -46 1 -85t2 -72.5t2 -60.5t2 -49zM47 577l-23 30l8.5 6t21 15.5t25.5 19.5q12 9 26 21t24 21l10 9l34 -49l-10 -6t-23.5 -13.5
t-25.5 -14.5q-11 -6 -24.5 -14t-25 -15t-17.5 -10z" />
    <glyph glyph-name="icircumflex" unicode="&#xee;" horiz-adv-x="177" 
d="M122 0l-69 1q1 22 2.5 48.5t2.5 60t1.5 73t0.5 85.5q0 62 -1 109t-2.5 81.5t-3.5 61.5l66 1q-1 -23 -2 -59.5t-1.5 -84.5t-0.5 -110q0 -46 1 -85t2 -72.5t2 -60.5t2 -49zM150 590l-65 43l-63 -41l-30 23l66 66l54 -2l68 -62z" />
    <glyph glyph-name="idieresis" unicode="&#xef;" horiz-adv-x="177" 
d="M122 0l-69 1q1 22 2.5 48.5t2.5 60t1.5 73t0.5 85.5q0 62 -1 109t-2.5 81.5t-3.5 61.5l66 1q-1 -23 -2 -59.5t-1.5 -84.5t-0.5 -110q0 -46 1 -85t2 -72.5t2 -60.5t2 -49zM194 595l-59 -1l-2 86l64 -7zM34 595l-59 -1l-2 86l64 -7z" />
    <glyph glyph-name="eth" unicode="&#xf0;" horiz-adv-x="366" 
d="M175 -10q-30 0 -53.5 10.5t-40.5 35t-26.5 65.5t-9.5 102q0 70 12.5 119.5t41.5 76t78 26.5q39 0 56.5 -12.5t25.5 -29.5t15 -31l-24 -109q0 37 -6 64t-21 42t-44 15q-30 0 -46 -19.5t-21 -54t-4 -79.5q2 -66 9.5 -101t23 -47.5t42.5 -12.5q31 0 44.5 21.5t18 64.5
t4.5 107v29t0.5 38.5t-0.5 59.5q0 47 -6.5 93.5t-22 86t-43 68t-70.5 39.5l34 58q23 -12 47.5 -29t47 -43.5t39.5 -68.5t27.5 -103.5t10.5 -149.5q0 -72 -3.5 -127t-12.5 -93.5t-24 -63t-39.5 -36t-59.5 -11.5zM150 486l-24 59q17 7 32.5 13t32.5 14t38 19q15 8 28 14.5
t24 12.5t23 12.5t24 12.5l30 -55q-13 -6 -27 -12t-27 -12.5t-27 -13t-27 -12.5l-38 -19t-30.5 -16t-31.5 -17z" />
    <glyph glyph-name="ntilde" unicode="&#xf1;" horiz-adv-x="350" 
d="M298 0l-67 1q1 22 2.5 44.5t2.5 48.5t1.5 57t0.5 70v71v56v47q0 29 -4 45t-13 22.5t-24 6.5q-19 0 -38 -18.5t-32 -57.5t-13 -100l-26 -14q0 34 3 69t11 66.5t22 56t35.5 39t50.5 14.5q28 0 46.5 -12t27.5 -37.5t9 -68.5v-55v-58v-71q0 -43 0.5 -76t1 -59t1.5 -47t2 -40z
M52 1q2 28 3 56t2 58t1.5 67.5t0.5 85.5q0 64 -0.5 122t-1.5 94l-1 36l59 3q0 -22 -1 -55.5t-1 -77t1 -97.5v-114.5t1 -96.5t2 -81h-65zM118 599h-40q2 26 10 41.5t21 22t29 6.5q23 0 45 -10.5t40 -10.5q11 0 16.5 4.5t5.5 16.5h40q-1 -26 -9.5 -41.5t-21.5 -22t-29 -6.5
q-22 0 -44.5 10.5t-40.5 10.5q-11 0 -16 -4.5t-6 -16.5z" />
    <glyph glyph-name="ograve" unicode="&#xf2;" horiz-adv-x="330" 
d="M161 -10q-57 0 -80 36.5t-33 96.5q-4 26 -6 58.5t-2 65.5q0 28 1.5 57t4.5 55t7 46q13 65 41 95.5t81 30.5q52 0 77.5 -32t31.5 -88q3 -31 5 -64.5t2 -68.5q0 -50 -4.5 -99.5t-13.5 -89.5q-5 -23 -17.5 -46t-35 -38t-59.5 -15zM163 47q35 0 46.5 28t17.5 78q2 16 3 34.5
t1.5 39t0.5 41.5q0 33 -1 63t-3 53q-3 41 -14.5 67.5t-42.5 26.5q-24 0 -36.5 -12t-18 -29.5t-8.5 -36.5q-3 -23 -5.5 -49t-3.5 -52t-1 -51q0 -19 0.5 -37.5t2 -36.5t3.5 -37q5 -44 19 -67t40 -23zM195 585l-8.5 5t-21 12.5t-23.5 13.5q-11 7 -22.5 12t-19 8.5l-7.5 3.5
l38 46l14 -12t32 -26l34 -25.5l14 -10.5z" />
    <glyph glyph-name="oacute" unicode="&#xf3;" horiz-adv-x="330" 
d="M161 -10q-57 0 -80 36.5t-33 96.5q-4 26 -6 58.5t-2 65.5q0 28 1.5 57t4.5 55t7 46q13 65 41 95.5t81 30.5q52 0 77.5 -32t31.5 -88q3 -31 5 -64.5t2 -68.5q0 -50 -4.5 -99.5t-13.5 -89.5q-5 -23 -17.5 -46t-35 -38t-59.5 -15zM163 47q35 0 46.5 28t17.5 78q2 16 3 34.5
t1.5 39t0.5 41.5q0 33 -1 63t-3 53q-3 41 -14.5 67.5t-42.5 26.5q-24 0 -36.5 -12t-18 -29.5t-8.5 -36.5q-3 -23 -5.5 -49t-3.5 -52t-1 -51q0 -19 0.5 -37.5t2 -36.5t3.5 -37q5 -44 19 -67t40 -23zM131 577l-23 30l8.5 6t21 15.5t25.5 19.5q12 9 26 21t24 21l10 9l34 -49
l-10 -6t-23.5 -13.5t-25.5 -14.5q-11 -6 -24.5 -14t-25 -15t-17.5 -10z" />
    <glyph glyph-name="ocircumflex" unicode="&#xf4;" horiz-adv-x="330" 
d="M161 -10q-57 0 -80 36.5t-33 96.5q-4 26 -6 58.5t-2 65.5q0 28 1.5 57t4.5 55t7 46q13 65 41 95.5t81 30.5q52 0 77.5 -32t31.5 -88q3 -31 5 -64.5t2 -68.5q0 -50 -4.5 -99.5t-13.5 -89.5q-5 -23 -17.5 -46t-35 -38t-59.5 -15zM163 47q35 0 46.5 28t17.5 78q2 16 3 34.5
t1.5 39t0.5 41.5q0 33 -1 63t-3 53q-3 41 -14.5 67.5t-42.5 26.5q-24 0 -36.5 -12t-18 -29.5t-8.5 -36.5q-3 -23 -5.5 -49t-3.5 -52t-1 -51q0 -19 0.5 -37.5t2 -36.5t3.5 -37q5 -44 19 -67t40 -23zM234 590l-65 43l-63 -41l-30 23l66 66l54 -2l68 -62z" />
    <glyph glyph-name="otilde" unicode="&#xf5;" horiz-adv-x="330" 
d="M161 -10q-57 0 -80 36.5t-33 96.5q-4 26 -6 58.5t-2 65.5q0 28 1.5 57t4.5 55t7 46q13 65 41 95.5t81 30.5q52 0 77.5 -32t31.5 -88q3 -31 5 -64.5t2 -68.5q0 -50 -4.5 -99.5t-13.5 -89.5q-5 -23 -17.5 -46t-35 -38t-59.5 -15zM163 47q35 0 46.5 28t17.5 78q2 16 3 34.5
t1.5 39t0.5 41.5q0 33 -1 63t-3 53q-3 41 -14.5 67.5t-42.5 26.5q-24 0 -36.5 -12t-18 -29.5t-8.5 -36.5q-3 -23 -5.5 -49t-3.5 -52t-1 -51q0 -19 0.5 -37.5t2 -36.5t3.5 -37q5 -44 19 -67t40 -23zM105 599h-40q2 26 10 41.5t21 22t29 6.5q23 0 45 -10.5t40 -10.5
q11 0 16.5 4.5t5.5 16.5h40q-1 -26 -9.5 -41.5t-21.5 -22t-29 -6.5q-22 0 -44.5 10.5t-40.5 10.5q-11 0 -16 -4.5t-6 -16.5z" />
    <glyph glyph-name="odieresis" unicode="&#xf6;" horiz-adv-x="330" 
d="M161 -10q-57 0 -80 36.5t-33 96.5q-4 26 -6 58.5t-2 65.5q0 28 1.5 57t4.5 55t7 46q13 65 41 95.5t81 30.5q52 0 77.5 -32t31.5 -88q3 -31 5 -64.5t2 -68.5q0 -50 -4.5 -99.5t-13.5 -89.5q-5 -23 -17.5 -46t-35 -38t-59.5 -15zM163 47q35 0 46.5 28t17.5 78q2 16 3 34.5
t1.5 39t0.5 41.5q0 33 -1 63t-3 53q-3 41 -14.5 67.5t-42.5 26.5q-24 0 -36.5 -12t-18 -29.5t-8.5 -36.5q-3 -23 -5.5 -49t-3.5 -52t-1 -51q0 -19 0.5 -37.5t2 -36.5t3.5 -37q5 -44 19 -67t40 -23zM278 595l-59 -1l-2 86l64 -7zM118 595l-59 -1l-2 86l64 -7z" />
    <glyph glyph-name="divide" unicode="&#xf7;" horiz-adv-x="394" 
d="M66 259l-1 63l12 -0.5t31 -1t41.5 -1t43.5 0.5q22 0 45.5 1t44 1.5t33.5 1l13 0.5l-7 -62l-11.5 0.5t-30 0.5h-40h-42.5q-19 0 -42 -1t-43.5 -1.5t-33.5 -1zM198 116q-22 0 -39.5 15t-17.5 40q0 22 14 34.5t34 12.5q26 0 42 -16t16 -37q0 -19 -13.5 -34t-35.5 -15z
M198 371q-22 0 -39.5 15t-17.5 40q0 22 14 34.5t34 12.5q26 0 42 -16t16 -37q0 -19 -13.5 -34t-35.5 -15z" />
    <glyph glyph-name="oslash" unicode="&#xf8;" horiz-adv-x="330" 
d="M161 -10q-57 0 -80 36.5t-33 96.5q-4 26 -6 58.5t-2 65.5q0 28 1.5 57t4.5 55t7 46q13 65 41 95.5t81 30.5q52 0 77.5 -32t31.5 -88q3 -31 5 -64.5t2 -68.5q0 -50 -4.5 -99.5t-13.5 -89.5q-5 -23 -17.5 -46t-35 -38t-59.5 -15zM163 47q35 0 46.5 28t17.5 78q2 16 3 34.5
t1.5 39t0.5 41.5q0 33 -1 63t-3 53q-3 41 -14.5 67.5t-42.5 26.5q-24 0 -36.5 -12t-18 -29.5t-8.5 -36.5q-2 -18 -4 -36.5t-3.5 -38.5t-2 -39.5t-0.5 -37.5q0 -29 1.5 -56t4.5 -55q5 -44 19 -67t40 -23zM101 -60l-49 14q11 31 26.5 79.5t32.5 105t32 110.5q16 55 32.5 117.5
t32 120t25.5 97.5l49 -15q-13 -37 -28.5 -84t-30.5 -95t-27.5 -89t-20.5 -69t-17.5 -65t-20 -78t-20 -80t-16.5 -69z" />
    <glyph glyph-name="ugrave" unicode="&#xf9;" horiz-adv-x="334" 
d="M131 -8q-28 0 -47 15t-28 42.5t-9 66.5q0 33 1 65.5t2 59t1 41.5q1 18 1.5 43t1 55.5t0.5 66v75.5l63 6l-1 -23t-3 -59.5t-3.5 -79t-3.5 -83.5q0 -9 -1 -29.5t-1.5 -46.5t-1 -50.5t-0.5 -41.5q0 -22 3.5 -38.5t12 -25t24.5 -8.5q22 0 38.5 16t27.5 43t17 61t6 72l30 42
q0 -25 -1.5 -60.5t-7.5 -75t-19.5 -73.5t-38.5 -55t-63 -21zM237 0l1 105q-1 33 -3 66.5t-4 67.5q0 30 -0.5 66t-1 75t-1 77t-1.5 72l62 -1q-1 -20 -1.5 -46t-1 -54.5t-0.5 -55.5v-50.5v-37.5q1 -28 1.5 -56.5l1 -57l1 -57t1 -56.5t1.5 -57h-55zM195 585l-8.5 5t-21 12.5
t-23.5 13.5q-11 7 -22.5 12t-19 8.5l-7.5 3.5l38 46l14 -12t32 -26l34 -25.5l14 -10.5z" />
    <glyph glyph-name="uacute" unicode="&#xfa;" horiz-adv-x="334" 
d="M131 -8q-28 0 -47 15t-28 42.5t-9 66.5q0 33 1 65.5t2 59t1 41.5q1 18 1.5 43t1 55.5t0.5 66v75.5l63 6l-1 -23t-3 -59.5t-3.5 -79t-3.5 -83.5q0 -9 -1 -29.5t-1.5 -46.5t-1 -50.5t-0.5 -41.5q0 -22 3.5 -38.5t12 -25t24.5 -8.5q22 0 38.5 16t27.5 43t17 61t6 72l30 42
q0 -25 -1.5 -60.5t-7.5 -75t-19.5 -73.5t-38.5 -55t-63 -21zM237 0l1 105q-1 33 -3 66.5t-4 67.5q0 30 -0.5 66t-1 75t-1 77t-1.5 72l62 -1q-1 -20 -1.5 -46t-1 -54.5t-0.5 -55.5v-50.5v-37.5q1 -28 1.5 -56.5l1 -57l1 -57t1 -56.5t1.5 -57h-55zM131 577l-23 30l8.5 6
t21 15.5t25.5 19.5q12 9 26 21t24 21l10 9l34 -49l-10 -6t-23.5 -13.5t-25.5 -14.5q-11 -6 -24.5 -14t-25 -15t-17.5 -10z" />
    <glyph glyph-name="ucircumflex" unicode="&#xfb;" horiz-adv-x="334" 
d="M131 -8q-28 0 -47 15t-28 42.5t-9 66.5q0 33 1 65.5t2 59t1 41.5q1 18 1.5 43t1 55.5t0.5 66v75.5l63 6l-1 -23t-3 -59.5t-3.5 -79t-3.5 -83.5q0 -9 -1 -29.5t-1.5 -46.5t-1 -50.5t-0.5 -41.5q0 -22 3.5 -38.5t12 -25t24.5 -8.5q22 0 38.5 16t27.5 43t17 61t6 72l30 42
q0 -25 -1.5 -60.5t-7.5 -75t-19.5 -73.5t-38.5 -55t-63 -21zM237 0l1 105q-1 33 -3 66.5t-4 67.5q0 30 -0.5 66t-1 75t-1 77t-1.5 72l62 -1q-1 -20 -1.5 -46t-1 -54.5t-0.5 -55.5v-50.5v-37.5q1 -28 1.5 -56.5l1 -57l1 -57t1 -56.5t1.5 -57h-55zM234 590l-65 43l-63 -41
l-30 23l66 66l54 -2l68 -62z" />
    <glyph glyph-name="udieresis" unicode="&#xfc;" horiz-adv-x="334" 
d="M131 -8q-28 0 -47 15t-28 42.5t-9 66.5q0 33 1 65.5t2 59t1 41.5q1 18 1.5 43t1 55.5t0.5 66v75.5l63 6l-1 -23t-3 -59.5t-3.5 -79t-3.5 -83.5q0 -9 -1 -29.5t-1.5 -46.5t-1 -50.5t-0.5 -41.5q0 -22 3.5 -38.5t12 -25t24.5 -8.5q22 0 38.5 16t27.5 43t17 61t6 72l30 42
q0 -25 -1.5 -60.5t-7.5 -75t-19.5 -73.5t-38.5 -55t-63 -21zM237 0l1 105q-1 33 -3 66.5t-4 67.5q0 30 -0.5 66t-1 75t-1 77t-1.5 72l62 -1q-1 -20 -1.5 -46t-1 -54.5t-0.5 -55.5v-50.5v-37.5q1 -28 1.5 -56.5l1 -57l1 -57t1 -56.5t1.5 -57h-55zM278 595l-59 -1l-2 86l64 -7
zM118 595l-59 -1l-2 86l64 -7z" />
    <glyph glyph-name="yacute" unicode="&#xfd;" horiz-adv-x="307" 
d="M162 -148l-66 2q9 37 17 74.5t15.5 74t15.5 73t15 71.5t14 68.5t14 65.5q7 41 14.5 81l15 80t14.5 78h66q-7 -32 -14.5 -64.5t-14.5 -64l-14 -63t-13 -61.5q-9 -42 -17.5 -83t-16.5 -82t-15.5 -82.5l-15 -83t-14.5 -84.5zM128 -9q-5 26 -10.5 53t-11.5 55.5t-12 57.5
t-12 57.5t-12 56.5q-8 37 -15.5 71t-15 65t-14.5 58t-12 49l68 3q5 -29 12 -66.5t15.5 -81t18.5 -91.5q6 -28 11.5 -58.5t11.5 -61t12.5 -61t12.5 -59.5zM114 577l-23 30l8.5 6t21 15.5t25.5 19.5q12 9 26 21t24 21l10 9l34 -49l-10 -6t-23.5 -13.5t-25.5 -14.5
q-11 -6 -24.5 -14t-25 -15t-17.5 -10z" />
    <glyph glyph-name="thorn" unicode="&#xfe;" horiz-adv-x="354" 
d="M56 -146q2 35 3.5 78.5t2.5 91t2 91t1 78.5v63t-0.5 80t-1 90t-1.5 95t-2 93.5t-3 85.5l67 2q0 -59 -0.5 -118t-0.5 -118q9 18 20.5 31t27 20t36.5 7q45 0 67.5 -29.5t30.5 -75.5q7 -36 8 -78.5t1 -84.5q0 -28 -0.5 -56t-3 -53.5t-7.5 -48.5q-9 -48 -34 -79t-75 -31
q-17 0 -31 6.5t-24 17.5t-17 26l2 -183zM121 243q0 -62 8 -106.5t24.5 -69t39.5 -24.5q26 0 39.5 19.5t19.5 51.5t6 71v75q0 38 -0.5 74.5t-5.5 63.5q-6 32 -18.5 51t-37.5 19t-41.5 -24t-25 -63.5t-8.5 -88.5v-49z" />
    <glyph glyph-name="ydieresis" unicode="&#xff;" horiz-adv-x="307" 
d="M162 -148l-66 2q9 37 17 74.5t15.5 74t15.5 73t15 71.5t14 68.5t14 65.5q7 41 14.5 81l15 80t14.5 78h66q-7 -32 -14.5 -64.5t-14.5 -64l-14 -63t-13 -61.5q-9 -42 -17.5 -83t-16.5 -82t-15.5 -82.5l-15 -83t-14.5 -84.5zM128 -9q-5 26 -10.5 53t-11.5 55.5t-12 57.5
t-12 57.5t-12 56.5q-8 37 -15.5 71t-15 65t-14.5 58t-12 49l68 3q5 -29 12 -66.5t15.5 -81t18.5 -91.5q6 -28 11.5 -58.5t11.5 -61t12.5 -61t12.5 -59.5zM261 595l-59 -1l-2 86l64 -7zM101 595l-59 -1l-2 86l64 -7z" />
    <glyph glyph-name="Amacron" unicode="&#x100;" horiz-adv-x="340" 
d="M259 -6q-8 61 -16 121t-16 118.5t-16 114.5q-6 40 -11.5 79t-11 76t-11 72t-11.5 67l-49 60l108 2q5 -40 10 -82t11 -85t13 -87.5t14 -88.5q10 -61 20 -123.5t21 -122.5t21 -116zM68 164v64l196 -4v-53zM76 5l-70 1q8 43 17.5 99.5t20.5 120.5t21 128q11 67 21 131.5
t18 120.5t13 96l108 2l-53 -68q-7 -40 -14.5 -86t-15.5 -95.5t-16 -102.5q-8 -57 -17 -116.5t-17.5 -117.5t-15.5 -113zM84 768v53l170 -3l4 -47z" />
    <glyph glyph-name="amacron" unicode="&#x101;" horiz-adv-x="298" 
d="M207 0l-3 208l1 168q1 62 -12.5 83.5t-47.5 21.5q-33 0 -45.5 -25.5t-12.5 -59.5q0 -15 1.5 -31t4.5 -30l-53 -3q-3 17 -5 33t-2 33q0 39 12 68t37.5 46t64.5 17q36 0 57.5 -12.5t33 -33.5t15 -46t2.5 -50l-3 -128l7 -259h-52zM113 -10q-31 0 -51 13.5t-29.5 38
t-9.5 55.5t9 55t24 42.5t33 34t37 30.5q15 13 29.5 25t25.5 26t17.5 30.5t6.5 35.5l27 -7q0 -39 -11.5 -66t-29.5 -46t-38 -35t-38 -33t-29 -38t-11 -52q0 -19 4.5 -31.5t14 -18.5t24.5 -6q28 0 47 22t29 62t10 94l37 71q-1 -62 -8 -116.5t-21.5 -96.5t-38.5 -65.5
t-60 -23.5zM59 610v53l170 -3l4 -47z" />
    <glyph glyph-name="Abreve" unicode="&#x102;" horiz-adv-x="340" 
d="M259 -6q-8 61 -16 121t-16 118.5t-16 114.5q-6 40 -11.5 79t-11 76t-11 72t-11.5 67l-49 60l108 2q5 -40 10 -82t11 -85t13 -87.5t14 -88.5q10 -61 20 -123.5t21 -122.5t21 -116zM68 164v64l196 -4v-53zM76 5l-70 1q8 43 17.5 99.5t20.5 120.5t21 128q11 67 21 131.5
t18 120.5t13 96l108 2l-53 -68q-7 -40 -14.5 -86t-15.5 -95.5t-16 -102.5q-8 -57 -17 -116.5t-17.5 -117.5t-15.5 -113zM172 754q-34 0 -61.5 10.5t-52.5 32.5l29 35q20 -14 38.5 -21t43.5 -7q29 0 50 8.5t37 20.5l27 -32q-16 -18 -46.5 -32.5t-64.5 -14.5z" />
    <glyph glyph-name="abreve" unicode="&#x103;" horiz-adv-x="298" 
d="M207 0l-3 208l1 168q1 62 -12.5 83.5t-47.5 21.5q-33 0 -45.5 -25.5t-12.5 -59.5q0 -15 1.5 -31t4.5 -30l-53 -3q-3 17 -5 33t-2 33q0 39 12 68t37.5 46t64.5 17q36 0 57.5 -12.5t33 -33.5t15 -46t2.5 -50l-3 -128l7 -259h-52zM113 -10q-31 0 -51 13.5t-29.5 38
t-9.5 55.5t9 55t24 42.5t33 34t37 30.5q15 13 29.5 25t25.5 26t17.5 30.5t6.5 35.5l27 -7q0 -39 -11.5 -66t-29.5 -46t-38 -35t-38 -33t-29 -38t-11 -52q0 -19 4.5 -31.5t14 -18.5t24.5 -6q28 0 47 22t29 62t10 94l37 71q-1 -62 -8 -116.5t-21.5 -96.5t-38.5 -65.5
t-60 -23.5zM147 595q-34 0 -61.5 10.5t-52.5 32.5l29 35q20 -14 38.5 -21t43.5 -7q29 0 50 8.5t37 20.5l27 -32q-16 -18 -46.5 -32.5t-64.5 -14.5z" />
    <glyph glyph-name="Aogonek" unicode="&#x104;" horiz-adv-x="340" 
d="M259 -6q-8 61 -16 121t-16 118.5t-16 114.5q-6 40 -11.5 79t-11 76t-11 72t-11.5 67l-49 60l108 2q5 -40 10 -82t11 -85t13 -87.5t14 -88.5q10 -61 20 -123.5t21 -122.5t21 -116zM68 164v64l196 -4v-53zM76 5l-70 1q8 43 17.5 99.5t20.5 120.5t21 128q11 67 21 131.5
t18 120.5t13 96l108 2l-53 -68q-7 -40 -14.5 -86t-15.5 -95.5t-16 -102.5q-8 -57 -17 -116.5t-17.5 -117.5t-15.5 -113zM295 -127q-32 0 -56.5 12.5t-24.5 41.5q0 18 11.5 35t27.5 29.5t30 16.5l38 -5q-7 0 -23 -8.5t-29.5 -23t-13.5 -31.5q0 -13 13.5 -18t30.5 -5
q10 0 23.5 1.5t21.5 2.5v-42q-12 -3 -24 -4.5t-25 -1.5z" />
    <glyph glyph-name="aogonek" unicode="&#x105;" horiz-adv-x="298" 
d="M207 0l-3 208l1 168q1 62 -12.5 83.5t-47.5 21.5q-33 0 -45.5 -25.5t-12.5 -59.5q0 -15 1.5 -31t4.5 -30l-53 -3q-3 17 -5 33t-2 33q0 39 12 68t37.5 46t64.5 17q36 0 57.5 -12.5t33 -33.5t15 -46t2.5 -50l-3 -128l7 -259h-52zM113 -10q-31 0 -51 13.5t-29.5 38
t-9.5 55.5t9 55t24 42.5t33 34t37 30.5q15 13 29.5 25t25.5 26t17.5 30.5t6.5 35.5l27 -7q0 -39 -11.5 -66t-29.5 -46t-38 -35t-38 -33t-29 -38t-11 -52q0 -19 4.5 -31.5t14 -18.5t24.5 -6q28 0 47 22t29 62t10 94l37 71q-1 -62 -8 -116.5t-21.5 -96.5t-38.5 -65.5
t-60 -23.5zM229 -130q-32 0 -56.5 12.5t-24.5 41.5q0 18 11.5 35t27.5 29.5t30 16.5l38 -5q-7 0 -23 -8.5t-29.5 -23t-13.5 -31.5q0 -13 13.5 -18t30.5 -5q10 0 23.5 1.5t21.5 2.5v-42q-12 -3 -24 -4.5t-25 -1.5z" />
    <glyph glyph-name="Cacute" unicode="&#x106;" horiz-adv-x="353" 
d="M190 -10q-43 0 -71 13.5t-43.5 40t-23.5 66.5q-5 29 -7.5 64t-2.5 77v89q0 34 0.5 68.5t2.5 66.5t6.5 61.5t11.5 55.5q9 33 26 57.5t44 38t65 13.5q47 0 74.5 -23.5t38.5 -64.5t11 -92q1 -40 -3 -83t-11 -86l-62 1q3 25 6.5 52.5t5 56.5t1.5 56q0 35 -5.5 63t-19.5 44.5
t-38 16.5q-29 0 -46.5 -20t-26.5 -55q-5 -21 -8.5 -46t-5 -53t-2 -56t-0.5 -54v-121t3 -91q6 -48 24 -72.5t58 -24.5q26 0 38.5 15.5t17.5 39.5t5 49q0 14 -0.5 27.5t-1.5 25.5l60 2q2 -13 3 -28.5t1 -29.5q0 -41 -12.5 -77.5t-39.5 -59.5t-73 -23zM153 736l-23 30
q9 7 25 18.5t30 22.5q9 7 20 16t22 18.5t18 16.5l34 -49q-7 -4 -18 -10.5t-21.5 -12.5t-19.5 -11q-11 -6 -24.5 -14t-25 -15t-17.5 -10z" />
    <glyph glyph-name="cacute" unicode="&#x107;" horiz-adv-x="319" 
d="M161 -13q-47 0 -72 27t-36 71q-9 37 -11 80.5t-2 88.5q0 38 1.5 74t6.5 68q6 40 21 69.5t42 45.5t69 16q40 0 62.5 -19.5t32 -51t9.5 -69.5q0 -27 -3 -52t-6 -48l-56 1q4 22 6.5 45.5t2.5 44.5q0 26 -5 47.5t-17.5 33.5t-33.5 12q-32 0 -47 -21t-20 -60q-4 -27 -5 -62
t-1 -76v-49t1.5 -45t3.5 -39q6 -36 20 -57.5t43 -21.5q26 0 39 11t18 29t5 39q0 12 -0.5 24.5t-1.5 23.5l55 2q1 -10 1.5 -20t0.5 -22q0 -38 -10.5 -69.5t-37.5 -51t-75 -19.5zM130 577l-23 30l8.5 6t21 15.5t25.5 19.5q12 9 26 21t24 21l10 9l34 -49l-10 -6t-23.5 -13.5
t-25.5 -14.5q-11 -6 -24.5 -14t-25 -15t-17.5 -10z" />
    <glyph glyph-name="Ccircumflex" unicode="&#x108;" horiz-adv-x="353" 
d="M190 -10q-43 0 -71 13.5t-43.5 40t-23.5 66.5q-5 29 -7.5 64t-2.5 77v89q0 34 0.5 68.5t2.5 66.5t6.5 61.5t11.5 55.5q9 33 26 57.5t44 38t65 13.5q47 0 74.5 -23.5t38.5 -64.5t11 -92q1 -40 -3 -83t-11 -86l-62 1q3 25 6.5 52.5t5 56.5t1.5 56q0 35 -5.5 63t-19.5 44.5
t-38 16.5q-29 0 -46.5 -20t-26.5 -55q-5 -21 -8.5 -46t-5 -53t-2 -56t-0.5 -54v-121t3 -91q6 -48 24 -72.5t58 -24.5q26 0 38.5 15.5t17.5 39.5t5 49q0 14 -0.5 27.5t-1.5 25.5l60 2q2 -13 3 -28.5t1 -29.5q0 -41 -12.5 -77.5t-39.5 -59.5t-73 -23zM256 749l-65 43l-63 -41
l-30 23l66 66l54 -2l68 -62z" />
    <glyph glyph-name="ccircumflex" unicode="&#x109;" horiz-adv-x="319" 
d="M161 -13q-47 0 -72 27t-36 71q-9 37 -11 80.5t-2 88.5q0 38 1.5 74t6.5 68q6 40 21 69.5t42 45.5t69 16q40 0 62.5 -19.5t32 -51t9.5 -69.5q0 -27 -3 -52t-6 -48l-56 1q4 22 6.5 45.5t2.5 44.5q0 26 -5 47.5t-17.5 33.5t-33.5 12q-32 0 -47 -21t-20 -60q-4 -27 -5 -62
t-1 -76v-49t1.5 -45t3.5 -39q6 -36 20 -57.5t43 -21.5q26 0 39 11t18 29t5 39q0 12 -0.5 24.5t-1.5 23.5l55 2q1 -10 1.5 -20t0.5 -22q0 -38 -10.5 -69.5t-37.5 -51t-75 -19.5zM233 590l-65 43l-63 -41l-30 23l66 66l54 -2l68 -62z" />
    <glyph glyph-name="Cdotaccent" unicode="&#x10a;" horiz-adv-x="353" 
d="M190 -10q-43 0 -71 13.5t-43.5 40t-23.5 66.5q-5 29 -7.5 64t-2.5 77v89q0 34 0.5 68.5t2.5 66.5t6.5 61.5t11.5 55.5q9 33 26 57.5t44 38t65 13.5q47 0 74.5 -23.5t38.5 -64.5t11 -92q1 -40 -3 -83t-11 -86l-62 1q3 25 6.5 52.5t5 56.5t1.5 56q0 35 -5.5 63t-19.5 44.5
t-38 16.5q-29 0 -46.5 -20t-26.5 -55q-5 -21 -8.5 -46t-5 -53t-2 -56t-0.5 -54v-121t3 -91q6 -48 24 -72.5t58 -24.5q26 0 38.5 15.5t17.5 39.5t5 49q0 14 -0.5 27.5t-1.5 25.5l60 2q2 -13 3 -28.5t1 -29.5q0 -41 -12.5 -77.5t-39.5 -59.5t-73 -23zM162 769l-2 86l65 -7
l-3 -78z" />
    <glyph glyph-name="cdotaccent" unicode="&#x10b;" horiz-adv-x="319" 
d="M161 -13q-47 0 -72 27t-36 71q-9 37 -11 80.5t-2 88.5q0 38 1.5 74t6.5 68q6 40 21 69.5t42 45.5t69 16q40 0 62.5 -19.5t32 -51t9.5 -69.5q0 -27 -3 -52t-6 -48l-56 1q4 22 6.5 45.5t2.5 44.5q0 26 -5 47.5t-17.5 33.5t-33.5 12q-32 0 -47 -21t-20 -60q-4 -27 -5 -62
t-1 -76v-49t1.5 -45t3.5 -39q6 -36 20 -57.5t43 -21.5q26 0 39 11t18 29t5 39q0 12 -0.5 24.5t-1.5 23.5l55 2q1 -10 1.5 -20t0.5 -22q0 -38 -10.5 -69.5t-37.5 -51t-75 -19.5zM139 609l-2 86l65 -7l-3 -78z" />
    <glyph glyph-name="Ccaron" unicode="&#x10c;" horiz-adv-x="353" 
d="M190 -10q-43 0 -71 13.5t-43.5 40t-23.5 66.5q-5 29 -7.5 64t-2.5 77v89q0 34 0.5 68.5t2.5 66.5t6.5 61.5t11.5 55.5q9 33 26 57.5t44 38t65 13.5q47 0 74.5 -23.5t38.5 -64.5t11 -92q1 -40 -3 -83t-11 -86l-62 1q3 25 6.5 52.5t5 56.5t1.5 56q0 35 -5.5 63t-19.5 44.5
t-38 16.5q-29 0 -46.5 -20t-26.5 -55q-5 -21 -8.5 -46t-5 -53t-2 -56t-0.5 -54v-121t3 -91q6 -48 24 -72.5t58 -24.5q26 0 38.5 15.5t17.5 39.5t5 49q0 14 -0.5 27.5t-1.5 25.5l60 2q2 -13 3 -28.5t1 -29.5q0 -41 -12.5 -77.5t-39.5 -59.5t-73 -23zM220 749l-54 2l-68 62
l30 27l65 -43l63 41l30 -23z" />
    <glyph glyph-name="ccaron" unicode="&#x10d;" horiz-adv-x="319" 
d="M161 -13q-47 0 -72 27t-36 71q-9 37 -11 80.5t-2 88.5q0 38 1.5 74t6.5 68q6 40 21 69.5t42 45.5t69 16q40 0 62.5 -19.5t32 -51t9.5 -69.5q0 -27 -3 -52t-6 -48l-56 1q4 22 6.5 45.5t2.5 44.5q0 26 -5 47.5t-17.5 33.5t-33.5 12q-32 0 -47 -21t-20 -60q-4 -27 -5 -62
t-1 -76v-49t1.5 -45t3.5 -39q6 -36 20 -57.5t43 -21.5q26 0 39 11t18 29t5 39q0 12 -0.5 24.5t-1.5 23.5l55 2q1 -10 1.5 -20t0.5 -22q0 -38 -10.5 -69.5t-37.5 -51t-75 -19.5zM197 590l-54 2l-68 62l30 27l65 -43l63 41l30 -23z" />
    <glyph glyph-name="Dcaron" unicode="&#x10e;" horiz-adv-x="381" 
d="M183 -10q-29 0 -48 0.5t-35 2.5t-36 4l45 63q8 -2 19.5 -4t24.5 -2.5t28 -0.5q26 0 44.5 14.5t30 48t16.5 92t5 146.5q0 70 -3 125t-13 93.5t-30 58.5t-54 20t-56.5 -3t-36.5 -8l-23 62q24 2 50.5 4t61.5 2q52 0 85 -19t50.5 -60t24.5 -107.5t7 -162.5q0 -60 -2.5 -115
t-10.5 -101t-25 -80.5t-46.5 -53.5t-72.5 -19zM64 -3q1 42 2 104t1.5 131t0.5 131q0 63 -1 127.5t-2.5 120t-3.5 91.5l70 -10q0 -23 -0.5 -54t-1 -67t-0.5 -73t-0.5 -72.5t-0.5 -64.5v-59.5t0.5 -74t1 -80.5t1 -79.5t1.5 -70.5h-68zM213 749l-54 2l-68 62l30 27l65 -43
l63 41l30 -23z" />
    <glyph glyph-name="dcaron" unicode="&#x10f;" horiz-adv-x="342" 
d="M40 258q0 41 2 83t9 78q11 49 35.5 80t71.5 31q19 0 33.5 -6t25 -15t17.5 -20q0 21 -0.5 46.5t-1 53t-1 53.5t-0.5 47l64 4q-2 -71 -3.5 -138.5t-2 -124t-0.5 -95.5v-65.5t0.5 -63t1 -64t1 -67.5t1.5 -75h-55l-3 51q-8 -16 -19.5 -30t-28 -22.5t-38.5 -8.5
q-28 0 -47 11.5t-31 32t-19 48.5q-9 38 -10.5 83.5t-1.5 92.5zM98 254q0 -40 0.5 -73t3.5 -58q5 -38 17.5 -59t39.5 -21q26 0 40.5 22t21.5 52q6 25 9 53.5t3.5 56t0.5 48.5v61t-5 61q-4 34 -18.5 55.5t-45.5 21.5q-19 0 -31.5 -10t-19.5 -28.5t-11 -43.5q-4 -30 -4.5 -66.5
t-0.5 -71.5zM368 490l-28 14q12 21 20 50t7 51l-29 1l-4 86l69 6q0 -10 -0.5 -25.5t-0.5 -31t-1 -29.5q0 -28 -8.5 -62t-24.5 -60z" />
    <glyph glyph-name="Dcroat" unicode="&#x110;" horiz-adv-x="381" 
d="M14 321l1 48q10 0 27.5 -0.5t40.5 -0.5t49 -1t58.5 0t52.5 2l1 -48q-15 0 -37 0.5t-43 0.5h-37q-35 0 -66.5 -0.5t-46.5 -0.5zM183 -10q-29 0 -48 0.5t-35 2.5t-36 4l45 63q8 -2 19.5 -4t24.5 -2.5t28 -0.5q26 0 44.5 14.5t30 48t16.5 92t5 146.5q0 70 -3 125t-13 93.5
t-30 58.5t-54 20t-56.5 -3t-36.5 -8l-23 62q24 2 50.5 4t61.5 2q52 0 85 -19t50.5 -60t24.5 -107.5t7 -162.5q0 -60 -2.5 -115t-10.5 -101t-25 -80.5t-46.5 -53.5t-72.5 -19zM64 -3q1 42 2 104t1.5 131t0.5 131q0 63 -1 127.5t-2.5 120t-3.5 91.5l70 -10q0 -23 -0.5 -54
t-1 -67t-0.5 -73t-0.5 -72.5t-0.5 -64.5v-59.5t0.5 -74t1 -80.5t1 -79.5t1.5 -70.5h-68z" />
    <glyph glyph-name="dcroat" unicode="&#x111;" horiz-adv-x="342" 
d="M40 258q0 41 2 83t9 78q11 49 35.5 80t71.5 31q19 0 33.5 -6t25 -15t17.5 -20q0 21 -0.5 46.5t-1 53t-1 53.5t-0.5 47l64 4q-2 -71 -3.5 -138.5t-2 -124t-0.5 -95.5v-65.5t0.5 -63t1 -64t1 -67.5t1.5 -75h-55l-3 51q-8 -16 -19.5 -30t-28 -22.5t-38.5 -8.5
q-28 0 -47 11.5t-31 32t-19 48.5q-9 38 -10.5 83.5t-1.5 92.5zM98 254q0 -40 0.5 -73t3.5 -58q5 -38 17.5 -59t39.5 -21q26 0 40.5 22t21.5 52q6 25 9 53.5t3.5 56t0.5 48.5v61t-5 61q-4 34 -18.5 55.5t-45.5 21.5q-19 0 -31.5 -10t-19.5 -28.5t-11 -43.5q-4 -30 -4.5 -66.5
t-0.5 -71.5zM109 580l1 46h22t29.5 -0.5t35.5 -1t38 -0.5h29t33 0.5t32.5 1t27.5 0.5l1 -46h-31t-35 0.5t-34 0.5h-28q-35 0 -68.5 -0.5t-52.5 -0.5z" />
    <glyph glyph-name="Emacron" unicode="&#x112;" horiz-adv-x="340" 
d="M61 -5l0.5 24.5t0.5 65.5v92.5t0.5 107t0.5 106.5q0 64 -0.5 120t-0.5 98t-0.5 66l-0.5 24l70 -9l-0.5 -19.5t-0.5 -51.5t-0.5 -71.5t-1 -79.5t-0.5 -75t0.5 -84.5t1 -102t1 -98.5t1 -74.5l0.5 -28.5zM61 -5l44 67l204 -5v-57zM100 205v64l206 -3l-2 -57zM93 629l-32 70
l236 -6v-63zM100 768v53l170 -3l4 -47z" />
    <glyph glyph-name="emacron" unicode="&#x113;" horiz-adv-x="320" 
d="M164 -12q-49 0 -76 23.5t-36 78.5q-5 35 -8.5 77.5t-3.5 89.5q0 30 1.5 61.5t4.5 63.5q8 76 40 111t87 35q43 0 66.5 -23t33 -61t9.5 -84q0 -30 -2.5 -59.5t-4.5 -55.5l-55 51q2 20 3 37.5t1 34.5q0 31 -5 54t-17 36.5t-33 13.5q-35 0 -49 -26.5t-17 -66.5
q-2 -27 -3 -58.5t-1 -64.5q0 -25 0.5 -50.5t2 -48t3.5 -39.5q5 -37 18 -57t47 -20q23 0 36 10.5t18 28t5 36.5q0 13 -1.5 26t-3.5 24h56q2 -14 3.5 -27.5t1.5 -27.5q0 -35 -11.5 -63t-38 -44t-71.5 -16zM61 238l-1 58l215 2v-53h-14.5t-37.5 -1t-51.5 -1.5t-57 -1.5
t-53.5 -3zM83 610v53l170 -3l4 -47z" />
    <glyph glyph-name="Ebreve" unicode="&#x114;" horiz-adv-x="340" 
d="M61 -5l0.5 24.5t0.5 65.5v92.5t0.5 107t0.5 106.5q0 64 -0.5 120t-0.5 98t-0.5 66l-0.5 24l70 -9l-0.5 -19.5t-0.5 -51.5t-0.5 -71.5t-1 -79.5t-0.5 -75t0.5 -84.5t1 -102t1 -98.5t1 -74.5l0.5 -28.5zM61 -5l44 67l204 -5v-57zM100 205v64l206 -3l-2 -57zM93 629l-32 70
l236 -6v-63zM188 754q-34 0 -61.5 10.5t-52.5 32.5l29 35q20 -14 38.5 -21t43.5 -7q29 0 50 8.5t37 20.5l27 -32q-16 -18 -46.5 -32.5t-64.5 -14.5z" />
    <glyph glyph-name="ebreve" unicode="&#x115;" horiz-adv-x="320" 
d="M164 -12q-49 0 -76 23.5t-36 78.5q-5 35 -8.5 77.5t-3.5 89.5q0 30 1.5 61.5t4.5 63.5q8 76 40 111t87 35q43 0 66.5 -23t33 -61t9.5 -84q0 -30 -2.5 -59.5t-4.5 -55.5l-55 51q2 20 3 37.5t1 34.5q0 31 -5 54t-17 36.5t-33 13.5q-35 0 -49 -26.5t-17 -66.5
q-2 -27 -3 -58.5t-1 -64.5q0 -25 0.5 -50.5t2 -48t3.5 -39.5q5 -37 18 -57t47 -20q23 0 36 10.5t18 28t5 36.5q0 13 -1.5 26t-3.5 24h56q2 -14 3.5 -27.5t1.5 -27.5q0 -35 -11.5 -63t-38 -44t-71.5 -16zM61 238l-1 58l215 2v-53h-14.5t-37.5 -1t-51.5 -1.5t-57 -1.5
t-53.5 -3zM171 595q-34 0 -61.5 10.5t-52.5 32.5l29 35q20 -14 38.5 -21t43.5 -7q29 0 50 8.5t37 20.5l27 -32q-16 -18 -46.5 -32.5t-64.5 -14.5z" />
    <glyph glyph-name="Edotaccent" unicode="&#x116;" horiz-adv-x="340" 
d="M61 -5l0.5 24.5t0.5 65.5v92.5t0.5 107t0.5 106.5q0 64 -0.5 120t-0.5 98t-0.5 66l-0.5 24l70 -9l-0.5 -19.5t-0.5 -51.5t-0.5 -71.5t-1 -79.5t-0.5 -75t0.5 -84.5t1 -102t1 -98.5t1 -74.5l0.5 -28.5zM61 -5l44 67l204 -5v-57zM100 205v64l206 -3l-2 -57zM93 629l-32 70
l236 -6v-63zM157 769l-2 86l65 -7l-3 -78z" />
    <glyph glyph-name="edotaccent" unicode="&#x117;" horiz-adv-x="320" 
d="M164 -12q-49 0 -76 23.5t-36 78.5q-5 35 -8.5 77.5t-3.5 89.5q0 30 1.5 61.5t4.5 63.5q8 76 40 111t87 35q43 0 66.5 -23t33 -61t9.5 -84q0 -30 -2.5 -59.5t-4.5 -55.5l-55 51q2 20 3 37.5t1 34.5q0 31 -5 54t-17 36.5t-33 13.5q-35 0 -49 -26.5t-17 -66.5
q-2 -27 -3 -58.5t-1 -64.5q0 -25 0.5 -50.5t2 -48t3.5 -39.5q5 -37 18 -57t47 -20q23 0 36 10.5t18 28t5 36.5q0 13 -1.5 26t-3.5 24h56q2 -14 3.5 -27.5t1.5 -27.5q0 -35 -11.5 -63t-38 -44t-71.5 -16zM61 238l-1 58l215 2v-53h-14.5t-37.5 -1t-51.5 -1.5t-57 -1.5
t-53.5 -3zM140 609l-2 86l65 -7l-3 -78z" />
    <glyph glyph-name="Eogonek" unicode="&#x118;" horiz-adv-x="340" 
d="M61 -5l0.5 24.5t0.5 65.5v92.5t0.5 107t0.5 106.5q0 64 -0.5 120t-0.5 98t-0.5 66l-0.5 24l70 -9l-0.5 -19.5t-0.5 -51.5t-0.5 -71.5t-1 -79.5t-0.5 -75t0.5 -84.5t1 -102t1 -98.5t1 -74.5l0.5 -28.5zM61 -5l44 67l204 -5v-57zM100 205v64l206 -3l-2 -57zM93 629l-32 70
l236 -6v-63zM275 -130q-32 0 -56.5 12.5t-24.5 41.5q0 18 11.5 35t27.5 29.5t30 16.5l38 -5q-7 0 -23 -8.5t-29.5 -23t-13.5 -31.5q0 -13 13.5 -18t30.5 -5q10 0 23.5 1.5t21.5 2.5v-42q-12 -3 -24 -4.5t-25 -1.5z" />
    <glyph glyph-name="eogonek" unicode="&#x119;" horiz-adv-x="320" 
d="M164 -12q-49 0 -76 23.5t-36 78.5q-5 35 -8.5 77.5t-3.5 89.5q0 30 1.5 61.5t4.5 63.5q8 76 40 111t87 35q43 0 66.5 -23t33 -61t9.5 -84q0 -30 -2.5 -59.5t-4.5 -55.5l-55 51q2 20 3 37.5t1 34.5q0 31 -5 54t-17 36.5t-33 13.5q-35 0 -49 -26.5t-17 -66.5
q-2 -27 -3 -58.5t-1 -64.5q0 -25 0.5 -50.5t2 -48t3.5 -39.5q5 -37 18 -57t47 -20q23 0 36 10.5t18 28t5 36.5q0 13 -1.5 26t-3.5 24h56q2 -14 3.5 -27.5t1.5 -27.5q0 -35 -11.5 -63t-38 -44t-71.5 -16zM61 238l-1 58l215 2v-53h-14.5t-37.5 -1t-51.5 -1.5t-57 -1.5
t-53.5 -3zM195 -132q-32 0 -56.5 12.5t-24.5 41.5q0 18 11.5 35t27.5 29.5t30 16.5l38 -5q-7 0 -23 -8.5t-29.5 -23t-13.5 -31.5q0 -13 13.5 -18t30.5 -5q10 0 23.5 1.5t21.5 2.5v-42q-12 -3 -24 -4.5t-25 -1.5z" />
    <glyph glyph-name="Ecaron" unicode="&#x11a;" horiz-adv-x="340" 
d="M61 -5l0.5 24.5t0.5 65.5v92.5t0.5 107t0.5 106.5q0 64 -0.5 120t-0.5 98t-0.5 66l-0.5 24l70 -9l-0.5 -19.5t-0.5 -51.5t-0.5 -71.5t-1 -79.5t-0.5 -75t0.5 -84.5t1 -102t1 -98.5t1 -74.5l0.5 -28.5zM61 -5l44 67l204 -5v-57zM100 205v64l206 -3l-2 -57zM93 629l-32 70
l236 -6v-63zM215 749l-54 2l-68 62l30 27l65 -43l63 41l30 -23z" />
    <glyph glyph-name="ecaron" unicode="&#x11b;" horiz-adv-x="320" 
d="M164 -12q-49 0 -76 23.5t-36 78.5q-5 35 -8.5 77.5t-3.5 89.5q0 30 1.5 61.5t4.5 63.5q8 76 40 111t87 35q43 0 66.5 -23t33 -61t9.5 -84q0 -30 -2.5 -59.5t-4.5 -55.5l-55 51q2 20 3 37.5t1 34.5q0 31 -5 54t-17 36.5t-33 13.5q-35 0 -49 -26.5t-17 -66.5
q-2 -27 -3 -58.5t-1 -64.5q0 -25 0.5 -50.5t2 -48t3.5 -39.5q5 -37 18 -57t47 -20q23 0 36 10.5t18 28t5 36.5q0 13 -1.5 26t-3.5 24h56q2 -14 3.5 -27.5t1.5 -27.5q0 -35 -11.5 -63t-38 -44t-71.5 -16zM61 238l-1 58l215 2v-53h-14.5t-37.5 -1t-51.5 -1.5t-57 -1.5
t-53.5 -3zM198 590l-54 2l-68 62l30 27l65 -43l63 41l30 -23z" />
    <glyph glyph-name="Gcircumflex" unicode="&#x11c;" horiz-adv-x="357" 
d="M42 347v76t1 64t4 53.5t7 46.5q13 56 43.5 89.5t91.5 33.5q50 0 77 -23.5t38 -62t11 -87.5q0 -35 -3 -73.5t-8 -77.5h-63q5 34 9.5 71.5t4.5 72.5t-6.5 62t-21 43t-39.5 16q-31 0 -48 -22t-25 -59q-5 -24 -6.5 -46.5t-2 -48t0 -58t0.5 -75.5q0 -37 0.5 -72t1.5 -63t3 -46
q5 -51 23 -80.5t58 -29.5q25 0 39.5 16.5t20 42t5.5 52.5v19t-1 19l-68 -2v58l126 -2l6 -254h-26l-18 45q-15 -22 -42 -37t-57 -15q-37 0 -62 15t-39.5 42.5t-22.5 63.5q-5 29 -7.5 64t-3.5 77.5t-1 91.5zM250 749l-65 43l-63 -41l-30 23l66 66l54 -2l68 -62z" />
    <glyph glyph-name="gcircumflex" unicode="&#x11d;" horiz-adv-x="334" 
d="M155 -156q-32 0 -56.5 10t-37.5 28.5t-13 42.5q0 4 0.5 9t1.5 10l57 8q-1 -4 -1 -7v-6q0 -15 7 -25t19.5 -14.5t27.5 -4.5q21 0 36.5 12.5t24 35.5t8.5 54q1 16 1 61v106.5v123.5q0 43 0.5 79.5t1.5 66t2 51.5t2 34h63q0 -2 -2 -20t-4.5 -49.5t-4.5 -75t-2 -96.5
q0 -34 0.5 -65.5t0.5 -63.5t0.5 -68.5t0.5 -80.5q0 -34 -8.5 -63t-25.5 -49.5t-42 -32t-57 -11.5zM147 -9q-36 0 -60.5 23t-34.5 71q-7 34 -9.5 76.5t-2.5 85.5q0 27 1 54t3 51.5t5 45.5q8 60 32.5 94.5t75.5 34.5q37 0 59 -26t31.5 -86.5t9.5 -163.5l-27 42q0 57 -5.5 96.5
t-20 59.5t-39.5 20q-22 0 -38.5 -18t-21.5 -68q-4 -39 -6 -75.5t-2 -73.5q0 -20 0.5 -41.5t2.5 -42t4 -40.5q3 -21 9 -34t16 -19.5t26 -6.5q22 0 38 16t26 52.5t11 96.5l27 42q0 -25 -1.5 -59t-6.5 -70t-17 -67.5t-32.5 -50.5t-52.5 -19zM240 590l-65 43l-63 -41l-30 23
l66 66l54 -2l68 -62z" />
    <glyph glyph-name="Gbreve" unicode="&#x11e;" horiz-adv-x="357" 
d="M42 347v76t1 64t4 53.5t7 46.5q13 56 43.5 89.5t91.5 33.5q50 0 77 -23.5t38 -62t11 -87.5q0 -35 -3 -73.5t-8 -77.5h-63q5 34 9.5 71.5t4.5 72.5t-6.5 62t-21 43t-39.5 16q-31 0 -48 -22t-25 -59q-5 -24 -6.5 -46.5t-2 -48t0 -58t0.5 -75.5q0 -37 0.5 -72t1.5 -63t3 -46
q5 -51 23 -80.5t58 -29.5q25 0 39.5 16.5t20 42t5.5 52.5v19t-1 19l-68 -2v58l126 -2l6 -254h-26l-18 45q-15 -22 -42 -37t-57 -15q-37 0 -62 15t-39.5 42.5t-22.5 63.5q-5 29 -7.5 64t-3.5 77.5t-1 91.5zM187 754q-34 0 -61.5 10.5t-52.5 32.5l29 35q20 -14 38.5 -21
t43.5 -7q29 0 50 8.5t37 20.5l27 -32q-16 -18 -46.5 -32.5t-64.5 -14.5z" />
    <glyph glyph-name="gbreve" unicode="&#x11f;" horiz-adv-x="334" 
d="M155 -156q-32 0 -56.5 10t-37.5 28.5t-13 42.5q0 4 0.5 9t1.5 10l57 8q-1 -4 -1 -7v-6q0 -15 7 -25t19.5 -14.5t27.5 -4.5q21 0 36.5 12.5t24 35.5t8.5 54q1 16 1 61v106.5v123.5q0 43 0.5 79.5t1.5 66t2 51.5t2 34h63q0 -2 -2 -20t-4.5 -49.5t-4.5 -75t-2 -96.5
q0 -34 0.5 -65.5t0.5 -63.5t0.5 -68.5t0.5 -80.5q0 -34 -8.5 -63t-25.5 -49.5t-42 -32t-57 -11.5zM147 -9q-36 0 -60.5 23t-34.5 71q-7 34 -9.5 76.5t-2.5 85.5q0 27 1 54t3 51.5t5 45.5q8 60 32.5 94.5t75.5 34.5q37 0 59 -26t31.5 -86.5t9.5 -163.5l-27 42q0 57 -5.5 96.5
t-20 59.5t-39.5 20q-22 0 -38.5 -18t-21.5 -68q-4 -39 -6 -75.5t-2 -73.5q0 -20 0.5 -41.5t2.5 -42t4 -40.5q3 -21 9 -34t16 -19.5t26 -6.5q22 0 38 16t26 52.5t11 96.5l27 42q0 -25 -1.5 -59t-6.5 -70t-17 -67.5t-32.5 -50.5t-52.5 -19zM177 595q-34 0 -61.5 10.5
t-52.5 32.5l29 35q20 -14 38.5 -21t43.5 -7q29 0 50 8.5t37 20.5l27 -32q-16 -18 -46.5 -32.5t-64.5 -14.5z" />
    <glyph glyph-name="Gdotaccent" unicode="&#x120;" horiz-adv-x="357" 
d="M42 347v76t1 64t4 53.5t7 46.5q13 56 43.5 89.5t91.5 33.5q50 0 77 -23.5t38 -62t11 -87.5q0 -35 -3 -73.5t-8 -77.5h-63q5 34 9.5 71.5t4.5 72.5t-6.5 62t-21 43t-39.5 16q-31 0 -48 -22t-25 -59q-5 -24 -6.5 -46.5t-2 -48t0 -58t0.5 -75.5q0 -37 0.5 -72t1.5 -63t3 -46
q5 -51 23 -80.5t58 -29.5q25 0 39.5 16.5t20 42t5.5 52.5v19t-1 19l-68 -2v58l126 -2l6 -254h-26l-18 45q-15 -22 -42 -37t-57 -15q-37 0 -62 15t-39.5 42.5t-22.5 63.5q-5 29 -7.5 64t-3.5 77.5t-1 91.5zM156 769l-2 86l65 -7l-3 -78z" />
    <glyph glyph-name="gdotaccent" unicode="&#x121;" horiz-adv-x="334" 
d="M155 -156q-32 0 -56.5 10t-37.5 28.5t-13 42.5q0 4 0.5 9t1.5 10l57 8q-1 -4 -1 -7v-6q0 -15 7 -25t19.5 -14.5t27.5 -4.5q21 0 36.5 12.5t24 35.5t8.5 54q1 16 1 61v106.5v123.5q0 43 0.5 79.5t1.5 66t2 51.5t2 34h63q0 -2 -2 -20t-4.5 -49.5t-4.5 -75t-2 -96.5
q0 -34 0.5 -65.5t0.5 -63.5t0.5 -68.5t0.5 -80.5q0 -34 -8.5 -63t-25.5 -49.5t-42 -32t-57 -11.5zM147 -9q-36 0 -60.5 23t-34.5 71q-7 34 -9.5 76.5t-2.5 85.5q0 27 1 54t3 51.5t5 45.5q8 60 32.5 94.5t75.5 34.5q37 0 59 -26t31.5 -86.5t9.5 -163.5l-27 42q0 57 -5.5 96.5
t-20 59.5t-39.5 20q-22 0 -38.5 -18t-21.5 -68q-4 -39 -6 -75.5t-2 -73.5q0 -20 0.5 -41.5t2.5 -42t4 -40.5q3 -21 9 -34t16 -19.5t26 -6.5q22 0 38 16t26 52.5t11 96.5l27 42q0 -25 -1.5 -59t-6.5 -70t-17 -67.5t-32.5 -50.5t-52.5 -19zM146 609l-2 86l65 -7l-3 -78z" />
    <glyph glyph-name="uni0122" unicode="&#x122;" horiz-adv-x="357" 
d="M42 347v76t1 64t4 53.5t7 46.5q13 56 43.5 89.5t91.5 33.5q50 0 77 -23.5t38 -62t11 -87.5q0 -35 -3 -73.5t-8 -77.5h-63q5 34 9.5 71.5t4.5 72.5t-6.5 62t-21 43t-39.5 16q-31 0 -48 -22t-25 -59q-5 -24 -6.5 -46.5t-2 -48t0 -58t0.5 -75.5q0 -37 0.5 -72t1.5 -63t3 -46
q5 -51 23 -80.5t58 -29.5q25 0 39.5 16.5t20 42t5.5 52.5v19t-1 19l-68 -2v58l126 -2l6 -254h-26l-18 45q-15 -22 -42 -37t-57 -15q-37 0 -62 15t-39.5 42.5t-22.5 63.5q-5 29 -7.5 64t-3.5 77.5t-1 91.5zM190 -290l-28 15q12 23 20 53.5t8 55.5l-30 1l-4 90l68 6
q1 -16 1.5 -41.5t-0.5 -47.5q0 -31 -5.5 -56t-13 -44t-16.5 -32z" />
    <glyph glyph-name="uni0123" unicode="&#x123;" horiz-adv-x="334" 
d="M155 -156q-32 0 -56.5 10t-37.5 28.5t-13 42.5q0 4 0.5 9t1.5 10l57 8q-1 -4 -1 -7v-6q0 -15 7 -25t19.5 -14.5t27.5 -4.5q21 0 36.5 12.5t24 35.5t8.5 54q1 16 1 61v106.5v123.5q0 43 0.5 79.5t1.5 66t2 51.5t2 34h63q0 -2 -2 -20t-4.5 -49.5t-4.5 -75t-2 -96.5
q0 -34 0.5 -65.5t0.5 -63.5t0.5 -68.5t0.5 -80.5q0 -34 -8.5 -63t-25.5 -49.5t-42 -32t-57 -11.5zM147 -9q-36 0 -60.5 23t-34.5 71q-7 34 -9.5 76.5t-2.5 85.5q0 27 1 54t3 51.5t5 45.5q8 60 32.5 94.5t75.5 34.5q37 0 59 -26t31.5 -86.5t9.5 -163.5l-27 42q0 57 -5.5 96.5
t-20 59.5t-39.5 20q-22 0 -38.5 -18t-21.5 -68q-4 -39 -6 -75.5t-2 -73.5q0 -20 0.5 -41.5t2.5 -42t4 -40.5q3 -21 9 -34t16 -19.5t26 -6.5q22 0 38 16t26 52.5t11 96.5l27 42q0 -25 -1.5 -59t-6.5 -70t-17 -67.5t-32.5 -50.5t-52.5 -19zM146 574q-1 16 -1.5 41.5t0.5 47.5
q1 31 6 56t13 44t16 32l28 -15q-12 -23 -20 -53.5t-8 -55.5l30 -1l4 -90z" />
    <glyph glyph-name="Hcircumflex" unicode="&#x124;" horiz-adv-x="407" 
d="M273 0l0.5 28t2 72.5t2.5 96.5t1.5 100.5t0.5 83.5t-0.5 78t-1 86.5t-1 80t-0.5 58.5v22l70 2l-1.5 -26.5t-2.5 -72t-2 -104t-1 -122.5t0.5 -131.5t1.5 -124.5t1.5 -92l0.5 -35h-71zM101 247l214 7v-64l-214 4v53zM64 2l0.5 30.5t1.5 81.5t1.5 113t0.5 126t-1.5 125
t-2.5 109.5t-2 77.5l-1 29l70 4l-0.5 -24.5t-1 -64t-0.5 -86t-0.5 -91.5t-0.5 -80t0.5 -80.5t1 -92.5t1 -87t1 -64.5l0.5 -24.5zM265 749l-65 43l-63 -41l-30 23l66 66l54 -2l68 -62z" />
    <glyph glyph-name="hcircumflex" unicode="&#x125;" horiz-adv-x="352" 
d="M56 0l0.5 33t1 85.5t1 112.5t0.5 115q0 44 -0.5 92.5t-1 95.5t-0.5 85t-0.5 61l-0.5 23h67l-0.5 -28t-2 -75t-2.5 -101.5t-1.5 -108.5t-0.5 -97q0 -54 1 -106t2 -94.5t2 -67.5l1 -25h-66zM300 0l-67 1q1 22 2.5 44.5t2.5 48.5t1.5 57t0.5 70v71v56v47q0 29 -4 45
t-13 22.5t-24 6.5q-19 0 -38 -18.5t-32 -57.5t-13 -100l-26 -14q0 34 3.5 69t11 66.5t21.5 56t35.5 39t51.5 14.5q27 0 45.5 -12t27.5 -37.5t9 -68.5v-55v-58v-71q0 -43 0.5 -76t1 -59t1.5 -47t2 -40zM153 725l-65 43l-63 -41l-30 23l66 66l54 -2l68 -62z" />
    <glyph glyph-name="Hbar" unicode="&#x126;" horiz-adv-x="407" 
d="M9 433v46h13t35.5 -0.5t48.5 -0.5t52 -0.5t45 -0.5h39t50.5 0.5t50 0.5t39 0.5l15.5 0.5l-1 -46h-16t-41 0.5t-52.5 0.5h-51h-36.5h-56.5t-63 -0.5t-50.5 -0.5h-20zM273 0l0.5 28t2 72.5t2.5 96.5t1.5 100.5t0.5 83.5t-0.5 78t-1 86.5t-1 80t-0.5 58.5v22l70 2
l-1.5 -26.5t-2.5 -72t-2 -104t-1 -122.5t0.5 -131.5t1.5 -124.5t1.5 -92l0.5 -35h-71zM101 247l214 7v-64l-214 4v53zM64 2l0.5 30.5t1.5 81.5t1.5 113t0.5 126t-1.5 125t-2.5 109.5t-2 77.5l-1 29l70 4l-0.5 -24.5t-1 -64t-0.5 -86t-0.5 -91.5t-0.5 -80t0.5 -80.5t1 -92.5
t1 -87t1 -64.5l0.5 -24.5z" />
    <glyph glyph-name="hbar" unicode="&#x127;" horiz-adv-x="352" 
d="M56 0l0.5 33t1 85.5t1 112.5t0.5 115q0 44 -0.5 92.5t-1 95.5t-0.5 85t-0.5 61l-0.5 23h67l-0.5 -28t-2 -75t-2.5 -101.5t-1.5 -108.5t-0.5 -97q0 -54 1 -106t2 -94.5t2 -67.5l1 -25h-66zM300 0l-67 1q1 22 2.5 44.5t2.5 48.5t1.5 57t0.5 70v71v56v47q0 29 -4 45
t-13 22.5t-24 6.5q-19 0 -38 -18.5t-32 -57.5t-13 -100l-26 -14q0 34 3.5 69t11 66.5t21.5 56t35.5 39t51.5 14.5q27 0 45.5 -12t27.5 -37.5t9 -68.5v-55v-58v-71q0 -43 0.5 -76t1 -59t1.5 -47t2 -40zM4 592l1 46h22t29.5 -0.5t35.5 -1t38 -0.5h29t33 0.5t32.5 1t27.5 0.5
l1 -46h-31t-35 0.5t-34 0.5h-28q-35 0 -68.5 -0.5t-52.5 -0.5z" />
    <glyph glyph-name="Itilde" unicode="&#x128;" horiz-adv-x="198" 
d="M64 699l74 2l-1 -27t-2.5 -70t-3 -93.5t-2 -98t-0.5 -82.5v-79t1 -88t1.5 -81.5t1 -60l0.5 -22.5l-73 2l0.5 17.5t1 48.5t1.5 72t1.5 89.5t0.5 99.5v119v110.5v88.5t-1 53zM36 758h-40q2 26 10 41.5t21 22t29 6.5q23 0 45 -10.5t40 -10.5q11 0 16.5 4.5t5.5 16.5h40
q-1 -26 -9.5 -41.5t-21.5 -22t-29 -6.5q-22 0 -44.5 10.5t-40.5 10.5q-11 0 -16 -4.5t-6 -16.5z" />
    <glyph glyph-name="itilde" unicode="&#x129;" horiz-adv-x="177" 
d="M122 0l-69 1q1 22 2.5 48.5t2.5 60t1.5 73t0.5 85.5q0 62 -1 109t-2.5 81.5t-3.5 61.5l66 1q-1 -23 -2 -59.5t-1.5 -84.5t-0.5 -110q0 -46 1 -85t2 -72.5t2 -60.5t2 -49zM21 599h-40q2 26 10 41.5t21 22t29 6.5q23 0 45 -10.5t40 -10.5q11 0 16.5 4.5t5.5 16.5h40
q-1 -26 -9.5 -41.5t-21.5 -22t-29 -6.5q-22 0 -44.5 10.5t-40.5 10.5q-11 0 -16 -4.5t-6 -16.5z" />
    <glyph glyph-name="Imacron" unicode="&#x12a;" horiz-adv-x="198" 
d="M64 699l74 2l-1 -27t-2.5 -70t-3 -93.5t-2 -98t-0.5 -82.5v-79t1 -88t1.5 -81.5t1 -60l0.5 -22.5l-73 2l0.5 17.5t1 48.5t1.5 72t1.5 89.5t0.5 99.5v119v110.5v88.5t-1 53zM12 768v53l170 -3l4 -47z" />
    <glyph glyph-name="imacron" unicode="&#x12b;" horiz-adv-x="177" 
d="M122 0l-69 1q1 22 2.5 48.5t2.5 60t1.5 73t0.5 85.5q0 62 -1 109t-2.5 81.5t-3.5 61.5l66 1q-1 -23 -2 -59.5t-1.5 -84.5t-0.5 -110q0 -46 1 -85t2 -72.5t2 -60.5t2 -49zM-1 610v53l170 -3l4 -47z" />
    <glyph glyph-name="Ibreve" unicode="&#x12c;" horiz-adv-x="198" 
d="M64 699l74 2l-1 -27t-2.5 -70t-3 -93.5t-2 -98t-0.5 -82.5v-79t1 -88t1.5 -81.5t1 -60l0.5 -22.5l-73 2l0.5 17.5t1 48.5t1.5 72t1.5 89.5t0.5 99.5v119v110.5v88.5t-1 53zM100 754q-34 0 -61.5 10.5t-52.5 32.5l29 35q20 -14 38.5 -21t43.5 -7q29 0 50 8.5t37 20.5
l27 -32q-16 -18 -46.5 -32.5t-64.5 -14.5z" />
    <glyph glyph-name="ibreve" unicode="&#x12d;" horiz-adv-x="177" 
d="M122 0l-69 1q1 22 2.5 48.5t2.5 60t1.5 73t0.5 85.5q0 62 -1 109t-2.5 81.5t-3.5 61.5l66 1q-1 -23 -2 -59.5t-1.5 -84.5t-0.5 -110q0 -46 1 -85t2 -72.5t2 -60.5t2 -49zM87 595q-34 0 -61.5 10.5t-52.5 32.5l29 35q20 -14 38.5 -21t43.5 -7q29 0 50 8.5t37 20.5l27 -32
q-16 -18 -46.5 -32.5t-64.5 -14.5z" />
    <glyph glyph-name="Iogonek" unicode="&#x12e;" horiz-adv-x="198" 
d="M64 699l74 2l-1 -27t-2.5 -70t-3 -93.5t-2 -98t-0.5 -82.5v-79t1 -88t1.5 -81.5t1 -60l0.5 -22.5l-73 2l0.5 17.5t1 48.5t1.5 72t1.5 89.5t0.5 99.5v119v110.5v88.5t-1 53zM87 -127q-32 0 -56.5 12.5t-24.5 41.5q0 18 11.5 35t27.5 29.5t30 16.5l38 -5q-7 0 -23 -8.5
t-29.5 -23t-13.5 -31.5q0 -13 13.5 -18t30.5 -5q10 0 23.5 1.5t21.5 2.5v-42q-12 -3 -24 -4.5t-25 -1.5z" />
    <glyph glyph-name="iogonek" unicode="&#x12f;" horiz-adv-x="177" 
d="M122 0l-69 1q1 22 2.5 48.5t2.5 60t1.5 73t0.5 85.5q0 62 -1 108.5t-2.5 81.5t-3.5 62l66 1q-1 -23 -2 -59.5t-1.5 -84.5t-0.5 -110q0 -46 1 -85t2 -72.5t2 -60.5t2 -49zM117 617l-62 -4l-2 85l67 4zM96 -129q-32 0 -56.5 12.5t-24.5 41.5q0 18 11.5 35t27.5 29.5
t30 16.5l38 -5q-7 0 -23 -8.5t-29.5 -23t-13.5 -31.5q0 -13 13.5 -18t30.5 -5q10 0 23.5 1.5t21.5 2.5v-42q-12 -3 -24 -4.5t-25 -1.5z" />
    <glyph glyph-name="Idotaccent" unicode="&#x130;" horiz-adv-x="198" 
d="M64 699l74 2l-1 -27t-2.5 -70t-3 -93.5t-2 -98t-0.5 -82.5v-79t1 -88t1.5 -81.5t1 -60l0.5 -22.5l-73 2l0.5 17.5t1 48.5t1.5 72t1.5 89.5t0.5 99.5v119v110.5v88.5t-1 53zM69 769l-2 86l65 -7l-3 -78z" />
    <glyph glyph-name="dotlessi" unicode="&#x131;" horiz-adv-x="177" 
d="M122 0l-69 1q1 22 2.5 48.5t2.5 60t1.5 73t0.5 85.5q0 62 -1 109t-2.5 81.5t-3.5 61.5l66 1q-1 -23 -2 -59.5t-1.5 -84.5t-0.5 -110q0 -46 1 -85t2 -72.5t2 -60.5t2 -49z" />
    <glyph glyph-name="IJ" unicode="&#x132;" horiz-adv-x="535" 
d="M64 699l74 2l-1 -27t-2.5 -70t-3 -93.5t-2 -98t-0.5 -82.5v-79t1 -88t1.5 -81.5t1 -60l0.5 -22.5l-73 2l0.5 17.5t1 48.5t1.5 72t1.5 89.5t0.5 99.5v119v110.5v88.5t-1 53zM348 -10q-52 0 -78.5 24t-35.5 60t-9 71q0 50 2.5 83t4.5 71l64 -1q-4 -40 -5.5 -66t-2 -46
t-0.5 -40q0 -26 4.5 -48t17 -36t40.5 -14q19 0 31.5 7t20 22t10.5 41t3 64v39v54t-0.5 61t-0.5 60v63t-1 79.5t-1.5 83t-2.5 73.5l71 2q-1 -70 -1.5 -148.5t-0.5 -146.5v-74.5v-81.5v-76q0 -37 -6 -70t-20.5 -57.5t-39.5 -38.5t-64 -14z" />
    <glyph glyph-name="ij" unicode="&#x133;" horiz-adv-x="366" 
d="M122 0l-69 1q1 22 2.5 48.5t2.5 60t1.5 73t0.5 85.5q0 62 -1 108.5t-2.5 81.5t-3.5 62l66 1q-1 -23 -2 -59.5t-1.5 -84.5t-0.5 -110q0 -46 1 -85t2 -72.5t2 -60.5t2 -49zM117 617l-62 -4l-2 85l67 4zM187 -156l-2 46q22 0 35 9t19 28t6 50q1 33 1 76.5v100v128.5t-1 125
t-2 82.5l-1 29.5l69 -1l-2 -28.5t-4 -81t-2 -125.5v-79v-64.5t-0.5 -55.5t-0.5 -51.5v-52.5q0 -34 -7 -59.5t-21 -42.5t-36 -25.5t-51 -8.5zM244 613l-2 86l67 3l-3 -86z" />
    <glyph glyph-name="Jcircumflex" unicode="&#x134;" horiz-adv-x="337" 
d="M150 -10q-52 0 -78.5 24t-35.5 60t-9 71q0 50 2.5 83t4.5 71l64 -1q-4 -40 -5.5 -66t-2 -46t-0.5 -40q0 -26 4.5 -48t17 -36t40.5 -14q19 0 31.5 7t20 22t10.5 41t3 64v39v54t-0.5 61t-0.5 60v63t-1 79.5t-1.5 83t-2.5 73.5l71 2q-1 -70 -1.5 -148.5t-0.5 -146.5v-74.5
v-81.5v-76q0 -37 -6 -70t-20.5 -57.5t-39.5 -38.5t-64 -14zM307 749l-65 43l-63 -41l-30 23l66 66l54 -2l68 -62z" />
    <glyph glyph-name="jcircumflex" unicode="&#x135;" horiz-adv-x="189" 
d="M10 -156l-2 46q22 0 35 9t19 28t6 50q1 33 1 76.5v100v128.5t-1 125t-2 82.5l-1 29.5l69 -1l-2 -28.5t-4 -81t-2 -125.5v-79v-64.5t-0.5 -55.5t-0.5 -51.5v-52.5q0 -34 -7 -59.5t-21 -42.5t-36 -25.5t-51 -8.5zM164 590l-65 43l-63 -41l-30 23l66 66l54 -2l68 -62z" />
    <glyph glyph-name="uni0136" unicode="&#x136;" horiz-adv-x="359" 
d="M275 1q-21 44 -48 91.5t-56 95.5t-59 93q24 58 48.5 117.5t47.5 116t42 104.5t32 83l75 2q-15 -30 -33 -70t-38 -85l-40 -90t-37 -86t-28 -72q19 -35 41.5 -72t45 -74.5t47 -75t49.5 -74.5zM61 0l0.5 23t1.5 61t1.5 85t1 95.5t0.5 91.5q0 54 -0.5 114t-0.5 113t-0.5 86.5
l-0.5 33.5l72 -1l-0.5 -21.5t-1.5 -58t-2 -81.5t-1.5 -92.5t-0.5 -91.5q0 -43 0.5 -92t1 -96t1 -85t1 -61l0.5 -23h-73zM193 -290l-28 15q12 23 20 53.5t8 55.5l-30 1l-4 90l68 6q1 -16 1.5 -41.5t-0.5 -47.5q0 -31 -5.5 -56t-13 -44t-16.5 -32z" />
    <glyph glyph-name="uni0137" unicode="&#x137;" horiz-adv-x="328" 
d="M265 0q-36 66 -78 134t-86 137q35 58 59.5 100.5t44.5 79t39 74.5l65 -2q-24 -40 -46.5 -78t-46 -78t-51.5 -88q43 -70 84.5 -135.5t91.5 -140.5zM56 0l0.5 23t1.5 61.5t2 85.5t1.5 95.5t0.5 91.5t-0.5 90.5t-1 92.5t-0.5 81t-0.5 57.5l-0.5 21.5l65 -2l-0.5 -21
t-2 -56.5t-2.5 -79.5t-1.5 -91t-0.5 -91t0.5 -93t2 -96t2.5 -85t1.5 -61l0.5 -23zM190 -290l-28 15q12 23 20 53.5t8 55.5l-30 1l-4 90l68 6q1 -16 1.5 -41.5t-0.5 -47.5q0 -31 -5.5 -56t-13 -44t-16.5 -32z" />
    <glyph glyph-name="kgreenlandic" unicode="&#x138;" horiz-adv-x="328" 
d="M265 0q-23 44 -50 88.5t-56 89.5t-58 91q35 58 59.5 101t44.5 80t39 75l65 -2q-24 -40 -46.5 -78.5t-45.5 -79t-52 -88.5q43 -70 84.5 -134.5t91.5 -139.5zM56 0q2 31 3 77.5t2 101t1 106.5q0 51 -0.5 96.5t-1 83t-0.5 59.5l64 -2q-1 -21 -3 -57t-3 -81.5t-1 -96.5
q0 -53 1 -108t3 -101t3 -77z" />
    <glyph glyph-name="Lacute" unicode="&#x139;" horiz-adv-x="310" 
d="M61 -5l0.5 35.5t1 93.5t1 125.5t0.5 131.5t-0.5 121.5t-1 102t-1 70l-0.5 25.5l73 6l-0.5 -22t-1.5 -58t-2.5 -79t-2 -86t-0.5 -78t0.5 -83.5t1 -100t1 -95.5t1 -71.5l0.5 -27.5zM61 -5l44 68l204 -3v-57zM56 736l-23 30q9 7 25 18.5t30 22.5q9 7 20 16t22 18.5t18 16.5
l34 -49q-7 -4 -18 -10.5t-21.5 -12.5t-19.5 -11q-11 -6 -24.5 -14t-25 -15t-17.5 -10z" />
    <glyph glyph-name="lacute" unicode="&#x13a;" horiz-adv-x="174" 
d="M57 0q1 23 1.5 62t1 88t0.5 102.5v104.5v85t-0.5 92.5t-1 88.5t-0.5 74l67 1q-1 -31 -3 -72.5t-3.5 -88.5t-2.5 -93t-1 -86q0 -53 1.5 -118t4 -126.5t4.5 -105.5zM50 736l-23 30q9 7 25 18.5t30 22.5q9 7 20 16t22 18.5t18 16.5l34 -49q-7 -4 -18 -10.5t-21.5 -12.5
t-19.5 -11q-11 -6 -24.5 -14t-25 -15t-17.5 -10z" />
    <glyph glyph-name="uni013B" unicode="&#x13b;" horiz-adv-x="310" 
d="M61 -5l0.5 35.5t1 93.5t1 125.5t0.5 131.5t-0.5 121.5t-1 102t-1 70l-0.5 25.5l73 6l-0.5 -22t-1.5 -58t-2.5 -79t-2 -86t-0.5 -78t0.5 -83.5t1 -100t1 -95.5t1 -71.5l0.5 -27.5zM61 -5l44 68l204 -3v-57zM181 -290l-28 15q12 23 20 53.5t8 55.5l-30 1l-4 90l68 6
q1 -16 1.5 -41.5t-0.5 -47.5q0 -31 -5.5 -56t-13 -44t-16.5 -32z" />
    <glyph glyph-name="uni013C" unicode="&#x13c;" horiz-adv-x="174" 
d="M57 0q1 23 1.5 62t1 88t0.5 102.5v104.5v85t-0.5 92.5t-1 88.5t-0.5 74l67 1q-1 -31 -3 -72.5t-3.5 -88.5t-2.5 -93t-1 -86q0 -53 1.5 -118t4 -126.5t4.5 -105.5zM93 -290l-28 15q12 23 20 53.5t8 55.5l-30 1l-4 90l68 6q1 -16 1.5 -41.5t-0.5 -47.5q0 -31 -5.5 -56
t-13 -44t-16.5 -32z" />
    <glyph glyph-name="Lcaron" unicode="&#x13d;" horiz-adv-x="310" 
d="M61 -5l0.5 35.5t1 93.5t1 125.5t0.5 131.5t-0.5 121.5t-1 102t-1 70l-0.5 25.5l73 6l-0.5 -22t-1.5 -58t-2.5 -79t-2 -86t-0.5 -78t0.5 -83.5t1 -100t1 -95.5t1 -71.5l0.5 -27.5zM61 -5l44 68l204 -3v-57zM235 498l-28 14q12 21 20 50t7 51l-29 1l-4 86l69 6
q0 -10 -0.5 -25.5t-0.5 -31t-1 -29.5q0 -28 -8.5 -62t-24.5 -60z" />
    <glyph glyph-name="lcaron" unicode="&#x13e;" horiz-adv-x="240" 
d="M57 2v54t1 89t1.5 106.5t0.5 105.5v85t-0.5 92.5t-1 88.5t-0.5 74l67 1q-1 -31 -3 -72.5t-3.5 -88.5t-2.5 -93t-1 -86q0 -53 1.5 -119.5t4 -129.5t4.5 -109zM214 493l-28 14q12 21 20 50t7 51l-29 1l-4 86l69 6q0 -10 -0.5 -25.5t-0.5 -31t-1 -29.5q0 -28 -8.5 -62
t-24.5 -60z" />
    <glyph glyph-name="Ldot" unicode="&#x13f;" horiz-adv-x="310" 
d="M61 -5l0.5 35.5t1 93.5t1 125.5t0.5 131.5t-0.5 121.5t-1 102t-1 70l-0.5 25.5l73 6l-0.5 -22t-1.5 -58t-2.5 -79t-2 -86t-0.5 -78t0.5 -83.5t1 -100t1 -95.5t1 -71.5l0.5 -27.5zM61 -5l44 68l204 -3v-57zM288 328l-62 2l-4 85l64 5z" />
    <glyph glyph-name="ldot" unicode="&#x140;" horiz-adv-x="207" 
d="M57 2q0 18 0.5 56.5t1 88.5t1 104.5t0.5 105.5v90t-0.5 91.5t-1 80t-0.5 57v21.5l67 1l-1 -21t-2.5 -56.5t-3 -80t-2.5 -91.5t-1 -91t1 -93t2.5 -96t3 -85t2.5 -61l1 -23zM223 310l-62 2l-4 85l64 5z" />
    <glyph glyph-name="Lslash" unicode="&#x141;" horiz-adv-x="310" 
d="M61 -5l0.5 35.5t1 93.5t1 125.5t0.5 131.5t-0.5 121.5t-1 102t-1 70l-0.5 25.5l73 6l-0.5 -22t-1.5 -58t-2.5 -79t-2 -86t-0.5 -78t0.5 -83.5t1 -100t1 -95.5t1 -71.5l0.5 -27.5zM61 -5l44 68l204 -3v-57zM3 217l-1 80l7 5.5t18.5 15.5t26 22t30.5 25t31 25q18 15 36 31
t33 30t24 22.5l9 8.5l1 -80l-7.5 -6t-19.5 -16t-26.5 -22.5t-30 -25t-28.5 -23.5q-18 -15 -36 -31t-33 -30t-24.5 -22.5z" />
    <glyph glyph-name="lslash" unicode="&#x142;" horiz-adv-x="174" 
d="M57 0q1 23 1.5 62t1 88t0.5 102.5v104.5v85t-0.5 92.5t-1 88.5t-0.5 74l67 1q-1 -31 -3 -72.5t-3.5 -88.5t-2.5 -93t-1 -86q0 -53 1.5 -118t4 -126.5t4.5 -105.5zM9 253v78l13 10t31.5 24.5t36.5 28.5t34.5 29t27 25.5l10.5 10.5l1 -79l-8 -6t-20.5 -15.5t-26.5 -20.5
t-26 -21q-16 -14 -33 -29t-28.5 -25z" />
    <glyph glyph-name="Nacute" unicode="&#x143;" horiz-adv-x="416" 
d="M61 704h90l6 -27t18 -74t27 -107.5t31 -126.5q12 -46 24 -94.5t23 -90t17 -67.5v66.5t-0.5 73.5t-0.5 70v54q0 35 -0.5 79t-0.5 88.5t-0.5 82.5t-1 61l-0.5 23h63l-1 -27.5t-2 -74.5t-2 -106.5t-1 -123.5t0.5 -130t1.5 -121t1.5 -89l0.5 -34l-93 -8l-7 29t-19.5 78.5
t-26.5 110.5t-29 125q-5 22 -12.5 53.5t-16 66t-16.5 67t-14 57.5v-55t0.5 -62t0.5 -62v-55q0 -35 0.5 -81t1 -93.5t0.5 -88.5t0.5 -66l0.5 -25l-60 1l0.5 31t1 82.5t1 114.5t0.5 127t-1 126t-2 112t-2 80zM175 736l-23 30q9 7 25 18.5t30 22.5q9 7 20 16t22 18.5t18 16.5
l34 -49q-7 -4 -18 -10.5t-21.5 -12.5t-19.5 -11q-11 -6 -24.5 -14t-25 -15t-17.5 -10z" />
    <glyph glyph-name="nacute" unicode="&#x144;" horiz-adv-x="350" 
d="M298 0l-67 1q1 22 2.5 44.5t2.5 48.5t1.5 57t0.5 70v71v56v47q0 29 -4 45t-13 22.5t-24 6.5q-19 0 -38 -18.5t-32 -57.5t-13 -100l-26 -14q0 34 3 69t11 66.5t22 56t35.5 39t50.5 14.5q28 0 46.5 -12t27.5 -37.5t9 -68.5v-55v-58v-71q0 -43 0.5 -76t1 -59t1.5 -47t2 -40z
M52 1q2 28 3 56t2 58t1.5 67.5t0.5 85.5q0 64 -0.5 122t-1.5 94l-1 36l59 3q0 -22 -1 -55.5t-1 -77t1 -97.5v-114.5t1 -96.5t2 -81h-65zM144 577l-23 30l8.5 6t21 15.5t25.5 19.5q12 9 26 21t24 21l10 9l34 -49l-10 -6t-23.5 -13.5t-25.5 -14.5q-11 -6 -24.5 -14t-25 -15
t-17.5 -10z" />
    <glyph glyph-name="uni0145" unicode="&#x145;" horiz-adv-x="416" 
d="M61 704h90l6 -27t18 -74t27 -107.5t31 -126.5q12 -46 24 -94.5t23 -90t17 -67.5v66.5t-0.5 73.5t-0.5 70v54q0 35 -0.5 79t-0.5 88.5t-0.5 82.5t-1 61l-0.5 23h63l-1 -27.5t-2 -74.5t-2 -106.5t-1 -123.5t0.5 -130t1.5 -121t1.5 -89l0.5 -34l-93 -8l-7 29t-19.5 78.5
t-26.5 110.5t-29 125q-5 22 -12.5 53.5t-16 66t-16.5 67t-14 57.5v-55t0.5 -62t0.5 -62v-55q0 -35 0.5 -81t1 -93.5t0.5 -88.5t0.5 -66l0.5 -25l-60 1l0.5 31t1 82.5t1 114.5t0.5 127t-1 126t-2 112t-2 80zM217 -290l-28 15q12 23 20 53.5t8 55.5l-30 1l-4 90l68 6
q1 -16 1.5 -41.5t-0.5 -47.5q0 -31 -5.5 -56t-13 -44t-16.5 -32z" />
    <glyph glyph-name="uni0146" unicode="&#x146;" horiz-adv-x="350" 
d="M298 0l-67 1q1 22 2.5 44.5t2.5 48.5t1.5 57t0.5 70v71v56v47q0 29 -4 45t-13 22.5t-24 6.5q-19 0 -38 -18.5t-32 -57.5t-13 -100l-26 -14q0 34 3 69t11 66.5t22 56t35.5 39t50.5 14.5q28 0 46.5 -12t27.5 -37.5t9 -68.5v-55v-58v-71q0 -43 0.5 -76t1 -59t1.5 -47t2 -40z
M52 1q2 28 3 56t2 58t1.5 67.5t0.5 85.5q0 64 -0.5 122t-1.5 94l-1 36l59 3q0 -22 -1 -55.5t-1 -77t1 -97.5v-114.5t1 -96.5t2 -81h-65zM182 -290l-28 15q12 23 20 53.5t8 55.5l-30 1l-4 90l68 6q1 -16 1.5 -41.5t-0.5 -47.5q0 -31 -5.5 -56t-13 -44t-16.5 -32z" />
    <glyph glyph-name="Ncaron" unicode="&#x147;" horiz-adv-x="416" 
d="M61 704h90l6 -27t18 -74t27 -107.5t31 -126.5q12 -46 24 -94.5t23 -90t17 -67.5v66.5t-0.5 73.5t-0.5 70v54q0 35 -0.5 79t-0.5 88.5t-0.5 82.5t-1 61l-0.5 23h63l-1 -27.5t-2 -74.5t-2 -106.5t-1 -123.5t0.5 -130t1.5 -121t1.5 -89l0.5 -34l-93 -8l-7 29t-19.5 78.5
t-26.5 110.5t-29 125q-5 22 -12.5 53.5t-16 66t-16.5 67t-14 57.5v-55t0.5 -62t0.5 -62v-55q0 -35 0.5 -81t1 -93.5t0.5 -88.5t0.5 -66l0.5 -25l-60 1l0.5 31t1 82.5t1 114.5t0.5 127t-1 126t-2 112t-2 80zM242 749l-54 2l-68 62l30 27l65 -43l63 41l30 -23z" />
    <glyph glyph-name="ncaron" unicode="&#x148;" horiz-adv-x="350" 
d="M298 0l-67 1q1 22 2.5 44.5t2.5 48.5t1.5 57t0.5 70v71v56v47q0 29 -4 45t-13 22.5t-24 6.5q-19 0 -38 -18.5t-32 -57.5t-13 -100l-26 -14q0 34 3 69t11 66.5t22 56t35.5 39t50.5 14.5q28 0 46.5 -12t27.5 -37.5t9 -68.5v-55v-58v-71q0 -43 0.5 -76t1 -59t1.5 -47t2 -40z
M52 1q2 28 3 56t2 58t1.5 67.5t0.5 85.5q0 64 -0.5 122t-1.5 94l-1 36l59 3q0 -22 -1 -55.5t-1 -77t1 -97.5v-114.5t1 -96.5t2 -81h-65zM211 590l-54 2l-68 62l30 27l65 -43l63 41l30 -23z" />
    <glyph glyph-name="napostrophe" unicode="&#x149;" horiz-adv-x="350" 
d="M58 554l-25 16q8 11 12.5 22.5t7 24.5t2.5 26l-27 1l-4 83l67 7l-0.5 -13.5t-1 -34t-1.5 -40.5q0 -13 -3.5 -30.5t-10 -34t-16.5 -27.5zM298 0l-67 1q1 22 2.5 44.5t2.5 48.5t1.5 57t0.5 70v71v56v47q0 29 -4 45t-13 22.5t-24 6.5q-19 0 -38 -18.5t-32 -57.5t-13 -100
l-26 -14q0 34 3 69t11 66.5t22 56t35.5 39t50.5 14.5q28 0 46.5 -12t27.5 -37.5t9 -68.5v-55v-58v-71q0 -43 0.5 -76t1 -59t1.5 -47t2 -40zM52 1q2 28 3 56t2 58t1.5 67.5t0.5 85.5q0 64 -0.5 122t-1.5 94l-1 36l59 3q0 -22 -1 -55.5t-1 -77t1 -97.5v-114.5t1 -96.5t2 -81
h-65z" />
    <glyph glyph-name="Eng" unicode="&#x14a;" horiz-adv-x="416" 
d="M242 -156l-6 54q22 0 34 8.5t17 28.5t5 54q-7 23 -18 61.5t-25 86t-29.5 101t-30.5 106.5q-6 22 -15 53.5t-19.5 66.5t-19.5 67.5t-15 57.5q0 -58 0.5 -117.5t0.5 -117.5q0 -32 0.5 -76.5t1 -94t1 -97.5t0.5 -86l-60 1q1 40 1.5 99t1 126.5t0.5 129.5q0 63 -1 128.5
t-2 123.5t-3 96h90q9 -34 23.5 -88t31.5 -118t34 -129q11 -44 21.5 -82t20 -69.5t14.5 -56.5v58.5v59v55.5v47v58t-0.5 69t-1 73t-1 71.5t-0.5 62.5h63q-1 -21 -2 -49t-2 -61.5t-1.5 -70.5t-0.5 -75v-76q0 -50 0.5 -100l1 -100l1 -100t0.5 -100q0 -34 -6.5 -60t-20 -43.5
t-34.5 -26.5t-50 -9z" />
    <glyph glyph-name="eng" unicode="&#x14b;" horiz-adv-x="345" 
d="M177 -156l-2 46q22 0 34.5 9t19 28t6.5 50q0 24 0.5 46t1 49t1 64t0.5 91v168q0 29 -4 45t-13 22.5t-24 6.5q-19 0 -38 -18.5t-32 -57.5t-13 -100v-114.5t1 -96.5t2 -81h-65q2 28 3 56t2 58t1.5 67.5t0.5 85.5q0 47 -0.5 95t-1 89.5t-1.5 67.5l59 3q0 -19 -0.5 -37.5
t-0.5 -36.5q14 33 37.5 54t58.5 21q28 0 46.5 -12t27.5 -37.5t9 -68.5v-178v-88t-0.5 -56.5t-0.5 -46.5v-57t-7 -59.5t-21 -42.5t-36 -25.5t-51 -8.5z" />
    <glyph glyph-name="Omacron" unicode="&#x14c;" horiz-adv-x="380" 
d="M183 -5q-43 0 -69.5 17t-41.5 48.5t-22 74.5q-4 31 -6 67t-2 75.5v79.5v53.5t1 53.5t3.5 51t6.5 46q11 66 44.5 105t101.5 39q42 0 68.5 -17.5t41.5 -48.5t21 -74q7 -45 8 -99t1 -111q0 -41 -1 -79.5t-4 -74.5t-10 -68q-13 -62 -45 -100t-96 -38zM186 52q26 0 41.5 15
t24.5 43.5t13 67.5q5 39 5.5 85.5t0.5 96.5q0 49 -0.5 91.5t-2.5 75.5q-3 58 -19 91t-54 33q-39 0 -57.5 -31t-23.5 -84q-2 -19 -3 -41.5t-1.5 -47t-0.5 -50.5v-52q0 -48 -0.5 -92.5t2.5 -83.5q3 -36 11 -62.5t23.5 -40.5t40.5 -14zM108 768v53l170 -3l4 -47z" />
    <glyph glyph-name="omacron" unicode="&#x14d;" horiz-adv-x="330" 
d="M161 -10q-57 0 -80 36.5t-33 96.5q-4 26 -6 58.5t-2 65.5q0 28 1.5 57t4.5 55t7 46q13 65 41 95.5t81 30.5q52 0 77.5 -32t31.5 -88q3 -31 5 -64.5t2 -68.5q0 -50 -4.5 -99.5t-13.5 -89.5q-5 -23 -17.5 -46t-35 -38t-59.5 -15zM163 47q35 0 46.5 28t17.5 78q2 16 3 34.5
t1.5 39t0.5 41.5q0 33 -1 63t-3 53q-3 41 -14.5 67.5t-42.5 26.5q-24 0 -36.5 -12t-18 -29.5t-8.5 -36.5q-3 -23 -5.5 -49t-3.5 -52t-1 -51q0 -19 0.5 -37.5t2 -36.5t3.5 -37q5 -44 19 -67t40 -23zM83 610v53l170 -3l4 -47z" />
    <glyph glyph-name="Obreve" unicode="&#x14e;" horiz-adv-x="380" 
d="M183 -5q-43 0 -69.5 17t-41.5 48.5t-22 74.5q-4 31 -6 67t-2 75.5v79.5v53.5t1 53.5t3.5 51t6.5 46q11 66 44.5 105t101.5 39q42 0 68.5 -17.5t41.5 -48.5t21 -74q7 -45 8 -99t1 -111q0 -41 -1 -79.5t-4 -74.5t-10 -68q-13 -62 -45 -100t-96 -38zM186 52q26 0 41.5 15
t24.5 43.5t13 67.5q5 39 5.5 85.5t0.5 96.5q0 49 -0.5 91.5t-2.5 75.5q-3 58 -19 91t-54 33q-39 0 -57.5 -31t-23.5 -84q-2 -19 -3 -41.5t-1.5 -47t-0.5 -50.5v-52q0 -48 -0.5 -92.5t2.5 -83.5q3 -36 11 -62.5t23.5 -40.5t40.5 -14zM196 754q-34 0 -61.5 10.5t-52.5 32.5
l29 35q20 -14 38.5 -21t43.5 -7q29 0 50 8.5t37 20.5l27 -32q-16 -18 -46.5 -32.5t-64.5 -14.5z" />
    <glyph glyph-name="obreve" unicode="&#x14f;" horiz-adv-x="330" 
d="M161 -10q-57 0 -80 36.5t-33 96.5q-4 26 -6 58.5t-2 65.5q0 28 1.5 57t4.5 55t7 46q13 65 41 95.5t81 30.5q52 0 77.5 -32t31.5 -88q3 -31 5 -64.5t2 -68.5q0 -50 -4.5 -99.5t-13.5 -89.5q-5 -23 -17.5 -46t-35 -38t-59.5 -15zM163 47q35 0 46.5 28t17.5 78q2 16 3 34.5
t1.5 39t0.5 41.5q0 33 -1 63t-3 53q-3 41 -14.5 67.5t-42.5 26.5q-24 0 -36.5 -12t-18 -29.5t-8.5 -36.5q-3 -23 -5.5 -49t-3.5 -52t-1 -51q0 -19 0.5 -37.5t2 -36.5t3.5 -37q5 -44 19 -67t40 -23zM171 595q-34 0 -61.5 10.5t-52.5 32.5l29 35q20 -14 38.5 -21t43.5 -7
q29 0 50 8.5t37 20.5l27 -32q-16 -18 -46.5 -32.5t-64.5 -14.5z" />
    <glyph glyph-name="Ohungarumlaut" unicode="&#x150;" horiz-adv-x="380" 
d="M183 -5q-43 0 -69.5 17t-41.5 48.5t-22 74.5q-4 31 -6 67t-2 75.5v79.5v53.5t1 53.5t3.5 51t6.5 46q11 66 44.5 105t101.5 39q42 0 68.5 -17.5t41.5 -48.5t21 -74q7 -45 8 -99t1 -111q0 -41 -1 -79.5t-4 -74.5t-10 -68q-13 -62 -45 -100t-96 -38zM186 52q26 0 41.5 15
t24.5 43.5t13 67.5q5 39 5.5 85.5t0.5 96.5q0 49 -0.5 91.5t-2.5 75.5q-3 58 -19 91t-54 33q-39 0 -57.5 -31t-23.5 -84q-2 -19 -3 -41.5t-1.5 -47t-0.5 -50.5v-52q0 -48 -0.5 -92.5t2.5 -83.5q3 -36 11 -62.5t23.5 -40.5t40.5 -14zM156 749l-28 27l4 5t11 14t15 19t15.5 21
t12.5 19l5 8l39 -37l-6.5 -6t-15 -14.5t-16.5 -15.5q-7 -7 -15.5 -16.5t-14.5 -16.5zM266 743l-29 22l4 5.5t11 14.5t14 20q7 10 12.5 19.5t9 16l3.5 6.5l43 -39l-5.5 -4.5t-13 -11t-14.5 -13.5l-15.5 -15.5t-14 -14.5z" />
    <glyph glyph-name="ohungarumlaut" unicode="&#x151;" horiz-adv-x="330" 
d="M161 -10q-57 0 -80 36.5t-33 96.5q-4 26 -6 58.5t-2 65.5q0 28 1.5 57t4.5 55t7 46q13 65 41 95.5t81 30.5q52 0 77.5 -32t31.5 -88q3 -31 5 -64.5t2 -68.5q0 -50 -4.5 -99.5t-13.5 -89.5q-5 -23 -17.5 -46t-35 -38t-59.5 -15zM163 47q35 0 46.5 28t17.5 78q2 16 3 34.5
t1.5 39t0.5 41.5q0 33 -1 63t-3 53q-3 41 -14.5 67.5t-42.5 26.5q-24 0 -36.5 -12t-18 -29.5t-8.5 -36.5q-3 -23 -5.5 -49t-3.5 -52t-1 -51q0 -19 0.5 -37.5t2 -36.5t3.5 -37q5 -44 19 -67t40 -23zM241 577l-29 22l4 5.5t11 14.5t14 20q7 10 12.5 19.5t9 16l3.5 6.5l43 -39
l-5.5 -4.5t-13 -11t-14.5 -13.5l-15.5 -15.5t-14 -14.5zM131 583l-28 27l4 5t11 14t15 19t15.5 21t12.5 19l5 8l39 -37l-6.5 -6t-15 -14.5t-16.5 -15.5q-7 -7 -15.5 -16.5t-14.5 -16.5z" />
    <glyph glyph-name="OE" unicode="&#x152;" horiz-adv-x="533" 
d="M184 -5q-44 0 -71.5 17.5t-42.5 49.5t-20.5 77t-6.5 100t-1 118q0 72 3 134.5t16.5 110t46 74.5t91.5 27q19 0 40 -2.5t44.5 -5t49.5 -2.5h157v-63l-158 -1q0 -24 -0.5 -53t-1 -61t-0.5 -63.5v-58.5l1 -124l168 -3l-2 -57l-166 -3l2 -145l164 -4l5 -57h-168
q-30 0 -51.5 -1t-44 -2.5t-54.5 -1.5zM203 52q13 0 28.5 3t31.5 8q1 55 1.5 109.5t1 109.5t0.5 109q0 53 -0.5 99.5t-0.5 84.5t-1 64q-15 6 -28.5 9t-26.5 3q-41 0 -62 -25.5t-29 -69.5t-8.5 -98.5t-0.5 -112.5q0 -69 1 -124t9 -92.5t28 -57t56 -19.5z" />
    <glyph glyph-name="oe" unicode="&#x153;" horiz-adv-x="512" 
d="M161 -10q-57 0 -80 36.5t-33 96.5q-4 26 -6 58.5t-2 65.5q0 28 1.5 57t4.5 55t7 46q13 65 41 95.5t81 30.5q52 0 77.5 -32t31.5 -88q3 -31 5 -64.5t2 -68.5q0 -50 -4.5 -99.5t-13.5 -89.5q-5 -23 -17.5 -46t-35 -38t-59.5 -15zM163 47q35 0 46.5 28.5t17.5 78.5
q2 16 3 34.5t1.5 38.5t0.5 41q0 33 -1 63t-3 53q-3 41 -14.5 67.5t-42.5 26.5q-23 0 -36 -12t-18.5 -29.5t-8.5 -36.5q-3 -23 -5.5 -49t-3.5 -52t-1 -51q0 -19 0.5 -37.5t2 -36.5t3.5 -37q5 -44 19 -67t40 -23zM356 -12q-49 0 -76.5 23.5t-35.5 78.5q-5 35 -8.5 77.5
t-3.5 89.5q0 30 1.5 61.5t4.5 63.5q7 76 39.5 111t87.5 35q43 0 66.5 -23t33 -61t9.5 -84q0 -30 -2.5 -59.5t-4.5 -55.5l-55 51q2 20 3 37.5t1 34.5q0 31 -5 54t-17 36.5t-33 13.5q-35 0 -49 -26.5t-17 -66.5q-2 -27 -3 -58.5t-1 -64.5q0 -25 0.5 -50.5t2 -48t3.5 -39.5
q4 -37 17.5 -57t47.5 -20q23 0 36 10.5t18 28t5 36.5q0 13 -1.5 26t-3.5 24h56q2 -14 3.5 -27.5t1.5 -27.5q0 -35 -11.5 -63t-38 -44t-71.5 -16zM253 238l-1 58l215 2v-53h-14.5t-37.5 -1t-51.5 -1.5t-57 -1.5t-53.5 -3z" />
    <glyph glyph-name="Racute" unicode="&#x154;" horiz-adv-x="376" 
d="M114 219l-4 62q37 0 66.5 5.5t49 23t30 54t10.5 98.5q0 68 -10 109.5t-31.5 60.5t-56.5 19q-28 0 -46 -1.5t-38 -5.5l-23 61q17 1 33.5 1.5t35.5 1t43 0.5q52 0 87 -22t52 -74.5t17 -145.5q0 -98 -26 -152t-74 -74.5t-115 -20.5zM61 -6q1 40 2 100t1.5 128t0.5 130
q0 63 -0.5 129.5t-1.5 125.5t-2 98l73 -7q-1 -29 -2 -65t-1.5 -74t-1 -75.5t-1 -70.5t-0.5 -59q0 -32 0.5 -76.5t1 -94t1 -97.5t1.5 -86zM276 -6q-19 68 -43.5 136t-54.5 141l61 30q24 -73 54 -148.5t67 -155.5zM148 736l-23 30q9 7 25 18.5t30 22.5q9 7 20 16t22 18.5
t18 16.5l34 -49q-7 -4 -18 -10.5t-21.5 -12.5t-19.5 -11q-11 -6 -24.5 -14t-25 -15t-17.5 -10z" />
    <glyph glyph-name="racute" unicode="&#x155;" horiz-adv-x="290" 
d="M216 249q5 42 9.5 82.5t4.5 74.5t-6.5 54t-25.5 20q-20 0 -39 -23.5t-31 -66t-12 -100.5l-29 -42q1 49 6 92t14.5 79t24 61.5t34.5 40t45 14.5q27 0 43 -15.5t22.5 -44t6.5 -66.5q0 -34 -4 -74t-10 -86h-53zM52 -2q2 27 3.5 53t3 54.5t2 63t0.5 80.5q0 23 -0.5 61.5
t-1 81.5t-1 78.5t-0.5 51.5l59 2q0 -37 -0.5 -76t-0.5 -79v-79v-87.5v-78.5t0.5 -68t0.5 -56zM135 577l-23 30l8.5 6t21 15.5t25.5 19.5q12 9 26 21t24 21l10 9l34 -49l-10 -6t-23.5 -13.5t-25.5 -14.5q-11 -6 -24.5 -14t-25 -15t-17.5 -10z" />
    <glyph glyph-name="uni0156" unicode="&#x156;" horiz-adv-x="376" 
d="M114 219l-4 62q37 0 66.5 5.5t49 23t30 54t10.5 98.5q0 68 -10 109.5t-31.5 60.5t-56.5 19q-28 0 -46 -1.5t-38 -5.5l-23 61q17 1 33.5 1.5t35.5 1t43 0.5q52 0 87 -22t52 -74.5t17 -145.5q0 -98 -26 -152t-74 -74.5t-115 -20.5zM61 -6q1 40 2 100t1.5 128t0.5 130
q0 63 -0.5 129.5t-1.5 125.5t-2 98l73 -7q-1 -29 -2 -65t-1.5 -74t-1 -75.5t-1 -70.5t-0.5 -59q0 -32 0.5 -76.5t1 -94t1 -97.5t1.5 -86zM276 -6q-19 68 -43.5 136t-54.5 141l61 30q24 -73 54 -148.5t67 -155.5zM206 -290l-28 15q12 23 20 53.5t8 55.5l-30 1l-4 90l68 6
q1 -16 1.5 -41.5t-0.5 -47.5q0 -31 -5.5 -56t-13 -44t-16.5 -32z" />
    <glyph glyph-name="uni0157" unicode="&#x157;" horiz-adv-x="290" 
d="M216 249q5 42 9.5 82.5t4.5 74.5t-6.5 54t-25.5 20q-20 0 -39 -23.5t-31 -66t-12 -100.5l-29 -42q1 49 6 92t14.5 79t24 61.5t34.5 40t45 14.5q27 0 43 -15.5t22.5 -44t6.5 -66.5q0 -34 -4 -74t-10 -86h-53zM52 -2q2 27 3.5 53t3 54.5t2 63t0.5 80.5q0 23 -0.5 61.5
t-1 81.5t-1 78.5t-0.5 51.5l59 2q0 -37 -0.5 -76t-0.5 -79v-79v-87.5v-78.5t0.5 -68t0.5 -56zM85 -290l-28 15q12 23 20 53.5t8 55.5l-30 1l-4 90l68 6q1 -16 1.5 -41.5t-0.5 -47.5q0 -31 -5.5 -56t-13 -44t-16.5 -32z" />
    <glyph glyph-name="Rcaron" unicode="&#x158;" horiz-adv-x="376" 
d="M114 219l-4 62q37 0 66.5 5.5t49 23t30 54t10.5 98.5q0 68 -10 109.5t-31.5 60.5t-56.5 19q-28 0 -46 -1.5t-38 -5.5l-23 61q17 1 33.5 1.5t35.5 1t43 0.5q52 0 87 -22t52 -74.5t17 -145.5q0 -98 -26 -152t-74 -74.5t-115 -20.5zM61 -6q1 40 2 100t1.5 128t0.5 130
q0 63 -0.5 129.5t-1.5 125.5t-2 98l73 -7q-1 -29 -2 -65t-1.5 -74t-1 -75.5t-1 -70.5t-0.5 -59q0 -32 0.5 -76.5t1 -94t1 -97.5t1.5 -86zM276 -6q-19 68 -43.5 136t-54.5 141l61 30q24 -73 54 -148.5t67 -155.5zM215 749l-54 2l-68 62l30 27l65 -43l63 41l30 -23z" />
    <glyph glyph-name="rcaron" unicode="&#x159;" horiz-adv-x="290" 
d="M216 249q5 42 9.5 82.5t4.5 74.5t-6.5 54t-25.5 20q-20 0 -39 -23.5t-31 -66t-12 -100.5l-29 -42q1 49 6 92t14.5 79t24 61.5t34.5 40t45 14.5q27 0 43 -15.5t22.5 -44t6.5 -66.5q0 -34 -4 -74t-10 -86h-53zM52 -2q2 27 3.5 53t3 54.5t2 63t0.5 80.5q0 23 -0.5 61.5
t-1 81.5t-1 78.5t-0.5 51.5l59 2q0 -37 -0.5 -76t-0.5 -79v-79v-87.5v-78.5t0.5 -68t0.5 -56zM202 590l-54 2l-68 62l30 27l65 -43l63 41l30 -23z" />
    <glyph glyph-name="Sacute" unicode="&#x15a;" horiz-adv-x="345" 
d="M170 -10q-39 0 -65 11.5t-42.5 32t-23.5 49t-7 62.5q0 17 1.5 35t4.5 37h60q-1 -17 -2 -33t-1 -31q0 -32 6 -56t21.5 -37t43.5 -13t46.5 10.5t27.5 30t9 46.5q0 25 -9 45t-25 38t-39 38t-50 45q-28 24 -46 48t-29 50t-15.5 56.5t-4.5 67.5q0 63 19.5 103t51.5 59.5
t70 19.5q55 0 86 -24.5t44 -68t13 -99.5q0 -20 -1 -40t-2.5 -38.5t-3.5 -39.5h-66q3 33 5 62.5t2 56.5q0 39 -6.5 68.5t-22.5 46.5t-44 17q-22 0 -37 -8.5t-24.5 -25.5t-14 -42t-4.5 -59q0 -38 10 -68.5t28 -54.5t41 -44q17 -15 40.5 -34.5t46.5 -44t38 -55t15 -68.5
q0 -51 -18.5 -84.5t-51 -50t-75.5 -16.5zM143 736l-23 30q9 7 25 18.5t30 22.5q9 7 20 16t22 18.5t18 16.5l34 -49q-7 -4 -18 -10.5t-21.5 -12.5t-19.5 -11q-11 -6 -24.5 -14t-25 -15t-17.5 -10z" />
    <glyph glyph-name="sacute" unicode="&#x15b;" horiz-adv-x="297" 
d="M150 -10q-39 0 -64.5 15.5t-37 43.5t-11.5 65q0 9 0.5 18t1.5 18h56q-1 -8 -2 -15.5t-1 -17.5q1 -20 6.5 -37.5t18.5 -28.5t35 -11q21 0 34.5 8t20.5 23t7 34q0 25 -14 43t-36 34.5t-46 35.5q-17 13 -31.5 28t-26.5 32.5t-18.5 40.5t-6.5 52q0 52 17 86t44.5 52t61.5 18
q42 0 66 -18.5t34.5 -51.5t10.5 -78q0 -12 -0.5 -25.5t-1.5 -25.5t-3 -26h-57q2 21 3.5 40.5t1.5 37.5q0 39 -11 65.5t-45 26.5q-18 0 -32 -10.5t-22.5 -33t-8.5 -55.5q0 -28 8.5 -47t22.5 -34t31 -29q18 -16 38.5 -30.5t38 -32t28 -39t10.5 -50.5q0 -39 -15.5 -66
t-42.5 -41t-62 -14zM119 577l-23 30l8.5 6t21 15.5t25.5 19.5q12 9 26 21t24 21l10 9l34 -49l-10 -6t-23.5 -13.5t-25.5 -14.5q-11 -6 -24.5 -14t-25 -15t-17.5 -10z" />
    <glyph glyph-name="Scircumflex" unicode="&#x15c;" horiz-adv-x="345" 
d="M170 -10q-39 0 -65 11.5t-42.5 32t-23.5 49t-7 62.5q0 17 1.5 35t4.5 37h60q-1 -17 -2 -33t-1 -31q0 -32 6 -56t21.5 -37t43.5 -13t46.5 10.5t27.5 30t9 46.5q0 25 -9 45t-25 38t-39 38t-50 45q-28 24 -46 48t-29 50t-15.5 56.5t-4.5 67.5q0 63 19.5 103t51.5 59.5
t70 19.5q55 0 86 -24.5t44 -68t13 -99.5q0 -20 -1 -40t-2.5 -38.5t-3.5 -39.5h-66q3 33 5 62.5t2 56.5q0 39 -6.5 68.5t-22.5 46.5t-44 17q-22 0 -37 -8.5t-24.5 -25.5t-14 -42t-4.5 -59q0 -38 10 -68.5t28 -54.5t41 -44q17 -15 40.5 -34.5t46.5 -44t38 -55t15 -68.5
q0 -51 -18.5 -84.5t-51 -50t-75.5 -16.5zM246 749l-65 43l-63 -41l-30 23l66 66l54 -2l68 -62z" />
    <glyph glyph-name="scircumflex" unicode="&#x15d;" horiz-adv-x="297" 
d="M150 -10q-39 0 -64.5 15.5t-37 43.5t-11.5 65q0 9 0.5 18t1.5 18h56q-1 -8 -2 -15.5t-1 -17.5q1 -20 6.5 -37.5t18.5 -28.5t35 -11q21 0 34.5 8t20.5 23t7 34q0 25 -14 43t-36 34.5t-46 35.5q-17 13 -31.5 28t-26.5 32.5t-18.5 40.5t-6.5 52q0 52 17 86t44.5 52t61.5 18
q42 0 66 -18.5t34.5 -51.5t10.5 -78q0 -12 -0.5 -25.5t-1.5 -25.5t-3 -26h-57q2 21 3.5 40.5t1.5 37.5q0 39 -11 65.5t-45 26.5q-18 0 -32 -10.5t-22.5 -33t-8.5 -55.5q0 -28 8.5 -47t22.5 -34t31 -29q18 -16 38.5 -30.5t38 -32t28 -39t10.5 -50.5q0 -39 -15.5 -66
t-42.5 -41t-62 -14zM222 590l-65 43l-63 -41l-30 23l66 66l54 -2l68 -62z" />
    <glyph glyph-name="Scedilla" unicode="&#x15e;" horiz-adv-x="345" 
d="M170 -10q-39 0 -65 11.5t-42.5 32t-23.5 49t-7 62.5q0 17 1.5 35t4.5 37h60q-1 -17 -2 -33t-1 -31q0 -32 6 -56t21.5 -37t43.5 -13t46.5 10.5t27.5 30t9 46.5q0 25 -9 45t-25 38t-39 38t-50 45q-28 24 -46 48t-29 50t-15.5 56.5t-4.5 67.5q0 63 19.5 103t51.5 59.5
t70 19.5q55 0 86 -24.5t44 -68t13 -99.5q0 -20 -1 -40t-2.5 -38.5t-3.5 -39.5h-66q3 33 5 62.5t2 56.5q0 39 -6.5 68.5t-22.5 46.5t-44 17q-22 0 -37 -8.5t-24.5 -25.5t-14 -42t-4.5 -59q0 -38 10 -68.5t28 -54.5t41 -44q17 -15 40.5 -34.5t46.5 -44t38 -55t15 -68.5
q0 -51 -18.5 -84.5t-51 -50t-75.5 -16.5zM128 -162q-10 0 -21.5 0.5t-22.5 1.5l8 45q6 -1 14 -2.5t17 -2t18 -0.5q22 0 39 4.5t17 16.5q0 11 -15.5 17t-56.5 6l11 37q60 2 85 -15.5t25 -43.5q0 -24 -17 -38t-43.5 -20t-57.5 -6zM178 0l-17 -76h-36l17 76h36z" />
    <glyph glyph-name="scedilla" unicode="&#x15f;" horiz-adv-x="297" 
d="M150 -10q-39 0 -64.5 15.5t-37 43.5t-11.5 65q0 9 0.5 18t1.5 18h56q-1 -8 -2 -15.5t-1 -17.5q1 -20 6.5 -37.5t18.5 -28.5t35 -11q21 0 34.5 8t20.5 23t7 34q0 25 -14 43t-36 34.5t-46 35.5q-17 13 -31.5 28t-26.5 32.5t-18.5 40.5t-6.5 52q0 52 17 86t44.5 52t61.5 18
q42 0 66 -18.5t34.5 -51.5t10.5 -78q0 -12 -0.5 -25.5t-1.5 -25.5t-3 -26h-57q2 21 3.5 40.5t1.5 37.5q0 39 -11 65.5t-45 26.5q-18 0 -32 -10.5t-22.5 -33t-8.5 -55.5q0 -28 8.5 -47t22.5 -34t31 -29q18 -16 38.5 -30.5t38 -32t28 -39t10.5 -50.5q0 -39 -15.5 -66
t-42.5 -41t-62 -14zM114 -162q-10 0 -21.5 0.5t-22.5 1.5l8 45q6 -1 14 -2.5t17 -2t18 -0.5q22 0 39 4.5t17 16.5q0 11 -15.5 17t-56.5 6l11 37q60 2 85 -15.5t25 -43.5q0 -24 -17 -38t-43.5 -20t-57.5 -6zM164 0l-17 -76h-36l17 76h36z" />
    <glyph glyph-name="Scaron" unicode="&#x160;" horiz-adv-x="345" 
d="M170 -10q-39 0 -65 11.5t-42.5 32t-23.5 49t-7 62.5q0 17 1.5 35t4.5 37h60q-1 -17 -2 -33t-1 -31q0 -32 6 -56t21.5 -37t43.5 -13t46.5 10.5t27.5 30t9 46.5q0 25 -9 45t-25 38t-39 38t-50 45q-28 24 -46 48t-29 50t-15.5 56.5t-4.5 67.5q0 63 19.5 103t51.5 59.5
t70 19.5q55 0 86 -24.5t44 -68t13 -99.5q0 -20 -1 -40t-2.5 -38.5t-3.5 -39.5h-66q3 33 5 62.5t2 56.5q0 39 -6.5 68.5t-22.5 46.5t-44 17q-22 0 -37 -8.5t-24.5 -25.5t-14 -42t-4.5 -59q0 -38 10 -68.5t28 -54.5t41 -44q17 -15 40.5 -34.5t46.5 -44t38 -55t15 -68.5
q0 -51 -18.5 -84.5t-51 -50t-75.5 -16.5zM210 749l-54 2l-68 62l30 27l65 -43l63 41l30 -23z" />
    <glyph glyph-name="scaron" unicode="&#x161;" horiz-adv-x="297" 
d="M150 -10q-39 0 -64.5 15.5t-37 43.5t-11.5 65q0 9 0.5 18t1.5 18h56q-1 -8 -2 -15.5t-1 -17.5q1 -20 6.5 -37.5t18.5 -28.5t35 -11q21 0 34.5 8t20.5 23t7 34q0 25 -14 43t-36 34.5t-46 35.5q-17 13 -31.5 28t-26.5 32.5t-18.5 40.5t-6.5 52q0 52 17 86t44.5 52t61.5 18
q42 0 66 -18.5t34.5 -51.5t10.5 -78q0 -12 -0.5 -25.5t-1.5 -25.5t-3 -26h-57q2 21 3.5 40.5t1.5 37.5q0 39 -11 65.5t-45 26.5q-18 0 -32 -10.5t-22.5 -33t-8.5 -55.5q0 -28 8.5 -47t22.5 -34t31 -29q18 -16 38.5 -30.5t38 -32t28 -39t10.5 -50.5q0 -39 -15.5 -66
t-42.5 -41t-62 -14zM186 590l-54 2l-68 62l30 27l65 -43l63 41l30 -23z" />
    <glyph glyph-name="uni0162" unicode="&#x162;" horiz-adv-x="317" 
d="M116 2q1 15 2 48.5t2.5 77t2.5 90t1.5 89.5t0.5 74q0 44 -1 96.5t-1.5 99.5t-1.5 77.5l-1 30.5l73 -1l-0.5 -16t-1 -44.5t-1 -67.5t-1 -86t-0.5 -98t0.5 -104t1.5 -101t1.5 -86t1 -60l0.5 -22zM0 634l3 67h14.5t36 0.5t45.5 0.5h42h37t45 0.5t44 1t34 0.5h13l3 -62h-12
t-31 -0.5t-41 -1t-43 -0.5h-36t-35 -1t-40.5 -1.5t-38.5 -1.5t-29 -1.5zM118 -161q-10 0 -21.5 0.5t-22.5 1.5l8 45q6 -1 14 -2.5t17 -2t18 -0.5q22 0 39 4.5t17 16.5q0 11 -15.5 17t-56.5 6l11 37q60 2 85 -15.5t25 -43.5q0 -24 -17 -38t-43.5 -20t-57.5 -6zM168 1l-17 -76
h-36l17 76h36z" />
    <glyph glyph-name="uni0163" unicode="&#x163;" horiz-adv-x="307" 
d="M165 -10q-24 0 -44 6.5t-34 21.5t-21.5 38t-7.5 55q0 31 1.5 80t4.5 109q1 29 2.5 64.5t2.5 73.5t2 72t1.5 60t-0.5 39l69 1q-3 -36 -5.5 -76t-5 -82.5t-5 -82t-4.5 -74.5q-2 -46 -3 -83.5t-1 -72.5q0 -34 4 -55t15 -31t31 -10q21 0 32 13t15.5 37.5t4.5 58.5q0 20 -1 38
t-2.5 40t-3.5 51l56 -1q2 -27 3.5 -47t2.5 -39.5t1 -43.5q0 -49 -9 -85t-32.5 -55.5t-68.5 -19.5zM18 461l4 59h6.5t18 -0.5t25.5 -0.5h29.5h30.5t33.5 0.5t38 1t35 0.5t25.5 0.5l10 0.5l-4 -52h-8t-21 -0.5t-29.5 -1t-33.5 -1t-32 -0.5q-19 0 -40.5 -1t-41.5 -2t-33 -2z
M121 -162q-10 0 -21.5 0.5t-22.5 1.5l8 45q6 -1 14 -2.5t17 -2t18 -0.5q22 0 39 4.5t17 16.5q0 11 -15.5 17t-56.5 6l11 37q60 2 85 -15.5t25 -43.5q0 -24 -17 -38t-43.5 -20t-57.5 -6zM171 0l-17 -76h-36l17 76h36z" />
    <glyph glyph-name="Tcaron" unicode="&#x164;" horiz-adv-x="317" 
d="M116 2q1 15 2 48.5t2.5 77t2.5 90t1.5 89.5t0.5 74q0 44 -1 96.5t-1.5 99.5t-1.5 77.5l-1 30.5l73 -1l-0.5 -16t-1 -44.5t-1 -67.5t-1 -86t-0.5 -98t0.5 -104t1.5 -101t1.5 -86t1 -60l0.5 -22zM0 634l3 67h14.5t36 0.5t45.5 0.5h42h37t45 0.5t44 1t34 0.5h13l3 -62h-12
t-31 -0.5t-41 -1t-43 -0.5h-36t-35 -1t-40.5 -1.5t-38.5 -1.5t-29 -1.5zM184 749l-54 2l-68 62l30 27l65 -43l63 41l30 -23z" />
    <glyph glyph-name="tcaron" unicode="&#x165;" horiz-adv-x="307" 
d="M165 -10q-24 0 -44 6.5t-34 21.5t-21.5 38t-7.5 55q0 31 1.5 80t4.5 109q1 29 2.5 64.5t2.5 73.5t2 72t1.5 60t-0.5 39l69 1q-3 -36 -5.5 -76t-5 -82.5t-5 -82t-4.5 -74.5q-2 -46 -3 -83.5t-1 -72.5q0 -34 4 -55t15 -31t31 -10q21 0 32 13t15.5 37.5t4.5 58.5q0 20 -1 38
t-2.5 40t-3.5 51l56 -1q2 -27 3.5 -47t2.5 -39.5t1 -43.5q0 -49 -9 -85t-32.5 -55.5t-68.5 -19.5zM18 461l4 59h6.5t18 -0.5t25.5 -0.5h29.5h30.5t33.5 0.5t38 1t35 0.5t25.5 0.5l10 0.5l-4 -52h-8t-21 -0.5t-29.5 -1t-33.5 -1t-32 -0.5q-19 0 -40.5 -1t-41.5 -2t-33 -2z
M252 539l-28 14q12 21 20 50t7 51l-29 1l-4 86l69 6q0 -10 -0.5 -25.5t-0.5 -31t-1 -29.5q0 -28 -8.5 -62t-24.5 -60z" />
    <glyph glyph-name="Tbar" unicode="&#x166;" horiz-adv-x="317" 
d="M116 2q1 15 2 48.5t2.5 77t2.5 90t1.5 89.5t0.5 74q0 44 -1 96.5t-1.5 99.5t-1.5 77.5l-1 30.5l73 -1l-0.5 -16t-1 -44.5t-1 -67.5t-1 -86t-0.5 -98t0.5 -104t1.5 -101t1.5 -86t1 -60l0.5 -22zM0 634l3 67h14.5t36 0.5t45.5 0.5h42h37t45 0.5t44 1t34 0.5h13l3 -62h-12
t-31 -0.5t-41 -1t-43 -0.5h-36t-35 -1t-40.5 -1.5t-38.5 -1.5t-29 -1.5zM32 321l1 46h22t29.5 -0.5t35.5 -1t38 -0.5h29t33 0.5t32.5 1t27.5 0.5l1 -46h-31t-35 0.5t-34 0.5h-28q-35 0 -68.5 -0.5t-52.5 -0.5z" />
    <glyph glyph-name="tbar" unicode="&#x167;" horiz-adv-x="307" 
d="M165 -10q-24 0 -44 6.5t-34 21.5t-21.5 38t-7.5 55q0 31 1.5 80t4.5 109q1 29 2.5 64.5t2.5 73.5t2 72t1.5 60t-0.5 39l69 1q-3 -36 -5.5 -76t-5 -82.5t-5 -82t-4.5 -74.5q-2 -46 -3 -83.5t-1 -72.5q0 -34 4 -55t15 -31t31 -10q21 0 32 13t15.5 37.5t4.5 58.5q0 20 -1 38
t-2.5 40t-3.5 51l56 -1q2 -27 3.5 -47t2.5 -39.5t1 -43.5q0 -49 -9 -85t-32.5 -55.5t-68.5 -19.5zM18 461l4 59h6.5t18 -0.5t25.5 -0.5h29.5h30.5t33.5 0.5t38 1t35 0.5t25.5 0.5l10 0.5l-4 -52h-8t-21 -0.5t-29.5 -1t-33.5 -1t-32 -0.5q-19 0 -40.5 -1t-41.5 -2t-33 -2z
M18 351l1 46h22t29.5 -0.5t35.5 -1t38 -0.5h29t33 0.5t32.5 1t27.5 0.5l1 -46h-31t-35 0.5t-34 0.5h-28q-35 0 -68.5 -0.5t-52.5 -0.5z" />
    <glyph glyph-name="Utilde" unicode="&#x168;" horiz-adv-x="388" 
d="M197 -10q-37 0 -63 11.5t-43.5 34.5t-26 55.5t-8.5 75.5q0 35 0.5 76.5t0.5 83v75.5v95.5t-0.5 101.5t-2.5 97l71 -1q-1 -33 -2 -74t-1.5 -83t-1 -79t-0.5 -63q0 -29 -0.5 -60.5t-0.5 -62v-55v-39.5q0 -48 8 -77t25 -42t44 -13q22 0 36 9.5t22.5 26t12 37.5t3.5 46
q0 10 0.5 41t0.5 78.5v108.5q0 64 -1.5 124t-2.5 109t-2 80l69 -1q0 -33 -0.5 -68t-1 -73t-1 -80.5t-0.5 -92.5q1 -85 1 -142.5v-80.5q0 -32 -5.5 -63.5t-20 -57.5t-41 -42t-68.5 -16zM133 758h-40q2 26 10 41.5t21 22t29 6.5q23 0 45 -10.5t40 -10.5q11 0 16.5 4.5
t5.5 16.5h40q-1 -26 -9.5 -41.5t-21.5 -22t-29 -6.5q-22 0 -44.5 10.5t-40.5 10.5q-11 0 -16 -4.5t-6 -16.5z" />
    <glyph glyph-name="utilde" unicode="&#x169;" horiz-adv-x="334" 
d="M131 -8q-28 0 -47 15t-28 42.5t-9 66.5q0 33 1 65.5t2 59t1 41.5q1 18 1.5 43t1 55.5t0.5 66v75.5l63 6l-1 -23t-3 -59.5t-3.5 -79t-3.5 -83.5q0 -9 -1 -29.5t-1.5 -46.5t-1 -50.5t-0.5 -41.5q0 -22 3.5 -38.5t12 -25t24.5 -8.5q22 0 38.5 16t27.5 43t17 61t6 72l30 42
q0 -25 -1.5 -60.5t-7.5 -75t-19.5 -73.5t-38.5 -55t-63 -21zM237 0l1 105q-1 33 -3 66.5t-4 67.5q0 30 -0.5 66t-1 75t-1 77t-1.5 72l62 -1q-1 -20 -1.5 -46t-1 -54.5t-0.5 -55.5v-50.5v-37.5q1 -28 1.5 -56.5l1 -57l1 -57t1 -56.5t1.5 -57h-55zM105 599h-40q2 26 10 41.5
t21 22t29 6.5q23 0 45 -10.5t40 -10.5q11 0 16.5 4.5t5.5 16.5h40q-1 -26 -9.5 -41.5t-21.5 -22t-29 -6.5q-22 0 -44.5 10.5t-40.5 10.5q-11 0 -16 -4.5t-6 -16.5z" />
    <glyph glyph-name="Umacron" unicode="&#x16a;" horiz-adv-x="388" 
d="M197 -10q-37 0 -63 11.5t-43.5 34.5t-26 55.5t-8.5 75.5q0 35 0.5 76.5t0.5 83v75.5v95.5t-0.5 101.5t-2.5 97l71 -1q-1 -33 -2 -74t-1.5 -83t-1 -79t-0.5 -63q0 -29 -0.5 -60.5t-0.5 -62v-55v-39.5q0 -48 8 -77t25 -42t44 -13q22 0 36 9.5t22.5 26t12 37.5t3.5 46
q0 10 0.5 41t0.5 78.5v108.5q0 64 -1.5 124t-2.5 109t-2 80l69 -1q0 -33 -0.5 -68t-1 -73t-1 -80.5t-0.5 -92.5q1 -85 1 -142.5v-80.5q0 -32 -5.5 -63.5t-20 -57.5t-41 -42t-68.5 -16zM109 768v53l170 -3l4 -47z" />
    <glyph glyph-name="umacron" unicode="&#x16b;" horiz-adv-x="334" 
d="M131 -8q-28 0 -47 15t-28 42.5t-9 66.5q0 33 1 65.5t2 59t1 41.5q1 18 1.5 43t1 55.5t0.5 66v75.5l63 6l-1 -23t-3 -59.5t-3.5 -79t-3.5 -83.5q0 -9 -1 -29.5t-1.5 -46.5t-1 -50.5t-0.5 -41.5q0 -22 3.5 -38.5t12 -25t24.5 -8.5q22 0 38.5 16t27.5 43t17 61t6 72l30 42
q0 -25 -1.5 -60.5t-7.5 -75t-19.5 -73.5t-38.5 -55t-63 -21zM237 0l1 105q-1 33 -3 66.5t-4 67.5q0 30 -0.5 66t-1 75t-1 77t-1.5 72l62 -1q-1 -20 -1.5 -46t-1 -54.5t-0.5 -55.5v-50.5v-37.5q1 -28 1.5 -56.5l1 -57l1 -57t1 -56.5t1.5 -57h-55zM83 610v53l170 -3l4 -47z
" />
    <glyph glyph-name="Ubreve" unicode="&#x16c;" horiz-adv-x="388" 
d="M197 -10q-37 0 -63 11.5t-43.5 34.5t-26 55.5t-8.5 75.5q0 35 0.5 76.5t0.5 83v75.5v95.5t-0.5 101.5t-2.5 97l71 -1q-1 -33 -2 -74t-1.5 -83t-1 -79t-0.5 -63q0 -29 -0.5 -60.5t-0.5 -62v-55v-39.5q0 -48 8 -77t25 -42t44 -13q22 0 36 9.5t22.5 26t12 37.5t3.5 46
q0 10 0.5 41t0.5 78.5v108.5q0 64 -1.5 124t-2.5 109t-2 80l69 -1q0 -33 -0.5 -68t-1 -73t-1 -80.5t-0.5 -92.5q1 -85 1 -142.5v-80.5q0 -32 -5.5 -63.5t-20 -57.5t-41 -42t-68.5 -16zM197 754q-34 0 -61.5 10.5t-52.5 32.5l29 35q20 -14 38.5 -21t43.5 -7q29 0 50 8.5
t37 20.5l27 -32q-16 -18 -46.5 -32.5t-64.5 -14.5z" />
    <glyph glyph-name="ubreve" unicode="&#x16d;" horiz-adv-x="334" 
d="M131 -8q-28 0 -47 15t-28 42.5t-9 66.5q0 33 1 65.5t2 59t1 41.5q1 18 1.5 43t1 55.5t0.5 66v75.5l63 6l-1 -23t-3 -59.5t-3.5 -79t-3.5 -83.5q0 -9 -1 -29.5t-1.5 -46.5t-1 -50.5t-0.5 -41.5q0 -22 3.5 -38.5t12 -25t24.5 -8.5q22 0 38.5 16t27.5 43t17 61t6 72l30 42
q0 -25 -1.5 -60.5t-7.5 -75t-19.5 -73.5t-38.5 -55t-63 -21zM237 0l1 105q-1 33 -3 66.5t-4 67.5q0 30 -0.5 66t-1 75t-1 77t-1.5 72l62 -1q-1 -20 -1.5 -46t-1 -54.5t-0.5 -55.5v-50.5v-37.5q1 -28 1.5 -56.5l1 -57l1 -57t1 -56.5t1.5 -57h-55zM171 595q-34 0 -61.5 10.5
t-52.5 32.5l29 35q20 -14 38.5 -21t43.5 -7q29 0 50 8.5t37 20.5l27 -32q-16 -18 -46.5 -32.5t-64.5 -14.5z" />
    <glyph glyph-name="Uring" unicode="&#x16e;" horiz-adv-x="388" 
d="M197 -10q-37 0 -63 11.5t-43.5 34.5t-26 55.5t-8.5 75.5q0 35 0.5 76.5t0.5 83v75.5v95.5t-0.5 101.5t-2.5 97l71 -1q-1 -33 -2 -74t-1.5 -83t-1 -79t-0.5 -63q0 -29 -0.5 -60.5t-0.5 -62v-55v-39.5q0 -48 8 -77t25 -42t44 -13q22 0 36 9.5t22.5 26t12 37.5t3.5 46
q0 10 0.5 41t0.5 78.5v108.5q0 64 -1.5 124t-2.5 109t-2 80l69 -1q0 -33 -0.5 -68t-1 -73t-1 -80.5t-0.5 -92.5q1 -85 1 -142.5v-80.5q0 -32 -5.5 -63.5t-20 -57.5t-41 -42t-68.5 -16zM196 739q-28 0 -41 10t-16.5 22t-3.5 18q0 27 16 43t43 16t43.5 -14t16.5 -37
q0 -25 -16 -41.5t-42 -16.5zM196 767q4 0 11 2t13 8.5t6 19.5q0 14 -10.5 18.5t-21.5 4.5q-15 0 -23 -8t-8 -23q0 -2 1.5 -7.5t8.5 -10t23 -4.5z" />
    <glyph glyph-name="uring" unicode="&#x16f;" horiz-adv-x="334" 
d="M131 -8q-28 0 -47 15t-28 42.5t-9 66.5q0 33 1 65.5t2 59t1 41.5q1 18 1.5 43t1 55.5t0.5 66v75.5l63 6l-1 -23t-3 -59.5t-3.5 -79t-3.5 -83.5q0 -9 -1 -29.5t-1.5 -46.5t-1 -50.5t-0.5 -41.5q0 -22 3.5 -38.5t12 -25t24.5 -8.5q22 0 38.5 16t27.5 43t17 61t6 72l30 42
q0 -25 -1.5 -60.5t-7.5 -75t-19.5 -73.5t-38.5 -55t-63 -21zM237 0l1 105q-1 33 -3 66.5t-4 67.5q0 30 -0.5 66t-1 75t-1 77t-1.5 72l62 -1q-1 -20 -1.5 -46t-1 -54.5t-0.5 -55.5v-50.5v-37.5q1 -28 1.5 -56.5l1 -57l1 -57t1 -56.5t1.5 -57h-55zM170 582q-28 0 -41 10
t-16.5 22t-3.5 18q0 27 16 43t43 16t43.5 -14t16.5 -37q0 -25 -16 -41.5t-42 -16.5zM170 610q4 0 11 2t13 8.5t6 19.5q0 14 -10.5 18.5t-21.5 4.5q-15 0 -23 -8t-8 -23q0 -2 1.5 -7.5t8.5 -10t23 -4.5z" />
    <glyph glyph-name="Uhungarumlaut" unicode="&#x170;" horiz-adv-x="388" 
d="M197 -10q-37 0 -63 11.5t-43.5 34.5t-26 55.5t-8.5 75.5q0 35 0.5 76.5t0.5 83v75.5v95.5t-0.5 101.5t-2.5 97l71 -1q-1 -33 -2 -74t-1.5 -83t-1 -79t-0.5 -63q0 -29 -0.5 -60.5t-0.5 -62v-55v-39.5q0 -48 8 -77t25 -42t44 -13q22 0 36 9.5t22.5 26t12 37.5t3.5 46
q0 10 0.5 41t0.5 78.5v108.5q0 64 -1.5 124t-2.5 109t-2 80l69 -1q0 -33 -0.5 -68t-1 -73t-1 -80.5t-0.5 -92.5q1 -85 1 -142.5v-80.5q0 -32 -5.5 -63.5t-20 -57.5t-41 -42t-68.5 -16zM157 749l-28 27l4 5t11 14t15 19t15.5 21t12.5 19l5 8l39 -37l-6.5 -6t-15 -14.5
t-16.5 -15.5q-7 -7 -15.5 -16.5t-14.5 -16.5zM267 743l-29 22l4 5.5t11 14.5t14 20q7 10 12.5 19.5t9 16l3.5 6.5l43 -39l-5.5 -4.5t-13 -11t-14.5 -13.5l-15.5 -15.5t-14 -14.5z" />
    <glyph glyph-name="uhungarumlaut" unicode="&#x171;" horiz-adv-x="334" 
d="M131 -8q-28 0 -47 15t-28 42.5t-9 66.5q0 33 1 65.5t2 59t1 41.5q1 18 1.5 43t1 55.5t0.5 66v75.5l63 6l-1 -23t-3 -59.5t-3.5 -79t-3.5 -83.5q0 -9 -1 -29.5t-1.5 -46.5t-1 -50.5t-0.5 -41.5q0 -22 3.5 -38.5t12 -25t24.5 -8.5q22 0 38.5 16t27.5 43t17 61t6 72l30 42
q0 -25 -1.5 -60.5t-7.5 -75t-19.5 -73.5t-38.5 -55t-63 -21zM237 0l1 105q-1 33 -3 66.5t-4 67.5q0 30 -0.5 66t-1 75t-1 77t-1.5 72l62 -1q-1 -20 -1.5 -46t-1 -54.5t-0.5 -55.5v-50.5v-37.5q1 -28 1.5 -56.5l1 -57l1 -57t1 -56.5t1.5 -57h-55zM241 577l-29 22l4 5.5
t11 14.5t14 20q7 10 12.5 19.5t9 16l3.5 6.5l43 -39l-5.5 -4.5t-13 -11t-14.5 -13.5l-15.5 -15.5t-14 -14.5zM131 583l-28 27l4 5t11 14t15 19t15.5 21t12.5 19l5 8l39 -37l-6.5 -6t-15 -14.5t-16.5 -15.5q-7 -7 -15.5 -16.5t-14.5 -16.5z" />
    <glyph glyph-name="Uogonek" unicode="&#x172;" horiz-adv-x="388" 
d="M197 -10q-37 0 -63 11.5t-43.5 34.5t-26 55.5t-8.5 75.5q0 35 0.5 76.5t0.5 83v75.5v95.5t-0.5 101.5t-2.5 97l71 -1q-1 -33 -2 -74t-1.5 -83t-1 -79t-0.5 -63q0 -29 -0.5 -60.5t-0.5 -62v-55v-39.5q0 -48 8 -77t25 -42t44 -13q22 0 36 9.5t22.5 26t12 37.5t3.5 46
q0 10 0.5 41t0.5 78.5v108.5q0 64 -1.5 124t-2.5 109t-2 80l69 -1q0 -33 -0.5 -68t-1 -73t-1 -80.5t-0.5 -92.5q1 -85 1 -142.5v-80.5q0 -32 -5.5 -63.5t-20 -57.5t-41 -42t-68.5 -16zM212 -127q-32 0 -56.5 12.5t-24.5 41.5q0 18 11.5 35t27.5 29.5t30 16.5l38 -5
q-7 0 -23 -8.5t-29.5 -23t-13.5 -31.5q0 -13 13.5 -18t30.5 -5q10 0 23.5 1.5t21.5 2.5v-42q-12 -3 -24 -4.5t-25 -1.5z" />
    <glyph glyph-name="uogonek" unicode="&#x173;" horiz-adv-x="334" 
d="M131 -8q-28 0 -47 15t-28 42.5t-9 66.5q0 33 1 65.5t2 59t1 41.5q1 18 1.5 43t1 55.5t0.5 66v75.5l63 6l-1 -23t-3 -59.5t-3.5 -79t-3.5 -83.5q0 -9 -1 -29.5t-1.5 -46.5t-1 -50.5t-0.5 -41.5q0 -22 3.5 -38.5t12 -25t24.5 -8.5q22 0 38.5 16t27.5 43t17 61t6 72l30 42
q0 -25 -1.5 -60.5t-7.5 -75t-19.5 -73.5t-38.5 -55t-63 -21zM237 0l1 105q-1 33 -3 66.5t-4 67.5q0 30 -0.5 66t-1 75t-1 77t-1.5 72l62 -1q-1 -20 -1.5 -46t-1 -54.5t-0.5 -55.5v-50.5v-37.5q1 -28 1.5 -56.5l1 -57l1 -57t1 -56.5t1.5 -57h-55zM257 -130q-32 0 -56.5 12.5
t-24.5 41.5q0 18 11.5 35t27.5 29.5t30 16.5l38 -5q-7 0 -23 -8.5t-29.5 -23t-13.5 -31.5q0 -13 13.5 -18t30.5 -5q10 0 23.5 1.5t21.5 2.5v-42q-12 -3 -24 -4.5t-25 -1.5z" />
    <glyph glyph-name="Wcircumflex" unicode="&#x174;" horiz-adv-x="603" 
d="M228 0h-108q-4 36 -11.5 92.5t-16 123t-17.5 131.5q-7 49 -14.5 99.5t-15.5 98t-15 88t-12 68.5h76q7 -57 14.5 -114.5t14.5 -114.5t14 -115q3 -28 8 -67t10 -80.5t10.5 -79t9.5 -63.5q5 24 10 55t11 69t12 80t12 86q8 54 15.5 110t14.5 104t11 79l83 1q5 -26 11.5 -72.5
t14.5 -105t15 -122.5q4 -28 9 -66t11.5 -78t12.5 -76t10 -62q6 31 12 74.5t12.5 96.5t14.5 111q8 54 16.5 121t17 131t13.5 110l71 1q-6 -31 -13 -75t-15.5 -94.5t-16.5 -102.5t-15 -100q-10 -65 -18.5 -130.5t-15.5 -120.5t-11 -91l-107 1q-4 26 -10 63.5t-13 83t-14 95.5
t-12 99q-3 24 -7.5 61t-9 74.5t-7.5 60.5q-3 -22 -7.5 -59t-8.5 -73.5t-7 -58.5q-7 -48 -14 -98t-13.5 -96.5t-12 -86t-9.5 -66.5zM362 749l-65 43l-63 -41l-30 23l66 66l54 -2l68 -62z" />
    <glyph glyph-name="wcircumflex" unicode="&#x175;" horiz-adv-x="483" 
d="M105 -1q-4 29 -11 70.5t-16 92.5t-19 106q-6 35 -11.5 69.5t-12 67.5t-12 62t-10.5 52h67q3 -26 7 -55t8 -60t8.5 -62.5t9.5 -62.5q5 -34 10 -67.5t10 -65t10 -60.5q6 33 11 63.5t10 60t10 58.5q7 38 13 75t12 73.5t11 71.5l70 -1q5 -32 10.5 -67.5t11.5 -73.5t13 -77
q6 -30 10.5 -60t9.5 -59.5t9 -59.5q4 23 8 45l8 44t7 44.5t6 44.5q6 30 11 61.5t10 63.5t10 64.5t9 64.5l59 -1q-6 -32 -11.5 -64t-12 -63.5t-12 -63.5t-10.5 -64q-8 -43 -15.5 -85.5t-15 -86.5t-16.5 -95l-77 2q-5 38 -11.5 81t-13 87.5t-13.5 86.5q-7 39 -12.5 73t-9.5 60
q-4 -31 -10 -64t-12 -69q-7 -42 -15 -85t-15 -86t-13 -84zM306 590l-65 43l-63 -41l-30 23l66 66l54 -2l68 -62z" />
    <glyph glyph-name="Ycircumflex" unicode="&#x176;" horiz-adv-x="313" 
d="M118 0l1.5 56t-0.5 177l62 -9q1 -41 2 -81t2 -72t1.5 -51l0.5 -19zM-6 704h81q6 -35 12 -75t14 -82.5t16 -90.5q6 -27 11.5 -56t12 -60t13.5 -63q7 29 13.5 59l13 60t12.5 59q6 30 12.5 61t12 62t11.5 60.5t11 57.5l79 2q-6 -25 -14.5 -55t-16.5 -63t-17 -67.5t-18 -71.5
q-9 -39 -19 -79t-19 -78t-17.5 -74.5t-15.5 -68.5h-60q-7 35 -14.5 71t-15.5 73t-15.5 73t-16.5 72q-8 37 -16.5 73t-16.5 70.5t-16.5 67t-16.5 63.5zM219 749l-65 43l-63 -41l-30 23l66 66l54 -2l68 -62z" />
    <glyph glyph-name="ycircumflex" unicode="&#x177;" horiz-adv-x="307" 
d="M162 -148l-66 2q9 37 17 74.5t15.5 74t15.5 73t15 71.5t14 68.5t14 65.5q7 41 14.5 81l15 80t14.5 78h66q-7 -32 -14.5 -64.5t-14.5 -64l-14 -63t-13 -61.5q-9 -42 -17.5 -83t-16.5 -82t-15.5 -82.5l-15 -83t-14.5 -84.5zM128 -9q-5 26 -10.5 53t-11.5 55.5t-12 57.5
t-12 57.5t-12 56.5q-8 37 -15.5 71t-15 65t-14.5 58t-12 49l68 3q5 -29 12 -66.5t15.5 -81t18.5 -91.5q6 -28 11.5 -58.5t11.5 -61t12.5 -61t12.5 -59.5zM217 590l-65 43l-63 -41l-30 23l66 66l54 -2l68 -62z" />
    <glyph glyph-name="Ydieresis" unicode="&#x178;" horiz-adv-x="313" 
d="M118 0l1.5 56t-0.5 177l62 -9q1 -41 2 -81t2 -72t1.5 -51l0.5 -19zM-6 704h81q6 -35 12 -75t14 -82.5t16 -90.5q6 -27 11.5 -56t12 -60t13.5 -63q7 29 13.5 59l13 60t12.5 59q6 30 12.5 61t12 62t11.5 60.5t11 57.5l79 2q-6 -25 -14.5 -55t-16.5 -63t-17 -67.5t-18 -71.5
q-9 -39 -19 -79t-19 -78t-17.5 -74.5t-15.5 -68.5h-60q-7 35 -14.5 71t-15.5 73t-15.5 73t-16.5 72q-8 37 -16.5 73t-16.5 70.5t-16.5 67t-16.5 63.5zM42 838l64 -7l-3 -78l-59 -1zM202 838l64 -7l-3 -78l-59 -1z" />
    <glyph glyph-name="Zacute" unicode="&#x179;" horiz-adv-x="309" 
d="M32 693q10 -1 25 -1.5t32.5 -0.5t36.5 0.5t36 0.5q27 1 46 1.5t36.5 1t39.5 0.5l2 -65q-20 -56 -38.5 -107.5t-36 -101t-34.5 -97.5q-14 -43 -28.5 -86t-28.5 -86.5t-29 -89.5h29h27h24q22 1 41.5 1.5t38.5 1t41 0.5l-3 -65q-18 0 -34.5 0.5t-32.5 1t-32.5 1t-34.5 0.5
q-25 0 -48.5 -0.5t-43 -0.5t-31.5 -0.5l-12 -0.5l-3 61q24 67 50.5 141.5t50.5 149.5q26 77 49.5 148.5t41.5 130.5q-11 0 -21.5 0.5t-21 0.5h-22.5q-21 0 -41.5 -0.5t-37 -1t-26.5 -1l-10 -0.5zM114 736l-23 30q9 7 25 18.5t30 22.5q9 7 20 16t22 18.5t18 16.5l34 -49
q-7 -4 -18 -10.5t-21.5 -12.5t-19.5 -11q-11 -6 -24.5 -14t-25 -15t-17.5 -10z" />
    <glyph glyph-name="zacute" unicode="&#x17a;" horiz-adv-x="263" 
d="M60 10l-44 43q15 33 29.5 68.5t29.5 71.5l30 72q17 42 33 82t31 78.5t27 73.5l51 -37q-16 -35 -32 -71.5t-31.5 -73.5t-32.5 -76q-15 -36 -30 -74.5l-30 -77t-31 -79.5zM17 -4l-1 57h12.5t33 -0.5t43.5 -0.5h45q18 0 37 0.5t34 1t25 1l10 0.5v-55h-12h-30h-39h-40
q-22 0 -43 -0.5t-38 -1.5t-27 -1.5zM25 462v54h11h28.5h38h39.5q15 0 32 0.5t33.5 1t26.5 1l10 0.5l3 -57l-14.5 0.5t-35.5 0.5t-40.5 0.5t-30.5 0.5q-18 0 -36.5 -0.5t-32.5 -0.5t-23 -0.5zM100 577l-23 30l8.5 6t21 15.5t25.5 19.5q12 9 26 21t24 21l10 9l34 -49l-10 -6
t-23.5 -13.5t-25.5 -14.5q-11 -6 -24.5 -14t-25 -15t-17.5 -10z" />
    <glyph glyph-name="Zdotaccent" unicode="&#x17b;" horiz-adv-x="309" 
d="M32 693q10 -1 25 -1.5t32.5 -0.5t36.5 0.5t36 0.5q27 1 46 1.5t36.5 1t39.5 0.5l2 -65q-20 -56 -38.5 -107.5t-36 -101t-34.5 -97.5q-14 -43 -28.5 -86t-28.5 -86.5t-29 -89.5h29h27h24q22 1 41.5 1.5t38.5 1t41 0.5l-3 -65q-18 0 -34.5 0.5t-32.5 1t-32.5 1t-34.5 0.5
q-25 0 -48.5 -0.5t-43 -0.5t-31.5 -0.5l-12 -0.5l-3 61q24 67 50.5 141.5t50.5 149.5q26 77 49.5 148.5t41.5 130.5q-11 0 -21.5 0.5t-21 0.5h-22.5q-21 0 -41.5 -0.5t-37 -1t-26.5 -1l-10 -0.5zM123 769l-2 86l65 -7l-3 -78z" />
    <glyph glyph-name="zdotaccent" unicode="&#x17c;" horiz-adv-x="263" 
d="M60 10l-44 43q15 33 29.5 68.5t29.5 71.5l30 72q17 42 33 82t31 78.5t27 73.5l51 -37q-16 -35 -32 -71.5t-31.5 -73.5t-32.5 -76q-15 -36 -30 -74.5l-30 -77t-31 -79.5zM17 -4l-1 57h12.5t33 -0.5t43.5 -0.5h45q18 0 37 0.5t34 1t25 1l10 0.5v-55h-12h-30h-39h-40
q-22 0 -43 -0.5t-38 -1.5t-27 -1.5zM25 462v54h11h28.5h38h39.5q15 0 32 0.5t33.5 1t26.5 1l10 0.5l3 -57l-14.5 0.5t-35.5 0.5t-40.5 0.5t-30.5 0.5q-18 0 -36.5 -0.5t-32.5 -0.5t-23 -0.5zM109 609l-2 86l65 -7l-3 -78z" />
    <glyph glyph-name="Zcaron" unicode="&#x17d;" horiz-adv-x="309" 
d="M32 693q10 -1 25 -1.5t32.5 -0.5t36.5 0.5t36 0.5q27 1 46 1.5t36.5 1t39.5 0.5l2 -65q-20 -56 -38.5 -107.5t-36 -101t-34.5 -97.5q-14 -43 -28.5 -86t-28.5 -86.5t-29 -89.5h29h27h24q22 1 41.5 1.5t38.5 1t41 0.5l-3 -65q-18 0 -34.5 0.5t-32.5 1t-32.5 1t-34.5 0.5
q-25 0 -48.5 -0.5t-43 -0.5t-31.5 -0.5l-12 -0.5l-3 61q24 67 50.5 141.5t50.5 149.5q26 77 49.5 148.5t41.5 130.5q-11 0 -21.5 0.5t-21 0.5h-22.5q-21 0 -41.5 -0.5t-37 -1t-26.5 -1l-10 -0.5zM181 749l-54 2l-68 62l30 27l65 -43l63 41l30 -23z" />
    <glyph glyph-name="zcaron" unicode="&#x17e;" horiz-adv-x="263" 
d="M60 10l-44 43q15 33 29.5 68.5t29.5 71.5l30 72q17 42 33 82t31 78.5t27 73.5l51 -37q-16 -35 -32 -71.5t-31.5 -73.5t-32.5 -76q-15 -36 -30 -74.5l-30 -77t-31 -79.5zM17 -4l-1 57h12.5t33 -0.5t43.5 -0.5h45q18 0 37 0.5t34 1t25 1l10 0.5v-55h-12h-30h-39h-40
q-22 0 -43 -0.5t-38 -1.5t-27 -1.5zM25 462v54h11h28.5h38h39.5q15 0 32 0.5t33.5 1t26.5 1l10 0.5l3 -57l-14.5 0.5t-35.5 0.5t-40.5 0.5t-30.5 0.5q-18 0 -36.5 -0.5t-32.5 -0.5t-23 -0.5zM167 590l-54 2l-68 62l30 27l65 -43l63 41l30 -23z" />
    <glyph glyph-name="longs" unicode="&#x17f;" horiz-adv-x="234" 
d="M12 462l4 59l16.5 -0.5t41 -1t48.5 -0.5l-2 -54q-25 0 -49.5 -0.5t-41.5 -1.5zM196 706q42 0 64.5 -15.5t31.5 -42.5t7 -60l-61 2q3 40 -8.5 53.5t-33.5 13.5q-16 0 -27.5 -10t-17.5 -28.5t-7 -45.5q-2 -67 -3.5 -118t-2 -94.5t-0.5 -88.5q0 -72 1.5 -134t3 -100l1.5 -38
l-69 -3l2 38t3.5 100.5t1.5 134.5v82.5v69v66t1 74.5q0 25 5.5 50t18.5 46.5t34.5 34.5t54.5 13z" />
    <glyph glyph-name="uni018F" unicode="&#x18f;" horiz-adv-x="364" 
d="M167 -10q-48 0 -75 23.5t-38.5 64.5t-11.5 92q0 40 4 83.5t11 86.5l62 -1q-3 -25 -6.5 -53t-5.5 -56.5t-2 -56.5q0 -35 6 -63t20 -44.5t38 -16.5q29 0 46 20t26 55q6 21 9.5 46t5 53t2 56t0.5 54q0 45 0.5 83.5t-0.5 71t-4 57.5q-6 48 -23.5 72.5t-57.5 24.5
q-25 0 -38.5 -15.5t-18 -39t-4.5 -49.5q0 -13 0.5 -26.5t1.5 -26.5l-60 -2q-2 14 -3 29t-1 29q0 42 12 78t39.5 59t73.5 23q44 0 71.5 -13t43.5 -40t23 -67q5 -28 7 -63.5t2.5 -77t0.5 -89.5q0 -34 -0.5 -68.5t-2.5 -66.5t-6 -61.5t-12 -55.5q-10 -32 -26.5 -57t-43 -38.5
t-65.5 -13.5zM73 281l-6 58h9t25 0.5t36.5 1t43 1.5l45 2t43.5 2l1 -63z" />
    <glyph glyph-name="florin" unicode="&#x192;" horiz-adv-x="500" 
d="M128 -143q-15 0 -32.5 3t-33 8t-23.5 11l26 52q11 -7 24 -12.5t32 -5.5t32.5 9t22 27.5t11.5 46.5q2 18 4.5 42.5t5.5 58t6.5 77t7.5 98.5q3 44 6 78t5 61.5t4.5 52t4 49t3.5 51.5q5 68 34 103.5t84 35.5q22 0 49.5 -6t39.5 -17l-29 -49q-10 8 -27.5 13t-35.5 5
q-15 0 -26 -7.5t-18 -27t-10 -54.5q-1 -19 -3.5 -40.5t-5.5 -46.5t-6 -55t-6.5 -66t-6.5 -79t-5.5 -79t-4.5 -66t-4 -55.5t-3.5 -47t-3.5 -39.5q-3 -39 -17.5 -68t-39 -45t-61.5 -16zM170 495l15 57h9.5t25 -0.5t34 -0.5h36.5h30.5t30 0.5t26 0.5h18h6.5l-16 -53h-5.5h-15.5
h-23.5h-28h-29.5q-19 0 -38.5 -1t-36.5 -1.5t-27.5 -1z" />
    <glyph glyph-name="uni019D" unicode="&#x19d;" horiz-adv-x="416" 
d="M5 -94q17 0 29 9t19.5 28.5t8.5 50.5q1 24 1.5 62.5t1.5 85.5t1.5 100t0.5 107q0 50 -0.5 101t-1.5 96.5t-2 81t-1.5 56l-0.5 20.5h90q10 -38 19.5 -78.5t20 -82.5t21 -86t21.5 -88q12 -46 24 -94.5t23 -90.5t17 -67v65.5t-0.5 67t-0.5 66.5v65q0 35 -0.5 79t-0.5 88.5
t-0.5 82.5t-1 61l-0.5 23h63l-1 -27.5t-2 -74.5t-2 -106.5t-1 -123.5t0.5 -130t1.5 -121t1.5 -89l0.5 -34l-93 -8l-7 29t-19 78.5t-26.5 110.5t-29.5 125q-5 22 -12.5 53.5t-15.5 66t-16.5 67t-14.5 57.5q0 -58 0.5 -119.5t0.5 -121.5v-84.5v-77.5t-0.5 -71t-0.5 -65v-58
q0 -34 -6 -60t-19.5 -43.5t-33.5 -26.5t-49 -9z" />
    <glyph glyph-name="Ohorn" unicode="&#x1a0;" horiz-adv-x="380" 
d="M183 -5q-43 0 -69.5 17t-41.5 48.5t-22 74.5q-4 31 -6 67t-2 75.5v79.5v53.5t1 53.5t3.5 51t6.5 46q11 66 44.5 105t101.5 39q42 0 68.5 -17.5t41.5 -48.5t21 -74q7 -45 8 -99t1 -111q0 -41 -1 -79.5t-4 -74.5t-10 -68q-13 -62 -45 -100t-96 -38zM186 52q26 0 41.5 15
t24.5 43.5t13 67.5q5 39 5.5 85.5t0.5 96.5q0 49 -0.5 91.5t-2.5 75.5q-3 58 -19 91t-54 33q-39 0 -57.5 -31t-23.5 -84q-2 -19 -3 -41.5t-1.5 -47t-0.5 -50.5v-52q0 -48 -0.5 -92.5t2.5 -83.5q3 -36 11 -62.5t23.5 -40.5t40.5 -14zM288 586l-6 27q12 4 30 15.5t32 32.5
t14 51l-31 1l-5 92l71 -5q0 -16 -0.5 -43t-1.5 -49q-2 -32 -16.5 -57t-37 -41.5t-49.5 -23.5z" />
    <glyph glyph-name="ohorn" unicode="&#x1a1;" horiz-adv-x="330" 
d="M161 -10q-57 0 -80 36.5t-33 96.5q-4 26 -6 58.5t-2 65.5q0 28 1.5 57t4.5 55t7 46q13 65 41 95.5t81 30.5q52 0 77.5 -32t31.5 -88q3 -31 5 -64.5t2 -68.5q0 -50 -4.5 -99.5t-13.5 -89.5q-5 -23 -17.5 -46t-35 -38t-59.5 -15zM163 47q35 0 46.5 28t17.5 78q2 16 3 34.5
t1.5 39t0.5 41.5q0 33 -1 63t-3 53q-3 41 -14.5 67.5t-42.5 26.5q-24 0 -36.5 -12t-18 -29.5t-8.5 -36.5q-3 -23 -5.5 -49t-3.5 -52t-1 -51q0 -19 0.5 -37.5t2 -36.5t3.5 -37q5 -44 19 -67t40 -23zM228 425l-6 27q12 4 30 15.5t32 32.5t14 51l-31 1l-5 92l71 -5
q0 -16 -0.5 -43t-1.5 -49q-2 -32 -16.5 -57t-37 -41.5t-49.5 -23.5z" />
    <glyph glyph-name="Uhorn" unicode="&#x1af;" horiz-adv-x="388" 
d="M197 -10q-37 0 -63 11.5t-43.5 34.5t-26 55.5t-8.5 75.5q0 35 0.5 77t0.5 83v75v95.5t-0.5 101.5t-2.5 97l71 -1q-1 -33 -2 -74t-1.5 -83t-1 -79t-0.5 -63q0 -29 -0.5 -60.5t-0.5 -61.5v-55v-40q0 -48 8 -77t25 -42t44 -13q22 0 36 9.5t22.5 26t12 37.5t3.5 46
q0 10 0.5 41t0.5 78.5v108.5q0 64 -1.5 124t-2.5 109t-2 80l69 -1q0 -33 -0.5 -68t-1 -73t-1 -80.5t-0.5 -92.5q1 -85 1 -142.5v-80.5q0 -32 -5.5 -63.5t-20.5 -57.5t-41 -42t-68 -16zM332 586l-6 27q12 4 30 15.5t32 32.5t14 51l-31 1l-5 92l71 -5q0 -16 -0.5 -43t-1.5 -49
q-2 -32 -16.5 -57t-37 -41.5t-49.5 -23.5z" />
    <glyph glyph-name="uhorn" unicode="&#x1b0;" horiz-adv-x="334" 
d="M131 -8q-28 0 -47 15t-28 42.5t-9 66.5q0 33 1 65.5t2 59t1 41.5q1 18 1.5 43t1 55.5t0.5 66v75.5l63 6l-1 -23t-3 -59.5t-3.5 -79t-3.5 -83.5q0 -9 -1 -29.5t-1.5 -46.5t-1 -50.5t-0.5 -41.5q0 -22 3.5 -38.5t12 -25t24.5 -8.5q22 0 38.5 16t27.5 43t17 61t6 72l30 42
q0 -25 -1.5 -60.5t-7.5 -75t-19.5 -73.5t-38.5 -55t-63 -21zM237 0l1 105q-1 33 -3 66.5t-4 67.5q0 30 -0.5 66t-1 75t-1 77t-1.5 72l62 -1q-1 -20 -1.5 -46t-1 -54.5t-0.5 -55.5v-50.5v-37.5q1 -28 1.5 -56.5l1 -57l1 -57t1 -56.5t1.5 -57h-55zM263 425l-6 27q12 4 30 15.5
t32 32.5t14 51l-31 1l-5 92l71 -5q0 -16 -0.5 -43t-1.5 -49q-2 -32 -16.5 -57t-37 -41.5t-49.5 -23.5z" />
    <glyph glyph-name="uni01C4" unicode="&#x1c4;" horiz-adv-x="690" 
d="M183 -10q-29 0 -48 0.5t-35 2.5t-36 4l45 63q8 -2 19.5 -4t24.5 -2.5t28 -0.5q26 0 44.5 14.5t30 48t16.5 92t5 146.5q0 70 -3 125t-13 93.5t-30 58.5t-54 20t-56.5 -3t-36.5 -8l-23 62q24 2 50.5 4t61.5 2q52 0 85 -19t50.5 -60t24.5 -107.5t7 -162.5q0 -60 -2.5 -115
t-10.5 -101t-25 -80.5t-46.5 -53.5t-72.5 -19zM64 -3q1 42 2 104t1.5 131t0.5 131q0 63 -1 127.5t-2.5 120t-3.5 91.5l70 -10q0 -23 -0.5 -54t-1 -67t-0.5 -73t-0.5 -72.5t-0.5 -64.5v-59.5t0.5 -74t1 -80.5t1 -79.5t1.5 -70.5h-68zM413 693q10 -1 25 -1.5t32.5 -0.5
t36.5 0.5t36 0.5q27 1 46 1.5t36.5 1t39.5 0.5l2 -65q-20 -56 -38.5 -107.5t-36 -101t-34.5 -97.5q-14 -43 -28.5 -86t-28.5 -86.5t-29 -89.5h29h27h24q22 1 41.5 1.5t38.5 1t41 0.5l-3 -65q-18 0 -34.5 0.5t-32.5 1t-32.5 1t-34.5 0.5q-25 0 -48.5 -0.5t-43 -0.5
t-31.5 -0.5l-12 -0.5l-3 61q24 67 50.5 141.5t50.5 149.5q26 77 49.5 148.5t41.5 130.5q-11 0 -21.5 0.5t-21 0.5h-22.5q-21 0 -41.5 -0.5t-37 -1t-26.5 -1l-10 -0.5zM562 749l-54 2l-68 62l30 27l65 -43l63 41l30 -23z" />
    <glyph glyph-name="uni01C5" unicode="&#x1c5;" horiz-adv-x="644" 
d="M183 -10q-29 0 -48 0.5t-35 2.5t-36 4l45 63q8 -2 19.5 -4t24.5 -2.5t28 -0.5q26 0 44.5 14.5t30 48t16.5 92t5 146.5q0 70 -3 125t-13 93.5t-30 58.5t-54 20t-56.5 -3t-36.5 -8l-23 62q24 2 50.5 4t61.5 2q52 0 85 -19t50.5 -60t24.5 -107.5t7 -162.5q0 -60 -2.5 -115
t-10.5 -101t-25 -80.5t-46.5 -53.5t-72.5 -19zM64 -3q1 42 2 104t1.5 131t0.5 131q0 63 -1 127.5t-2.5 120t-3.5 91.5l70 -10q0 -23 -0.5 -54t-1 -67t-0.5 -73t-0.5 -72.5t-0.5 -64.5v-59.5t0.5 -74t1 -80.5t1 -79.5t1.5 -70.5h-68zM441 10l-44 43q15 33 29.5 68.5
t29.5 71.5l30 72q17 42 33 82t31 78.5t27 73.5l51 -37q-16 -35 -32 -71.5t-31.5 -73.5t-32.5 -76q-15 -36 -30 -74.5l-30 -77t-31 -79.5zM398 -4l-1 57h12.5t33 -0.5t43.5 -0.5h45q18 0 37 0.5t34 1t25 1l10 0.5v-55h-12h-30h-39h-40q-22 0 -43 -0.5t-38 -1.5t-27 -1.5z
M406 462v54h11h28.5h38h39.5q15 0 32 0.5t33.5 1t26.5 1l10 0.5l3 -57l-14.5 0.5t-35.5 0.5t-40.5 0.5t-30.5 0.5q-18 0 -36.5 -0.5t-32.5 -0.5t-23 -0.5zM548 590l-54 2l-68 62l30 27l65 -43l63 41l30 -23z" />
    <glyph glyph-name="uni01C6" unicode="&#x1c6;" horiz-adv-x="605" 
d="M40 258q0 41 2 83t9 78q11 49 35.5 80t71.5 31q19 0 33.5 -6t25 -15t17.5 -20q0 21 -0.5 46.5t-1 53t-1 53.5t-0.5 47l64 4q-2 -71 -3.5 -138.5t-2 -124t-0.5 -95.5v-65.5t0.5 -63t1 -64t1 -67.5t1.5 -75h-55l-3 51q-8 -16 -19.5 -30t-28 -22.5t-38.5 -8.5
q-28 0 -47 11.5t-31 32t-19 48.5q-9 38 -10.5 83.5t-1.5 92.5zM98 254q0 -40 0.5 -73t3.5 -58q5 -38 17.5 -59t39.5 -21q26 0 40.5 22t21.5 52q6 25 9 53.5t3.5 56t0.5 48.5v61t-5 61q-4 34 -18.5 55.5t-45.5 21.5q-19 0 -31.5 -10t-19.5 -28.5t-11 -43.5q-4 -30 -4.5 -66.5
t-0.5 -71.5zM402 10l-44 43q15 33 29.5 68.5t29.5 71.5l30 72q17 42 33 82t31 78.5t27 73.5l51 -37q-16 -35 -32 -71.5t-31.5 -73.5t-32.5 -76q-15 -36 -30 -74.5l-30 -77t-31 -79.5zM359 -4l-1 57h12.5t33 -0.5t43.5 -0.5h45q18 0 37 0.5t34 1t25 1l10 0.5v-55h-12h-30h-39
h-40q-22 0 -43 -0.5t-38 -1.5t-27 -1.5zM367 462v54h11h28.5h38h39.5q15 0 32 0.5t33.5 1t26.5 1l10 0.5l3 -57l-14.5 0.5t-35.5 0.5t-40.5 0.5t-30.5 0.5q-18 0 -36.5 -0.5t-32.5 -0.5t-23 -0.5zM509 590l-54 2l-68 62l30 27l65 -43l63 41l30 -23z" />
    <glyph glyph-name="uni01C7" unicode="&#x1c7;" horiz-adv-x="583" 
d="M405 -10q-47 0 -72 21.5t-33.5 55.5t-8.5 69q0 50 2.5 87.5t4.5 75.5l64 -1q-6 -60 -7 -95.5t-1 -65.5q0 -26 4 -46t15.5 -31.5t33.5 -11.5q16 0 26.5 5.5t17 19t9.5 38t3 62.5v40.5v57t-0.5 64t-0.5 61.5v63t-1 79.5t-1.5 83t-2.5 73.5l71 2q-1 -70 -1.5 -148.5
t-0.5 -146.5v-77v-86v-78q0 -37 -5.5 -68.5t-19 -54.5t-37 -35.5t-59.5 -12.5zM61 -5l44 68l162 -3v-57zM61 -5q1 46 1 112.5t0.5 139t0.5 134.5q0 63 -0.5 124t-0.5 112t-1 83l73 6q-1 -33 -2.5 -75.5t-2.5 -87.5t-1.5 -86.5t-0.5 -73.5t0.5 -79t1 -100t1 -105t1.5 -94z
" />
    <glyph glyph-name="uni01C8" unicode="&#x1c8;" horiz-adv-x="498" 
d="M61 -5l0.5 35.5t1 93.5t1 125.5t0.5 131.5t-0.5 121.5t-1 102t-1 70l-0.5 25.5l73 6l-0.5 -22t-1.5 -58t-2.5 -79t-2 -86t-0.5 -78t0.5 -83.5t1 -100t1 -95.5t1 -71.5l0.5 -27.5zM61 -5l44 68l204 -3v-57zM320 -156l-2 46q22 0 35 9t19 28t6 50q1 33 1 76.5v100v128.5
t-1 125t-2 82.5l-1 29.5l69 -1l-2 -28.5t-4 -81t-2 -125.5v-79v-64.5t-0.5 -55.5t-0.5 -51.5v-52.5q0 -34 -7 -59.5t-21 -42.5t-36 -25.5t-51 -8.5zM377 613l-2 86l67 3l-3 -86z" />
    <glyph glyph-name="uni01C9" unicode="&#x1c9;" horiz-adv-x="362" 
d="M57 0q1 23 1.5 62t1 88t0.5 102.5v104.5v85t-0.5 92.5t-1 88.5t-0.5 74l67 1q-1 -31 -3 -72.5t-3.5 -88.5t-2.5 -93t-1 -86q0 -53 1.5 -118t4 -126.5t4.5 -105.5zM184 -156l-2 46q22 0 35 9t19 28t6 50q1 33 1 76.5v100v128.5t-1 125t-2 82.5l-1 29.5l69 -1l-2 -28.5
t-4 -81t-2 -125.5v-79v-64.5t-0.5 -55.5t-0.5 -51.5v-52.5q0 -34 -7 -59.5t-21 -42.5t-36 -25.5t-51 -8.5zM241 613l-2 86l67 3l-3 -86z" />
    <glyph glyph-name="uni01CA" unicode="&#x1ca;" horiz-adv-x="753" 
d="M61 704h90l6 -27t18 -74t27 -107.5t31 -126.5q12 -46 24 -94.5t23 -90t17 -67.5v66.5t-0.5 73.5t-0.5 70v54q0 35 -0.5 79t-0.5 88.5t-0.5 82.5t-1 61l-0.5 23h63l-1 -27.5t-2 -74.5t-2 -106.5t-1 -123.5t0.5 -130t1.5 -121t1.5 -89l0.5 -34l-93 -8l-7 29t-19.5 78.5
t-26.5 110.5t-29 125q-5 22 -12.5 53.5t-16 66t-16.5 67t-14 57.5v-55t0.5 -62t0.5 -62v-55q0 -35 0.5 -81t1 -93.5t0.5 -88.5t0.5 -66l0.5 -25l-60 1l0.5 31t1 82.5t1 114.5t0.5 127t-1 126t-2 112t-2 80zM566 -10q-52 0 -78.5 24t-35.5 60t-9 71q0 50 2.5 83t4.5 71l64 -1
q-4 -40 -5.5 -66t-2 -46t-0.5 -40q0 -26 4.5 -48t17 -36t40.5 -14q19 0 31.5 7t20 22t10.5 41t3 64v39v54t-0.5 61t-0.5 60v63t-1 79.5t-1.5 83t-2.5 73.5l71 2q-1 -70 -1.5 -148.5t-0.5 -146.5v-74.5v-81.5v-76q0 -37 -6 -70t-20.5 -57.5t-39.5 -38.5t-64 -14z" />
    <glyph glyph-name="uni01CB" unicode="&#x1cb;" horiz-adv-x="605" 
d="M61 704h90l6 -27t18 -74t27 -107.5t31 -126.5q12 -46 24 -94.5t23 -90t17 -67.5v66.5t-0.5 73.5t-0.5 70v54q0 35 -0.5 79t-0.5 88.5t-0.5 82.5t-1 61l-0.5 23h63l-1 -27.5t-2 -74.5t-2 -106.5t-1 -123.5t0.5 -130t1.5 -121t1.5 -89l0.5 -34l-93 -8l-7 29t-19.5 78.5
t-26.5 110.5t-29 125q-5 22 -12.5 53.5t-16 66t-16.5 67t-14 57.5v-55t0.5 -62t0.5 -62v-55q0 -35 0.5 -81t1 -93.5t0.5 -88.5t0.5 -66l0.5 -25l-60 1l0.5 31t1 82.5t1 114.5t0.5 127t-1 126t-2 112t-2 80zM426 -156l-2 46q22 0 35 9t19 28t6 50q1 33 1 76.5v100v128.5
t-1 125t-2 82.5l-1 29.5l69 -1l-2 -28.5t-4 -81t-2 -125.5v-79v-64.5t-0.5 -55.5t-0.5 -51.5v-52.5q0 -34 -7 -59.5t-21 -42.5t-36 -25.5t-51 -8.5zM483 613l-2 86l67 3l-3 -86z" />
    <glyph glyph-name="uni01CC" unicode="&#x1cc;" horiz-adv-x="539" 
d="M298 0l-67 1q1 22 2.5 44.5t2.5 48.5t1.5 57t0.5 70v71v56v47q0 29 -4 45t-13 22.5t-24 6.5q-19 0 -38 -18.5t-32 -57.5t-13 -100l-26 -14q0 34 3 69t11 66.5t22 56t35.5 39t50.5 14.5q28 0 46.5 -12t27.5 -37.5t9 -68.5v-55v-58v-71q0 -43 0.5 -76t1 -59t1.5 -47t2 -40z
M52 1q2 28 3 56t2 58t1.5 67.5t0.5 85.5q0 64 -0.5 122t-1.5 94l-1 36l59 3q0 -22 -1 -55.5t-1 -77t1 -97.5v-114.5t1 -96.5t2 -81h-65zM360 -156l-2 46q22 0 35 9t19 28t6 50q1 33 1 76.5v100v128.5t-1 125t-2 82.5l-1 29.5l69 -1l-2 -28.5t-4 -81t-2 -125.5v-79v-64.5
t-0.5 -55.5t-0.5 -51.5v-52.5q0 -34 -7 -59.5t-21 -42.5t-36 -25.5t-51 -8.5zM417 613l-2 86l67 3l-3 -86z" />
    <glyph glyph-name="uni01CD" unicode="&#x1cd;" horiz-adv-x="340" 
d="M259 -6q-8 61 -16 121t-16 118.5t-16 114.5q-6 40 -11.5 79t-11 76t-11 72t-11.5 67l-49 60l108 2q5 -40 10 -82t11 -85t13 -87.5t14 -88.5q10 -61 20 -123.5t21 -122.5t21 -116zM68 164v64l196 -4v-53zM76 5l-70 1q8 43 17.5 99.5t20.5 120.5t21 128q11 67 21 131.5
t18 120.5t13 96l108 2l-53 -68q-7 -40 -14.5 -86t-15.5 -95.5t-16 -102.5q-8 -57 -17 -116.5t-17.5 -117.5t-15.5 -113zM199 749l-54 2l-68 62l30 27l65 -43l63 41l30 -23z" />
    <glyph glyph-name="uni01CE" unicode="&#x1ce;" horiz-adv-x="298" 
d="M207 0l-3 208l1 168q1 62 -12.5 83.5t-47.5 21.5q-33 0 -45.5 -25.5t-12.5 -59.5q0 -15 1.5 -31t4.5 -30l-53 -3q-3 17 -5 33t-2 33q0 39 12 68t37.5 46t64.5 17q36 0 57.5 -12.5t33 -33.5t15 -46t2.5 -50l-3 -128l7 -259h-52zM113 -10q-31 0 -51 13.5t-29.5 38
t-9.5 55.5t9 55t24 42.5t33 34t37 30.5q15 13 29.5 25t25.5 26t17.5 30.5t6.5 35.5l27 -7q0 -39 -11.5 -66t-29.5 -46t-38 -35t-38 -33t-29 -38t-11 -52q0 -19 4.5 -31.5t14 -18.5t24.5 -6q28 0 47 22t29 62t10 94l37 71q-1 -62 -8 -116.5t-21.5 -96.5t-38.5 -65.5
t-60 -23.5zM174 590l-54 2l-68 62l30 27l65 -43l63 41l30 -23z" />
    <glyph glyph-name="uni01CF" unicode="&#x1cf;" horiz-adv-x="198" 
d="M64 699l74 2l-1 -27t-2.5 -70t-3 -93.5t-2 -98t-0.5 -82.5v-79t1 -88t1.5 -81.5t1 -60l0.5 -22.5l-73 2l0.5 17.5t1 48.5t1.5 72t1.5 89.5t0.5 99.5v119v110.5v88.5t-1 53zM127 749l-54 2l-68 62l30 27l65 -43l63 41l30 -23z" />
    <glyph glyph-name="uni01D0" unicode="&#x1d0;" horiz-adv-x="177" 
d="M122 0l-69 1q1 22 2.5 48.5t2.5 60t1.5 73t0.5 85.5q0 62 -1 109t-2.5 81.5t-3.5 61.5l66 1q-1 -23 -2 -59.5t-1.5 -84.5t-0.5 -110q0 -46 1 -85t2 -72.5t2 -60.5t2 -49zM114 590l-54 2l-68 62l30 27l65 -43l63 41l30 -23z" />
    <glyph glyph-name="uni01D1" unicode="&#x1d1;" horiz-adv-x="380" 
d="M183 -5q-43 0 -69.5 17t-41.5 48.5t-22 74.5q-4 31 -6 67t-2 75.5v79.5v53.5t1 53.5t3.5 51t6.5 46q11 66 44.5 105t101.5 39q42 0 68.5 -17.5t41.5 -48.5t21 -74q7 -45 8 -99t1 -111q0 -41 -1 -79.5t-4 -74.5t-10 -68q-13 -62 -45 -100t-96 -38zM186 52q26 0 41.5 15
t24.5 43.5t13 67.5q5 39 5.5 85.5t0.5 96.5q0 49 -0.5 91.5t-2.5 75.5q-3 58 -19 91t-54 33q-39 0 -57.5 -31t-23.5 -84q-2 -19 -3 -41.5t-1.5 -47t-0.5 -50.5v-52q0 -48 -0.5 -92.5t2.5 -83.5q3 -36 11 -62.5t23.5 -40.5t40.5 -14zM223 749l-54 2l-68 62l30 27l65 -43
l63 41l30 -23z" />
    <glyph glyph-name="uni01D2" unicode="&#x1d2;" horiz-adv-x="330" 
d="M161 -10q-57 0 -80 36.5t-33 96.5q-4 26 -6 58.5t-2 65.5q0 28 1.5 57t4.5 55t7 46q13 65 41 95.5t81 30.5q52 0 77.5 -32t31.5 -88q3 -31 5 -64.5t2 -68.5q0 -50 -4.5 -99.5t-13.5 -89.5q-5 -23 -17.5 -46t-35 -38t-59.5 -15zM163 47q35 0 46.5 28t17.5 78q2 16 3 34.5
t1.5 39t0.5 41.5q0 33 -1 63t-3 53q-3 41 -14.5 67.5t-42.5 26.5q-24 0 -36.5 -12t-18 -29.5t-8.5 -36.5q-3 -23 -5.5 -49t-3.5 -52t-1 -51q0 -19 0.5 -37.5t2 -36.5t3.5 -37q5 -44 19 -67t40 -23zM198 590l-54 2l-68 62l30 27l65 -43l63 41l30 -23z" />
    <glyph glyph-name="uni01D3" unicode="&#x1d3;" horiz-adv-x="388" 
d="M197 -10q-37 0 -63 11.5t-43.5 34.5t-26 55.5t-8.5 75.5q0 35 0.5 76.5t0.5 83v75.5v95.5t-0.5 101.5t-2.5 97l71 -1q-1 -33 -2 -74t-1.5 -83t-1 -79t-0.5 -63q0 -29 -0.5 -60.5t-0.5 -62v-55v-39.5q0 -48 8 -77t25 -42t44 -13q22 0 36 9.5t22.5 26t12 37.5t3.5 46
q0 10 0.5 41t0.5 78.5v108.5q0 64 -1.5 124t-2.5 109t-2 80l69 -1q0 -33 -0.5 -68t-1 -73t-1 -80.5t-0.5 -92.5q1 -85 1 -142.5v-80.5q0 -32 -5.5 -63.5t-20 -57.5t-41 -42t-68.5 -16zM224 749l-54 2l-68 62l30 27l65 -43l63 41l30 -23z" />
    <glyph glyph-name="uni01D4" unicode="&#x1d4;" horiz-adv-x="334" 
d="M131 -8q-28 0 -47 15t-28 42.5t-9 66.5q0 33 1 65.5t2 59t1 41.5q1 18 1.5 43t1 55.5t0.5 66v75.5l63 6l-1 -23t-3 -59.5t-3.5 -79t-3.5 -83.5q0 -9 -1 -29.5t-1.5 -46.5t-1 -50.5t-0.5 -41.5q0 -22 3.5 -38.5t12 -25t24.5 -8.5q22 0 38.5 16t27.5 43t17 61t6 72l30 42
q0 -25 -1.5 -60.5t-7.5 -75t-19.5 -73.5t-38.5 -55t-63 -21zM237 0l1 105q-1 33 -3 66.5t-4 67.5q0 30 -0.5 66t-1 75t-1 77t-1.5 72l62 -1q-1 -20 -1.5 -46t-1 -54.5t-0.5 -55.5v-50.5v-37.5q1 -28 1.5 -56.5l1 -57l1 -57t1 -56.5t1.5 -57h-55zM198 590l-54 2l-68 62l30 27
l65 -43l63 41l30 -23z" />
    <glyph glyph-name="uni01D5" unicode="&#x1d5;" horiz-adv-x="388" 
d="M197 -10q-37 0 -63 11.5t-43.5 34.5t-26 55.5t-8.5 75.5q0 35 0.5 76.5t0.5 83v75.5v95.5t-0.5 101.5t-2.5 97l71 -1q-1 -33 -2 -74t-1.5 -83t-1 -79t-0.5 -63q0 -29 -0.5 -60.5t-0.5 -62v-55v-39.5q0 -48 8 -77t25 -42t44 -13q22 0 36 9.5t22.5 26t12 37.5t3.5 46
q0 10 0.5 41t0.5 78.5v108.5q0 64 -1.5 124t-2.5 109t-2 80l69 -1q0 -33 -0.5 -68t-1 -73t-1 -80.5t-0.5 -92.5q1 -85 1 -142.5v-80.5q0 -32 -5.5 -63.5t-20 -57.5t-41 -42t-68.5 -16zM108 884v53l170 -3l4 -47zM145 753l-59 -1l-2 86l64 -7zM305 753l-59 -1l-2 86l64 -7z
" />
    <glyph glyph-name="uni01D6" unicode="&#x1d6;" horiz-adv-x="334" 
d="M131 -8q-28 0 -47 15t-28 42.5t-9 66.5q0 33 1 65.5t2 59t1 41.5q1 18 1.5 43t1 55.5t0.5 66v75.5l63 6l-1 -23t-3 -59.5t-3.5 -79t-3.5 -83.5q0 -9 -1 -29.5t-1.5 -46.5t-1 -50.5t-0.5 -41.5q0 -22 3.5 -38.5t12 -25t24.5 -8.5q22 0 38.5 16t27.5 43t17 61t6 72l30 42
q0 -25 -1.5 -60.5t-7.5 -75t-19.5 -73.5t-38.5 -55t-63 -21zM237 0l1 105q-1 33 -3 66.5t-4 67.5q0 30 -0.5 66t-1 75t-1 77t-1.5 72l62 -1q-1 -20 -1.5 -46t-1 -54.5t-0.5 -55.5v-50.5v-37.5q1 -28 1.5 -56.5l1 -57l1 -57t1 -56.5t1.5 -57h-55zM82 724v53l170 -3l4 -47z
M118 595l-59 -1l-2 86l64 -7zM278 595l-59 -1l-2 86l64 -7z" />
    <glyph glyph-name="uni01D7" unicode="&#x1d7;" horiz-adv-x="388" 
d="M197 -10q-37 0 -63 11.5t-43.5 34.5t-26 55.5t-8.5 75.5q0 35 0.5 76.5t0.5 83v75.5v95.5t-0.5 101.5t-2.5 97l71 -1q-1 -33 -2 -74t-1.5 -83t-1 -79t-0.5 -63q0 -29 -0.5 -60.5t-0.5 -62v-55v-39.5q0 -48 8 -77t25 -42t44 -13q22 0 36 9.5t22.5 26t12 37.5t3.5 46
q0 10 0.5 41t0.5 78.5v108.5q0 64 -1.5 124t-2.5 109t-2 80l69 -1q0 -33 -0.5 -68t-1 -73t-1 -80.5t-0.5 -92.5q1 -85 1 -142.5v-80.5q0 -32 -5.5 -63.5t-20 -57.5t-41 -42t-68.5 -16zM190 863l-30 27l6.5 5t17.5 13t24 18q12 9 22.5 17.5t17 14.5l6.5 6l38 -46l-7.5 -3.5
t-18.5 -8.5t-23 -12q-11 -6 -23.5 -13.5t-21 -12.5zM144 753l-59 -1l-2 86l64 -7zM304 753l-59 -1l-2 86l64 -7z" />
    <glyph glyph-name="uni01D8" unicode="&#x1d8;" horiz-adv-x="334" 
d="M131 -8q-28 0 -47 15t-28 42.5t-9 66.5q0 33 1 65.5t2 59t1 41.5q1 18 1.5 43t1 55.5t0.5 66v75.5l63 6l-1 -23t-3 -59.5t-3.5 -79t-3.5 -83.5q0 -9 -1 -29.5t-1.5 -46.5t-1 -50.5t-0.5 -41.5q0 -22 3.5 -38.5t12 -25t24.5 -8.5q22 0 38.5 16t27.5 43t17 61t6 72l30 42
q0 -25 -1.5 -60.5t-7.5 -75t-19.5 -73.5t-38.5 -55t-63 -21zM237 0l1 105q-1 33 -3 66.5t-4 67.5q0 30 -0.5 66t-1 75t-1 77t-1.5 72l62 -1q-1 -20 -1.5 -46t-1 -54.5t-0.5 -55.5v-50.5v-37.5q1 -28 1.5 -56.5l1 -57l1 -57t1 -56.5t1.5 -57h-55zM164 705l-30 27l6.5 5
t17.5 13t24 18q12 9 22.5 18t17 14.5l6.5 5.5l38 -46l-7.5 -3.5t-18.5 -8.5t-23 -12q-11 -6 -23.5 -13.5t-21 -12.5zM118 595l-59 -1l-2 86l64 -7zM278 595l-59 -1l-2 86l64 -7z" />
    <glyph glyph-name="uni01D9" unicode="&#x1d9;" horiz-adv-x="388" 
d="M197 -10q-37 0 -63 11.5t-43.5 34.5t-26 55.5t-8.5 75.5q0 35 0.5 76.5t0.5 83v75.5v95.5t-0.5 101.5t-2.5 97l71 -1q-1 -33 -2 -74t-1.5 -83t-1 -79t-0.5 -63q0 -29 -0.5 -60.5t-0.5 -62v-55v-39.5q0 -48 8 -77t25 -42t44 -13q22 0 36 9.5t22.5 26t12 37.5t3.5 46
q0 10 0.5 41t0.5 78.5v108.5q0 64 -1.5 124t-2.5 109t-2 80l69 -1q0 -33 -0.5 -68t-1 -73t-1 -80.5t-0.5 -92.5q1 -85 1 -142.5v-80.5q0 -32 -5.5 -63.5t-20 -57.5t-41 -42t-68.5 -16zM223 853l-54 2l-68 62l30 27l65 -43l63 41l30 -23zM144 753l-59 -1l-2 86l64 -7z
M304 753l-59 -1l-2 86l64 -7z" />
    <glyph glyph-name="uni01DA" unicode="&#x1da;" horiz-adv-x="334" 
d="M131 -8q-28 0 -47 15t-28 42.5t-9 66.5q0 33 1 65.5t2 59t1 41.5q1 18 1.5 43t1 55.5t0.5 66v75.5l63 6l-1 -23t-3 -59.5t-3.5 -79t-3.5 -83.5q0 -9 -1 -29.5t-1.5 -46.5t-1 -50.5t-0.5 -41.5q0 -22 3.5 -38.5t12 -25t24.5 -8.5q22 0 38.5 16t27.5 43t17 61t6 72l30 42
q0 -25 -1.5 -60.5t-7.5 -75t-19.5 -73.5t-38.5 -55t-63 -21zM237 0l1 105q-1 33 -3 66.5t-4 67.5q0 30 -0.5 66t-1 75t-1 77t-1.5 72l62 -1q-1 -20 -1.5 -46t-1 -54.5t-0.5 -55.5v-50.5v-37.5q1 -28 1.5 -56.5l1 -57l1 -57t1 -56.5t1.5 -57h-55zM197 698l-54 2l-68 62l30 27
l65 -43l63 41l30 -23zM118 595l-59 -1l-2 86l64 -7zM278 595l-59 -1l-2 86l64 -7z" />
    <glyph glyph-name="uni01DB" unicode="&#x1db;" horiz-adv-x="388" 
d="M197 -10q-37 0 -63 11.5t-43.5 34.5t-26 55.5t-8.5 75.5q0 35 0.5 76.5t0.5 83v75.5v95.5t-0.5 101.5t-2.5 97l71 -1q-1 -33 -2 -74t-1.5 -83t-1 -79t-0.5 -63q0 -29 -0.5 -60.5t-0.5 -62v-55v-39.5q0 -48 8 -77t25 -42t44 -13q22 0 36 9.5t22.5 26t12 37.5t3.5 46
q0 10 0.5 41t0.5 78.5v108.5q0 64 -1.5 124t-2.5 109t-2 80l69 -1q0 -33 -0.5 -68t-1 -73t-1 -80.5t-0.5 -92.5q1 -85 1 -142.5v-80.5q0 -32 -5.5 -63.5t-20 -57.5t-41 -42t-68.5 -16zM206 864l-8.5 5t-21 12.5t-23.5 13.5q-11 7 -22.5 12t-19 8.5l-7.5 3.5l38 46l6.5 -6
t17 -14.5t22.5 -17.5q13 -10 24 -18t17.5 -13l6.5 -5zM90 752l-2 86l64 -7l-3 -78zM250 752l-2 86l64 -7l-3 -78z" />
    <glyph glyph-name="uni01DC" unicode="&#x1dc;" horiz-adv-x="334" 
d="M131 -8q-28 0 -47 15t-28 42.5t-9 66.5q0 33 1 65.5t2 59t1 41.5q1 18 1.5 43t1 55.5t0.5 66v75.5l63 6l-1 -23t-3 -59.5t-3.5 -79t-3.5 -83.5q0 -9 -1 -29.5t-1.5 -46.5t-1 -50.5t-0.5 -41.5q0 -22 3.5 -38.5t12 -25t24.5 -8.5q22 0 38.5 16t27.5 43t17 61t6 72l30 42
q0 -25 -1.5 -60.5t-7.5 -75t-19.5 -73.5t-38.5 -55t-63 -21zM237 0l1 105q-1 33 -3 66.5t-4 67.5q0 30 -0.5 66t-1 75t-1 77t-1.5 72l62 -1q-1 -20 -1.5 -46t-1 -54.5t-0.5 -55.5v-50.5v-37.5q1 -28 1.5 -56.5l1 -57l1 -57t1 -56.5t1.5 -57h-55zM175 705l-8.5 5t-21 12.5
t-23.5 13.5q-11 7 -22.5 12t-19 8.5l-7.5 3.5l38 46l6.5 -5.5t17 -14.5t22.5 -18q13 -10 24 -18t17.5 -13l6.5 -5zM59 594l-2 86l64 -7l-3 -78zM219 594l-2 86l64 -7l-3 -78z" />
    <glyph glyph-name="Gcaron" unicode="&#x1e6;" horiz-adv-x="357" 
d="M42 347v76t1 64t4 53.5t7 46.5q13 56 43.5 89.5t91.5 33.5q50 0 77 -23.5t38 -62t11 -87.5q0 -35 -3 -73.5t-8 -77.5h-63q5 34 9.5 71.5t4.5 72.5t-6.5 62t-21 43t-39.5 16q-31 0 -48 -22t-25 -59q-5 -24 -6.5 -46.5t-2 -48t0 -58t0.5 -75.5q0 -37 0.5 -72t1.5 -63t3 -46
q5 -51 23 -80.5t58 -29.5q25 0 39.5 16.5t20 42t5.5 52.5v19t-1 19l-68 -2v58l126 -2l6 -254h-26l-18 45q-15 -22 -42 -37t-57 -15q-37 0 -62 15t-39.5 42.5t-22.5 63.5q-5 29 -7.5 64t-3.5 77.5t-1 91.5zM214 749l-54 2l-68 62l30 27l65 -43l63 41l30 -23z" />
    <glyph glyph-name="gcaron" unicode="&#x1e7;" horiz-adv-x="334" 
d="M155 -156q-32 0 -56.5 10t-37.5 28.5t-13 42.5q0 4 0.5 9t1.5 10l57 8q-1 -4 -1 -7v-6q0 -15 7 -25t19.5 -14.5t27.5 -4.5q21 0 36.5 12.5t24 35.5t8.5 54q1 16 1 61v106.5v123.5q0 43 0.5 79.5t1.5 66t2 51.5t2 34h63q0 -2 -2 -20t-4.5 -49.5t-4.5 -75t-2 -96.5
q0 -34 0.5 -65.5t0.5 -63.5t0.5 -68.5t0.5 -80.5q0 -34 -8.5 -63t-25.5 -49.5t-42 -32t-57 -11.5zM147 -9q-36 0 -60.5 23t-34.5 71q-7 34 -9.5 76.5t-2.5 85.5q0 27 1 54t3 51.5t5 45.5q8 60 32.5 94.5t75.5 34.5q37 0 59 -26t31.5 -86.5t9.5 -163.5l-27 42q0 57 -5.5 96.5
t-20 59.5t-39.5 20q-22 0 -38.5 -18t-21.5 -68q-4 -39 -6 -75.5t-2 -73.5q0 -20 0.5 -41.5t2.5 -42t4 -40.5q3 -21 9 -34t16 -19.5t26 -6.5q22 0 38 16t26 52.5t11 96.5l27 42q0 -25 -1.5 -59t-6.5 -70t-17 -67.5t-32.5 -50.5t-52.5 -19zM204 590l-54 2l-68 62l30 27l65 -43
l63 41l30 -23z" />
    <glyph glyph-name="uni01EA" unicode="&#x1ea;" horiz-adv-x="380" 
d="M183 -5q-43 0 -69.5 17t-41.5 48.5t-22 74.5q-4 31 -6 67t-2 75.5v79.5v53.5t1 53.5t3.5 51t6.5 46q11 66 44.5 105t101.5 39q42 0 68.5 -17.5t41.5 -48.5t21 -74q7 -45 8 -99t1 -111q0 -41 -1 -79.5t-4 -74.5t-10 -68q-13 -62 -45 -100t-96 -38zM186 52q26 0 41.5 15
t24.5 43.5t13 67.5q5 39 5.5 85.5t0.5 96.5q0 49 -0.5 91.5t-2.5 75.5q-3 58 -19 91t-54 33q-39 0 -57.5 -31t-23.5 -84q-2 -19 -3 -41.5t-1.5 -47t-0.5 -50.5v-52q0 -48 -0.5 -92.5t2.5 -83.5q3 -36 11 -62.5t23.5 -40.5t40.5 -14zM182 -132q-32 0 -56.5 12.5t-24.5 41.5
q0 18 11.5 35t27.5 29.5t30 16.5l38 -5q-7 0 -23 -8.5t-29.5 -23t-13.5 -31.5q0 -13 13.5 -18t30.5 -5q10 0 23.5 1.5t21.5 2.5v-42q-12 -3 -24 -4.5t-25 -1.5z" />
    <glyph glyph-name="uni01EB" unicode="&#x1eb;" horiz-adv-x="330" 
d="M161 -10q-57 0 -80 36.5t-33 96.5q-4 26 -6 58.5t-2 65.5q0 28 1.5 57t4.5 55t7 46q13 65 41 95.5t81 30.5q52 0 77.5 -32t31.5 -88q3 -31 5 -64.5t2 -68.5q0 -50 -4.5 -99.5t-13.5 -89.5q-5 -23 -17.5 -46t-35 -38t-59.5 -15zM163 47q35 0 46.5 28t17.5 78q2 16 3 34.5
t1.5 39t0.5 41.5q0 33 -1 63t-3 53q-3 41 -14.5 67.5t-42.5 26.5q-24 0 -36.5 -12t-18 -29.5t-8.5 -36.5q-3 -23 -5.5 -49t-3.5 -52t-1 -51q0 -19 0.5 -37.5t2 -36.5t3.5 -37q5 -44 19 -67t40 -23zM187 -127q-32 0 -56.5 12.5t-24.5 41.5q0 18 11.5 35t27.5 29.5t30 16.5
l38 -5q-7 0 -23 -8.5t-29.5 -23t-13.5 -31.5q0 -13 13.5 -18t30.5 -5q10 0 23.5 1.5t21.5 2.5v-42q-12 -3 -24 -4.5t-25 -1.5z" />
    <glyph glyph-name="Aringacute" unicode="&#x1fa;" horiz-adv-x="340" 
d="M259 -6q-8 61 -16 121t-16 118.5t-16 114.5q-6 40 -11.5 79t-11 76t-11 72t-11.5 67l-49 60l108 2q5 -40 10 -82t11 -85t13 -87.5t14 -88.5q10 -61 20 -123.5t21 -122.5t21 -116zM68 164v64l196 -4v-53zM76 5l-70 1q8 43 17.5 99.5t20.5 120.5t21 128q11 67 21 131.5
t18 120.5t13 96l108 2l-53 -68q-7 -40 -14.5 -86t-15.5 -95.5t-16 -102.5q-8 -57 -17 -116.5t-17.5 -117.5t-15.5 -113zM171 744q-28 0 -41 10t-16.5 22t-3.5 18q0 27 16 43t43 16t43.5 -14t16.5 -37q0 -25 -16 -41.5t-42 -16.5zM171 772q4 0 11 2t13 8.5t6 19.5
q0 14 -10.5 18.5t-21.5 4.5q-15 0 -23 -8t-8 -23q0 -2 1.5 -7.5t8.5 -10t23 -4.5zM151 878l-27 24l13 9.5t30 22.5t29 24l12 11l34 -42l-6.5 -3t-16.5 -7.5t-21 -10.5q-9 -5 -20 -12t-19 -11.5z" />
    <glyph glyph-name="aringacute" unicode="&#x1fb;" horiz-adv-x="298" 
d="M207 0l-3 208l1 168q1 62 -12.5 83.5t-47.5 21.5q-33 0 -45.5 -25.5t-12.5 -59.5q0 -15 1.5 -31t4.5 -30l-53 -3q-3 17 -5 33t-2 33q0 39 12 68t37.5 46t64.5 17q36 0 57.5 -12.5t33 -33.5t15 -46t2.5 -50l-3 -128l7 -259h-52zM113 -10q-31 0 -51 13.5t-29.5 38
t-9.5 55.5t9 55t24 42.5t33 34t37 30.5q15 13 29.5 25t25.5 26t17.5 30.5t6.5 35.5l27 -7q0 -39 -11.5 -66t-29.5 -46t-38 -35t-38 -33t-29 -38t-11 -52q0 -19 4.5 -31.5t14 -18.5t24.5 -6q28 0 47 22t29 62t10 94l37 71q-1 -62 -8 -116.5t-21.5 -96.5t-38.5 -65.5
t-60 -23.5zM146 582q-28 0 -41 10t-16.5 22t-3.5 18q0 27 16 43t43 16t43.5 -14t16.5 -37q0 -25 -16 -41.5t-42 -16.5zM146 610q4 0 11 2t13 8.5t6 19.5q0 14 -10.5 18.5t-21.5 4.5q-15 0 -23 -8t-8 -23q0 -2 1.5 -7.5t8.5 -10t23 -4.5zM126 716l-27 24q7 5 18.5 14t24.5 18
q12 9 23.5 19t17.5 16l34 -42q-7 -3 -20 -9t-24 -12q-10 -6 -24 -14.5t-23 -13.5z" />
    <glyph glyph-name="AEacute" unicode="&#x1fc;" horiz-adv-x="498" 
d="M15 1q8 28 19 67.5t23.5 85.5t25.5 95.5t26 96.5q17 64 33.5 130.5t31.5 125t24 96.5l261 -8l2 -58l-158 -2q0 -24 -0.5 -53t-1 -61t-0.5 -63.5v-59.5l1 -119l169 -3l-2 -57l-167 -3l2 -145l166 -5l4 -58l-239 -3l2 161l-113 -4q-10 -40 -19 -79t-19 -79zM237 216l1 175
q0 38 -0.5 73t-0.5 66.5t-1 57.5q-8 -31 -20.5 -72t-25 -88t-25.5 -98q-7 -28 -13.5 -56t-13.5 -56zM263 736l-23 30q9 7 25 18.5t30 22.5q9 7 20 16t22 18.5t18 16.5l34 -49q-7 -4 -18 -10.5t-21.5 -12.5t-19.5 -11q-11 -6 -24.5 -14t-25 -15t-17.5 -10z" />
    <glyph glyph-name="aeacute" unicode="&#x1fd;" horiz-adv-x="484" 
d="M113 -10q-30 0 -50.5 13.5t-30 37.5t-9.5 56q0 31 9 55t24 42.5t33 34t37 31.5q15 12 29 24t25.5 26t18.5 30t7 35q0 62 -13.5 84t-47.5 22q-32 0 -45 -25t-13 -60q0 -16 1.5 -31.5t4.5 -29.5l-53 -3q-3 17 -5 33t-2 33q0 39 12 68t37.5 46t64.5 17q25 0 42.5 -8.5
t30 -23.5t19.5 -35q17 34 41.5 50t55.5 16q44 0 67.5 -23t33 -61t9.5 -83q0 -30 -2.5 -60t-4.5 -56q-21 0 -51 -0.5t-63 -1.5t-62 -3q0 -34 1.5 -66.5t4.5 -55.5q4 -35 18 -55.5t47 -20.5q23 0 36 10.5t18 28t5 36.5q0 13 -1.5 25.5t-3.5 23.5l56 1q2 -14 3.5 -28t1.5 -28
q0 -35 -11.5 -62t-38 -43t-71.5 -16q-46 0 -71.5 23t-34.5 61q-11 -22 -26.5 -41.5t-35 -31t-47.5 -11.5zM117 43q28 0 47.5 22t29.5 62t10 94v17.5v17v17.5q-11 -16 -24 -28t-27 -23q-20 -16 -37.5 -33t-29 -38.5t-11.5 -51.5q0 -19 4.5 -31.5t14 -18.5t23.5 -6zM263 296
l121 2q2 19 2.5 36.5t0.5 33.5q1 31 -4 54.5t-17 36.5t-33 13q-35 0 -48.5 -26.5t-17.5 -66.5q-1 -12 -1.5 -25.5t-1 -27.5t-1.5 -30zM199 577l-23 30l8.5 6t21 15.5t25.5 19.5q12 9 26 21t24 21l10 9l34 -49l-10 -6t-23.5 -13.5t-25.5 -14.5q-11 -6 -24.5 -14t-25 -15
t-17.5 -10z" />
    </font>
</defs>
</svg>
