<svg id="Layer_1" data-name="Layer 1" xmlns="http://www.w3.org/2000/svg" viewBox="0 0 444 282.45"><defs><style>.cls-1{fill:#ee2c3c;}</style></defs><path class="cls-1" d="M283.83,185.63a6.2,6.2,0,1,0,6.2,6.2,6.2,6.2,0,0,0-6.2-6.2"/><path class="cls-1" d="M172.35,204.19l-.76-.19c-.34-.08-.69-.16-1-.22-.5-.1-1-.18-1.53-.25l-.8-.1c-.5-.05-1-.1-1.53-.13s-1.27-.06-1.93-.07h-.09c-.78,0-1.53,0-2.26.07l-.42,0c-13.21,1-18,9.35-18,19.52h0c0,8.77,3.57,16.11,13,18.65l.76.19,1,.22c.5.1,1,.18,1.53.25l.8.1c.5.05,1,.09,1.54.12s1.26.07,1.92.08h.09c.78,0,1.53,0,2.27-.07l.41,0c13.21-1,18-9.34,18-19.51h0c0-8.77-3.57-16.11-13-18.65m2.06,18.65h0c0,7.22-2.26,13.15-8.47,13.85a8.71,8.71,0,0,1-1.16.07h-.11a8.89,8.89,0,0,1-4.49-1.1c-3.79-2.1-5.25-7-5.25-12.81h0c0-7.22,2.26-13.15,8.47-13.86a11.17,11.17,0,0,1,1.17-.06h.1a8.89,8.89,0,0,1,4.49,1.11c3.79,2.1,5.25,7,5.25,12.81Z"/><path class="cls-1" d="M211.15,203.31c-4.87-.13-7.86.88-9.9,3.33-1.65-2.26-4.28-2.25-6.85-2.25h-6.61v3.91h2.68c1.08,0,2.52.35,2.52,3.38v22c0,.87-.22,2.88-2.23,2.88h-3v3.91H208.7v-3.91h-2.1c-.59,0-2.16,0-2.16-3.31V221.42c0-5.54,1-9.75,2.83-11.54a3.2,3.2,0,0,1,2.37-1,2.73,2.73,0,0,1,2,.69,2.21,2.21,0,0,1,.43,1.74,3.71,3.71,0,0,1-.86,1.93l-.21.29c-.26.33-.45.57-.38.89s.89,1.09,1.57,1.44a8.24,8.24,0,0,0,5.08.56c3.1-.48,4.2-3.17,4.2-5.32,0-4.45-4.24-7.66-10.32-7.8"/><path class="cls-1" d="M252.41,207.76a15.12,15.12,0,0,0-10.33-3.66c-12.46,0-18,9.24-18,18.41,0,10.08,7.38,17.68,17.18,17.68,7.35,0,8.2-2.56,8.2-4.49a3.18,3.18,0,0,0-2.14-3.06,1.08,1.08,0,0,0-.51-.09,1,1,0,0,0-.46.28c-1.27,1.16-2.83,1.29-4.77.41-3.25-1.48-5.48-5.65-5.69-10.63-.19-4.47,1.57-11.18,6.07-12.1,2.83-.58,5.16-.13,6.92,1.32,2.18,1.78,3.36,5,3.33,9.16v17.39c0,7.12-4,11.73-10.14,11.73-5.46,0-7.95-3.24-7.95-6.25v-1.08l-1.07.07a4.87,4.87,0,0,0-4.79,4.91c0,3.16,3.73,7.85,14,7.85,1.56,0,2.92,0,4.84-.05,10.18-.28,16.5-7,16.5-17.61V212.62c0-3.89,1-4.32,3.1-4.32h2.68v-3.91H258.24c-3.86,0-5.32,1.71-5.83,3.37"/><path class="cls-1" d="M290.23,233.62V211c0-2.86-.65-6.65-6.22-6.65H273.36v3.91h2.75c1.87,0,2.67.82,2.67,2.74v22.58a2.82,2.82,0,0,1-2.88,2.95h-2.75v3.91h22.71v-3.91h-2.75a2.89,2.89,0,0,1-2.88-2.95"/><path class="cls-1" d="M336,236.53c-.93,0-2.66,0-2.66-4.39V216.82c0-9-4.44-13.26-14-13.35l-.69,0c-.85,0-2.64-.07-4,0-8.51.56-13.58,3.77-13.58,8.59a4.55,4.55,0,0,0,4.49,4.84c.65.09.83-.09.89-.15a4.05,4.05,0,0,0,.58-1.55c.63-2.46,1.69-6.59,7.69-6.59,7.13,0,7.13,5.14,7.13,8.21v2.37h-3.6c-8.61,0-20.07,1.24-20.07,11.92,0,7.89,7.56,10.76,12.64,10.76,6.14,0,9-1.68,9-5.29a3.33,3.33,0,0,0-2.47-3,.81.81,0,0,0-.86.39c-.51.7-2.36,2.88-4.63,1.63-1.22-.67-1.92-2.27-1.92-4.39,0-4.56,3.68-6.68,11.92-6.84v9.1c0,1.73,0,7,6.93,7h9.35v-3.92Z"/><path class="cls-1" d="M120.25,203.3h0c-.53,0-2.77,0-2.84,0-11.43.52-17.88,8-17.88,20.05,0,9,5.5,18.32,17.8,18.7l1.89,0c10,0,14.15-2.64,15.72-4.21a4.94,4.94,0,0,0,1.65-3.65c-.06-2.24-2.29-3.9-3.67-4.41l-.79-.3-.44.71-.17.31c-2.38,4.22-6.24,6.26-11.42,6.1-5.06-.39-8.72-5.85-8.9-13.3-.07-2.62.14-9.06,3.54-12.5a7.1,7.1,0,0,1,5.46-2.1c4.89.08,6.89,3.1,6.89,10.44,0,.71,0,.93-1.22.93h-4.15c-.62,0-1.24,0-1.89,0-1.5,0-5.48.17-5.48,3.23a5.56,5.56,0,0,0,1.17,3.18l.57.57.69-.43c2.06-1.29,3.49-1.29,14.61-1.29,4.3,0,7.15,0,7.15-6.28,0-9.44-7.4-15.65-18.29-15.81"/><path class="cls-1" d="M88.09,206.19c2.15,0,5.78-1.56,5.78-7.37,0-8.44-12-9.73-20.06-9.88l-3,.06c-9.64.29-25.94,6.26-25.94,26.77,0,14.66,10.57,25.43,25.71,26.2,1.55.08,3,.12,4.29.12a45.84,45.84,0,0,0,8.21-.59,31.92,31.92,0,0,1,9.27-.36l.42.07L93,220.05a3.54,3.54,0,0,0-3.54-3.53H73.87v4.34h4.2c3,0,3.23,1.39,3.23,2.81l-.18,8.19A3.78,3.78,0,0,1,80,234.67c-1,1-2.73,1.52-5.13,1.54-8.44-.07-17.41-7.26-17.41-20.44,0-10.5,5.87-18.78,15-20.76a13.42,13.42,0,0,1,5.32.26c4.19,1.31,4.63,3.89,4.6,9.9v1Z"/><path class="cls-1" d="M395.63,91.17l-57.57,39.08a.17.17,0,0,1-.24,0,.19.19,0,0,1,0-.19L375,71.22a14.65,14.65,0,0,1,24.76,15.66,14.92,14.92,0,0,1-4.15,4.29"/><path class="cls-1" d="M307,86.92,338.05,130a.17.17,0,0,1-.21.26L289,109.3A14.88,14.88,0,1,1,307,86.92"/><path class="cls-1" d="M402.51,148.46,337.93,130.3a.17.17,0,0,1-.12-.21A.17.17,0,0,1,338,130l66.31-10.14a14.67,14.67,0,0,1,4.44,29,15.07,15.07,0,0,1-6.19-.38"/><path class="cls-1" d="M303.15,166.1l34.65-36a.18.18,0,0,1,.25,0,.19.19,0,0,1,0,.16L328,180.42a15,15,0,1,1-24.85-14.32"/><path class="cls-1" d="M361.19,194.2l-23.39-64a.18.18,0,0,1,.11-.22.17.17,0,0,1,.18.05l48,50a14.67,14.67,0,0,1-21.89,19.53,15.14,15.14,0,0,1-3-5.34"/><path class="cls-1" d="M346.93,48l-8.82,82.15a.17.17,0,0,1-.19.15.18.18,0,0,1-.15-.13L318.31,49.87A14.56,14.56,0,1,1,346.6,43a14.77,14.77,0,0,1,.33,5"/><path class="cls-1" d="M262.41,130l75.51-.05a.18.18,0,0,1,.16.18.16.16,0,0,1-.12.15l-71.74,28.14a14.6,14.6,0,0,1-9.24-27.7,14.8,14.8,0,0,1,5.43-.72"/></svg>