<?xml version="1.0" standalone="no"?>
<!DOCTYPE svg PUBLIC "-//W3C//DTD SVG 1.1//EN" "http://www.w3.org/Graphics/SVG/1.1/DTD/svg11.dtd" >
<svg xmlns="http://www.w3.org/2000/svg" xmlns:xlink="http://www.w3.org/1999/xlink" version="1.1">
<metadata>
Created by FontForge 20201107 at Wed Feb 14 14:21:23 2024
 By 
Copyright 2024 The Madimi One Project Authors (https://github.com/TaVaTake/madimi)
</metadata>
<defs>
<font id="MadimiOne-Regular" horiz-adv-x="0" >
  <font-face 
    font-family="Madimi One"
    font-weight="400"
    font-stretch="normal"
    units-per-em="1000"
    panose-1="0 0 0 0 0 0 0 0 0 0"
    ascent="800"
    descent="-200"
    x-height="500"
    cap-height="711"
    bbox="-165 -310 946 1010"
    underline-thickness="50"
    underline-position="-125"
    unicode-range="U+0020-FB02"
  />
<missing-glyph horiz-adv-x="658" 
d="M150 -8q-74 0 -74 67v585q0 35 17 51t54 16h362q74 0 74 -56l-1 -612q0 -25 -18.5 -38t-51.5 -13h-362zM328 392l107 212h-215zM470 110v467l-118 -233zM188 116l115 228l-115 227v-455zM228 99h199l-99 196z" />
    <glyph glyph-name="fi" unicode="fi" horiz-adv-x="608" 
d="M170 -8q-39 0 -55.5 22.5t-16.5 56.5v308h-14q-74 0 -74 60q0 61 74 61h14v4q0 75 20.5 125.5t55 80.5t77 43.5t86.5 13.5q73 0 117.5 -18t65 -45t20.5 -54q0 -28 -19.5 -48t-51.5 -20q-17 0 -39 8.5t-48 30.5q-12 10 -30 17t-37 7t-37 -10.5t-29 -37t-11 -73.5v-24h57
q68 0 68 -61q0 -60 -68 -60h-57v-308q0 -41 -17.5 -60t-50.5 -19zM488 -8q-39 0 -55.5 18.5t-16.5 49.5v380q0 32 16.5 50t55.5 18t55.5 -18t16.5 -50v-380q0 -31 -16.5 -49.5t-55.5 -18.5z" />
    <glyph glyph-name="fl" unicode="fl" horiz-adv-x="647" 
d="M170 -8q-39 0 -55.5 22.5t-16.5 56.5v308h-14q-74 0 -74 60q0 61 74 61h14v4q0 77 23 135t73.5 90.5t131.5 32.5h184q39 0 55.5 -19.5t16.5 -55.5v-617q0 -36 -16.5 -57t-55.5 -21t-55.5 21t-16.5 57v553q-14 -5 -37 -5q-25 0 -37 2t-24.5 5t-37.5 4q-40 0 -52 -30.5
t-12 -74.5v-24h57q68 0 68 -61q0 -60 -68 -60h-57v-308q0 -41 -17.5 -60t-50.5 -19z" />
    <glyph glyph-name=".notdef" horiz-adv-x="658" 
d="M150 -8q-74 0 -74 67v585q0 35 17 51t54 16h362q74 0 74 -56l-1 -612q0 -25 -18.5 -38t-51.5 -13h-362zM328 392l107 212h-215zM470 110v467l-118 -233zM188 116l115 228l-115 227v-455zM228 99h199l-99 196z" />
    <glyph glyph-name=".null" 
 />
    <glyph glyph-name="nonmarkingreturn" horiz-adv-x="333" 
 />
    <glyph glyph-name="space" unicode=" " horiz-adv-x="218" 
 />
    <glyph glyph-name="exclam" unicode="!" horiz-adv-x="278" 
d="M139 209q-39 0 -55.5 18.5t-16.5 49.5v366q0 32 16.5 50t55.5 18t55.5 -18t16.5 -50v-366q0 -31 -16.5 -49.5t-55.5 -18.5zM139 -8q-36 0 -57.5 22t-21.5 56q0 35 21.5 57t57.5 22q35 0 57 -22t22 -57q0 -34 -22 -56t-57 -22z" />
    <glyph glyph-name="quotedbl" unicode="&#x22;" horiz-adv-x="451" 
d="M321 356q-18 -4 -30 3t-15 23q-1 3 -2 10t-2 29t-1 69t3 129q2 35 27.5 55.5t54.5 27.5q45 11 61 -11t8 -57l-52 -232q-3 -13 -10.5 -25.5t-41.5 -20.5zM87 355q-18 -4 -30 3.5t-15 23.5q-1 3 -2 10t-2 29t-1 69t3 129q2 35 27.5 55.5t54.5 27.5q45 11 61 -11t8 -57
l-52 -232q-3 -13 -10.5 -26t-41.5 -21z" />
    <glyph glyph-name="numbersign" unicode="#" horiz-adv-x="660" 
d="M108 -8q-13 0 -28 8.5t-24 23.5t-4 36l28 112h-28q-31 0 -49.5 15.5t-18.5 46.5q0 32 18.5 47t49.5 15h58l35 139h-63q-31 0 -49.5 15.5t-18.5 46.5q0 32 18.5 47t49.5 15h93l21 84q8 32 28.5 50t59.5 18q24 0 36.5 -14.5t16 -33.5t-0.5 -35q-8 -33 -17 -69h148l21 84
q8 32 28.5 50t59.5 18q24 0 36.5 -14.5t16 -33.5t-0.5 -35q-8 -33 -17 -69h24q32 0 50 -15t18 -47q0 -31 -18 -46.5t-50 -15.5h-54q-9 -34 -17.5 -69t-17.5 -70h59q32 0 50 -15t18 -47q0 -31 -18 -46.5t-50 -15.5h-89l-14 -56l-14 -56q-7 -31 -28 -49.5t-60 -18.5
q-13 0 -28 8.5t-24 23.5t-4 36l28 112h-148l-14 -56l-14 -56q-7 -31 -28 -49.5t-60 -18.5zM254 296h148l35 139h-148q-9 -34 -17.5 -69t-17.5 -70z" />
    <glyph glyph-name="dollar" unicode="$" horiz-adv-x="556" 
d="M327 -15q0 -37 -12.5 -57.5t-35.5 -20.5q-49 0 -49 63v22q-37 1 -76.5 6.5t-63.5 15.5q-42 17 -42 57q0 29 17.5 46.5t55.5 17.5q26 0 63 -7t65 -7q62 0 89 16t27 65q0 29 -20.5 49t-81.5 38q-111 33 -160.5 82t-49.5 127q0 86 48.5 139.5t128.5 68.5v2q0 80 49 80
q48 0 48 -78q58 -5 98 -21q42 -16 42 -57q0 -29 -17.5 -46.5t-55.5 -17.5q-25 0 -54 5.5t-57 5.5q-43 0 -65 -15t-22 -50q0 -32 31 -58t114 -51q95 -28 131 -75.5t36 -120.5q0 -86 -47 -139t-134 -70v-15z" />
    <glyph glyph-name="percent" unicode="%" horiz-adv-x="725" 
d="M137 328q-64 0 -100 43.5t-36 148.5q0 104 35.5 148t100.5 44t100.5 -44t35.5 -148q0 -105 -35.5 -148.5t-100.5 -43.5zM209 43q-22 -30 -38 -41.5t-39 -3.5q-25 9 -33.5 31.5t9.5 49.5q97 142 164.5 240.5t111.5 163t70 101.5t38.5 55t16.5 24t6 8q23 29 39.5 37
t38.5 -3q24 -12 28 -34.5t-14 -49.5q-41 -61 -91.5 -135.5t-104 -153t-105.5 -153t-97 -136.5zM137 427q22 0 32.5 18t10.5 75q0 56 -10.5 74.5t-32.5 18.5t-32.5 -18.5t-10.5 -74.5q0 -57 10.5 -75t32.5 -18zM585 -5q-64 0 -100 43.5t-36 148.5q0 104 35.5 148t100.5 44
t100.5 -44t35.5 -148q0 -105 -35.5 -148.5t-100.5 -43.5zM585 94q22 0 32.5 18t10.5 75q0 56 -10.5 74.5t-32.5 18.5t-32.5 -18.5t-10.5 -74.5q0 -57 10.5 -75t32.5 -18z" />
    <glyph glyph-name="ampersand" unicode="&#x26;" horiz-adv-x="628" 
d="M470 321q3 19 20.5 31t37.5 12q25 0 42.5 -17.5t17.5 -42.5q0 -4 -0.5 -8.5t-1.5 -8.5q-7 -45 -23 -83t-39 -69l51 -60q11 -14 11 -35q0 -25 -17.5 -42.5t-42.5 -17.5q-15 0 -27.5 7.5t-21.5 17.5l-38 46q-54 -38 -107.5 -55t-85.5 -17q-106 0 -152.5 46.5t-46.5 128.5
q0 35 14 73.5t44.5 73.5t79.5 57l-20 24q-28 35 -43.5 78t-15.5 80q0 86 54.5 128.5t138.5 42.5q51 0 93 -20.5t67.5 -58.5t25.5 -93q0 -56 -32 -114t-87 -101l77 -92q9 20 16 42t11 47zM266 443l24 -28q43 31 59 65.5t16 54.5q0 18 -13.5 38.5t-52.5 20.5q-34 0 -53.5 -14
t-19.5 -41q0 -8 4.5 -33t35.5 -63zM186 154q0 -57 59 -57q27 0 59 10.5t62 31.5l-107 130q-41 -21 -57 -54t-16 -61z" />
    <glyph glyph-name="quotesingle" unicode="'" horiz-adv-x="217" 
d="M87 356q-18 -4 -30 3t-15 23q-1 3 -2 10t-2 29t-1 69t3 129q2 35 27.5 55.5t54.5 27.5q45 11 61 -11t8 -57l-52 -232q-3 -13 -10.5 -25.5t-41.5 -20.5z" />
    <glyph glyph-name="parenleft" unicode="(" horiz-adv-x="327" 
d="M256 -150q-17 -7 -34.5 -4.5t-34.5 15.5q-22 17 -45 44t-40 61q-44 86 -60.5 178t-16.5 186t16.5 184t60.5 176q17 34 40 61t45 44q17 14 34.5 16t34.5 -5q71 -27 32 -96q-13 -22 -31 -44.5t-30 -48.5q-31 -66 -47 -141t-16 -146q0 -70 16 -147.5t47 -143.5
q12 -25 30 -47.5t31 -45.5q39 -69 -32 -96z" />
    <glyph glyph-name="parenright" unicode=")" horiz-adv-x="327" 
d="M71 -150q-71 27 -32 96q13 23 31 45.5t30 47.5q32 66 47.5 143.5t15.5 147.5q0 71 -15.5 146t-47.5 141q-12 26 -30 48.5t-31 44.5q-39 69 32 96q17 7 34.5 5t34.5 -16q22 -17 45 -44t40 -61q44 -86 60.5 -176t16.5 -184t-16.5 -186t-60.5 -178q-17 -34 -40 -61t-45 -44
q-17 -13 -34.5 -15.5t-34.5 4.5z" />
    <glyph glyph-name="asterisk" unicode="*" horiz-adv-x="496" 
d="M248 312q-28 0 -44.5 17.5t-11.5 43.5l15 86l-68 -56q-20 -17 -43 -12t-38 30q-14 26 -7 49t32 32l81 29l-81 29q-25 9 -32 32t7 48q15 26 38 31t43 -12l68 -57l-15 86q-5 27 11.5 44.5t44.5 17.5q29 0 45 -17.5t11 -44.5l-15 -86l68 57q20 17 43 12t38 -31
q14 -25 7.5 -48t-32.5 -32l-81 -29l81 -29q26 -9 32.5 -32t-7.5 -49q-15 -25 -38 -30t-43 12l-68 56l15 -86q5 -26 -11 -43.5t-45 -17.5z" />
    <glyph glyph-name="plus" unicode="+" horiz-adv-x="559" 
d="M88 261q-31 0 -49.5 15.5t-18.5 46.5q0 32 18.5 47t49.5 15h130v129q0 32 15.5 50t46.5 18q32 0 47 -18t15 -50v-129h129q32 0 50 -15t18 -47q0 -31 -18 -46.5t-50 -15.5h-129v-130q0 -31 -15 -49.5t-47 -18.5q-31 0 -46.5 18.5t-15.5 49.5v130h-130z" />
    <glyph glyph-name="comma" unicode="," horiz-adv-x="284" 
d="M84 -189q-24 0 -36 11.5t-12 27.5q0 4 1.5 15t6.5 35.5t16 69t30 116.5q9 33 30 48t45 15q28 0 51 -18.5t23 -49.5q0 -16 -9 -36l-90 -189q-6 -12 -16.5 -28.5t-39.5 -16.5z" />
    <glyph glyph-name="hyphen" unicode="-" horiz-adv-x="538" 
d="M140 216q-31 0 -49.5 16.5t-18.5 55.5t18.5 55.5t49.5 16.5h258q32 0 50 -16.5t18 -55.5t-18 -55.5t-50 -16.5h-258z" />
    <glyph glyph-name="period" unicode="." horiz-adv-x="278" 
d="M139 -8q-36 0 -57.5 22t-21.5 56q0 35 21.5 57t57.5 22q35 0 57 -22t22 -57q0 -34 -22 -56t-57 -22z" />
    <glyph glyph-name="slash" unicode="/" horiz-adv-x="425" 
d="M53 -19q0 5 0.5 9.5t1.5 8.5l177 722q9 35 31.5 51.5t46.5 16.5q26 0 45.5 -16.5t19.5 -46.5v-9.5t-2 -10.5q-12 -54 -29.5 -124.5t-37 -149.5t-39.5 -159t-38.5 -153t-32.5 -132q-9 -36 -31 -52t-46 -16q-25 0 -45.5 16.5t-20.5 44.5z" />
    <glyph glyph-name="zero" unicode="0" horiz-adv-x="606" 
d="M303 -8q-80 0 -137.5 35.5t-87.5 114.5t-30 209q0 131 30 210t87 114.5t138 35.5q82 0 138.5 -35.5t86.5 -114.5t30 -210q0 -130 -30 -209t-87 -114.5t-138 -35.5zM303 124q37 0 60 18t34 67.5t11 141.5q0 93 -11 142t-34 67.5t-60 18.5q-36 0 -59.5 -18.5t-34.5 -67.5
t-11 -142q0 -92 11 -141.5t34.5 -67.5t59.5 -18z" />
    <glyph glyph-name="one" unicode="1" horiz-adv-x="346" 
d="M204 -8q-74 0 -74 67v509h-56q-31 0 -46.5 20.5t-15.5 45.5t15.5 45.5t46.5 20.5h127q73 0 73 -67v-574q0 -34 -16.5 -50.5t-53.5 -16.5z" />
    <glyph glyph-name="two" unicode="2" horiz-adv-x="564" 
d="M136 0q-28 0 -43 13t-20.5 33t-6 43t-0.5 43q0 89 38 141t132 80q51 17 80.5 31.5t42.5 40t13 72.5q0 33 -19 57.5t-66 24.5q-28 0 -58.5 -4t-57.5 -4q-40 0 -58.5 15t-18.5 46q0 41 42 57q53 22 134 22q115 0 180 -56.5t65 -156.5q0 -74 -20 -124t-66 -83t-124 -56
q-55 -16 -75.5 -33.5t-20.5 -51.5v-31q20 20 53 20h179q37 0 57 -18t20 -52q0 -69 -77 -69h-305z" />
    <glyph glyph-name="three" unicode="3" horiz-adv-x="564" 
d="M243 -8q-40 0 -64 2.5t-43 6.5q-49 10 -62.5 31.5t-13.5 43.5q0 23 17 38.5t58 15.5q28 0 60 -3t62 -3q32 0 58.5 6.5t42.5 24t16 51.5q0 33 -15 50t-38 23t-46 6q-16 0 -32 -0.5t-30 -0.5q-45 0 -72 11t-27 55t26.5 55t69.5 11q14 0 29.5 -0.5t31.5 -0.5q35 0 60 20.5
t25 69.5q0 38 -31 57t-72 19q-26 0 -54.5 -5t-51.5 -5q-58 0 -58 56q0 84 159 84q110 0 173 -55.5t63 -150.5q0 -49 -20.5 -93t-50.5 -60q47 -21 76 -62t29 -86q0 -63 -34.5 -111t-96 -74.5t-144.5 -26.5z" />
    <glyph glyph-name="four" unicode="4" horiz-adv-x="606" 
d="M98 180q-31 0 -54.5 12t-23.5 36q0 10 4 19l147 413q10 27 30.5 39t42.5 12q35 0 53.5 -22.5t7.5 -54.5l-116 -328q21 13 43 13h98v79q0 35 17 51t54 16q73 0 73 -67v-79h29q37 0 57 -18t20 -52q0 -69 -77 -69h-29v-121q0 -67 -70 -67q-34 0 -54 16.5t-20 50.5v121h-232z
" />
    <glyph glyph-name="five" unicode="5" horiz-adv-x="540" 
d="M229 -8q-23 0 -56.5 2t-66 10t-54.5 24.5t-22 44.5q0 70 71 70q17 0 40 -5.5t47.5 -11t43.5 -5.5q52 0 85 21.5t33 67.5q0 35 -12 55.5t-30.5 30t-39 12.5t-37.5 3h-109q-31 0 -48.5 17.5t-18.5 38.5l27 238q5 39 19.5 67t50.5 28h243q38 0 57.5 -15t19.5 -49t-20 -54.5
t-57 -20.5h-125q-17 0 -35 8t-30 22q0 1 -2 -15.5t-5 -41t-6 -49.5t-5 -41.5l-2 -16.5q62 1 117.5 -5t98.5 -27t68 -65t25 -120q0 -70 -33.5 -118.5t-93 -74t-138.5 -25.5z" />
    <glyph glyph-name="six" unicode="6" horiz-adv-x="574" 
d="M301 -8q-47 0 -92 15.5t-81.5 50.5t-58 92t-21.5 140q0 78 15 152.5t48.5 135.5t89 97t136.5 36q76 0 105.5 -15.5t29.5 -55.5q0 -32 -21.5 -45.5t-63.5 -13.5q-86 0 -124 -27.5t-48 -91.5q17 11 40 17.5t54 6.5q65 0 114 -25.5t77 -79t28 -138.5q0 -89 -33 -144.5
t-84.5 -81t-109.5 -25.5zM299 124q36 0 55.5 17t27.5 44.5t8 57.5q0 31 -8 59t-27.5 46t-55.5 18q-35 0 -56.5 -18t-30.5 -46t-9 -59q0 -30 9 -57.5t30.5 -44.5t56.5 -17z" />
    <glyph glyph-name="seven" unicode="7" horiz-adv-x="575" 
d="M222 -8q-24 0 -46.5 10.5t-32.5 33t5 58.5l180 428q5 11 13 30.5t14.5 35l6.5 15.5q-26 -31 -64 -31h-191q-37 0 -57 18t-20 52q0 69 77 69h351q44 0 65 -22.5t7 -55.5l-236 -563q-5 -12 -12.5 -30.5t-21.5 -33t-38 -14.5z" />
    <glyph glyph-name="eight" unicode="8" horiz-adv-x="604" 
d="M315 -11q-61 0 -118 23t-93.5 69t-36.5 114q0 55 29 95.5t70 62.5q-35 21 -55 62t-20 89q0 51 22.5 98.5t72 78t128.5 30.5q80 0 128.5 -31t70.5 -78.5t22 -97.5q0 -49 -19 -90t-53 -61q42 -22 68.5 -62.5t26.5 -95.5q0 -69 -35.5 -114.5t-91 -68.5t-116.5 -23zM319 417
q38 0 57 26.5t19 60.5q0 32 -20.5 59.5t-62.5 27.5q-39 0 -60 -27.5t-21 -59.5q0 -34 21 -60.5t67 -26.5zM314 114q51 0 76 29.5t25 63.5q0 35 -25 64t-76 29q-52 0 -77.5 -29t-25.5 -64q0 -34 25.5 -63.5t77.5 -29.5z" />
    <glyph glyph-name="nine" unicode="9" horiz-adv-x="574" 
d="M273 707q47 0 92 -15.5t81.5 -50.5t58 -92t21.5 -140q0 -78 -15 -152.5t-48.5 -135.5t-89 -97t-136.5 -36q-76 0 -105.5 15.5t-29.5 55.5q0 32 21.5 45.5t63.5 13.5q86 0 124 27.5t48 91.5q-17 -11 -40 -17.5t-54 -6.5q-64 0 -113.5 25.5t-77.5 79t-28 138.5q0 90 33 145
t85 80.5t109 25.5zM275 575q-35 0 -55 -17t-28 -44t-8 -58t8 -59t28 -46t55 -18q36 0 57 18t30 46t9 59t-9 58t-30 44t-57 17z" />
    <glyph glyph-name="colon" unicode=":" horiz-adv-x="244" 
d="M139 318q-36 0 -57.5 22t-21.5 56q0 35 21.5 57t57.5 22q35 0 57 -22t22 -57q0 -34 -22 -56t-57 -22zM139 22q-36 0 -57.5 22t-21.5 56q0 35 21.5 57t57.5 22q35 0 57 -22t22 -57q0 -34 -22 -56t-57 -22z" />
    <glyph glyph-name="semicolon" unicode=";" horiz-adv-x="275" 
d="M163 318q-36 0 -57.5 22t-21.5 56q0 35 21.5 57t57.5 22q35 0 57 -22t22 -57q0 -34 -22 -56t-57 -22zM84 -189q-24 0 -36 11.5t-12 27.5q0 4 1.5 15t6.5 35.5t16 69t30 116.5q9 33 30 48t45 15q28 0 51 -18.5t23 -49.5q0 -16 -9 -36l-90 -189q-6 -12 -16.5 -28.5
t-39.5 -16.5z" />
    <glyph glyph-name="less" unicode="&#x3c;" horiz-adv-x="474" 
d="M359 109l-310 158q-15 8 -22.5 22.5t-6.5 27.5q-1 14 7 28.5t24 22.5l308 157q29 14 52 8t36 -35q13 -28 3 -49.5t-39 -35.5l-192 -96l192 -96q29 -14 39 -35t-3 -50q-13 -28 -36 -34.5t-52 7.5z" />
    <glyph glyph-name="equal" unicode="=" horiz-adv-x="559" 
d="M88 372q-31 0 -49.5 15.5t-18.5 46.5q0 32 18.5 47t49.5 15h383q32 0 50 -15t18 -47q0 -31 -18 -46.5t-50 -15.5h-383zM88 142q-31 0 -49.5 15.5t-18.5 46.5q0 32 18.5 47t49.5 15h383q32 0 50 -15t18 -47q0 -31 -18 -46.5t-50 -15.5h-383z" />
    <glyph glyph-name="greater" unicode="&#x3e;" horiz-adv-x="474" 
d="M115 109q-28 -14 -51 -7.5t-37 34.5q-13 29 -2.5 50t38.5 35l192 96l-192 96q-28 14 -38.5 35.5t2.5 49.5q14 29 37 35t51 -8l308 -157q17 -8 24.5 -22.5t6.5 -28.5q1 -13 -6.5 -27.5t-22.5 -22.5z" />
    <glyph glyph-name="question" unicode="?" horiz-adv-x="553" 
d="M253 236q-85 0 -120.5 14t-35.5 47q0 24 10 37.5t44 19t105 5.5q44 0 68.5 30t24.5 82q0 56 -22 81t-72 24q-79 0 -121.5 4.5t-58 18t-15.5 38.5q0 74 158 74h35q111 0 175.5 -64.5t64.5 -175.5q0 -69 -30.5 -122t-84.5 -83t-125 -30zM189 -8q-36 0 -57.5 22t-21.5 56
q0 35 21.5 57t57.5 22q35 0 57 -22t22 -57q0 -34 -22 -56t-57 -22z" />
    <glyph glyph-name="at" unicode="@" horiz-adv-x="928" 
d="M453 0q-54 0 -99.5 27t-72.5 82.5t-27 139.5t27.5 139.5t75.5 83t110 27.5q96 0 154 -60t58 -172v-56q0 -71 6 -101t30 -30q27 0 33.5 34.5t6.5 110.5q0 114 -26.5 193.5t-87.5 121.5t-166 42q-108 0 -174.5 -43t-97 -117.5t-30.5 -170.5q0 -99 31 -175t93.5 -119
t156.5 -43q38 0 64 5t49 5q28 0 40.5 -14t12.5 -28q0 -39 -40 -59.5t-114 -20.5q-124 0 -218 55t-147 156t-53 237q0 102 30.5 186t87 144.5t134.5 93t173 32.5q125 0 216.5 -56t141 -157.5t49.5 -240.5q0 -57 -8 -109.5t-25 -90.5q-17 -40 -48.5 -64.5t-70.5 -24.5
q-53 0 -85 40t-41 107q-17 -49 -55 -79.5t-94 -30.5zM466 109q28 0 48.5 11.5t32 42t11.5 86.5t-11.5 86.5t-32 42.5t-48.5 12q-43 0 -67.5 -29.5t-24.5 -112.5q0 -82 24.5 -110.5t67.5 -28.5z" />
    <glyph glyph-name="A" unicode="A" horiz-adv-x="603" 
d="M211 59q0 -67 -70 -67q-34 0 -54 17t-20 50v396q0 138 56 197t175 59q122 0 180 -60t58 -196v-396q0 -67 -70 -67q-34 0 -54 17t-20 50v241q-19 -17 -41.5 -29t-52.5 -12q-44 0 -65.5 -16t-21.5 -57v-127zM205 352q16 16 38.5 25t54.5 9q38 0 58.5 6t28.5 23t8 50
q0 74 -21 101.5t-75 27.5q-50 0 -68.5 -28.5t-18.5 -104.5q0 -39 -1 -66t-4 -43z" />
    <glyph glyph-name="B" unicode="B" horiz-adv-x="607" 
d="M112 0q-19 0 -32 15t-13 38v450q0 33 9.5 69t36 67.5t75.5 51.5t128 20q105 0 163 -52t58 -156q0 -42 -15.5 -77t-46.5 -53q49 -22 70.5 -61t21.5 -108q0 -100 -61.5 -152t-189.5 -52h-204zM204 391q13 16 42.5 25t69.5 9q47 0 64.5 17.5t17.5 60.5q0 50 -20.5 71.5
t-61.5 21.5q-58 0 -81.5 -21t-23.5 -72q0 -31 -0.5 -49.5t-2 -32.5t-4.5 -30zM211 116h105q60 0 83.5 21t23.5 67q0 65 -24.5 93t-82.5 28q-41 0 -64 -10.5t-32 -36.5t-9 -74v-88z" />
    <glyph glyph-name="C" unicode="C" horiz-adv-x="533" 
d="M198 347q0 -119 29 -170.5t86 -51.5q36 0 63 5.5t49 5.5q40 0 58 -16.5t18 -42.5q0 -34 -24.5 -52t-62 -25t-76.5 -7q-108 0 -171.5 40t-91 118.5t-27.5 195.5t27.5 198.5t91 123.5t171.5 42q39 0 76.5 -7t62 -25t24.5 -52q0 -25 -18 -42t-58 -17q-22 0 -49 5.5t-63 5.5
q-70 0 -92.5 -56.5t-22.5 -175.5z" />
    <glyph glyph-name="D" unicode="D" horiz-adv-x="615" 
d="M113 0q-19 0 -32.5 14.5t-13.5 36.5v446q0 104 56.5 159t163.5 55q280 0 280 -363q0 -177 -70 -262.5t-215 -85.5h-169zM211 118h71q74 0 107.5 57.5t33.5 185.5q0 122 -30.5 173.5t-103.5 51.5q-78 0 -78 -57v-411z" />
    <glyph glyph-name="E" unicode="E" horiz-adv-x="544" 
d="M117 0q-19 0 -32 15t-13 38v468q0 94 58 136.5t187 42.5h125q33 0 51.5 -17.5t18.5 -49.5q0 -31 -18.5 -48t-51.5 -17h-132q-50 0 -72 -20t-22 -65q0 -16 -2 -39.5t-6 -53.5q17 14 43 22.5t51 8.5h99q28 0 43.5 -17t15.5 -47t-16 -48t-43 -18h-107q-46 0 -62 -18.5
t-16 -74.5v-66h226q37 0 53.5 -16t16.5 -52q0 -34 -16 -49t-54 -15h-325z" />
    <glyph glyph-name="F" unicode="F" horiz-adv-x="496" 
d="M211 59q0 -67 -70 -67q-34 0 -54 17t-20 50v483q0 75 40.5 116.5t113.5 41.5h215q32 0 51 -18t19 -49q0 -29 -19 -47t-51 -18h-160q-29 0 -43 -5.5t-18 -24t-4 -57.5q0 -27 -2 -58.5t-7 -59.5q39 31 114 31h70q69 0 69 -67t-69 -67h-78q-57 0 -77 -18t-20 -71v-112z" />
    <glyph glyph-name="G" unicode="G" horiz-adv-x="613" 
d="M338 -7q-108 0 -171.5 40t-91 118.5t-27.5 195.5t27.5 198.5t91 123.5t171.5 42q39 0 76.5 -7t62 -25t24.5 -52q0 -25 -18 -42t-58 -17q-22 0 -49 5.5t-63 5.5q-70 0 -92.5 -56.5t-22.5 -175.5t29 -170.5t86 -51.5q120 0 120 101q0 46 14 63l-70 -1q-31 -1 -47.5 12
t-16.5 45t16.5 45t47.5 13h106q35 0 52 -8.5t22.5 -35t5.5 -79.5q0 -93 -19 -157t-67.5 -97t-138.5 -33z" />
    <glyph glyph-name="H" unicode="H" horiz-adv-x="658" 
d="M146 -8q-74 0 -74 67v585q0 35 17 51t54 16q73 0 73 -67v-100q0 -124 -7 -148q26 26 56 36t79 10h98v202q0 35 17 51t54 16q73 0 73 -67v-585q0 -34 -16.5 -50.5t-53.5 -16.5q-74 0 -74 67v296q-6 -18 -39 -29.5t-77 -11.5q-63 0 -86.5 -25.5t-23.5 -93.5v-136
q0 -34 -16.5 -50.5t-53.5 -16.5z" />
    <glyph glyph-name="I" unicode="I" horiz-adv-x="288" 
d="M146 -8q-74 0 -74 67v585q0 35 17 51t54 16q73 0 73 -67v-585q0 -34 -16.5 -50.5t-53.5 -16.5z" />
    <glyph glyph-name="J" unicode="J" horiz-adv-x="447" 
d="M174 -8q-37 0 -68 6.5t-52 15.5q-42 18 -42 57q0 60 72 60q22 0 46.5 -3.5t43.5 -3.5q32 0 44.5 19t12.5 68v422q0 78 72 78t72 -78v-444q0 -95 -51.5 -146t-149.5 -51z" />
    <glyph glyph-name="K" unicode="K" horiz-adv-x="595" 
d="M477 -8q-75 0 -75 70v155q0 48 -19.5 72.5t-66.5 24.5q-51 0 -75.5 -21t-24.5 -73v-150q0 -78 -72 -78t-72 78v563q0 78 72 78t72 -78v-235q14 14 29 22t50 18q50 14 69 59t19 144q0 37 16 53.5t51 16.5q74 0 74 -75q0 -100 -21 -162.5t-65 -96.5q107 -46 107 -162v-153
q0 -70 -68 -70z" />
    <glyph glyph-name="L" unicode="L" horiz-adv-x="516" 
d="M144 0q-72 0 -72 78v555q0 78 72 78t72 -78v-444q0 -16 -2.5 -40.5t-5.5 -40.5q26 31 64 31h147q37 0 57 -18t20 -52q0 -69 -77 -69h-275z" />
    <glyph glyph-name="M" unicode="M" horiz-adv-x="906" 
d="M211 59q0 -67 -70 -67q-34 0 -54 17t-20 50v413q0 118 50.5 178.5t149.5 60.5q73 0 121 -30t64 -86q16 56 64 86t123 30q102 0 151 -58.5t49 -180.5v-403q0 -41 -16 -59t-54 -18t-56 18.5t-18 58.5v411q0 99 -85 99q-43 0 -64 -28.5t-21 -90.5v-381q0 -41 -16 -59
t-54 -18t-56 18.5t-18 58.5v381q0 119 -85 119t-85 -99v-421z" />
    <glyph glyph-name="N" unicode="N" horiz-adv-x="648" 
d="M211 59q0 -67 -70 -67q-34 0 -54 17t-20 50v393q0 94 25 150.5t82 82.5t152 26q126 0 190.5 -58.5t64.5 -200.5v-393q0 -67 -70 -67q-34 0 -54 17t-20 50v393q0 74 -25.5 105.5t-85.5 31.5q-47 0 -72 -14t-34 -44t-9 -79v-393z" />
    <glyph glyph-name="O" unicode="O" horiz-adv-x="640" 
d="M320 -8q-87 0 -148 34.5t-92.5 113.5t-31.5 214t31.5 213t92.5 111t148 33q88 0 148.5 -33t92 -111t31.5 -213t-31.5 -214t-92 -113.5t-148.5 -34.5zM320 124q40 0 68.5 19t44 69t15.5 142q0 93 -15.5 141.5t-44 66t-68.5 17.5q-39 0 -68 -17.5t-44.5 -66t-15.5 -141.5
q0 -92 15.5 -142t44.5 -69t68 -19z" />
    <glyph glyph-name="P" unicode="P" horiz-adv-x="580" 
d="M211 59q0 -67 -70 -67q-34 0 -54 17t-20 50v427q0 112 59 168.5t198 56.5q103 0 161.5 -55t58.5 -177q0 -106 -55.5 -162t-156.5 -56q-57 0 -82.5 -8.5t-32 -31t-6.5 -65.5v-97zM202 348q12 10 23 17.5t29.5 12t49.5 4.5q43 0 68 7.5t35.5 28.5t10.5 61q0 53 -12.5 77.5
t-35 32t-54.5 7.5q-58 0 -81.5 -21t-23.5 -73q0 -37 -2 -81t-7 -73z" />
    <glyph glyph-name="Q" unicode="Q" horiz-adv-x="640" 
d="M476 -140q-10 0 -20.5 4.5t-24.5 15.5l-145 113q-77 6 -130 43.5t-80.5 115t-27.5 202.5q0 135 31.5 213t92.5 111t148 33q88 0 148.5 -33t92 -111t31.5 -213q0 -140 -34.5 -220t-99.5 -114l53 -41q31 -24 31 -50q0 -19 -18 -42q-22 -27 -48 -27zM320 124q40 0 68.5 19
t44 69t15.5 142q0 93 -15.5 141.5t-44 66t-68.5 17.5q-39 0 -68 -17.5t-44.5 -66t-15.5 -141.5q0 -92 15.5 -142t44.5 -69t68 -19z" />
    <glyph glyph-name="R" unicode="R" horiz-adv-x="589" 
d="M141 -6q-34 0 -54 15.5t-20 44.5v432q0 116 61.5 170.5t192.5 54.5q107 0 163.5 -53.5t56.5 -154.5q0 -35 -2 -67.5t-6 -45.5q-15 -55 -55 -84q54 -45 54 -104v-148q0 -62 -69 -62q-34 0 -54 15.5t-20 46.5v132q0 54 -16.5 76t-66.5 22q-54 0 -74.5 -23.5t-20.5 -86.5
v-120q0 -60 -70 -60zM203 366q25 21 44.5 27.5t56.5 6.5q50 0 73.5 5t30.5 21t7 50q0 68 -20.5 94.5t-73.5 26.5q-59 0 -83.5 -27t-24.5 -94q0 -33 -2.5 -58.5t-7.5 -51.5z" />
    <glyph glyph-name="S" unicode="S" horiz-adv-x="556" 
d="M238 -8q-38 0 -80 6t-68 16q-42 17 -42 57q0 29 17.5 46.5t55.5 17.5q26 0 63 -7t65 -7q62 0 89 16t27 65q0 29 -20.5 49t-81.5 38q-111 33 -160.5 82t-49.5 127q0 68 30.5 115.5t84.5 72.5t123 25q81 0 134 -22q42 -16 42 -57q0 -29 -17.5 -46.5t-55.5 -17.5
q-25 0 -54 5.5t-57 5.5q-43 0 -65 -15t-22 -50q0 -32 31 -58t114 -51q95 -28 131 -75.5t36 -120.5q0 -106 -70.5 -161.5t-199.5 -55.5z" />
    <glyph glyph-name="T" unicode="T" horiz-adv-x="549" 
d="M278 -8q-25 0 -50.5 11.5t-25.5 37.5v468q0 32 16 44t26 15h-193q-24 0 -35.5 21.5t-11.5 44.5q0 25 12 45.5t35 20.5h447q23 0 35 -20.5t12 -45.5q0 -23 -11.5 -44.5t-35.5 -21.5h-152v-527q0 -25 -20.5 -37t-47.5 -12z" />
    <glyph glyph-name="U" unicode="U" horiz-adv-x="646" 
d="M315 -8q-121 0 -184.5 60.5t-63.5 182.5v398q0 78 72 78t72 -78v-398q0 -63 27.5 -92t76.5 -29q120 0 120 121v398q0 78 72 78t72 -78v-398q0 -121 -67 -182t-197 -61z" />
    <glyph glyph-name="V" unicode="V" horiz-adv-x="596" 
d="M316 -8q-40 0 -74 29t-51 81l-166 502q-16 51 5.5 79t57.5 28q35 0 53.5 -22.5t34.5 -74.5l145 -454q27 78 53.5 139.5t44.5 114t19 101.5q1 25 -3.5 45t-9 40.5t-4.5 45.5q0 24 18 44.5t62 20.5q33 0 51 -24.5t24.5 -60t6.5 -70.5q0 -83 -20 -158.5t-53.5 -147.5
t-73.5 -148q-18 -39 -34 -63.5t-35.5 -35.5t-50.5 -11z" />
    <glyph glyph-name="W" unicode="W" horiz-adv-x="866" 
d="M613 -8q-43 0 -74 25t-45 85l-40 164q-12 -45 -28 -87.5t-31 -75.5q-25 -59 -54.5 -85t-67.5 -26q-43 0 -72.5 29t-43.5 81l-132 502q-16 51 5.5 79t57.5 28q33 0 51.5 -22t31.5 -75l116 -474l69 218q20 62 25.5 98.5t5.5 56.5q0 32 -6.5 54t-11.5 41q-12 52 7.5 72
t50.5 20q32 0 52.5 -19.5t30.5 -66.5l109 -473q48 140 68.5 226t20.5 131q0 46 -4 71t-8.5 41.5t-4.5 33.5q0 25 18.5 46t61.5 21q33 0 51 -24t24.5 -59t6.5 -68q0 -47 -11 -108t-28.5 -125.5t-38.5 -123.5t-42 -102q-28 -59 -56 -84t-64 -25z" />
    <glyph glyph-name="X" unicode="X" horiz-adv-x="649" 
d="M100 -7q-29 0 -51.5 18.5t-22.5 41.5q0 18 15 52t42 78t61.5 92.5t73.5 95.5l-170 225q-15 20 -15 44q0 31 20.5 51t51.5 20q41 0 69 -36l161 -210q18 24 41 57t46 68t41 66q31 54 68 54q32 0 51.5 -16.5t19.5 -44.5q0 -18 -8 -39q-15 -42 -61 -105t-119 -144l193 -252
q9 -11 12.5 -22t3.5 -24q0 -30 -20.5 -50.5t-49.5 -20.5q-49 0 -82 44l-169 224q-26 -38 -46 -69.5t-42 -67t-52 -85.5q-16 -25 -29 -35t-33 -10z" />
    <glyph glyph-name="Y" unicode="Y" horiz-adv-x="575" 
d="M308 -8q-74 0 -74 67v199l-208 341q-18 31 -13.5 56t23 40.5t42.5 15.5q33 0 52.5 -20t44.5 -68l136 -245q40 37 63 62.5t33 48.5t10 51t-6 62t-6 50q0 25 21 42t51 17q36 0 55.5 -35.5t19.5 -103.5q0 -56 -14.5 -105t-52 -99t-107.5 -109v-200q0 -34 -16.5 -50.5
t-53.5 -16.5z" />
    <glyph glyph-name="Z" unicode="Z" horiz-adv-x="618" 
d="M126 0q-28 0 -45 20.5t-17 44.5q0 12 4 24t18 40q10 19 27 47.5t44.5 72.5t68 110t96.5 160q20 35 33 42t11 7h-242q-25 0 -41.5 19.5t-15.5 48.5q2 32 21.5 48t49.5 16h338q35 0 53 -20t16 -50q0 -13 -15 -39t-41 -70l-203 -333q-10 -16 -23 -27t-22 -16.5t-8 -5.5h268
q26 0 42 -20.5t15 -51.5q-1 -30 -18 -48.5t-44 -18.5h-370z" />
    <glyph glyph-name="bracketleft" unicode="[" horiz-adv-x="401" 
d="M117 -150q-19 0 -32 15t-13 38v855q0 23 13 38t32 15h182q38 0 54 -14.5t16 -49.5q0 -36 -16.5 -52t-53.5 -16h-83v-697h83q37 0 53.5 -16t16.5 -52q0 -34 -16 -49t-54 -15h-182z" />
    <glyph glyph-name="backslash" unicode="\" horiz-adv-x="425" 
d="M373 -1q2 -4 2 -8.5v-9.5q0 -28 -20 -44.5t-46 -16.5q-24 0 -46 16t-31 52q-14 58 -32.5 131.5t-38.5 153.5t-39.5 159t-37 149.5t-29.5 124.5q-1 5 -1.5 10.5t-0.5 9.5q0 30 20 46.5t45 16.5q24 0 46.5 -16.5t31.5 -51.5z" />
    <glyph glyph-name="bracketright" unicode="]" horiz-adv-x="436" 
d="M137 -150q-38 0 -54 15t-16 49q0 36 16.5 52t53.5 16h83v697h-83q-37 0 -53.5 16t-16.5 52q0 35 16 49.5t54 14.5h182q20 0 32.5 -15t12.5 -38v-855q0 -23 -12.5 -38t-32.5 -15h-182z" />
    <glyph glyph-name="asciicircum" unicode="^" horiz-adv-x="476" 
d="M142 80q-14 -28 -35 -38.5t-50 2.5q-28 14 -34.5 37t7.5 51l155 304q11 20 25.5 27.5t27.5 7.5q14 0 28.5 -7.5t24.5 -27.5l155 -304q14 -28 8 -51t-35 -37q-28 -13 -49.5 -2.5t-35.5 38.5l-96 192z" />
    <glyph glyph-name="underscore" unicode="_" horiz-adv-x="600" 
d="M118 0q-31 0 -49.5 16.5t-18.5 55.5t18.5 55.5t49.5 16.5h363q32 0 50 -16.5t18 -55.5t-18 -55.5t-50 -16.5h-363z" />
    <glyph glyph-name="grave" unicode="`" horiz-adv-x="314" 
d="M258 576q-9 0 -32 5.5t-52.5 14t-57 18t-44.5 18.5q-28 14 -40 28.5t-12 33.5q0 26 15.5 46t39.5 20q6 0 13.5 -2t14.5 -7q23 -16 50 -34t52.5 -34.5t43.5 -28t22 -13.5q13 -7 18 -15t5 -16q0 -13 -11 -23.5t-25 -10.5z" />
    <glyph glyph-name="a" unicode="a" horiz-adv-x="493" 
d="M240 -8q-100 0 -156 46.5t-56 120.5q0 87 73.5 126t215.5 27q-7 46 -29 62.5t-53 16.5q-25 0 -41.5 -2.5t-30.5 -5.5t-34 -3q-27 0 -43 9.5t-16 38.5q0 41 35.5 60.5t112.5 19.5q122 0 181 -69.5t59 -185.5q0 -134 -48.5 -197.5t-169.5 -63.5zM172 159q0 -57 77 -57
q25 0 39 9t20.5 36t9.5 81q-5 -5 -13 -7t-16 -2q-66 0 -91.5 -12.5t-25.5 -47.5z" />
    <glyph glyph-name="b" unicode="b" horiz-adv-x="565" 
d="M293 -8q-108 0 -168 67t-60 202v423q0 78 73 78q67 0 67 -78v-86q0 -39 -1.5 -64t-5 -43.5t-10.5 -39.5q19 31 52.5 44t85.5 13q60 0 106 -22.5t72 -75.5t26 -143q0 -135 -63.5 -205t-173.5 -70zM300 112q42 0 65.5 30t23.5 112q0 55 -10.5 83.5t-30.5 39.5t-48 11
t-48 -11t-30.5 -39.5t-10.5 -83.5q0 -82 23.5 -112t65.5 -30z" />
    <glyph glyph-name="c" unicode="c" horiz-adv-x="451" 
d="M273 -8q-122 0 -181 70.5t-59 186.5t59 187.5t181 71.5q77 0 112.5 -16t35.5 -57q0 -29 -16 -42t-43 -13q-19 0 -30 3t-23.5 5.5t-38.5 2.5q-35 0 -55.5 -21t-29 -53.5t-8.5 -67.5q0 -34 6.5 -66.5t26.5 -53t61 -20.5q38 0 56 5.5t35 5.5q27 0 43 -9.5t16 -38.5
q0 -41 -35.5 -60.5t-112.5 -19.5z" />
    <glyph glyph-name="d" unicode="d" horiz-adv-x="560" 
d="M272 -8q-110 0 -173.5 70t-63.5 205q0 90 26 143t72.5 75.5t105.5 22.5q53 0 86 -13t52 -44q-7 21 -10.5 39.5t-5 43.5t-1.5 64v86q0 78 67 78q73 0 73 -78v-423q0 -135 -60 -202t-168 -67zM265 112q42 0 65.5 30t23.5 112q0 55 -10.5 83.5t-30.5 39.5t-48 11t-48 -11
t-30.5 -39.5t-10.5 -83.5q0 -82 23.5 -112t65.5 -30z" />
    <glyph glyph-name="e" unicode="e" horiz-adv-x="500" 
d="M295 -8q-100 0 -156.5 33t-80 91t-23.5 133q0 138 61 198.5t164 60.5q62 0 110 -21t75 -59.5t27 -93.5q0 -160 -228 -160h-58q8 -31 26.5 -48.5t65.5 -17.5q26 0 42 3t30.5 6t33.5 3q27 0 43 -9.5t16 -38.5q0 -41 -35.5 -60.5t-112.5 -19.5zM179 248q8 11 18 14.5t31 3.5
q59 0 81.5 11.5t22.5 41.5q0 38 -21 58.5t-53 20.5q-37 0 -58 -31t-21 -119z" />
    <glyph glyph-name="f" unicode="f" horiz-adv-x="437" 
d="M170 -8q-39 0 -55.5 22.5t-16.5 56.5v308h-14q-74 0 -74 60q0 61 74 61h14v4q0 116 50 187t153 71v0h2h1h6q82 -1 119.5 -23t37.5 -67q0 -33 -17.5 -43.5t-48.5 -10.5q-27 0 -45.5 4.5t-47.5 6.5h-6q-40 0 -52 -30.5t-12 -74.5v-24h57q68 0 68 -61q0 -60 -68 -60h-57
v-308q0 -41 -17.5 -60t-50.5 -19z" />
    <glyph glyph-name="g" unicode="g" horiz-adv-x="558" 
d="M494 -61q0 -85 -80 -127t-229 -42q-77 0 -112.5 19.5t-35.5 60.5q0 29 16 38.5t43 9.5q20 0 34 -2.5t30.5 -5t41.5 -2.5q79 0 113.5 12t34.5 49q0 31 -25 50t-63 19q-230 0 -230 245q0 125 58 185t173 60q76 0 126 -26q24 90 102 90q38 0 58.5 -19.5t20.5 -56.5
q0 -34 -20 -49t-64 -15q-19 0 -35 -3q43 -60 43 -167q0 -67 -19.5 -111t-71.5 -73q50 -18 70.5 -55.5t20.5 -83.5zM176 263q0 -125 87 -125t87 125q0 65 -21.5 95t-65.5 30q-43 0 -65 -30t-22 -95z" />
    <glyph glyph-name="h" unicode="h" horiz-adv-x="569" 
d="M204 59q0 -67 -70 -67q-34 0 -54 17t-20 50v625q0 78 73 78q72 0 72 -78v-107q0 -28 -6 -54t-20 -54q17 21 45 30t65 9q66 0 115 -26t76.5 -72.5t27.5 -110.5v-240q0 -67 -70 -67q-34 0 -54 17t-20 50v234q0 47 -21.5 71t-59.5 24q-37 0 -58 -24.5t-21 -70.5v-234z" />
    <glyph glyph-name="i" unicode="i" horiz-adv-x="270" 
d="M135 594q-37 0 -62 24t-25 59q0 37 25 61t62 24q38 0 62.5 -24t24.5 -61q0 -35 -24.5 -59t-62.5 -24zM207 59q0 -67 -70 -67q-34 0 -54 16.5t-20 50.5v381q0 32 16.5 50t55.5 18t55.5 -18t16.5 -50v-381z" />
    <glyph glyph-name="j" unicode="j" horiz-adv-x="266" 
d="M131 594q-37 0 -62 24t-25 59q0 37 25 61t62 24q38 0 62.5 -24t24.5 -61q0 -35 -24.5 -59t-62.5 -24zM132 510q39 0 55.5 -22.5t16.5 -56.5v-403q0 -115 -49.5 -186t-153.5 -72h-11q-81 2 -118 23.5t-37 66.5q0 33 17.5 43.5t48.5 10.5q27 0 46 -4.5t47 -6.5h6
q40 0 52 30.5t12 74.5v423q0 41 17.5 60t50.5 19z" />
    <glyph glyph-name="k" unicode="k" horiz-adv-x="550" 
d="M132 -8q-39 0 -55.5 21t-16.5 57v614q0 36 16.5 57t55.5 21t55.5 -21t16.5 -57v-372q53 32 94 72.5t56 77.5q14 34 40 46t57 -3q43 -21 40 -64q-1 -36 -32.5 -80.5t-77.5 -76.5q58 -20 93.5 -72.5t35.5 -151.5q0 -68 -71 -68q-73 0 -73 68q0 73 -23 107t-61 34
q-35 0 -56.5 -26t-21.5 -90q0 -58 -17 -75.5t-55 -17.5z" />
    <glyph glyph-name="l" unicode="l" horiz-adv-x="274" 
d="M209 59q0 -67 -70 -67q-34 0 -54 17t-20 50v625q0 36 16.5 57t55.5 21t55.5 -21t16.5 -57v-625z" />
    <glyph glyph-name="m" unicode="m" horiz-adv-x="834" 
d="M133 -8q-72 0 -72 68v240q0 102 48.5 155t139.5 53q124 0 168 -89q44 89 168 89q91 0 139.5 -53t48.5 -155v-240q0 -68 -72 -68t-72 68v232q0 51 -17 73.5t-53 22.5q-72 0 -72 -96v-228q0 -68 -70 -68t-70 68v228q0 96 -72 96q-70 0 -70 -96v-232q0 -68 -72 -68z" />
    <glyph glyph-name="n" unicode="n" horiz-adv-x="570" 
d="M133 -8q-72 0 -72 68v240q0 96 61.5 152t162.5 56t162.5 -56t61.5 -152v-240q0 -68 -72 -68t-72 68v232q0 47 -21 71.5t-59 24.5t-59 -24.5t-21 -71.5v-232q0 -68 -72 -68z" />
    <glyph glyph-name="o" unicode="o" horiz-adv-x="532" 
d="M266 -8q-107 0 -169 61t-62 197q0 137 62 197.5t169 60.5t169 -60.5t62 -197.5q0 -136 -62 -197t-169 -61zM266 112q28 0 47 11.5t29.5 41.5t10.5 85t-10.5 85t-29.5 41.5t-47 11.5q-27 0 -46.5 -11.5t-30 -41.5t-10.5 -85t10.5 -85t30 -41.5t46.5 -11.5z" />
    <glyph glyph-name="p" unicode="p" horiz-adv-x="562" 
d="M135 -230q-73 0 -73 78v394q0 136 60 203t168 67q110 0 173.5 -70t63.5 -205q0 -90 -26 -143.5t-72 -77.5t-106 -24q-52 0 -85.5 15t-52.5 46q7 -20 10.5 -39t5 -44t1.5 -64v-58q0 -78 -67 -78zM297 109q42 0 65.5 29.5t23.5 111.5t-23.5 111.5t-65.5 29.5t-65.5 -29.5
t-23.5 -111.5t23.5 -111.5t65.5 -29.5z" />
    <glyph glyph-name="q" unicode="q" horiz-adv-x="554" 
d="M427 -230q-67 0 -67 78v58q0 39 1.5 64t5 44t10.5 39q-19 -31 -52 -46t-86 -15q-59 0 -105.5 24t-72.5 77.5t-26 143.5q0 135 63.5 205t173.5 70q108 0 168 -67.5t60 -202.5v-394q0 -78 -73 -78zM265 109q42 0 65.5 29.5t23.5 111.5t-23.5 111.5t-65.5 29.5t-65.5 -29.5
t-23.5 -111.5t23.5 -111.5t65.5 -29.5z" />
    <glyph glyph-name="r" unicode="r" horiz-adv-x="417" 
d="M133 -8q-72 0 -72 68v379q0 69 72 69q36 0 52 -15.5t16 -50.5q18 33 51.5 49.5t78.5 16.5q86 0 86 -75q0 -28 -21 -42t-69 -14q-47 0 -74 -8.5t-37.5 -31t-10.5 -64.5v-213q0 -68 -72 -68z" />
    <glyph glyph-name="s" unicode="s" horiz-adv-x="467" 
d="M226 -8q-188 0 -188 83q0 26 14 41t37 15q10 0 19.5 -2.5t37.5 -11.5q12 -4 32 -8t39 -4q36 0 51 9t15 30q0 17 -8 26.5t-34 18.5t-81 25q-50 14 -80.5 50.5t-30.5 90.5q0 76 55 116t151 40q72 0 113 -20t41 -58q0 -24 -14 -40t-38 -16q-10 0 -23.5 3t-32.5 8
q-14 5 -29.5 8t-32.5 3q-48 0 -48 -34q0 -20 19 -33.5t73 -29.5q74 -22 109 -58.5t35 -96.5q0 -70 -53.5 -112.5t-147.5 -42.5z" />
    <glyph glyph-name="t" unicode="t" horiz-adv-x="406" 
d="M288 -8q-93 0 -137.5 44t-44.5 135v208h-26q-68 0 -68 61q0 60 68 60h26v108q0 33 20.5 54t53.5 21q32 0 51 -19.5t19 -53.5v-49q0 -37 -12 -61h95q68 0 68 -60q0 -61 -68 -61h-83v-211q0 -30 7 -42.5t23 -12.5q21 0 31.5 3.5t26.5 3.5q27 0 43 -9.5t16 -38.5
q0 -41 -26 -60.5t-83 -19.5z" />
    <glyph glyph-name="u" unicode="u" horiz-adv-x="564" 
d="M282 -8q-66 0 -116 27t-77.5 76t-27.5 114v234q0 68 72 68t72 -68v-232q0 -47 20 -73t57 -26t57 26t20 73v232q0 68 72 68t72 -68v-234q0 -65 -27.5 -114t-77 -76t-116.5 -27z" />
    <glyph glyph-name="v" unicode="v" horiz-adv-x="496" 
d="M243 -8q-20 0 -41.5 8.5t-40.5 31t-33 65.5l-105 329q-7 23 2 42.5t29 31t44 11.5q22 0 40.5 -11t25.5 -34l98 -331q38 63 50.5 125.5t12.5 120.5q0 18 -1 35.5t-1 33.5q0 29 23.5 45t52.5 16q60 0 69 -57q2 -10 3 -26.5t1 -37.5q0 -34 -6.5 -79.5t-24 -97t-52.5 -105.5
q-31 -48 -55.5 -73t-46.5 -34t-44 -9z" />
    <glyph glyph-name="w" unicode="w" horiz-adv-x="790" 
d="M238 -8q-42 0 -66 24t-44 81l-100 303q-8 27 -8 39q0 29 21.5 50.5t53.5 21.5q25 0 42.5 -12t23.5 -33l95 -316q39 63 55.5 116t16.5 115l-2 69q0 26 21 43.5t52 17.5q18 0 32 -13t27 -45q9 -22 20.5 -57t29 -93.5t43.5 -152.5q35 39 55 96.5t15 134.5l-4 69
q-1 26 21.5 43.5t54.5 17.5q60 0 69 -57q2 -13 3 -30t1 -34q0 -73 -22.5 -146.5t-62.5 -135.5q-42 -65 -72.5 -90.5t-66.5 -25.5q-24 0 -48.5 27.5t-45.5 75.5t-34 108q-10 -31 -31.5 -67.5t-48.5 -69.5t-52.5 -53.5t-43.5 -20.5z" />
    <glyph glyph-name="x" unicode="x" horiz-adv-x="534" 
d="M120 -8q-16 0 -34.5 6.5t-32 21.5t-13.5 38q0 36 34.5 87.5t94.5 108.5l-106 136q-7 10 -13.5 22.5t-6.5 25.5q0 14 6.5 28.5t22.5 28.5q11 9 22 12.5t21 3.5q19 0 34.5 -8.5t23.5 -19.5l105 -134q23 27 40.5 57t28.5 55q10 23 26 36.5t38 13.5q30 0 54 -17.5t24 -52.5
q0 -37 -30.5 -85t-93.5 -109l110 -135q8 -9 13.5 -21.5t5.5 -26.5q0 -13 -6.5 -27.5t-21.5 -28.5q-10 -9 -21 -12.5t-22 -3.5q-19 0 -34 9t-24 19l-111 136q-21 -25 -41.5 -59t-34.5 -64q-9 -20 -22.5 -30.5t-35.5 -10.5z" />
    <glyph glyph-name="y" unicode="y" horiz-adv-x="532" 
d="M155 -230q-139 0 -139 80q0 29 16 38.5t43 9.5q28 0 49 -4.5t47 -4.5q29 0 41 7t12 26q0 12 -5 31t-19.5 56t-41.5 102l-125 303q-6 15 -6 32q0 34 25 49.5t52 15.5q25 0 40.5 -12.5t22.5 -32.5l125 -324q38 77 50.5 132t10.5 101q-1 29 -3.5 47.5t-3.5 23.5
q-4 32 19.5 48.5t55.5 16.5q29 0 44.5 -12.5t22.5 -34.5q5 -16 6.5 -36.5t1.5 -33.5q0 -52 -9.5 -106t-27 -101.5t-43.5 -82.5q-4 -5 -14.5 -20t-25.5 -29.5t-31 -20.5q17 -18 24 -47.5t7 -61.5q0 -68 -52.5 -111.5t-168.5 -43.5z" />
    <glyph glyph-name="z" unicode="z" horiz-adv-x="472" 
d="M107 0q-25 0 -41.5 20t-16.5 49q0 19 9 34l154 241q11 17 18 24t15 10h-140q-67 0 -67 61t67 61h247q27 0 45 -20t18 -49q0 -19 -9 -34l-163 -243q-18 -28 -41 -32h170q67 0 67 -63q0 -59 -67 -59h-265z" />
    <glyph glyph-name="braceleft" unicode="{" horiz-adv-x="376" 
d="M288 -155q-73 0 -112 26.5t-53.5 91t-14.5 178.5q0 52 -11 85t-31 40q-37 12 -52 26.5t-15 36.5t15 36.5t52 27.5q20 8 31 40t11 83q0 114 14.5 178.5t53.5 90.5t112 26q75 0 75 -64q0 -24 -13.5 -34.5t-46.5 -10.5q-30 0 -40 -23.5t-10.5 -60.5t-0.5 -80
q0 -63 -3.5 -102.5t-13.5 -60.5t-29 -31t-51 -15q32 -5 51 -15t29 -31.5t13.5 -61t3.5 -103.5q0 -42 0.5 -79t10.5 -60t40 -23q33 0 46.5 -11t13.5 -35q0 -65 -75 -65z" />
    <glyph glyph-name="bar" unicode="|" horiz-adv-x="305" 
d="M152 -310q-39 0 -55.5 21t-16.5 57v964q0 36 16.5 57t55.5 21t55.5 -21t16.5 -57v-964q0 -36 -16.5 -57t-55.5 -21z" />
    <glyph glyph-name="braceright" unicode="}" horiz-adv-x="376" 
d="M95 -155q-75 0 -75 65q0 24 13.5 35t46.5 11q30 0 40.5 23t10.5 60v79q0 64 3.5 103.5t13.5 61t29 31.5t51 15q-32 5 -51 15t-29 31t-13.5 60.5t-3.5 102.5v80t-10.5 60.5t-40.5 23.5q-33 0 -46.5 10.5t-13.5 34.5q0 64 75 64q73 0 112 -26t53.5 -90.5t14.5 -178.5
q0 -51 11.5 -83t30.5 -40q38 -13 52.5 -27.5t14.5 -36.5t-14.5 -36.5t-52.5 -26.5q-19 -7 -30.5 -40t-11.5 -85q0 -114 -14.5 -178.5t-53.5 -91t-112 -26.5z" />
    <glyph glyph-name="asciitilde" unicode="~" horiz-adv-x="563" 
d="M90 216q-37 0 -53.5 19.5t-16.5 46.5q0 32 20 67.5t56.5 60t86.5 24.5q49 0 74.5 -15t49.5 -30q16 -11 32 -19.5t31 -8.5q21 0 32 10.5t19 25t19 25.5t33 11q37 0 53.5 -19.5t16.5 -46.5q0 -32 -20 -67.5t-56.5 -60t-86.5 -24.5q-48 0 -73 15t-51 30q-15 10 -31 19.5
t-32 9.5q-21 0 -32 -11t-19 -25.5t-19 -25.5t-33 -11z" />
    <glyph glyph-name="uni00A0" unicode="&#xa0;" horiz-adv-x="218" 
 />
    <glyph glyph-name="exclamdown" unicode="&#xa1;" horiz-adv-x="246" 
d="M139 291q39 0 55.5 -18t16.5 -50v-366q0 -31 -16.5 -49.5t-55.5 -18.5t-55.5 18.5t-16.5 49.5v366q0 32 16.5 50t55.5 18zM139 508q35 0 57 -21.5t22 -56.5t-22 -57t-57 -22q-36 0 -57.5 22t-21.5 57t21.5 56.5t57.5 21.5z" />
    <glyph glyph-name="cent" unicode="&#xa2;" horiz-adv-x="451" 
d="M269 -108q-26 0 -37.5 13.5t-11.5 36.5v54q-95 15 -141 82.5t-46 170.5t46 171t141 84v54q0 23 11.5 36.5t37.5 13.5q27 0 38 -13.5t11 -36.5v-51q53 -4 78 -20.5t25 -51.5q0 -29 -16 -42t-43 -13q-19 0 -30 3t-23.5 5.5t-38.5 2.5q-35 0 -55.5 -21t-29 -53.5t-8.5 -67.5
q0 -34 6.5 -66.5t26.5 -53t61 -20.5q38 0 56 5.5t35 5.5q27 0 43 -9.5t16 -38.5q0 -35 -25 -54t-78 -24v-52q0 -23 -11 -36.5t-38 -13.5z" />
    <glyph glyph-name="sterling" unicode="&#xa3;" horiz-adv-x="588" 
d="M145 0q-72 0 -72 78q0 29 13 62.5t27 72.5t16 83h-60q-23 0 -37 12.5t-14 43.5q0 30 14 42.5t37 12.5h47q-10 109 13.5 174.5t82 96t152.5 33.5q23 0 52.5 -2.5t58 -10.5t47 -24t18.5 -42q0 -29 -17.5 -44t-55.5 -15q-25 0 -53 3t-55 3q-39 0 -59.5 -6.5t-27.5 -24.5
t-7 -52t1 -89h106q23 0 37 -12.5t14 -42.5q0 -31 -14 -43.5t-37 -12.5h-108q-5 -44 -16.5 -75t-23 -57.5t-15.5 -55.5q26 31 64 31h187q37 0 57 -18t20 -52q0 -69 -77 -69h-315z" />
    <glyph glyph-name="yen" unicode="&#xa5;" horiz-adv-x="575" 
d="M154 55q-22 0 -34.5 10.5t-12.5 32.5t12.5 33t34.5 11h80v43h-80q-22 0 -34.5 10.5t-12.5 32.5t12.5 32.5t34.5 10.5h73l-194 333q-24 42 -8.5 74.5t56.5 32.5q33 0 54 -14.5t40 -49.5l145 -266q40 37 61 61.5t28.5 47t7.5 50.5t-6 62t-6 50q0 25 21 42t51 17
q36 0 55.5 -35.5t19.5 -103.5q0 -47 -6.5 -81t-25 -65t-52 -67.5t-88.5 -87.5h70q22 0 34.5 -10.5t12.5 -32.5t-12.5 -32.5t-34.5 -10.5h-72v-43h72q22 0 34.5 -11t12.5 -33t-12.5 -32.5t-34.5 -10.5h-72q-2 -63 -70 -63q-74 0 -74 63h-80z" />
    <glyph glyph-name="brokenbar" unicode="&#xa6;" horiz-adv-x="305" 
d="M152 254q-39 0 -55.5 21t-16.5 57v400q0 36 16.5 57t55.5 21t55.5 -21t16.5 -57v-400q0 -36 -16.5 -57t-55.5 -21zM152 -310q-39 0 -55.5 21t-16.5 57v320q0 36 16.5 57t55.5 21t55.5 -21t16.5 -57v-320q0 -36 -16.5 -57t-55.5 -21z" />
    <glyph glyph-name="section" unicode="&#xa7;" horiz-adv-x="503" 
d="M228 0q-92 0 -140 21.5t-48 61.5q0 26 14 41t37 15q10 0 20 -2.5t37 -11.5q17 -5 37 -8.5t34 -3.5q36 0 51 9t15 30q0 18 -9.5 30.5t-36 23.5t-77.5 26q-101 29 -101 131q0 29 16.5 53.5t45.5 40.5q-50 36 -50 98q0 74 56 115t157 41q76 0 117 -20t41 -58
q0 -25 -14.5 -40.5t-38.5 -15.5q-17 0 -58 11q-18 6 -33.5 8.5t-30.5 2.5q-49 0 -49 -34q0 -21 20 -34.5t74 -28.5q74 -21 106.5 -57t32.5 -98q0 -66 -57 -97q33 -36 33 -95q0 -71 -54.5 -113t-146.5 -42zM282 311q32 13 32 47q0 13 -3.5 21t-17 15t-43.5 16
q-35 -7 -46 -16.5t-11 -30.5q0 -12 5.5 -19t24.5 -14t59 -19z" />
    <glyph glyph-name="dieresis" unicode="&#xa8;" horiz-adv-x="385" 
d="M88 602q-31 0 -49.5 18.5t-18.5 47.5q0 30 18.5 48.5t49.5 18.5q30 0 48.5 -18.5t18.5 -48.5q0 -29 -18.5 -47.5t-48.5 -18.5zM297 602q-31 0 -49 18.5t-18 47.5q0 30 18 48.5t49 18.5q30 0 49 -18.5t19 -48.5q0 -29 -19 -47.5t-49 -18.5z" />
    <glyph glyph-name="copyright" unicode="&#xa9;" horiz-adv-x="772" 
d="M392 -8q-118 0 -194 47t-113 128.5t-37 184.5t36.5 184t113 128t194.5 47q114 0 187.5 -47t109 -128t35.5 -184t-35.5 -184.5t-108.5 -128.5t-188 -47zM392 80q92 0 144 35t74 96.5t22 139.5q0 79 -22 140t-74 96t-144 35q-96 0 -151 -35t-78 -96t-23 -140
q0 -78 23 -139.5t78 -96.5t151 -35zM409 151q-95 0 -140.5 54.5t-45.5 145.5q0 90 45.5 146t140.5 56q60 0 87 -12.5t27 -44.5q0 -15 -12 -25.5t-33 -7.5q-15 2 -23 4t-18 3t-31 1q-35 0 -54 -17.5t-26.5 -45t-7.5 -57.5q0 -29 5 -57t24 -45.5t60 -17.5q30 0 44 4t27 5
q24 2 34.5 -7t10.5 -26q0 -32 -27 -44t-87 -12z" />
    <glyph glyph-name="ordfeminine" unicode="&#xaa;" horiz-adv-x="385" 
d="M212 417q-67 0 -104.5 31t-37.5 80q0 59 49 85t145 18q-5 30 -20 41.5t-36 11.5q-17 0 -27.5 -2t-20.5 -4t-23 -2q-18 0 -28.5 6.5t-10.5 26.5q0 27 23.5 40t75.5 13q82 0 121.5 -46.5t39.5 -124.5q0 -89 -32.5 -131.5t-113.5 -42.5zM166 528q0 -38 52 -38q17 0 26 6.5
t13.5 24.5t6.5 53q-3 -3 -8.5 -4t-10.5 -1q-45 0 -62 -8.5t-17 -32.5z" />
    <glyph glyph-name="guillemotleft" unicode="&#xab;" horiz-adv-x="565" 
d="M418 8q-13 11 -19 25q-12 27 -29 61.5t-33.5 67.5t-27 57.5t-10.5 32.5t10.5 32t27 56.5t33.5 66.5t29 61q3 7 8 14.5t11 12.5q25 23 54.5 16t48.5 -27q17 -18 18.5 -36.5t-7.5 -36.5l-23 -46t-25.5 -50.5t-20.5 -42t-8 -20.5t8 -20.5t20.5 -42t25.5 -50.5l23 -46
q9 -19 7.5 -38t-18.5 -36q-19 -19 -48.5 -26t-54.5 15zM144 8q-13 11 -19 25q-12 27 -29 61.5t-33.5 67.5t-27 57.5t-10.5 32.5t10.5 32t27 56.5t33.5 66.5t29 61q3 7 8 14.5t11 12.5q25 23 54.5 16t48.5 -27q17 -18 18.5 -36.5t-7.5 -36.5l-23 -46t-25.5 -50.5t-20.5 -42
t-8 -20.5t8 -20.5t20.5 -42t25.5 -50.5l23 -46q9 -19 7.5 -38t-18.5 -36q-19 -19 -48.5 -26t-54.5 15z" />
    <glyph glyph-name="logicalnot" unicode="&#xac;" horiz-adv-x="559" 
d="M88 353q-31 0 -49.5 15.5t-18.5 46.5q0 32 18.5 47t49.5 15h383q32 0 50 -15t18 -47v-260q0 -31 -15 -49.5t-47 -18.5q-31 0 -46.5 18.5t-15.5 49.5v198h-327z" />
    <glyph glyph-name="registered" unicode="&#xae;" horiz-adv-x="772" 
d="M392 -8q-118 0 -194 47t-113 128.5t-37 184.5t36.5 184t113 128t194.5 47q114 0 187.5 -47t109 -128t35.5 -184t-35.5 -184.5t-108.5 -128.5t-188 -47zM392 80q92 0 144 36t74 97.5t22 137.5q0 79 -22 140t-74 96t-144 35q-96 0 -151 -35t-78 -96t-23 -140
q0 -78 23 -139.5t78 -96.5t151 -35zM305 163q-43 0 -43 38v230q0 30 10 58.5t40 47.5t91 19q59 0 92.5 -32t33.5 -84q0 -17 -1.5 -35t-3.5 -26q-4 -15 -10.5 -26.5t-19.5 -19.5q16 -11 23 -25.5t7 -30.5v-76q0 -19 -12 -28.5t-29 -9.5q-19 0 -32 9.5t-13 28.5v45
q0 37 -5.5 56t-37.5 19q-25 0 -36 -12.5t-11 -47.5v-60q0 -19 -12 -28.5t-31 -9.5zM343 371q9 8 18.5 13t31.5 5q33 0 45.5 4.5t12.5 32.5q0 31 -13 42.5t-37 11.5q-29 0 -41 -10t-12 -35q0 -12 -1 -30t-4 -34z" />
    <glyph glyph-name="macron" unicode="&#xaf;" horiz-adv-x="362" 
d="M71 590q-23 0 -37 12.5t-14 40.5t14 40t37 12h220q23 0 37 -12t14 -40t-14 -40.5t-37 -12.5h-220z" />
    <glyph glyph-name="degree" unicode="&#xb0;" horiz-adv-x="443" 
d="M222 388q-46 0 -82.5 21.5t-58 58t-21.5 82.5t21.5 82t58 57.5t82.5 21.5q45 0 81.5 -21.5t58 -57.5t21.5 -82t-21.5 -82.5t-58 -58t-81.5 -21.5zM223 483q29 0 47 18.5t18 48.5q0 29 -18 47.5t-47 18.5q-31 0 -49.5 -18.5t-18.5 -47.5q0 -30 18.5 -48.5t49.5 -18.5z" />
    <glyph glyph-name="plusminus" unicode="&#xb1;" horiz-adv-x="559" 
d="M88 342q-31 0 -49.5 15.5t-18.5 46.5q0 32 18.5 47t49.5 15h130v67q0 32 15.5 50t46.5 18q32 0 47 -18t15 -50v-67h129q32 0 50 -15t18 -47q0 -31 -18 -46.5t-50 -15.5h-129v-78q0 -31 -15 -49.5t-47 -18.5q-31 0 -46.5 18.5t-15.5 49.5v78h-130zM88 23q-31 0 -49.5 15.5
t-18.5 46.5q0 32 18.5 47t49.5 15h383q32 0 50 -15t18 -47q0 -31 -18 -46.5t-50 -15.5h-383z" />
    <glyph glyph-name="acute" unicode="&#xb4;" horiz-adv-x="314" 
d="M56 576q-13 0 -24.5 10.5t-11.5 23.5q0 8 5 16t18 15q4 2 22 13.5t43.5 28t53 34.5t49.5 34q8 5 15 7t13 2q24 0 39.5 -20t15.5 -46q0 -19 -12 -33.5t-40 -28.5q-17 -9 -44.5 -18.5t-57 -18t-52.5 -14t-32 -5.5z" />
    <glyph glyph-name="paragraph" unicode="&#xb6;" horiz-adv-x="692" 
d="M566 -211q-39 0 -55.5 21.5t-16.5 58.5v762q0 37 16.5 58.5t55.5 21.5t55.5 -21.5t16.5 -58.5v-762q0 -37 -16.5 -58.5t-55.5 -21.5zM342 -211q-39 0 -55.5 21t-16.5 57v311q0 50 -1 74.5t-11 32.5t-37 8q-24 0 -57 12.5t-65 37.5t-53.5 63.5t-21.5 89.5q0 63 21.5 104.5
t58.5 65.5t83.5 34.5t95.5 10.5q52 0 80 -9.5t39.5 -32t11.5 -62.5v-740q0 -36 -16.5 -57t-55.5 -21z" />
    <glyph glyph-name="periodcentered" unicode="&#xb7;" horiz-adv-x="600" 
d="M319 221q-36 0 -59 24t-23 58q0 35 23 58.5t59 23.5q35 0 58.5 -23.5t23.5 -58.5q0 -34 -23.5 -58t-58.5 -24z" />
    <glyph glyph-name="cedilla" unicode="&#xb8;" horiz-adv-x="264" 
d="M110 -236q-44 2 -67.5 17.5t-22.5 41.5q0 16 11 27.5t30 10.5q15 0 24.5 -5.5t24.5 -6.5q48 -1 50 30q1 17 -19 28.5t-50 12.5q-19 2 -19 21q1 9 8.5 27t19.5 38.5t24 36.5l86 -7l-39 -75q31 -4 52.5 -32t20.5 -62q-1 -50 -37.5 -77.5t-96.5 -25.5z" />
    <glyph glyph-name="ordmasculine" unicode="&#xba;" horiz-adv-x="415" 
d="M182 417q-72 0 -113.5 40.5t-41.5 131.5q0 92 41.5 132.5t113.5 40.5t113.5 -40.5t41.5 -132.5q0 -91 -41.5 -131.5t-113.5 -40.5zM182 497q19 0 32 8t19.5 28t6.5 56q0 37 -6.5 57t-19.5 28t-32 8q-18 0 -31 -8t-20 -28t-7 -57q0 -36 7 -56t20 -28t31 -8z" />
    <glyph glyph-name="guillemotright" unicode="&#xbb;" horiz-adv-x="565" 
d="M421 8q-25 -22 -54 -15t-49 26q-17 17 -18.5 36t7.5 38l23 46t25.5 50.5t20.5 42t8 20.5t-8 20.5t-20.5 42t-25.5 50.5l-23 46q-9 18 -7.5 36.5t18.5 36.5q20 20 49 27t54 -16q6 -5 11 -12.5t8 -14.5q12 -27 29 -61t33.5 -66.5t27 -56.5t10.5 -32t-10.5 -32.5t-27 -57.5
t-33.5 -67.5t-29 -61.5q-6 -14 -19 -25zM147 8q-25 -22 -54 -15t-49 26q-17 17 -18.5 36t7.5 38l23 46t25.5 50.5t20.5 42t8 20.5t-8 20.5t-20.5 42t-25.5 50.5l-23 46q-9 18 -7.5 36.5t18.5 36.5q20 20 49 27t54 -16q6 -5 11 -12.5t8 -14.5q12 -27 29 -61t33.5 -66.5
t27 -56.5t10.5 -32t-10.5 -32.5t-27 -57.5t-33.5 -67.5t-29 -61.5q-6 -14 -19 -25z" />
    <glyph glyph-name="questiondown" unicode="&#xbf;" horiz-adv-x="553" 
d="M300 267q85 0 120.5 -14t35.5 -47q0 -24 -10 -37.5t-44 -19t-105 -5.5q-43 0 -68 -30t-25 -82q0 -56 22 -81t72 -24q80 1 122 -4t57.5 -18t15.5 -39q0 -74 -158 -74h-35q-111 0 -175.5 64.5t-64.5 175.5q0 69 30.5 122t85 83t124.5 30zM364 511q36 0 57.5 -21.5
t21.5 -56.5t-21.5 -57t-57.5 -22q-35 0 -57 22t-22 57t22 56.5t57 21.5z" />
    <glyph glyph-name="Agrave" unicode="&#xc0;" horiz-adv-x="603" 
d="M211 59q0 -67 -70 -67q-34 0 -54 17t-20 50v396q0 138 56 197t175 59q122 0 180 -60t58 -196v-396q0 -67 -70 -67q-34 0 -54 17t-20 50v241q-19 -17 -41.5 -29t-52.5 -12q-44 0 -65.5 -16t-21.5 -57v-127zM205 352q16 16 38.5 25t54.5 9q38 0 58.5 6t28.5 23t8 50
q0 74 -21 101.5t-75 27.5q-50 0 -68.5 -28.5t-18.5 -104.5q0 -39 -1 -66t-4 -43zM414 776q-9 0 -32 5.5t-52.5 14t-57 18t-44.5 18.5q-28 14 -40 28.5t-12 33.5q0 26 15.5 46t39.5 20q6 0 13.5 -2t14.5 -7q23 -16 50 -34t52.5 -34.5t43.5 -28t22 -13.5q13 -7 18 -15t5 -16
q0 -13 -11 -23.5t-25 -10.5z" />
    <glyph glyph-name="Aacute" unicode="&#xc1;" horiz-adv-x="603" 
d="M211 59q0 -67 -70 -67q-34 0 -54 17t-20 50v396q0 138 56 197t175 59q122 0 180 -60t58 -196v-396q0 -67 -70 -67q-34 0 -54 17t-20 50v241q-19 -17 -41.5 -29t-52.5 -12q-44 0 -65.5 -16t-21.5 -57v-127zM205 352q16 16 38.5 25t54.5 9q38 0 58.5 6t28.5 23t8 50
q0 74 -21 101.5t-75 27.5q-50 0 -68.5 -28.5t-18.5 -104.5q0 -39 -1 -66t-4 -43zM182 776q-13 0 -24.5 10.5t-11.5 23.5q0 8 5 16t18 15q4 2 22 13.5t43.5 28t53 34.5t49.5 34q8 5 15 7t13 2q24 0 39.5 -20t15.5 -46q0 -19 -12 -33.5t-40 -28.5q-17 -9 -44.5 -18.5t-57 -18
t-52.5 -14t-32 -5.5z" />
    <glyph glyph-name="Acircumflex" unicode="&#xc2;" horiz-adv-x="603" 
d="M211 59q0 -67 -70 -67q-34 0 -54 17t-20 50v396q0 138 56 197t175 59q122 0 180 -60t58 -196v-396q0 -67 -70 -67q-34 0 -54 17t-20 50v241q-19 -17 -41.5 -29t-52.5 -12q-44 0 -65.5 -16t-21.5 -57v-127zM205 352q16 16 38.5 25t54.5 9q38 0 58.5 6t28.5 23t8 50
q0 74 -21 101.5t-75 27.5q-50 0 -68.5 -28.5t-18.5 -104.5q0 -39 -1 -66t-4 -43zM348 939l70 -36q51 -25 51 -60q0 -25 -15.5 -40t-38.5 -15q-13 0 -28 9l-90 57l-90 -57q-15 -9 -28 -9q-23 0 -38 15t-15 40q0 36 50 60l70 36q22 11 36.5 14.5t29.5 0t36 -14.5z" />
    <glyph glyph-name="Atilde" unicode="&#xc3;" horiz-adv-x="603" 
d="M211 59q0 -67 -70 -67q-34 0 -54 17t-20 50v396q0 138 56 197t175 59q122 0 180 -60t58 -196v-396q0 -67 -70 -67q-34 0 -54 17t-20 50v241q-19 -17 -41.5 -29t-52.5 -12q-44 0 -65.5 -16t-21.5 -57v-127zM205 352q16 16 38.5 25t54.5 9q38 0 58.5 6t28.5 23t8 50
q0 74 -21 101.5t-75 27.5q-50 0 -68.5 -28.5t-18.5 -104.5q0 -39 -1 -66t-4 -43zM162 772q-26 0 -38 12.5t-12 29.5q0 21 14 43.5t40.5 38t61.5 15.5t53 -9.5t35 -19.5q11 -7 22.5 -12.5t22.5 -5.5q15 0 23 7t13.5 16t13.5 16t23 7q26 0 38 -12.5t12 -29.5q0 -20 -14 -43
t-40 -38.5t-62 -15.5q-34 0 -52 9.5t-36 19.5q-11 6 -22.5 12t-22.5 6q-15 0 -23 -7t-13.5 -16t-13.5 -16t-23 -7z" />
    <glyph glyph-name="Adieresis" unicode="&#xc4;" horiz-adv-x="603" 
d="M211 59q0 -67 -70 -67q-34 0 -54 17t-20 50v396q0 138 56 197t175 59q122 0 180 -60t58 -196v-396q0 -67 -70 -67q-34 0 -54 17t-20 50v241q-19 -17 -41.5 -29t-52.5 -12q-44 0 -65.5 -16t-21.5 -57v-127zM205 352q16 16 38.5 25t54.5 9q38 0 58.5 6t28.5 23t8 50
q0 74 -21 101.5t-75 27.5q-50 0 -68.5 -28.5t-18.5 -104.5q0 -39 -1 -66t-4 -43zM193 802q-31 0 -49.5 18.5t-18.5 47.5q0 30 18.5 48.5t49.5 18.5q30 0 48.5 -18.5t18.5 -48.5q0 -29 -18.5 -47.5t-48.5 -18.5zM402 802q-31 0 -49 18.5t-18 47.5q0 30 18 48.5t49 18.5
q30 0 49 -18.5t19 -48.5q0 -29 -19 -47.5t-49 -18.5z" />
    <glyph glyph-name="Aring" unicode="&#xc5;" horiz-adv-x="603" 
d="M211 59q0 -67 -70 -67q-34 0 -54 17t-20 50v396q0 138 56 197t175 59q122 0 180 -60t58 -196v-396q0 -67 -70 -67q-34 0 -54 17t-20 50v241q-19 -17 -41.5 -29t-52.5 -12q-44 0 -65.5 -16t-21.5 -57v-127zM205 352q16 16 38.5 25t54.5 9q38 0 58.5 6t28.5 23t8 50
q0 74 -21 101.5t-75 27.5q-50 0 -68.5 -28.5t-18.5 -104.5q0 -39 -1 -66t-4 -43zM297 765q-48 0 -80 32t-32 81q0 48 32 80t80 32q49 0 81 -32t32 -80q0 -49 -32 -81t-81 -32zM298 840q17 0 27 10.5t10 27.5t-10 27t-27 10t-27.5 -10t-10.5 -27t10.5 -27.5t27.5 -10.5z" />
    <glyph glyph-name="AE" unicode="&#xc6;" horiz-adv-x="864" 
d="M139 -8q-72 0 -72 64v399q0 138 56 197t175 59q108 0 164 -46q58 35 175 35h125q33 0 51.5 -17.5t18.5 -49.5q0 -31 -18.5 -48t-51.5 -17h-132q-50 0 -72 -20t-22 -65q0 -16 -2 -39.5t-6 -53.5q17 14 43 22.5t51 8.5h99q28 0 43.5 -17t15.5 -47t-16 -48t-43 -18h-107
q-46 0 -62 -18.5t-16 -74.5v-66h226q37 0 53.5 -16t16.5 -52q0 -34 -16 -49t-54 -15h-325q-19 0 -32 15t-13 38v247q-19 -17 -41.5 -29t-52.5 -12q-44 0 -65.5 -16t-21.5 -57v-130q0 -64 -72 -64zM205 352q16 16 38.5 25t54.5 9q38 0 58.5 6t28 23t7.5 50q0 74 -20.5 101.5
t-74.5 27.5q-50 0 -68.5 -28.5t-18.5 -104.5q0 -39 -1 -66t-4 -43z" />
    <glyph glyph-name="Ccedilla" unicode="&#xc7;" horiz-adv-x="533" 
d="M267 -236q-44 2 -67.5 17.5t-22.5 41.5q0 16 11 27.5t30 10.5q15 0 24.5 -5.5t24.5 -6.5q48 -1 50 30q1 17 -19 28.5t-50 12.5q-19 2 -19 21q0 8 7 24.5t17 35.5q-113 22 -159 109t-46 237q0 117 27.5 198.5t91 123.5t171.5 42q39 0 76.5 -7t62 -25t24.5 -52
q0 -25 -18 -42t-58 -17q-22 0 -49 5.5t-63 5.5q-70 0 -92.5 -56.5t-22.5 -175.5t29 -170.5t86 -51.5q36 0 63 5.5t49 5.5q40 0 58 -16.5t18 -42.5q0 -33 -23 -51t-59 -25.5t-74 -7.5l-17 -32q31 -4 52.5 -32t20.5 -62q-1 -50 -37.5 -77.5t-96.5 -25.5z" />
    <glyph glyph-name="Egrave" unicode="&#xc8;" horiz-adv-x="544" 
d="M117 0q-19 0 -32 15t-13 38v468q0 94 58 136.5t187 42.5h125q33 0 51.5 -17.5t18.5 -49.5q0 -31 -18.5 -48t-51.5 -17h-132q-50 0 -72 -20t-22 -65q0 -16 -2 -39.5t-6 -53.5q17 14 43 22.5t51 8.5h99q28 0 43.5 -17t15.5 -47t-16 -48t-43 -18h-107q-46 0 -62 -18.5
t-16 -74.5v-66h226q37 0 53.5 -16t16.5 -52q0 -34 -16 -49t-54 -15h-325zM420 776q-9 0 -32 5.5t-52.5 14t-57 18t-44.5 18.5q-28 14 -40 28.5t-12 33.5q0 26 15.5 46t39.5 20q6 0 13.5 -2t14.5 -7q23 -16 50 -34t52.5 -34.5t43.5 -28t22 -13.5q13 -7 18 -15t5 -16
q0 -13 -11 -23.5t-25 -10.5z" />
    <glyph glyph-name="Eacute" unicode="&#xc9;" horiz-adv-x="544" 
d="M117 0q-19 0 -32 15t-13 38v468q0 94 58 136.5t187 42.5h125q33 0 51.5 -17.5t18.5 -49.5q0 -31 -18.5 -48t-51.5 -17h-132q-50 0 -72 -20t-22 -65q0 -16 -2 -39.5t-6 -53.5q17 14 43 22.5t51 8.5h99q28 0 43.5 -17t15.5 -47t-16 -48t-43 -18h-107q-46 0 -62 -18.5
t-16 -74.5v-66h226q37 0 53.5 -16t16.5 -52q0 -34 -16 -49t-54 -15h-325zM215 776q-13 0 -24.5 10.5t-11.5 23.5q0 8 5 16t18 15q4 2 22 13.5t43.5 28t53 34.5t49.5 34q8 5 15 7t13 2q24 0 39.5 -20t15.5 -46q0 -19 -12 -33.5t-40 -28.5q-17 -9 -44.5 -18.5t-57 -18
t-52.5 -14t-32 -5.5z" />
    <glyph glyph-name="Ecircumflex" unicode="&#xca;" horiz-adv-x="544" 
d="M117 0q-19 0 -32 15t-13 38v468q0 94 58 136.5t187 42.5h125q33 0 51.5 -17.5t18.5 -49.5q0 -31 -18.5 -48t-51.5 -17h-132q-50 0 -72 -20t-22 -65q0 -16 -2 -39.5t-6 -53.5q17 14 43 22.5t51 8.5h99q28 0 43.5 -17t15.5 -47t-16 -48t-43 -18h-107q-46 0 -62 -18.5
t-16 -74.5v-66h226q37 0 53.5 -16t16.5 -52q0 -34 -16 -49t-54 -15h-325zM354 939l70 -36q51 -25 51 -60q0 -25 -15.5 -40t-38.5 -15q-13 0 -28 9l-90 57l-90 -57q-15 -9 -28 -9q-23 0 -38 15t-15 40q0 36 50 60l70 36q22 11 36.5 14.5t29.5 0t36 -14.5z" />
    <glyph glyph-name="Edieresis" unicode="&#xcb;" horiz-adv-x="544" 
d="M117 0q-19 0 -32 15t-13 38v468q0 94 58 136.5t187 42.5h125q33 0 51.5 -17.5t18.5 -49.5q0 -31 -18.5 -48t-51.5 -17h-132q-50 0 -72 -20t-22 -65q0 -16 -2 -39.5t-6 -53.5q17 14 43 22.5t51 8.5h99q28 0 43.5 -17t15.5 -47t-16 -48t-43 -18h-107q-46 0 -62 -18.5
t-16 -74.5v-66h226q37 0 53.5 -16t16.5 -52q0 -34 -16 -49t-54 -15h-325zM199 802q-31 0 -49.5 18.5t-18.5 47.5q0 30 18.5 48.5t49.5 18.5q30 0 48.5 -18.5t18.5 -48.5q0 -29 -18.5 -47.5t-48.5 -18.5zM408 802q-31 0 -49 18.5t-18 47.5q0 30 18 48.5t49 18.5
q30 0 49 -18.5t19 -48.5q0 -29 -19 -47.5t-49 -18.5z" />
    <glyph glyph-name="Igrave" unicode="&#xcc;" horiz-adv-x="288" 
d="M146 -8q-74 0 -74 67v585q0 35 17 51t54 16q73 0 73 -67v-585q0 -34 -16.5 -50.5t-53.5 -16.5zM260 776q-9 0 -32 5.5t-52.5 14t-57 18t-44.5 18.5q-28 14 -40 28.5t-12 33.5q0 26 15.5 46t39.5 20q6 0 13.5 -2t14.5 -7q23 -16 50 -34t52.5 -34.5t43.5 -28t22 -13.5
q13 -7 18 -15t5 -16q0 -13 -11 -23.5t-25 -10.5z" />
    <glyph glyph-name="Iacute" unicode="&#xcd;" horiz-adv-x="288" 
d="M146 -8q-74 0 -74 67v585q0 35 17 51t54 16q73 0 73 -67v-585q0 -34 -16.5 -50.5t-53.5 -16.5zM28 776q-13 0 -24.5 10.5t-11.5 23.5q0 8 5 16t18 15q4 2 22 13.5t43.5 28t53 34.5t49.5 34q8 5 15 7t13 2q24 0 39.5 -20t15.5 -46q0 -19 -12 -33.5t-40 -28.5
q-17 -9 -44.5 -18.5t-57 -18t-52.5 -14t-32 -5.5z" />
    <glyph glyph-name="Icircumflex" unicode="&#xce;" horiz-adv-x="288" 
d="M146 -8q-74 0 -74 67v585q0 35 17 51t54 16q73 0 73 -67v-585q0 -34 -16.5 -50.5t-53.5 -16.5zM194 939l70 -36q51 -25 51 -60q0 -25 -15.5 -40t-38.5 -15q-13 0 -28 9l-90 57l-90 -57q-15 -9 -28 -9q-23 0 -38 15t-15 40q0 36 50 60l70 36q22 11 36.5 14.5t29.5 0
t36 -14.5z" />
    <glyph glyph-name="Idieresis" unicode="&#xcf;" horiz-adv-x="288" 
d="M146 -8q-74 0 -74 67v585q0 35 17 51t54 16q73 0 73 -67v-585q0 -34 -16.5 -50.5t-53.5 -16.5zM39 802q-31 0 -49.5 18.5t-18.5 47.5q0 30 18.5 48.5t49.5 18.5q30 0 48.5 -18.5t18.5 -48.5q0 -29 -18.5 -47.5t-48.5 -18.5zM248 802q-31 0 -49 18.5t-18 47.5
q0 30 18 48.5t49 18.5q30 0 49 -18.5t19 -48.5q0 -29 -19 -47.5t-49 -18.5z" />
    <glyph glyph-name="Eth" unicode="&#xd0;" horiz-adv-x="615" 
d="M113 0q-19 0 -32.5 14.5t-13.5 36.5v446q0 104 56.5 159t163.5 55q280 0 280 -363q0 -177 -70 -262.5t-215 -85.5h-169zM211 118h71q74 0 107.5 57.5t33.5 185.5q0 122 -30.5 173.5t-103.5 51.5q-78 0 -78 -57v-411zM37 299q-31 0 -49.5 12t-18.5 40t18.5 40t49.5 12h198
q32 0 50 -12t18 -40t-18 -40t-50 -12h-198z" />
    <glyph glyph-name="Ntilde" unicode="&#xd1;" horiz-adv-x="648" 
d="M211 59q0 -67 -70 -67q-34 0 -54 17t-20 50v393q0 94 25 150.5t82 82.5t152 26q126 0 190.5 -58.5t64.5 -200.5v-393q0 -67 -70 -67q-34 0 -54 17t-20 50v393q0 74 -25.5 105.5t-85.5 31.5q-47 0 -72 -14t-34 -44t-9 -79v-393zM188 772q-26 0 -38 12.5t-12 29.5
q0 21 14 43.5t40.5 38t61.5 15.5t53 -9.5t35 -19.5q11 -7 22.5 -12.5t22.5 -5.5q15 0 23 7t13.5 16t13.5 16t23 7q26 0 38 -12.5t12 -29.5q0 -20 -14 -43t-40 -38.5t-62 -15.5q-34 0 -52 9.5t-36 19.5q-11 6 -22.5 12t-22.5 6q-15 0 -23 -7t-13.5 -16t-13.5 -16t-23 -7z" />
    <glyph glyph-name="Ograve" unicode="&#xd2;" horiz-adv-x="640" 
d="M320 -8q-87 0 -148 34.5t-92.5 113.5t-31.5 214t31.5 213t92.5 111t148 33q88 0 148.5 -33t92 -111t31.5 -213t-31.5 -214t-92 -113.5t-148.5 -34.5zM320 124q40 0 68.5 19t44 69t15.5 142q0 93 -15.5 141.5t-44 66t-68.5 17.5q-39 0 -68 -17.5t-44.5 -66t-15.5 -141.5
q0 -92 15.5 -142t44.5 -69t68 -19zM436 776q-9 0 -32 5.5t-52.5 14t-57 18t-44.5 18.5q-28 14 -40 28.5t-12 33.5q0 26 15.5 46t39.5 20q6 0 13.5 -2t14.5 -7q23 -16 50 -34t52.5 -34.5t43.5 -28t22 -13.5q13 -7 18 -15t5 -16q0 -13 -11 -23.5t-25 -10.5z" />
    <glyph glyph-name="Oacute" unicode="&#xd3;" horiz-adv-x="640" 
d="M320 -8q-87 0 -148 34.5t-92.5 113.5t-31.5 214t31.5 213t92.5 111t148 33q88 0 148.5 -33t92 -111t31.5 -213t-31.5 -214t-92 -113.5t-148.5 -34.5zM320 124q40 0 68.5 19t44 69t15.5 142q0 93 -15.5 141.5t-44 66t-68.5 17.5q-39 0 -68 -17.5t-44.5 -66t-15.5 -141.5
q0 -92 15.5 -142t44.5 -69t68 -19zM204 776q-13 0 -24.5 10.5t-11.5 23.5q0 8 5 16t18 15q4 2 22 13.5t43.5 28t53 34.5t49.5 34q8 5 15 7t13 2q24 0 39.5 -20t15.5 -46q0 -19 -12 -33.5t-40 -28.5q-17 -9 -44.5 -18.5t-57 -18t-52.5 -14t-32 -5.5z" />
    <glyph glyph-name="Ocircumflex" unicode="&#xd4;" horiz-adv-x="640" 
d="M320 -8q-87 0 -148 34.5t-92.5 113.5t-31.5 214t31.5 213t92.5 111t148 33q88 0 148.5 -33t92 -111t31.5 -213t-31.5 -214t-92 -113.5t-148.5 -34.5zM320 124q40 0 68.5 19t44 69t15.5 142q0 93 -15.5 141.5t-44 66t-68.5 17.5q-39 0 -68 -17.5t-44.5 -66t-15.5 -141.5
q0 -92 15.5 -142t44.5 -69t68 -19zM370 939l70 -36q51 -25 51 -60q0 -25 -15.5 -40t-38.5 -15q-13 0 -28 9l-90 57l-90 -57q-15 -9 -28 -9q-23 0 -38 15t-15 40q0 36 50 60l70 36q22 11 36.5 14.5t29.5 0t36 -14.5z" />
    <glyph glyph-name="Otilde" unicode="&#xd5;" horiz-adv-x="640" 
d="M320 -8q-87 0 -148 34.5t-92.5 113.5t-31.5 214t31.5 213t92.5 111t148 33q88 0 148.5 -33t92 -111t31.5 -213t-31.5 -214t-92 -113.5t-148.5 -34.5zM320 124q40 0 68.5 19t44 69t15.5 142q0 93 -15.5 141.5t-44 66t-68.5 17.5q-39 0 -68 -17.5t-44.5 -66t-15.5 -141.5
q0 -92 15.5 -142t44.5 -69t68 -19zM184 772q-26 0 -38 12.5t-12 29.5q0 21 14 43.5t40.5 38t61.5 15.5t53 -9.5t35 -19.5q11 -7 22.5 -12.5t22.5 -5.5q15 0 23 7t13.5 16t13.5 16t23 7q26 0 38 -12.5t12 -29.5q0 -20 -14 -43t-40 -38.5t-62 -15.5q-34 0 -52 9.5t-36 19.5
q-11 6 -22.5 12t-22.5 6q-15 0 -23 -7t-13.5 -16t-13.5 -16t-23 -7z" />
    <glyph glyph-name="Odieresis" unicode="&#xd6;" horiz-adv-x="640" 
d="M320 -8q-87 0 -148 34.5t-92.5 113.5t-31.5 214t31.5 213t92.5 111t148 33q88 0 148.5 -33t92 -111t31.5 -213t-31.5 -214t-92 -113.5t-148.5 -34.5zM320 124q40 0 68.5 19t44 69t15.5 142q0 93 -15.5 141.5t-44 66t-68.5 17.5q-39 0 -68 -17.5t-44.5 -66t-15.5 -141.5
q0 -92 15.5 -142t44.5 -69t68 -19zM215 802q-31 0 -49.5 18.5t-18.5 47.5q0 30 18.5 48.5t49.5 18.5q30 0 48.5 -18.5t18.5 -48.5q0 -29 -18.5 -47.5t-48.5 -18.5zM424 802q-31 0 -49 18.5t-18 47.5q0 30 18 48.5t49 18.5q30 0 49 -18.5t19 -48.5q0 -29 -19 -47.5t-49 -18.5
z" />
    <glyph glyph-name="multiply" unicode="&#xd7;" horiz-adv-x="517" 
d="M133 549l126 -135l125 135q21 23 45 26t48 -19q23 -22 20.5 -45.5t-22.5 -46.5l-132 -141l132 -142q20 -22 22 -46t-21 -46t-47 -18.5t-45 25.5l-125 135l-126 -135q-21 -22 -45 -25.5t-47 18.5q-22 22 -20.5 46t21.5 46l132 142l-132 141q-20 23 -22 46.5t20 45.5
q24 22 48 19t45 -26z" />
    <glyph glyph-name="Oslash" unicode="&#xd8;" horiz-adv-x="640" 
d="M137 -20q-33 0 -53.5 16.5t-20.5 43.5q0 13 8 27l25 38q-24 43 -36 104.5t-12 144.5q0 135 31.5 213t92.5 111t148 33q47 0 86.5 -9t70.5 -29q15 21 29.5 29.5t34.5 8.5q33 0 51.5 -15t18.5 -42q0 -22 -13 -42l-35 -54q29 -79 29 -204q0 -135 -31.5 -214t-92 -113.5
t-148.5 -34.5q-72 0 -123 21q-24 -33 -60 -33zM192 354q0 -64 8 -109l203 304q-16 17 -37 23.5t-46 6.5q-39 0 -68 -17.5t-44.5 -66t-15.5 -141.5zM320 124q40 0 68.5 19t44 69t15.5 142q0 39 -3 70l-190 -284q14 -9 30 -12.5t35 -3.5z" />
    <glyph glyph-name="Ugrave" unicode="&#xd9;" horiz-adv-x="646" 
d="M315 -8q-121 0 -184.5 60.5t-63.5 182.5v398q0 78 72 78t72 -78v-398q0 -63 27.5 -92t76.5 -29q120 0 120 121v398q0 78 72 78t72 -78v-398q0 -121 -67 -182t-197 -61zM439 776q-9 0 -32 5.5t-52.5 14t-57 18t-44.5 18.5q-28 14 -40 28.5t-12 33.5q0 26 15.5 46t39.5 20
q6 0 13.5 -2t14.5 -7q23 -16 50 -34t52.5 -34.5t43.5 -28t22 -13.5q13 -7 18 -15t5 -16q0 -13 -11 -23.5t-25 -10.5z" />
    <glyph glyph-name="Uacute" unicode="&#xda;" horiz-adv-x="646" 
d="M315 -8q-121 0 -184.5 60.5t-63.5 182.5v398q0 78 72 78t72 -78v-398q0 -63 27.5 -92t76.5 -29q120 0 120 121v398q0 78 72 78t72 -78v-398q0 -121 -67 -182t-197 -61zM207 776q-13 0 -24.5 10.5t-11.5 23.5q0 8 5 16t18 15q4 2 22 13.5t43.5 28t53 34.5t49.5 34
q8 5 15 7t13 2q24 0 39.5 -20t15.5 -46q0 -19 -12 -33.5t-40 -28.5q-17 -9 -44.5 -18.5t-57 -18t-52.5 -14t-32 -5.5z" />
    <glyph glyph-name="Ucircumflex" unicode="&#xdb;" horiz-adv-x="646" 
d="M315 -8q-121 0 -184.5 60.5t-63.5 182.5v398q0 78 72 78t72 -78v-398q0 -63 27.5 -92t76.5 -29q120 0 120 121v398q0 78 72 78t72 -78v-398q0 -121 -67 -182t-197 -61zM373 939l70 -36q51 -25 51 -60q0 -25 -15.5 -40t-38.5 -15q-13 0 -28 9l-90 57l-90 -57
q-15 -9 -28 -9q-23 0 -38 15t-15 40q0 36 50 60l70 36q22 11 36.5 14.5t29.5 0t36 -14.5z" />
    <glyph glyph-name="Udieresis" unicode="&#xdc;" horiz-adv-x="646" 
d="M315 -8q-121 0 -184.5 60.5t-63.5 182.5v398q0 78 72 78t72 -78v-398q0 -63 27.5 -92t76.5 -29q120 0 120 121v398q0 78 72 78t72 -78v-398q0 -121 -67 -182t-197 -61zM218 802q-31 0 -49.5 18.5t-18.5 47.5q0 30 18.5 48.5t49.5 18.5q30 0 48.5 -18.5t18.5 -48.5
q0 -29 -18.5 -47.5t-48.5 -18.5zM427 802q-31 0 -49 18.5t-18 47.5q0 30 18 48.5t49 18.5q30 0 49 -18.5t19 -48.5q0 -29 -19 -47.5t-49 -18.5z" />
    <glyph glyph-name="Yacute" unicode="&#xdd;" horiz-adv-x="575" 
d="M308 -8q-74 0 -74 67v199l-208 341q-18 31 -13.5 56t23 40.5t42.5 15.5q33 0 52.5 -20t44.5 -68l136 -245q40 37 63 62.5t33 48.5t10 51t-6 62t-6 50q0 25 21 42t51 17q36 0 55.5 -35.5t19.5 -103.5q0 -56 -14.5 -105t-52 -99t-107.5 -109v-200q0 -34 -16.5 -50.5
t-53.5 -16.5zM172 776q-13 0 -24.5 10.5t-11.5 23.5q0 8 5 16t18 15q4 2 22 13.5t43.5 28t53 34.5t49.5 34q8 5 15 7t13 2q24 0 39.5 -20t15.5 -46q0 -19 -12 -33.5t-40 -28.5q-17 -9 -44.5 -18.5t-57 -18t-52.5 -14t-32 -5.5z" />
    <glyph glyph-name="Thorn" unicode="&#xde;" horiz-adv-x="580" 
d="M141 -8q-34 0 -54 15t-20 41v607q0 26 20 41t54 15q70 0 70 -56v-137q23 28 49 39t71 11q104 0 158.5 -48.5t54.5 -152.5q0 -106 -55 -157.5t-157 -51.5q-55 0 -80.5 -5t-33 -23.5t-7.5 -57.5v-24q0 -56 -70 -56zM202 245q23 20 44 27t58 7q45 0 69.5 6.5t34.5 25
t10 54.5q0 54 -21 71.5t-75 17.5q-62 0 -86.5 -18.5t-24.5 -75.5q0 -41 -2 -63.5t-7 -51.5z" />
    <glyph glyph-name="germandbls" unicode="&#xdf;" horiz-adv-x="600" 
d="M134 -8q-74 0 -74 61v476q0 113 61 173t176 60q113 0 172.5 -56t59.5 -162q0 -53 -14.5 -88.5t-52.5 -56.5q47 -23 72.5 -70.5t25.5 -110.5q0 -106 -59 -166t-164 -60q-44 0 -62.5 13.5t-18.5 46.5q0 32 18 46t58 14q51 0 69.5 22t18.5 83q0 59 -24 91.5t-69 32.5
q-35 0 -54.5 14.5t-19.5 41.5q0 30 17.5 43t56.5 13q32 0 46 18t14 58q0 59 -21.5 86t-68.5 27q-49 0 -71 -27t-22 -86v-470q0 -35 -16.5 -51t-53.5 -16z" />
    <glyph glyph-name="agrave" unicode="&#xe0;" horiz-adv-x="493" 
d="M240 -8q-100 0 -156 46.5t-56 120.5q0 87 73.5 126t215.5 27q-7 46 -29 62.5t-53 16.5q-25 0 -41.5 -2.5t-30.5 -5.5t-34 -3q-27 0 -43 9.5t-16 38.5q0 41 35.5 60.5t112.5 19.5q122 0 181 -69.5t59 -185.5q0 -134 -48.5 -197.5t-169.5 -63.5zM172 159q0 -57 77 -57
q25 0 39 9t20.5 36t9.5 81q-5 -5 -13 -7t-16 -2q-66 0 -91.5 -12.5t-25.5 -47.5zM371 576q-9 0 -32 5.5t-52.5 14t-57 18t-44.5 18.5q-28 14 -40 28.5t-12 33.5q0 26 15.5 46t39.5 20q6 0 13.5 -2t14.5 -7q23 -16 50 -34t52.5 -34.5t43.5 -28t22 -13.5q13 -7 18 -15t5 -16
q0 -13 -11 -23.5t-25 -10.5z" />
    <glyph glyph-name="aacute" unicode="&#xe1;" horiz-adv-x="493" 
d="M240 -8q-100 0 -156 46.5t-56 120.5q0 87 73.5 126t215.5 27q-7 46 -29 62.5t-53 16.5q-25 0 -41.5 -2.5t-30.5 -5.5t-34 -3q-27 0 -43 9.5t-16 38.5q0 41 35.5 60.5t112.5 19.5q122 0 181 -69.5t59 -185.5q0 -134 -48.5 -197.5t-169.5 -63.5zM172 159q0 -57 77 -57
q25 0 39 9t20.5 36t9.5 81q-5 -5 -13 -7t-16 -2q-66 0 -91.5 -12.5t-25.5 -47.5zM139 576q-13 0 -24.5 10.5t-11.5 23.5q0 8 5 16t18 15q4 2 22 13.5t43.5 28t53 34.5t49.5 34q8 5 15 7t13 2q24 0 39.5 -20t15.5 -46q0 -19 -12 -33.5t-40 -28.5q-17 -9 -44.5 -18.5t-57 -18
t-52.5 -14t-32 -5.5z" />
    <glyph glyph-name="acircumflex" unicode="&#xe2;" horiz-adv-x="493" 
d="M240 -8q-100 0 -156 46.5t-56 120.5q0 87 73.5 126t215.5 27q-7 46 -29 62.5t-53 16.5q-25 0 -41.5 -2.5t-30.5 -5.5t-34 -3q-27 0 -43 9.5t-16 38.5q0 41 35.5 60.5t112.5 19.5q122 0 181 -69.5t59 -185.5q0 -134 -48.5 -197.5t-169.5 -63.5zM172 159q0 -57 77 -57
q25 0 39 9t20.5 36t9.5 81q-5 -5 -13 -7t-16 -2q-66 0 -91.5 -12.5t-25.5 -47.5zM305 739l70 -36q51 -25 51 -60q0 -25 -15.5 -40t-38.5 -15q-13 0 -28 9l-90 57l-90 -57q-15 -9 -28 -9q-23 0 -38 15t-15 40q0 36 50 60l70 36q22 11 36.5 14.5t29.5 0t36 -14.5z" />
    <glyph glyph-name="atilde" unicode="&#xe3;" horiz-adv-x="493" 
d="M240 -8q-100 0 -156 46.5t-56 120.5q0 87 73.5 126t215.5 27q-7 46 -29 62.5t-53 16.5q-25 0 -41.5 -2.5t-30.5 -5.5t-34 -3q-27 0 -43 9.5t-16 38.5q0 41 35.5 60.5t112.5 19.5q122 0 181 -69.5t59 -185.5q0 -134 -48.5 -197.5t-169.5 -63.5zM172 159q0 -57 77 -57
q25 0 39 9t20.5 36t9.5 81q-5 -5 -13 -7t-16 -2q-66 0 -91.5 -12.5t-25.5 -47.5zM119 572q-26 0 -38 12.5t-12 29.5q0 21 14 43.5t40.5 38t61.5 15.5t53 -9.5t35 -19.5q11 -7 22.5 -12.5t22.5 -5.5q15 0 23 7t13.5 16t13.5 16t23 7q26 0 38 -12.5t12 -29.5q0 -20 -14 -43
t-40 -38.5t-62 -15.5q-34 0 -52 9.5t-36 19.5q-11 6 -22.5 12t-22.5 6q-15 0 -23 -7t-13.5 -16t-13.5 -16t-23 -7z" />
    <glyph glyph-name="adieresis" unicode="&#xe4;" horiz-adv-x="493" 
d="M240 -8q-100 0 -156 46.5t-56 120.5q0 87 73.5 126t215.5 27q-7 46 -29 62.5t-53 16.5q-25 0 -41.5 -2.5t-30.5 -5.5t-34 -3q-27 0 -43 9.5t-16 38.5q0 41 35.5 60.5t112.5 19.5q122 0 181 -69.5t59 -185.5q0 -134 -48.5 -197.5t-169.5 -63.5zM172 159q0 -57 77 -57
q25 0 39 9t20.5 36t9.5 81q-5 -5 -13 -7t-16 -2q-66 0 -91.5 -12.5t-25.5 -47.5zM150 602q-31 0 -49.5 18.5t-18.5 47.5q0 30 18.5 48.5t49.5 18.5q30 0 48.5 -18.5t18.5 -48.5q0 -29 -18.5 -47.5t-48.5 -18.5zM359 602q-31 0 -49 18.5t-18 47.5q0 30 18 48.5t49 18.5
q30 0 49 -18.5t19 -48.5q0 -29 -19 -47.5t-49 -18.5z" />
    <glyph glyph-name="aring" unicode="&#xe5;" horiz-adv-x="493" 
d="M240 -8q-100 0 -156 46.5t-56 120.5q0 87 73.5 126t215.5 27q-7 46 -29 62.5t-53 16.5q-25 0 -41.5 -2.5t-30.5 -5.5t-34 -3q-27 0 -43 9.5t-16 38.5q0 41 35.5 60.5t112.5 19.5q122 0 181 -69.5t59 -185.5q0 -134 -48.5 -197.5t-169.5 -63.5zM172 159q0 -57 77 -57
q25 0 39 9t20.5 36t9.5 81q-5 -5 -13 -7t-16 -2q-66 0 -91.5 -12.5t-25.5 -47.5zM254 565q-48 0 -80 32t-32 81q0 48 32 80t80 32q49 0 81 -32t32 -80q0 -49 -32 -81t-81 -32zM255 640q17 0 27 10.5t10 27.5t-10 27t-27 10t-27.5 -10t-10.5 -27t10.5 -27.5t27.5 -10.5z" />
    <glyph glyph-name="ae" unicode="&#xe6;" horiz-adv-x="786" 
d="M240 -8q-100 0 -156 46.5t-56 120.5q0 87 73.5 126t215.5 27q-7 46 -29 62.5t-53 16.5q-25 0 -41.5 -2.5t-30.5 -5.5t-34 -3q-27 0 -43 9.5t-16 38.5q0 41 35.5 60.5t112.5 19.5q122 0 181 -69.5t59 -185.5q0 -134 -48.5 -197.5t-169.5 -63.5zM172 159q0 -57 77 -57
q25 0 39 9t20.5 36t9.5 81q-5 -5 -13 -7t-16 -2q-66 0 -91.5 -12.5t-25.5 -47.5zM581 -8q-100 0 -156.5 33t-80 91t-23.5 133q0 138 61 198.5t164 60.5q62 0 110 -21t75 -59.5t27 -93.5q0 -160 -228 -160h-58q8 -31 26.5 -48.5t65.5 -17.5q26 0 42 3t30.5 6t33.5 3
q27 0 43 -9.5t16 -38.5q0 -41 -35.5 -60.5t-112.5 -19.5zM465 248q8 11 18 14.5t31 3.5q59 0 81.5 11.5t22.5 41.5q0 38 -21 58.5t-53 20.5q-37 0 -58 -31t-21 -119z" />
    <glyph glyph-name="ccedilla" unicode="&#xe7;" horiz-adv-x="451" 
d="M273 -8q-122 0 -181 70.5t-59 186.5t59 187.5t181 71.5q77 0 112.5 -16t35.5 -57q0 -29 -16 -42t-43 -13q-19 0 -30 3t-23.5 5.5t-38.5 2.5q-35 0 -55.5 -21t-29 -53.5t-8.5 -67.5q0 -34 6.5 -66.5t26.5 -53t61 -20.5q38 0 56 5.5t35 5.5q27 0 43 -9.5t16 -38.5
q0 -41 -35.5 -60.5t-112.5 -19.5zM210 -236q-44 2 -67.5 17.5t-22.5 41.5q0 16 11 27.5t30 10.5q15 0 24.5 -5.5t24.5 -6.5q48 -1 50 30q1 17 -19 28.5t-50 12.5q-19 2 -19 21q1 9 8.5 27t19.5 38.5t24 36.5l86 -7l-39 -75q31 -4 52.5 -32t20.5 -62q-1 -50 -37.5 -77.5
t-96.5 -25.5z" />
    <glyph glyph-name="egrave" unicode="&#xe8;" horiz-adv-x="500" 
d="M295 -8q-100 0 -156.5 33t-80 91t-23.5 133q0 138 61 198.5t164 60.5q62 0 110 -21t75 -59.5t27 -93.5q0 -160 -228 -160h-58q8 -31 26.5 -48.5t65.5 -17.5q26 0 42 3t30.5 6t33.5 3q27 0 43 -9.5t16 -38.5q0 -41 -35.5 -60.5t-112.5 -19.5zM179 248q8 11 18 14.5t31 3.5
q59 0 81.5 11.5t22.5 41.5q0 38 -21 58.5t-53 20.5q-37 0 -58 -31t-21 -119zM366 576q-9 0 -32 5.5t-52.5 14t-57 18t-44.5 18.5q-28 14 -40 28.5t-12 33.5q0 26 15.5 46t39.5 20q6 0 13.5 -2t14.5 -7q23 -16 50 -34t52.5 -34.5t43.5 -28t22 -13.5q13 -7 18 -15t5 -16
q0 -13 -11 -23.5t-25 -10.5z" />
    <glyph glyph-name="eacute" unicode="&#xe9;" horiz-adv-x="500" 
d="M295 -8q-100 0 -156.5 33t-80 91t-23.5 133q0 138 61 198.5t164 60.5q62 0 110 -21t75 -59.5t27 -93.5q0 -160 -228 -160h-58q8 -31 26.5 -48.5t65.5 -17.5q26 0 42 3t30.5 6t33.5 3q27 0 43 -9.5t16 -38.5q0 -41 -35.5 -60.5t-112.5 -19.5zM179 248q8 11 18 14.5t31 3.5
q59 0 81.5 11.5t22.5 41.5q0 38 -21 58.5t-53 20.5q-37 0 -58 -31t-21 -119zM133 576q-13 0 -24.5 10.5t-11.5 23.5q0 8 5 16t18 15q4 2 22 13.5t43.5 28t53 34.5t49.5 34q8 5 15 7t13 2q24 0 39.5 -20t15.5 -46q0 -19 -12 -33.5t-40 -28.5q-17 -9 -44.5 -18.5t-57 -18
t-52.5 -14t-32 -5.5z" />
    <glyph glyph-name="ecircumflex" unicode="&#xea;" horiz-adv-x="500" 
d="M295 -8q-100 0 -156.5 33t-80 91t-23.5 133q0 138 61 198.5t164 60.5q62 0 110 -21t75 -59.5t27 -93.5q0 -160 -228 -160h-58q8 -31 26.5 -48.5t65.5 -17.5q26 0 42 3t30.5 6t33.5 3q27 0 43 -9.5t16 -38.5q0 -41 -35.5 -60.5t-112.5 -19.5zM179 248q8 11 18 14.5t31 3.5
q59 0 81.5 11.5t22.5 41.5q0 38 -21 58.5t-53 20.5q-37 0 -58 -31t-21 -119zM300 739l70 -36q51 -25 51 -60q0 -25 -15.5 -40t-38.5 -15q-13 0 -28 9l-90 57l-90 -57q-15 -9 -28 -9q-23 0 -38 15t-15 40q0 36 50 60l70 36q22 11 36.5 14.5t29.5 0t36 -14.5z" />
    <glyph glyph-name="edieresis" unicode="&#xeb;" horiz-adv-x="500" 
d="M295 -8q-100 0 -156.5 33t-80 91t-23.5 133q0 138 61 198.5t164 60.5q62 0 110 -21t75 -59.5t27 -93.5q0 -160 -228 -160h-58q8 -31 26.5 -48.5t65.5 -17.5q26 0 42 3t30.5 6t33.5 3q27 0 43 -9.5t16 -38.5q0 -41 -35.5 -60.5t-112.5 -19.5zM179 248q8 11 18 14.5t31 3.5
q59 0 81.5 11.5t22.5 41.5q0 38 -21 58.5t-53 20.5q-37 0 -58 -31t-21 -119zM145 602q-31 0 -49.5 18.5t-18.5 47.5q0 30 18.5 48.5t49.5 18.5q30 0 48.5 -18.5t18.5 -48.5q0 -29 -18.5 -47.5t-48.5 -18.5zM354 602q-31 0 -49 18.5t-18 47.5q0 30 18 48.5t49 18.5
q30 0 49 -18.5t19 -48.5q0 -29 -19 -47.5t-49 -18.5z" />
    <glyph glyph-name="igrave" unicode="&#xec;" horiz-adv-x="270" 
d="M135 -8q-39 0 -55.5 18.5t-16.5 49.5v380q0 32 16.5 50t55.5 18t55.5 -18t16.5 -50v-380q0 -31 -16.5 -49.5t-55.5 -18.5zM251 576q-9 0 -32 5.5t-52.5 14t-57 18t-44.5 18.5q-28 14 -40 28.5t-12 33.5q0 26 15.5 46t39.5 20q6 0 13.5 -2t14.5 -7q23 -16 50 -34
t52.5 -34.5t43.5 -28t22 -13.5q13 -7 18 -15t5 -16q0 -13 -11 -23.5t-25 -10.5z" />
    <glyph glyph-name="iacute" unicode="&#xed;" horiz-adv-x="270" 
d="M135 -8q-39 0 -55.5 18.5t-16.5 49.5v380q0 32 16.5 50t55.5 18t55.5 -18t16.5 -50v-380q0 -31 -16.5 -49.5t-55.5 -18.5zM19 576q-13 0 -24.5 10.5t-11.5 23.5q0 8 5 16t18 15q4 2 22 13.5t43.5 28t53 34.5t49.5 34q8 5 15 7t13 2q24 0 39.5 -20t15.5 -46
q0 -19 -12 -33.5t-40 -28.5q-17 -9 -44.5 -18.5t-57 -18t-52.5 -14t-32 -5.5z" />
    <glyph glyph-name="icircumflex" unicode="&#xee;" horiz-adv-x="270" 
d="M135 -8q-39 0 -55.5 18.5t-16.5 49.5v380q0 32 16.5 50t55.5 18t55.5 -18t16.5 -50v-380q0 -31 -16.5 -49.5t-55.5 -18.5zM185 739l70 -36q51 -25 51 -60q0 -25 -15.5 -40t-38.5 -15q-13 0 -28 9l-90 57l-90 -57q-15 -9 -28 -9q-23 0 -38 15t-15 40q0 36 50 60l70 36
q22 11 36.5 14.5t29.5 0t36 -14.5z" />
    <glyph glyph-name="idieresis" unicode="&#xef;" horiz-adv-x="270" 
d="M135 -8q-39 0 -55.5 18.5t-16.5 49.5v380q0 32 16.5 50t55.5 18t55.5 -18t16.5 -50v-380q0 -31 -16.5 -49.5t-55.5 -18.5zM30 602q-31 0 -49.5 18.5t-18.5 47.5q0 30 18.5 48.5t49.5 18.5q30 0 48.5 -18.5t18.5 -48.5q0 -29 -18.5 -47.5t-48.5 -18.5zM239 602
q-31 0 -49 18.5t-18 47.5q0 30 18 48.5t49 18.5q30 0 49 -18.5t19 -48.5q0 -29 -19 -47.5t-49 -18.5z" />
    <glyph glyph-name="eth" unicode="&#xf0;" horiz-adv-x="574" 
d="M275 -8q-69 0 -120 31t-79 87.5t-28 132.5q0 112 57 172.5t162 60.5q44 0 76 -16t50 -39q-6 96 -43 153l-67 -47q-10 -8 -20.5 -11.5t-19.5 -3.5q-22 0 -36 16.5t-14 35.5q0 25 22 41l53 37q-35 13 -78 13q-46 0 -63.5 11.5t-17.5 36.5q0 29 20.5 44t69.5 15
q97 0 169 -49l27 19q11 8 22 11.5t21 3.5q23 0 37 -15t14 -34q0 -26 -25 -44l-21 -14q41 -57 63 -138t22 -182t-30.5 -175t-87.5 -113.5t-135 -39.5zM277 124q45 0 70.5 31.5t25.5 87.5q0 55 -24.5 84t-71.5 29q-91 0 -91 -113q0 -58 23.5 -88.5t67.5 -30.5z" />
    <glyph glyph-name="ntilde" unicode="&#xf1;" horiz-adv-x="570" 
d="M133 -8q-72 0 -72 68v240q0 96 61.5 152t162.5 56t162.5 -56t61.5 -152v-240q0 -68 -72 -68t-72 68v232q0 47 -21 71.5t-59 24.5t-59 -24.5t-21 -71.5v-232q0 -68 -72 -68zM149 572q-26 0 -38 12.5t-12 29.5q0 21 14 43.5t40.5 38t61.5 15.5t53 -9.5t35 -19.5
q11 -7 22.5 -12.5t22.5 -5.5q15 0 23 7t13.5 16t13.5 16t23 7q26 0 38 -12.5t12 -29.5q0 -20 -14 -43t-40 -38.5t-62 -15.5q-34 0 -52 9.5t-36 19.5q-11 6 -22.5 12t-22.5 6q-15 0 -23 -7t-13.5 -16t-13.5 -16t-23 -7z" />
    <glyph glyph-name="ograve" unicode="&#xf2;" horiz-adv-x="532" 
d="M266 -8q-107 0 -169 61t-62 197q0 137 62 197.5t169 60.5t169 -60.5t62 -197.5q0 -136 -62 -197t-169 -61zM266 112q28 0 47 11.5t29.5 41.5t10.5 85t-10.5 85t-29.5 41.5t-47 11.5q-27 0 -46.5 -11.5t-30 -41.5t-10.5 -85t10.5 -85t30 -41.5t46.5 -11.5zM382 576
q-9 0 -32 5.5t-52.5 14t-57 18t-44.5 18.5q-28 14 -40 28.5t-12 33.5q0 26 15.5 46t39.5 20q6 0 13.5 -2t14.5 -7q23 -16 50 -34t52.5 -34.5t43.5 -28t22 -13.5q13 -7 18 -15t5 -16q0 -13 -11 -23.5t-25 -10.5z" />
    <glyph glyph-name="oacute" unicode="&#xf3;" horiz-adv-x="532" 
d="M266 -8q-107 0 -169 61t-62 197q0 137 62 197.5t169 60.5t169 -60.5t62 -197.5q0 -136 -62 -197t-169 -61zM266 112q28 0 47 11.5t29.5 41.5t10.5 85t-10.5 85t-29.5 41.5t-47 11.5q-27 0 -46.5 -11.5t-30 -41.5t-10.5 -85t10.5 -85t30 -41.5t46.5 -11.5zM150 576
q-13 0 -24.5 10.5t-11.5 23.5q0 8 5 16t18 15q4 2 22 13.5t43.5 28t53 34.5t49.5 34q8 5 15 7t13 2q24 0 39.5 -20t15.5 -46q0 -19 -12 -33.5t-40 -28.5q-17 -9 -44.5 -18.5t-57 -18t-52.5 -14t-32 -5.5z" />
    <glyph glyph-name="ocircumflex" unicode="&#xf4;" horiz-adv-x="532" 
d="M266 -8q-107 0 -169 61t-62 197q0 137 62 197.5t169 60.5t169 -60.5t62 -197.5q0 -136 -62 -197t-169 -61zM266 112q28 0 47 11.5t29.5 41.5t10.5 85t-10.5 85t-29.5 41.5t-47 11.5q-27 0 -46.5 -11.5t-30 -41.5t-10.5 -85t10.5 -85t30 -41.5t46.5 -11.5zM316 739l70 -36
q51 -25 51 -60q0 -25 -15.5 -40t-38.5 -15q-13 0 -28 9l-90 57l-90 -57q-15 -9 -28 -9q-23 0 -38 15t-15 40q0 36 50 60l70 36q22 11 36.5 14.5t29.5 0t36 -14.5z" />
    <glyph glyph-name="otilde" unicode="&#xf5;" horiz-adv-x="532" 
d="M266 -8q-107 0 -169 61t-62 197q0 137 62 197.5t169 60.5t169 -60.5t62 -197.5q0 -136 -62 -197t-169 -61zM266 112q28 0 47 11.5t29.5 41.5t10.5 85t-10.5 85t-29.5 41.5t-47 11.5q-27 0 -46.5 -11.5t-30 -41.5t-10.5 -85t10.5 -85t30 -41.5t46.5 -11.5zM130 572
q-26 0 -38 12.5t-12 29.5q0 21 14 43.5t40.5 38t61.5 15.5t53 -9.5t35 -19.5q11 -7 22.5 -12.5t22.5 -5.5q15 0 23 7t13.5 16t13.5 16t23 7q26 0 38 -12.5t12 -29.5q0 -20 -14 -43t-40 -38.5t-62 -15.5q-34 0 -52 9.5t-36 19.5q-11 6 -22.5 12t-22.5 6q-15 0 -23 -7
t-13.5 -16t-13.5 -16t-23 -7z" />
    <glyph glyph-name="odieresis" unicode="&#xf6;" horiz-adv-x="532" 
d="M266 -8q-107 0 -169 61t-62 197q0 137 62 197.5t169 60.5t169 -60.5t62 -197.5q0 -136 -62 -197t-169 -61zM266 112q28 0 47 11.5t29.5 41.5t10.5 85t-10.5 85t-29.5 41.5t-47 11.5q-27 0 -46.5 -11.5t-30 -41.5t-10.5 -85t10.5 -85t30 -41.5t46.5 -11.5zM161 602
q-31 0 -49.5 18.5t-18.5 47.5q0 30 18.5 48.5t49.5 18.5q30 0 48.5 -18.5t18.5 -48.5q0 -29 -18.5 -47.5t-48.5 -18.5zM370 602q-31 0 -49 18.5t-18 47.5q0 30 18 48.5t49 18.5q30 0 49 -18.5t19 -48.5q0 -29 -19 -47.5t-49 -18.5z" />
    <glyph glyph-name="divide" unicode="&#xf7;" horiz-adv-x="559" 
d="M280 435q-33 0 -52.5 20t-19.5 51q0 32 19.5 52t52.5 20q32 0 52 -20t20 -52q0 -31 -20 -51t-52 -20zM88 257q-31 0 -49.5 15.5t-18.5 46.5q0 32 18.5 47t49.5 15h383q32 0 50 -15t18 -47q0 -31 -18 -46.5t-50 -15.5h-383zM280 59q-33 0 -52.5 20t-19.5 51q0 32 19.5 52
t52.5 20q32 0 52 -20t20 -52q0 -31 -20 -51t-52 -20z" />
    <glyph glyph-name="oslash" unicode="&#xf8;" horiz-adv-x="532" 
d="M118 -20q-25 0 -40 12.5t-15 32.5q0 10 6 20l15 23q-24 31 -36.5 76t-12.5 106q0 137 62 199t169 62q59 0 104 -18l1 2q20 30 48 30q52 0 52 -43q0 -15 -9 -31l-13 -20q24 -31 36 -76t12 -105q0 -136 -62 -197t-169 -61q-57 0 -101 16q-18 -28 -47 -28zM165 250
q0 -54 10 -88l153 228q-12 11 -28 15.5t-34 4.5q-31 0 -53.5 -14t-35 -49t-12.5 -97zM266 93q31 0 53.5 13t35 47.5t12.5 96.5q0 45 -7 77l-148 -221q12 -7 25.5 -10t28.5 -3z" />
    <glyph glyph-name="ugrave" unicode="&#xf9;" horiz-adv-x="564" 
d="M282 -8q-66 0 -116 27t-77.5 76t-27.5 114v234q0 68 72 68t72 -68v-232q0 -47 20 -73t57 -26t57 26t20 73v232q0 68 72 68t72 -68v-234q0 -65 -27.5 -114t-77 -76t-116.5 -27zM398 576q-9 0 -32 5.5t-52.5 14t-57 18t-44.5 18.5q-28 14 -40 28.5t-12 33.5q0 26 15.5 46
t39.5 20q6 0 13.5 -2t14.5 -7q23 -16 50 -34t52.5 -34.5t43.5 -28t22 -13.5q13 -7 18 -15t5 -16q0 -13 -11 -23.5t-25 -10.5z" />
    <glyph glyph-name="uacute" unicode="&#xfa;" horiz-adv-x="564" 
d="M282 -8q-66 0 -116 27t-77.5 76t-27.5 114v234q0 68 72 68t72 -68v-232q0 -47 20 -73t57 -26t57 26t20 73v232q0 68 72 68t72 -68v-234q0 -65 -27.5 -114t-77 -76t-116.5 -27zM166 576q-13 0 -24.5 10.5t-11.5 23.5q0 8 5 16t18 15q4 2 22 13.5t43.5 28t53 34.5t49.5 34
q8 5 15 7t13 2q24 0 39.5 -20t15.5 -46q0 -19 -12 -33.5t-40 -28.5q-17 -9 -44.5 -18.5t-57 -18t-52.5 -14t-32 -5.5z" />
    <glyph glyph-name="ucircumflex" unicode="&#xfb;" horiz-adv-x="564" 
d="M282 -8q-66 0 -116 27t-77.5 76t-27.5 114v234q0 68 72 68t72 -68v-232q0 -47 20 -73t57 -26t57 26t20 73v232q0 68 72 68t72 -68v-234q0 -65 -27.5 -114t-77 -76t-116.5 -27zM332 739l70 -36q51 -25 51 -60q0 -25 -15.5 -40t-38.5 -15q-13 0 -28 9l-90 57l-90 -57
q-15 -9 -28 -9q-23 0 -38 15t-15 40q0 36 50 60l70 36q22 11 36.5 14.5t29.5 0t36 -14.5z" />
    <glyph glyph-name="udieresis" unicode="&#xfc;" horiz-adv-x="564" 
d="M282 -8q-66 0 -116 27t-77.5 76t-27.5 114v234q0 68 72 68t72 -68v-232q0 -47 20 -73t57 -26t57 26t20 73v232q0 68 72 68t72 -68v-234q0 -65 -27.5 -114t-77 -76t-116.5 -27zM177 602q-31 0 -49.5 18.5t-18.5 47.5q0 30 18.5 48.5t49.5 18.5q30 0 48.5 -18.5t18.5 -48.5
q0 -29 -18.5 -47.5t-48.5 -18.5zM386 602q-31 0 -49 18.5t-18 47.5q0 30 18 48.5t49 18.5q30 0 49 -18.5t19 -48.5q0 -29 -19 -47.5t-49 -18.5z" />
    <glyph glyph-name="yacute" unicode="&#xfd;" horiz-adv-x="532" 
d="M155 -230q-139 0 -139 80q0 29 16 38.5t43 9.5q28 0 49 -4.5t47 -4.5q29 0 41 7t12 26q0 12 -5 31t-19.5 56t-41.5 102l-125 303q-6 15 -6 32q0 34 25 49.5t52 15.5q25 0 40.5 -12.5t22.5 -32.5l125 -324q38 77 50.5 132t10.5 101q-1 29 -3.5 47.5t-3.5 23.5
q-4 32 19.5 48.5t55.5 16.5q29 0 44.5 -12.5t22.5 -34.5q5 -16 6.5 -36.5t1.5 -33.5q0 -52 -9.5 -106t-27 -101.5t-43.5 -82.5q-4 -5 -14.5 -20t-25.5 -29.5t-31 -20.5q17 -18 24 -47.5t7 -61.5q0 -68 -52.5 -111.5t-168.5 -43.5zM148 576q-13 0 -24.5 10.5t-11.5 23.5
q0 8 5 16t18 15q4 2 22 13.5t43.5 28t53 34.5t49.5 34q8 5 15 7t13 2q24 0 39.5 -20t15.5 -46q0 -19 -12 -33.5t-40 -28.5q-17 -9 -44.5 -18.5t-57 -18t-52.5 -14t-32 -5.5z" />
    <glyph glyph-name="thorn" unicode="&#xfe;" horiz-adv-x="565" 
d="M138 -230q-73 0 -73 78v837q0 78 67 78q73 0 73 -78v-217q13 17 38.5 30.5t68.5 13.5q96 0 157 -70t61 -205q0 -90 -26 -143.5t-72 -77.5t-106 -24q-52 0 -85.5 15t-52.5 46q7 -20 10.5 -39t5 -44t1.5 -64v-58q0 -78 -67 -78zM300 109q42 0 65.5 29.5t23.5 111.5
t-23.5 111.5t-65.5 29.5t-65.5 -29.5t-23.5 -111.5t23.5 -111.5t65.5 -29.5z" />
    <glyph glyph-name="ydieresis" unicode="&#xff;" horiz-adv-x="532" 
d="M155 -230q-139 0 -139 80q0 29 16 38.5t43 9.5q28 0 49 -4.5t47 -4.5q29 0 41 7t12 26q0 12 -5 31t-19.5 56t-41.5 102l-125 303q-6 15 -6 32q0 34 25 49.5t52 15.5q25 0 40.5 -12.5t22.5 -32.5l125 -324q38 77 50.5 132t10.5 101q-1 29 -3.5 47.5t-3.5 23.5
q-4 32 19.5 48.5t55.5 16.5q29 0 44.5 -12.5t22.5 -34.5q5 -16 6.5 -36.5t1.5 -33.5q0 -52 -9.5 -106t-27 -101.5t-43.5 -82.5q-4 -5 -14.5 -20t-25.5 -29.5t-31 -20.5q17 -18 24 -47.5t7 -61.5q0 -68 -52.5 -111.5t-168.5 -43.5zM159 602q-31 0 -49.5 18.5t-18.5 47.5
q0 30 18.5 48.5t49.5 18.5q30 0 48.5 -18.5t18.5 -48.5q0 -29 -18.5 -47.5t-48.5 -18.5zM368 602q-31 0 -49 18.5t-18 47.5q0 30 18 48.5t49 18.5q30 0 49 -18.5t19 -48.5q0 -29 -19 -47.5t-49 -18.5z" />
    <glyph glyph-name="Amacron" unicode="&#x100;" horiz-adv-x="603" 
d="M211 59q0 -67 -70 -67q-34 0 -54 17t-20 50v396q0 138 56 197t175 59q122 0 180 -60t58 -196v-396q0 -67 -70 -67q-34 0 -54 17t-20 50v241q-19 -17 -41.5 -29t-52.5 -12q-44 0 -65.5 -16t-21.5 -57v-127zM205 352q16 16 38.5 25t54.5 9q38 0 58.5 6t28.5 23t8 50
q0 74 -21 101.5t-75 27.5q-50 0 -68.5 -28.5t-18.5 -104.5q0 -39 -1 -66t-4 -43zM188 790q-23 0 -37 12.5t-14 40.5t14 40t37 12h220q23 0 37 -12t14 -40t-14 -40.5t-37 -12.5h-220z" />
    <glyph glyph-name="amacron" unicode="&#x101;" horiz-adv-x="493" 
d="M240 -8q-100 0 -156 46.5t-56 120.5q0 87 73.5 126t215.5 27q-7 46 -29 62.5t-53 16.5q-25 0 -41.5 -2.5t-30.5 -5.5t-34 -3q-27 0 -43 9.5t-16 38.5q0 41 35.5 60.5t112.5 19.5q122 0 181 -69.5t59 -185.5q0 -134 -48.5 -197.5t-169.5 -63.5zM172 159q0 -57 77 -57
q25 0 39 9t20.5 36t9.5 81q-5 -5 -13 -7t-16 -2q-66 0 -91.5 -12.5t-25.5 -47.5zM145 590q-23 0 -37 12.5t-14 40.5t14 40t37 12h220q23 0 37 -12t14 -40t-14 -40.5t-37 -12.5h-220z" />
    <glyph glyph-name="Abreve" unicode="&#x102;" horiz-adv-x="603" 
d="M211 59q0 -67 -70 -67q-34 0 -54 17t-20 50v396q0 138 56 197t175 59q122 0 180 -60t58 -196v-396q0 -67 -70 -67q-34 0 -54 17t-20 50v241q-19 -17 -41.5 -29t-52.5 -12q-44 0 -65.5 -16t-21.5 -57v-127zM205 352q16 16 38.5 25t54.5 9q38 0 58.5 6t28.5 23t8 50
q0 74 -21 101.5t-75 27.5q-50 0 -68.5 -28.5t-18.5 -104.5q0 -39 -1 -66t-4 -43zM350 911q-4 29 8.5 44t38.5 15q17 0 33.5 -14t16.5 -49q0 -61 -43.5 -93.5t-106.5 -32.5t-106 32.5t-43 93.5q0 35 16 49t33 14q26 0 39 -15t8 -44q-2 -15 11.5 -28t41.5 -13q29 0 42 13
t11 28z" />
    <glyph glyph-name="abreve" unicode="&#x103;" horiz-adv-x="493" 
d="M240 -8q-100 0 -156 46.5t-56 120.5q0 87 73.5 126t215.5 27q-7 46 -29 62.5t-53 16.5q-25 0 -41.5 -2.5t-30.5 -5.5t-34 -3q-27 0 -43 9.5t-16 38.5q0 41 35.5 60.5t112.5 19.5q122 0 181 -69.5t59 -185.5q0 -134 -48.5 -197.5t-169.5 -63.5zM172 159q0 -57 77 -57
q25 0 39 9t20.5 36t9.5 81q-5 -5 -13 -7t-16 -2q-66 0 -91.5 -12.5t-25.5 -47.5zM307 711q-4 29 8.5 44t38.5 15q17 0 33.5 -14t16.5 -49q0 -61 -43.5 -93.5t-106.5 -32.5t-106 32.5t-43 93.5q0 35 16 49t33 14q26 0 39 -15t8 -44q-2 -15 11.5 -28t41.5 -13q29 0 42 13
t11 28z" />
    <glyph glyph-name="Aogonek" unicode="&#x104;" horiz-adv-x="603" 
d="M211 59q0 -67 -70 -67q-34 0 -54 17t-20 50v396q0 138 56 197t175 59q122 0 180 -60t58 -196v-396q0 -21 -6 -35q-9 -20 -30 -33q-67 -42 -67 -93q0 -23 23 -37.5t63 -17.5q19 -1 29.5 -13t10.5 -31q0 -24 -15.5 -39.5t-39.5 -15.5q-70 0 -115 32.5t-45 83.5q0 88 71 147
q-23 17 -23 52v241q-19 -17 -41.5 -29t-52.5 -12q-44 0 -65.5 -16t-21.5 -57v-127zM205 352q16 16 38.5 25t54.5 9q38 0 58.5 6t28.5 23t8 50q0 74 -21 101.5t-75 27.5q-50 0 -68.5 -28.5t-18.5 -104.5q0 -39 -1 -66t-4 -43z" />
    <glyph glyph-name="aogonek" unicode="&#x105;" horiz-adv-x="493" 
d="M334 -256q-70 0 -115 32.5t-45 83.5q0 78 55 132q-95 3 -148 49t-53 118q0 87 73.5 126t215.5 27q-7 46 -29 62.5t-53 16.5q-25 0 -41.5 -2.5t-30.5 -5.5t-34 -3q-27 0 -43 9.5t-16 38.5q0 41 35.5 60.5t112.5 19.5q122 0 181 -69.5t59 -185.5q0 -82 -17 -137t-57 -85
q-20 -19 -54 -40q-67 -42 -67 -93q0 -23 23 -37.5t63 -17.5q19 -1 29.5 -13t10.5 -31q0 -24 -15.5 -39.5t-39.5 -15.5zM172 159q0 -57 77 -57q25 0 39 9t20.5 36t9.5 81q-5 -5 -13 -7t-16 -2q-66 0 -91.5 -12.5t-25.5 -47.5z" />
    <glyph glyph-name="Cacute" unicode="&#x106;" horiz-adv-x="533" 
d="M198 347q0 -119 29 -170.5t86 -51.5q36 0 63 5.5t49 5.5q40 0 58 -16.5t18 -42.5q0 -34 -24.5 -52t-62 -25t-76.5 -7q-108 0 -171.5 40t-91 118.5t-27.5 195.5t27.5 198.5t91 123.5t171.5 42q39 0 76.5 -7t62 -25t24.5 -52q0 -25 -18 -42t-58 -17q-22 0 -49 5.5t-63 5.5
q-70 0 -92.5 -56.5t-22.5 -175.5zM181 776q-13 0 -24.5 10.5t-11.5 23.5q0 8 5 16t18 15q4 2 22 13.5t43.5 28t53 34.5t49.5 34q8 5 15 7t13 2q24 0 39.5 -20t15.5 -46q0 -19 -12 -33.5t-40 -28.5q-17 -9 -44.5 -18.5t-57 -18t-52.5 -14t-32 -5.5z" />
    <glyph glyph-name="cacute" unicode="&#x107;" horiz-adv-x="451" 
d="M273 -8q-122 0 -181 70.5t-59 186.5t59 187.5t181 71.5q77 0 112.5 -16t35.5 -57q0 -29 -16 -42t-43 -13q-19 0 -30 3t-23.5 5.5t-38.5 2.5q-35 0 -55.5 -21t-29 -53.5t-8.5 -67.5q0 -34 6.5 -66.5t26.5 -53t61 -20.5q38 0 56 5.5t35 5.5q27 0 43 -9.5t16 -38.5
q0 -41 -35.5 -60.5t-112.5 -19.5zM150 576q-13 0 -24.5 10.5t-11.5 23.5q0 8 5 16t18 15q4 2 22 13.5t43.5 28t53 34.5t49.5 34q8 5 15 7t13 2q24 0 39.5 -20t15.5 -46q0 -19 -12 -33.5t-40 -28.5q-17 -9 -44.5 -18.5t-57 -18t-52.5 -14t-32 -5.5z" />
    <glyph glyph-name="Cdotaccent" unicode="&#x10a;" horiz-adv-x="533" 
d="M198 347q0 -119 29 -170.5t86 -51.5q36 0 63 5.5t49 5.5q40 0 58 -16.5t18 -42.5q0 -34 -24.5 -52t-62 -25t-76.5 -7q-108 0 -171.5 40t-91 118.5t-27.5 195.5t27.5 198.5t91 123.5t171.5 42q39 0 76.5 -7t62 -25t24.5 -52q0 -25 -18 -42t-58 -17q-22 0 -49 5.5t-63 5.5
q-70 0 -92.5 -56.5t-22.5 -175.5zM297 794q-37 0 -62 24t-25 59q0 37 25 61t62 24q38 0 62.5 -24t24.5 -61q0 -35 -24.5 -59t-62.5 -24z" />
    <glyph glyph-name="cdotaccent" unicode="&#x10b;" horiz-adv-x="451" 
d="M273 -8q-122 0 -181 70.5t-59 186.5t59 187.5t181 71.5q77 0 112.5 -16t35.5 -57q0 -29 -16 -42t-43 -13q-19 0 -30 3t-23.5 5.5t-38.5 2.5q-35 0 -55.5 -21t-29 -53.5t-8.5 -67.5q0 -34 6.5 -66.5t26.5 -53t61 -20.5q38 0 56 5.5t35 5.5q27 0 43 -9.5t16 -38.5
q0 -41 -35.5 -60.5t-112.5 -19.5zM266 594q-37 0 -62 24t-25 59q0 37 25 61t62 24q38 0 62.5 -24t24.5 -61q0 -35 -24.5 -59t-62.5 -24z" />
    <glyph glyph-name="Ccaron" unicode="&#x10c;" horiz-adv-x="533" 
d="M198 347q0 -119 29 -170.5t86 -51.5q36 0 63 5.5t49 5.5q40 0 58 -16.5t18 -42.5q0 -34 -24.5 -52t-62 -25t-76.5 -7q-108 0 -171.5 40t-91 118.5t-27.5 195.5t27.5 198.5t91 123.5t171.5 42q39 0 76.5 -7t62 -25t24.5 -52q0 -25 -18 -42t-58 -17q-22 0 -49 5.5t-63 5.5
q-70 0 -92.5 -56.5t-22.5 -175.5zM348 805q-21 -10 -36 -14t-29.5 -0.5t-36.5 14.5l-70 36q-50 24 -50 60q0 26 15 40.5t38 14.5q13 0 28 -9l90 -57l90 57q15 9 28 9q23 0 38.5 -14.5t15.5 -40.5q0 -35 -51 -60z" />
    <glyph glyph-name="ccaron" unicode="&#x10d;" horiz-adv-x="451" 
d="M273 -8q-122 0 -181 70.5t-59 186.5t59 187.5t181 71.5q77 0 112.5 -16t35.5 -57q0 -29 -16 -42t-43 -13q-19 0 -30 3t-23.5 5.5t-38.5 2.5q-35 0 -55.5 -21t-29 -53.5t-8.5 -67.5q0 -34 6.5 -66.5t26.5 -53t61 -20.5q38 0 56 5.5t35 5.5q27 0 43 -9.5t16 -38.5
q0 -41 -35.5 -60.5t-112.5 -19.5zM317 605q-21 -10 -36 -14t-29.5 -0.5t-36.5 14.5l-70 36q-50 24 -50 60q0 26 15 40.5t38 14.5q13 0 28 -9l90 -57l90 57q15 9 28 9q23 0 38.5 -14.5t15.5 -40.5q0 -35 -51 -60z" />
    <glyph glyph-name="Dcaron" unicode="&#x10e;" horiz-adv-x="615" 
d="M113 0q-19 0 -32.5 14.5t-13.5 36.5v446q0 104 56.5 159t163.5 55q280 0 280 -363q0 -177 -70 -262.5t-215 -85.5h-169zM211 118h71q74 0 107.5 57.5t33.5 185.5q0 122 -30.5 173.5t-103.5 51.5q-78 0 -78 -57v-411zM359 805q-21 -10 -36 -14t-29.5 -0.5t-36.5 14.5
l-70 36q-50 24 -50 60q0 26 15 40.5t38 14.5q13 0 28 -9l90 -57l90 57q15 9 28 9q23 0 38.5 -14.5t15.5 -40.5q0 -35 -51 -60z" />
    <glyph glyph-name="dcaron" unicode="&#x10f;" horiz-adv-x="644" 
d="M272 -8q-110 0 -173.5 70t-63.5 205q0 90 26 143t72.5 75.5t105.5 22.5q53 0 86 -13t52 -44q-7 21 -10.5 39.5t-5 43.5t-1.5 64v86q0 78 67 78q73 0 73 -78v-423q0 -135 -60 -202t-168 -67zM265 112q42 0 65.5 30t23.5 112q0 55 -10.5 83.5t-30.5 39.5t-48 11t-48 -11
t-30.5 -39.5t-10.5 -83.5q0 -82 23.5 -112t65.5 -30zM593 539q-11 -13 -26 -13q-12 0 -21 9q-7 7 -9.5 14t-1.5 23q0 -3 7.5 39.5t19.5 109.5q3 20 19.5 30t35.5 10t34.5 -12t15.5 -39q0 -25 -12.5 -58.5t-29.5 -64t-32 -48.5z" />
    <glyph glyph-name="Dcroat" unicode="&#x110;" horiz-adv-x="615" 
d="M113 0q-19 0 -32.5 14.5t-13.5 36.5v446q0 104 56.5 159t163.5 55q280 0 280 -363q0 -177 -70 -262.5t-215 -85.5h-169zM211 118h71q74 0 107.5 57.5t33.5 185.5q0 122 -30.5 173.5t-103.5 51.5q-78 0 -78 -57v-411zM37 299q-31 0 -49.5 12t-18.5 40t18.5 40t49.5 12h198
q32 0 50 -12t18 -40t-18 -40t-50 -12h-198z" />
    <glyph glyph-name="dcroat" unicode="&#x111;" horiz-adv-x="560" 
d="M272 -8q-110 0 -173.5 70t-63.5 205q0 90 26 143t72.5 75.5t105.5 22.5q53 0 86 -13t52 -44q-7 21 -10.5 39.5t-5 43.5t-1.5 64v86q0 78 67 78q73 0 73 -78v-423q0 -135 -60 -202t-168 -67zM265 112q42 0 65.5 30t23.5 112q0 55 -10.5 83.5t-30.5 39.5t-48 11t-48 -11
t-30.5 -39.5t-10.5 -83.5q0 -82 23.5 -112t65.5 -30zM329 562q-31 0 -49.5 12t-18.5 40t18.5 40t49.5 12h198q32 0 50 -12t18 -40t-18 -40t-50 -12h-198z" />
    <glyph glyph-name="Emacron" unicode="&#x112;" horiz-adv-x="544" 
d="M117 0q-19 0 -32 15t-13 38v468q0 94 58 136.5t187 42.5h125q33 0 51.5 -17.5t18.5 -49.5q0 -31 -18.5 -48t-51.5 -17h-132q-50 0 -72 -20t-22 -65q0 -16 -2 -39.5t-6 -53.5q17 14 43 22.5t51 8.5h99q28 0 43.5 -17t15.5 -47t-16 -48t-43 -18h-107q-46 0 -62 -18.5
t-16 -74.5v-66h226q37 0 53.5 -16t16.5 -52q0 -34 -16 -49t-54 -15h-325zM194 790q-23 0 -37 12.5t-14 40.5t14 40t37 12h220q23 0 37 -12t14 -40t-14 -40.5t-37 -12.5h-220z" />
    <glyph glyph-name="emacron" unicode="&#x113;" horiz-adv-x="500" 
d="M295 -8q-100 0 -156.5 33t-80 91t-23.5 133q0 138 61 198.5t164 60.5q62 0 110 -21t75 -59.5t27 -93.5q0 -160 -228 -160h-58q8 -31 26.5 -48.5t65.5 -17.5q26 0 42 3t30.5 6t33.5 3q27 0 43 -9.5t16 -38.5q0 -41 -35.5 -60.5t-112.5 -19.5zM179 248q8 11 18 14.5t31 3.5
q59 0 81.5 11.5t22.5 41.5q0 38 -21 58.5t-53 20.5q-37 0 -58 -31t-21 -119zM140 590q-23 0 -37 12.5t-14 40.5t14 40t37 12h220q23 0 37 -12t14 -40t-14 -40.5t-37 -12.5h-220z" />
    <glyph glyph-name="Edotaccent" unicode="&#x116;" horiz-adv-x="544" 
d="M117 0q-19 0 -32 15t-13 38v468q0 94 58 136.5t187 42.5h125q33 0 51.5 -17.5t18.5 -49.5q0 -31 -18.5 -48t-51.5 -17h-132q-50 0 -72 -20t-22 -65q0 -16 -2 -39.5t-6 -53.5q17 14 43 22.5t51 8.5h99q28 0 43.5 -17t15.5 -47t-16 -48t-43 -18h-107q-46 0 -62 -18.5
t-16 -74.5v-66h226q37 0 53.5 -16t16.5 -52q0 -34 -16 -49t-54 -15h-325zM304 794q-37 0 -62 24t-25 59q0 37 25 61t62 24q38 0 62.5 -24t24.5 -61q0 -35 -24.5 -59t-62.5 -24z" />
    <glyph glyph-name="edotaccent" unicode="&#x117;" horiz-adv-x="500" 
d="M295 -8q-100 0 -156.5 33t-80 91t-23.5 133q0 138 61 198.5t164 60.5q62 0 110 -21t75 -59.5t27 -93.5q0 -160 -228 -160h-58q8 -31 26.5 -48.5t65.5 -17.5q26 0 42 3t30.5 6t33.5 3q27 0 43 -9.5t16 -38.5q0 -41 -35.5 -60.5t-112.5 -19.5zM179 248q8 11 18 14.5t31 3.5
q59 0 81.5 11.5t22.5 41.5q0 38 -21 58.5t-53 20.5q-37 0 -58 -31t-21 -119zM250 594q-37 0 -62 24t-25 59q0 37 25 61t62 24q38 0 62.5 -24t24.5 -61q0 -35 -24.5 -59t-62.5 -24z" />
    <glyph glyph-name="Eogonek" unicode="&#x118;" horiz-adv-x="544" 
d="M117 0q-19 0 -32 15t-13 38v468q0 94 58 136.5t187 42.5h125q33 0 51.5 -17.5t18.5 -49.5q0 -31 -18.5 -48t-51.5 -17h-132q-50 0 -72 -20t-22 -65q0 -16 -2 -39.5t-6 -53.5q17 14 43 22.5t51 8.5h99q28 0 43.5 -17t15.5 -47t-16 -48t-43 -18h-107q-46 0 -62 -18.5
t-16 -74.5v-66h226q37 0 53.5 -16t16.5 -52v-1v0q0 -50 -36 -72q-67 -42 -67 -93q0 -23 23 -37.5t63 -17.5q19 -1 29.5 -13t10.5 -31q0 -24 -15.5 -39.5t-39.5 -15.5q-70 0 -115 32.5t-45 83.5q0 84 63 140h-266z" />
    <glyph glyph-name="eogonek" unicode="&#x119;" horiz-adv-x="500" 
d="M295 -8q-100 0 -156.5 33t-80 91t-23.5 133q0 138 61 198.5t164 60.5q62 0 110 -21t75 -59.5t27 -93.5q0 -160 -228 -160h-58q8 -31 26.5 -48.5t65.5 -17.5q26 0 42 3t30.5 6t33.5 3q27 0 43 -9t16 -37v0q0 -2 0 -1v-1v-4q-1 -18 -5.5 -28t-15.5 -19q-7 -6 -17 -11v0
q-31 -20 -49 -54.5t-18 -57.5t23 -37.5t63 -17.5q19 -1 29.5 -13t10.5 -31q0 -24 -15.5 -39.5t-39.5 -15.5q-70 0 -115 32.5t-45 83.5q0 39 13 72t37 60h-4zM179 248q8 11 18 14.5t31 3.5q59 0 81.5 11.5t22.5 41.5q0 38 -21 58.5t-53 20.5q-37 0 -58 -31t-21 -119z" />
    <glyph glyph-name="Ecaron" unicode="&#x11a;" horiz-adv-x="544" 
d="M117 0q-19 0 -32 15t-13 38v468q0 94 58 136.5t187 42.5h125q33 0 51.5 -17.5t18.5 -49.5q0 -31 -18.5 -48t-51.5 -17h-132q-50 0 -72 -20t-22 -65q0 -16 -2 -39.5t-6 -53.5q17 14 43 22.5t51 8.5h99q28 0 43.5 -17t15.5 -47t-16 -48t-43 -18h-107q-46 0 -62 -18.5
t-16 -74.5v-66h226q37 0 53.5 -16t16.5 -52q0 -34 -16 -49t-54 -15h-325zM355 805q-21 -10 -36 -14t-29.5 -0.5t-36.5 14.5l-70 36q-50 24 -50 60q0 26 15 40.5t38 14.5q13 0 28 -9l90 -57l90 57q15 9 28 9q23 0 38.5 -14.5t15.5 -40.5q0 -35 -51 -60z" />
    <glyph glyph-name="ecaron" unicode="&#x11b;" horiz-adv-x="500" 
d="M295 -8q-100 0 -156.5 33t-80 91t-23.5 133q0 138 61 198.5t164 60.5q62 0 110 -21t75 -59.5t27 -93.5q0 -160 -228 -160h-58q8 -31 26.5 -48.5t65.5 -17.5q26 0 42 3t30.5 6t33.5 3q27 0 43 -9.5t16 -38.5q0 -41 -35.5 -60.5t-112.5 -19.5zM179 248q8 11 18 14.5t31 3.5
q59 0 81.5 11.5t22.5 41.5q0 38 -21 58.5t-53 20.5q-37 0 -58 -31t-21 -119zM301 605q-21 -10 -36 -14t-29.5 -0.5t-36.5 14.5l-70 36q-50 24 -50 60q0 26 15 40.5t38 14.5q13 0 28 -9l90 -57l90 57q15 9 28 9q23 0 38.5 -14.5t15.5 -40.5q0 -35 -51 -60z" />
    <glyph glyph-name="Gbreve" unicode="&#x11e;" horiz-adv-x="613" 
d="M338 -7q-108 0 -171.5 40t-91 118.5t-27.5 195.5t27.5 198.5t91 123.5t171.5 42q39 0 76.5 -7t62 -25t24.5 -52q0 -25 -18 -42t-58 -17q-22 0 -49 5.5t-63 5.5q-70 0 -92.5 -56.5t-22.5 -175.5t29 -170.5t86 -51.5q120 0 120 101q0 46 14 63l-70 -1q-31 -1 -47.5 12
t-16.5 45t16.5 45t47.5 13h106q35 0 52 -8.5t22.5 -35t5.5 -79.5q0 -93 -19 -157t-67.5 -97t-138.5 -33zM363 911q-4 29 8.5 44t38.5 15q17 0 33.5 -14t16.5 -49q0 -61 -43.5 -93.5t-106.5 -32.5t-106 32.5t-43 93.5q0 35 16 49t33 14q26 0 39 -15t8 -44q-2 -15 11.5 -28
t41.5 -13q29 0 42 13t11 28z" />
    <glyph glyph-name="gbreve" unicode="&#x11f;" horiz-adv-x="558" 
d="M494 -61q0 -85 -80 -127t-229 -42q-77 0 -112.5 19.5t-35.5 60.5q0 29 16 38.5t43 9.5q20 0 34 -2.5t30.5 -5t41.5 -2.5q79 0 113.5 12t34.5 49q0 31 -25 50t-63 19q-230 0 -230 245q0 125 58 185t173 60q76 0 126 -26q24 90 102 90q38 0 58.5 -19.5t20.5 -56.5
q0 -34 -20 -49t-64 -15q-19 0 -35 -3q43 -60 43 -167q0 -67 -19.5 -111t-71.5 -73q50 -18 70.5 -55.5t20.5 -83.5zM176 263q0 -125 87 -125t87 125q0 65 -21.5 95t-65.5 30q-43 0 -65 -30t-22 -95zM331 711q-4 29 8.5 44t38.5 15q17 0 33.5 -14t16.5 -49q0 -61 -43.5 -93.5
t-106.5 -32.5t-106 32.5t-43 93.5q0 35 16 49t33 14q26 0 39 -15t8 -44q-2 -15 11.5 -28t41.5 -13q29 0 42 13t11 28z" />
    <glyph glyph-name="Gdotaccent" unicode="&#x120;" horiz-adv-x="613" 
d="M338 -7q-108 0 -171.5 40t-91 118.5t-27.5 195.5t27.5 198.5t91 123.5t171.5 42q39 0 76.5 -7t62 -25t24.5 -52q0 -25 -18 -42t-58 -17q-22 0 -49 5.5t-63 5.5q-70 0 -92.5 -56.5t-22.5 -175.5t29 -170.5t86 -51.5q120 0 120 101q0 46 14 63l-70 -1q-31 -1 -47.5 12
t-16.5 45t16.5 45t47.5 13h106q35 0 52 -8.5t22.5 -35t5.5 -79.5q0 -93 -19 -157t-67.5 -97t-138.5 -33zM311 794q-37 0 -62 24t-25 59q0 37 25 61t62 24q38 0 62.5 -24t24.5 -61q0 -35 -24.5 -59t-62.5 -24z" />
    <glyph glyph-name="gdotaccent" unicode="&#x121;" horiz-adv-x="558" 
d="M494 -61q0 -85 -80 -127t-229 -42q-77 0 -112.5 19.5t-35.5 60.5q0 29 16 38.5t43 9.5q20 0 34 -2.5t30.5 -5t41.5 -2.5q79 0 113.5 12t34.5 49q0 31 -25 50t-63 19q-230 0 -230 245q0 125 58 185t173 60q76 0 126 -26q24 90 102 90q38 0 58.5 -19.5t20.5 -56.5
q0 -34 -20 -49t-64 -15q-19 0 -35 -3q43 -60 43 -167q0 -67 -19.5 -111t-71.5 -73q50 -18 70.5 -55.5t20.5 -83.5zM176 263q0 -125 87 -125t87 125q0 65 -21.5 95t-65.5 30q-43 0 -65 -30t-22 -95zM279 594q-37 0 -62 24t-25 59q0 37 25 61t62 24q38 0 62.5 -24t24.5 -61
q0 -35 -24.5 -59t-62.5 -24z" />
    <glyph glyph-name="uni0122" unicode="&#x122;" horiz-adv-x="613" 
d="M338 -7q-108 0 -171.5 40t-91 118.5t-27.5 195.5t27.5 198.5t91 123.5t171.5 42q39 0 76.5 -7t62 -25t24.5 -52q0 -25 -18 -42t-58 -17q-22 0 -49 5.5t-63 5.5q-70 0 -92.5 -56.5t-22.5 -175.5t29 -170.5t86 -51.5q120 0 120 101q0 46 14 63l-70 -1q-31 -1 -47.5 12
t-16.5 45t16.5 45t47.5 13h106q35 0 52 -8.5t22.5 -35t5.5 -79.5q0 -93 -19 -157t-67.5 -97t-138.5 -33zM272 -275q-17 -1 -26.5 6t-10.5 18v10t2.5 24t7.5 48t15 81q5 23 19 34.5t31 12.5q20 2 38 -9t20 -32q1 -11 -4 -25l-54 -134q-4 -8 -10.5 -20t-27.5 -14z" />
    <glyph glyph-name="uni0123" unicode="&#x123;" horiz-adv-x="558" 
d="M494 -61q0 -85 -80 -127t-229 -42q-77 0 -112.5 19.5t-35.5 60.5q0 29 16 38.5t43 9.5q20 0 34 -2.5t30.5 -5t41.5 -2.5q79 0 113.5 12t34.5 49q0 31 -25 50t-63 19q-230 0 -230 245q0 125 58 185t173 60q76 0 126 -26q24 90 102 90q38 0 58.5 -19.5t20.5 -56.5
q0 -34 -20 -49t-64 -15q-19 0 -35 -3q43 -60 43 -167q0 -67 -19.5 -111t-71.5 -73q50 -18 70.5 -55.5t20.5 -83.5zM176 263q0 -125 87 -125t87 125q0 65 -21.5 95t-65.5 30q-43 0 -65 -30t-22 -95zM293 835q16 2 25.5 -4.5t11.5 -17.5v-10.5t-1 -25t-4.5 -50t-9.5 -83.5
q-3 -24 -16 -36.5t-30 -14.5q-19 -3 -37 8t-21 32q-2 11 3 26l44 139q3 9 8.5 21.5t26.5 15.5z" />
    <glyph glyph-name="Hbar" unicode="&#x126;" horiz-adv-x="652" 
d="M143 -8q-74 0 -74 67v402q-30 1 -47.5 13t-17.5 39q0 28 18 40t47 12v79q0 35 17 51t54 16q73 0 73 -67v-79h226v79q0 35 17 51t54 16q73 0 73 -67v-79q30 -1 47.5 -13t17.5 -39q0 -28 -18 -40t-47 -12v-402q0 -34 -16.5 -50.5t-53.5 -16.5q-74 0 -74 67v226
q-6 -18 -39 -29.5t-77 -11.5q-62 0 -86 -24.5t-24 -94.5v-66q0 -34 -16.5 -50.5t-53.5 -16.5zM439 372v89h-226q0 -111 -7 -135q26 26 55.5 36t79.5 10h98z" />
    <glyph glyph-name="hbar" unicode="&#x127;" horiz-adv-x="569" 
d="M204 59q0 -67 -70 -67q-34 0 -54 17t-20 50v625q0 78 73 78q72 0 72 -78v-107q0 -28 -6 -54t-20 -54q17 21 45 30t65 9q66 0 115 -26t76.5 -72.5t27.5 -110.5v-240q0 -67 -70 -67q-34 0 -54 17t-20 50v234q0 47 -21.5 71t-59.5 24q-37 0 -58 -24.5t-21 -70.5v-234z
M42 568q-31 0 -49.5 12t-18.5 40t18.5 40t49.5 12h198q32 0 50 -12t18 -40t-18 -40t-50 -12h-198z" />
    <glyph glyph-name="Imacron" unicode="&#x12a;" horiz-adv-x="288" 
d="M146 -8q-74 0 -74 67v585q0 35 17 51t54 16q73 0 73 -67v-585q0 -34 -16.5 -50.5t-53.5 -16.5zM34 790q-23 0 -37 12.5t-14 40.5t14 40t37 12h220q23 0 37 -12t14 -40t-14 -40.5t-37 -12.5h-220z" />
    <glyph glyph-name="imacron" unicode="&#x12b;" horiz-adv-x="270" 
d="M135 -8q-39 0 -55.5 18.5t-16.5 49.5v380q0 32 16.5 50t55.5 18t55.5 -18t16.5 -50v-380q0 -31 -16.5 -49.5t-55.5 -18.5zM25 590q-23 0 -37 12.5t-14 40.5t14 40t37 12h220q23 0 37 -12t14 -40t-14 -40.5t-37 -12.5h-220z" />
    <glyph glyph-name="Iogonek" unicode="&#x12e;" horiz-adv-x="288" 
d="M184 -256q-70 0 -115 32.5t-45 83.5q0 88 70 146q-22 16 -22 53v585q0 35 17 51t54 16q73 0 73 -67v-585v-9q-2 -23 -9.5 -35t-26.5 -24q-67 -42 -67 -93q0 -23 23 -37.5t63 -17.5q19 -1 29.5 -13t10.5 -31q0 -24 -15.5 -39.5t-39.5 -15.5z" />
    <glyph glyph-name="iogonek" unicode="&#x12f;" horiz-adv-x="270" 
d="M135 594q-37 0 -62 24t-25 59q0 37 25 61t62 24q38 0 62.5 -24t24.5 -61q0 -35 -24.5 -59t-62.5 -24zM175 -256q-70 0 -115 32.5t-45 83.5q0 94 74 143q-26 16 -26 57v380q0 32 16.5 50t55.5 18t55.5 -18t16.5 -50v-380q0 -45 -32 -60q-32 -22 -51.5 -52t-19.5 -50
q0 -23 23 -37.5t63 -17.5q19 -1 29.5 -13t10.5 -31q0 -24 -15.5 -39.5t-39.5 -15.5z" />
    <glyph glyph-name="Idotaccent" unicode="&#x130;" horiz-adv-x="288" 
d="M146 -8q-74 0 -74 67v585q0 35 17 51t54 16q73 0 73 -67v-585q0 -34 -16.5 -50.5t-53.5 -16.5zM144 794q-37 0 -62 24t-25 59q0 37 25 61t62 24q38 0 62.5 -24t24.5 -61q0 -35 -24.5 -59t-62.5 -24z" />
    <glyph glyph-name="dotlessi" unicode="&#x131;" horiz-adv-x="270" 
d="M135 -8q-39 0 -55.5 18.5t-16.5 49.5v380q0 32 16.5 50t55.5 18t55.5 -18t16.5 -50v-380q0 -31 -16.5 -49.5t-55.5 -18.5z" />
    <glyph glyph-name="IJ" unicode="&#x132;" horiz-adv-x="554" 
d="M146 108q-74 0 -74 67v469q0 35 17 51t54 16q73 0 73 -67v-469q0 -34 -16.5 -50.5t-53.5 -16.5zM256 -119q-38 0 -74 6t-61 16q-42 18 -42 57q0 29 17.5 44.5t56.5 15.5q23 0 53.5 -3.5t54.5 -3.5q43 0 60 19.5t17 67.5v533q0 78 72 78t72 -78v-555q0 -197 -226 -197z
" />
    <glyph glyph-name="ij" unicode="&#x133;" horiz-adv-x="536" 
d="M135 594q-37 0 -62 24t-25 59q0 37 25 61t62 24q38 0 62.5 -24t24.5 -61q0 -35 -24.5 -59t-62.5 -24zM207 59q0 -67 -70 -67q-34 0 -54 16.5t-20 50.5v381q0 32 16.5 50t55.5 18t55.5 -18t16.5 -50v-381zM401 594q-37 0 -62 24t-25 59q0 37 25 61t62 24q38 0 62.5 -24
t24.5 -61q0 -35 -24.5 -59t-62.5 -24zM402 510q39 0 55.5 -22.5t16.5 -56.5v-403q0 -115 -49.5 -186t-153.5 -72h-11q-81 2 -118 23.5t-37 66.5q0 33 17.5 43.5t48.5 10.5q27 0 46 -4.5t47 -6.5h6q40 0 52 30.5t12 74.5v423q0 41 17.5 60t50.5 19z" />
    <glyph glyph-name="uni0136" unicode="&#x136;" horiz-adv-x="595" 
d="M477 -8q-75 0 -75 70v155q0 48 -19.5 72.5t-66.5 24.5q-51 0 -75.5 -21t-24.5 -73v-150q0 -78 -72 -78t-72 78v563q0 78 72 78t72 -78v-235q14 14 29 22t50 18q50 14 69 59t19 144q0 37 16 53.5t51 16.5q74 0 74 -75q0 -100 -21 -162.5t-65 -96.5q107 -46 107 -162v-153
q0 -70 -68 -70zM259 -275q-17 -1 -26.5 6t-10.5 18v10t2.5 24t7.5 48t15 81q5 23 19 34.5t31 12.5q20 2 38 -9t20 -32q1 -11 -4 -25l-54 -134q-4 -8 -10.5 -20t-27.5 -14z" />
    <glyph glyph-name="uni0137" unicode="&#x137;" horiz-adv-x="550" 
d="M132 -8q-39 0 -55.5 21t-16.5 57v614q0 36 16.5 57t55.5 21t55.5 -21t16.5 -57v-372q53 32 94 72.5t56 77.5q14 34 40 46t57 -3q43 -21 40 -64q-1 -36 -32.5 -80.5t-77.5 -76.5q58 -20 93.5 -72.5t35.5 -151.5q0 -68 -71 -68q-73 0 -73 68q0 73 -23 107t-61 34
q-35 0 -56.5 -26t-21.5 -90q0 -58 -17 -75.5t-55 -17.5zM236 -275q-17 -1 -26.5 6t-10.5 18v10t2.5 24t7.5 48t15 81q5 23 19 34.5t31 12.5q20 2 38 -9t20 -32q1 -11 -4 -25l-54 -134q-4 -8 -10.5 -20t-27.5 -14z" />
    <glyph glyph-name="Lacute" unicode="&#x139;" horiz-adv-x="516" 
d="M144 0q-72 0 -72 78v555q0 78 72 78t72 -78v-444q0 -16 -2.5 -40.5t-5.5 -40.5q26 31 64 31h147q37 0 57 -18t20 -52q0 -69 -77 -69h-275zM142 776q-13 0 -24.5 10.5t-11.5 23.5q0 8 5 16t18 15q4 2 22 13.5t43.5 28t53 34.5t49.5 34q8 5 15 7t13 2q24 0 39.5 -20
t15.5 -46q0 -19 -12 -33.5t-40 -28.5q-17 -9 -44.5 -18.5t-57 -18t-52.5 -14t-32 -5.5z" />
    <glyph glyph-name="lacute" unicode="&#x13a;" horiz-adv-x="274" 
d="M209 59q0 -67 -70 -67q-34 0 -54 17t-20 50v625q0 36 16.5 57t55.5 21t55.5 -21t16.5 -57v-625zM21 826q-13 0 -24.5 10.5t-11.5 23.5q0 8 5 16t18 15q4 2 22 13.5t43.5 28t53 34.5t49.5 34q8 5 15 7t13 2q24 0 39.5 -20t15.5 -46q0 -19 -12 -33.5t-40 -28.5
q-17 -9 -44.5 -18.5t-57 -18t-52.5 -14t-32 -5.5z" />
    <glyph glyph-name="uni013B" unicode="&#x13b;" horiz-adv-x="516" 
d="M144 0q-72 0 -72 78v555q0 78 72 78t72 -78v-444q0 -16 -2.5 -40.5t-5.5 -40.5q26 31 64 31h147q37 0 57 -18t20 -52q0 -69 -77 -69h-275zM219 -275q-17 -1 -26.5 6t-10.5 18v10t2.5 24t7.5 48t15 81q5 23 19 34.5t31 12.5q20 2 38 -9t20 -32q1 -11 -4 -25l-54 -134
q-4 -8 -10.5 -20t-27.5 -14z" />
    <glyph glyph-name="uni013C" unicode="&#x13c;" horiz-adv-x="274" 
d="M209 59q0 -67 -70 -67q-34 0 -54 17t-20 50v625q0 36 16.5 57t55.5 21t55.5 -21t16.5 -57v-625zM98 -275q-17 -1 -26.5 6t-10.5 18v10t2.5 24t7.5 48t15 81q5 23 19 34.5t31 12.5q20 2 38 -9t20 -32q1 -11 -4 -25l-54 -134q-4 -8 -10.5 -20t-27.5 -14z" />
    <glyph glyph-name="Lcaron" unicode="&#x13d;" horiz-adv-x="516" 
d="M144 0q-72 0 -72 78v555q0 78 72 78t72 -78v-444q0 -16 -2.5 -40.5t-5.5 -40.5q26 31 64 31h147q37 0 57 -18t20 -52q0 -69 -77 -69h-275zM434 539q-11 -13 -26 -13q-12 0 -21 9q-7 7 -9.5 14t-1.5 23q0 -3 7.5 39.5t19.5 109.5q3 20 19.5 30t35.5 10t34.5 -12t15.5 -39
q0 -25 -12.5 -58.5t-29.5 -64t-32 -48.5z" />
    <glyph glyph-name="lcaron" unicode="&#x13e;" horiz-adv-x="348" 
d="M207 59q0 -67 -70 -67q-34 0 -54 17t-20 50v625q0 36 16.5 57t55.5 21t55.5 -21t16.5 -57v-625zM312 543q-10 -14 -25 -15q-12 -1 -22 7q-7 6 -10.5 13t-3.5 23q0 -3 4 39.5t10 111.5q1 19 17 31t34 13q19 2 35.5 -8.5t19.5 -37.5q2 -25 -7.5 -59.5t-24 -66.5t-27.5 -51z
" />
    <glyph glyph-name="Lslash" unicode="&#x141;" horiz-adv-x="536" 
d="M164 0q-72 0 -72 78v210q-28 -13 -50 -9t-33 29q-11 26 1 44t40 31l42 19v231q0 78 72 78t72 -78v-167l50 22q29 13 50.5 9.5t32.5 -29.5q11 -25 -0.5 -43.5t-40.5 -31.5l-92 -41v-163q0 -16 -2.5 -40.5t-5.5 -40.5q26 31 64 31h147q37 0 57 -18t20 -52q0 -69 -77 -69
h-275z" />
    <glyph glyph-name="lslash" unicode="&#x142;" horiz-adv-x="389" 
d="M264 59q0 -67 -70 -67q-34 0 -54 17t-20 50v268l-24 -8q-30 -10 -51 -4t-30 33q-8 26 5.5 43t43.5 27l56 18v248q0 36 16.5 57t55.5 21t55.5 -21t16.5 -57v-201l36 12q30 10 51 4t30 -33q8 -26 -5.5 -43t-43.5 -27l-68 -22v-315z" />
    <glyph glyph-name="Nacute" unicode="&#x143;" horiz-adv-x="648" 
d="M211 59q0 -67 -70 -67q-34 0 -54 17t-20 50v393q0 94 25 150.5t82 82.5t152 26q126 0 190.5 -58.5t64.5 -200.5v-393q0 -67 -70 -67q-34 0 -54 17t-20 50v393q0 74 -25.5 105.5t-85.5 31.5q-47 0 -72 -14t-34 -44t-9 -79v-393zM208 776q-13 0 -24.5 10.5t-11.5 23.5
q0 8 5 16t18 15q4 2 22 13.5t43.5 28t53 34.5t49.5 34q8 5 15 7t13 2q24 0 39.5 -20t15.5 -46q0 -19 -12 -33.5t-40 -28.5q-17 -9 -44.5 -18.5t-57 -18t-52.5 -14t-32 -5.5z" />
    <glyph glyph-name="nacute" unicode="&#x144;" horiz-adv-x="570" 
d="M133 -8q-72 0 -72 68v240q0 96 61.5 152t162.5 56t162.5 -56t61.5 -152v-240q0 -68 -72 -68t-72 68v232q0 47 -21 71.5t-59 24.5t-59 -24.5t-21 -71.5v-232q0 -68 -72 -68zM169 576q-13 0 -24.5 10.5t-11.5 23.5q0 8 5 16t18 15q4 2 22 13.5t43.5 28t53 34.5t49.5 34
q8 5 15 7t13 2q24 0 39.5 -20t15.5 -46q0 -19 -12 -33.5t-40 -28.5q-17 -9 -44.5 -18.5t-57 -18t-52.5 -14t-32 -5.5z" />
    <glyph glyph-name="uni0145" unicode="&#x145;" horiz-adv-x="648" 
d="M211 59q0 -67 -70 -67q-34 0 -54 17t-20 50v393q0 94 25 150.5t82 82.5t152 26q126 0 190.5 -58.5t64.5 -200.5v-393q0 -67 -70 -67q-34 0 -54 17t-20 50v393q0 74 -25.5 105.5t-85.5 31.5q-47 0 -72 -14t-34 -44t-9 -79v-393zM285 -275q-17 -1 -26.5 6t-10.5 18v10
t2.5 24t7.5 48t15 81q5 23 19 34.5t31 12.5q20 2 38 -9t20 -32q1 -11 -4 -25l-54 -134q-4 -8 -10.5 -20t-27.5 -14z" />
    <glyph glyph-name="uni0146" unicode="&#x146;" horiz-adv-x="570" 
d="M133 -8q-72 0 -72 68v240q0 96 61.5 152t162.5 56t162.5 -56t61.5 -152v-240q0 -68 -72 -68t-72 68v232q0 47 -21 71.5t-59 24.5t-59 -24.5t-21 -71.5v-232q0 -68 -72 -68zM246 -275q-17 -1 -26.5 6t-10.5 18v10t2.5 24t7.5 48t15 81q5 23 19 34.5t31 12.5q20 2 38 -9
t20 -32q1 -11 -4 -25l-54 -134q-4 -8 -10.5 -20t-27.5 -14z" />
    <glyph glyph-name="Ncaron" unicode="&#x147;" horiz-adv-x="648" 
d="M211 59q0 -67 -70 -67q-34 0 -54 17t-20 50v393q0 94 25 150.5t82 82.5t152 26q126 0 190.5 -58.5t64.5 -200.5v-393q0 -67 -70 -67q-34 0 -54 17t-20 50v393q0 74 -25.5 105.5t-85.5 31.5q-47 0 -72 -14t-34 -44t-9 -79v-393zM375 805q-21 -10 -36 -14t-29.5 -0.5
t-36.5 14.5l-70 36q-50 24 -50 60q0 26 15 40.5t38 14.5q13 0 28 -9l90 -57l90 57q15 9 28 9q23 0 38.5 -14.5t15.5 -40.5q0 -35 -51 -60z" />
    <glyph glyph-name="ncaron" unicode="&#x148;" horiz-adv-x="570" 
d="M133 -8q-72 0 -72 68v240q0 96 61.5 152t162.5 56t162.5 -56t61.5 -152v-240q0 -68 -72 -68t-72 68v232q0 47 -21 71.5t-59 24.5t-59 -24.5t-21 -71.5v-232q0 -68 -72 -68zM336 605q-21 -10 -36 -14t-29.5 -0.5t-36.5 14.5l-70 36q-50 24 -50 60q0 26 15 40.5t38 14.5
q13 0 28 -9l90 -57l90 57q15 9 28 9q23 0 38.5 -14.5t15.5 -40.5q0 -35 -51 -60z" />
    <glyph glyph-name="Eng" unicode="&#x14a;" horiz-adv-x="648" 
d="M211 59q0 -67 -70 -67q-34 0 -54 17t-20 50v393q0 94 25 150.5t82 82.5t152 26q126 0 190.5 -58.5t64.5 -200.5v-461q0 -103 -48.5 -150t-155.5 -47q-33 0 -64.5 5.5t-52 22t-20.5 50.5q0 36 18.5 47t51 10t74.5 -1q33 0 43 18.5t10 65.5v440q0 74 -25.5 105.5
t-85.5 31.5q-47 0 -72 -14t-34 -44t-9 -79v-393z" />
    <glyph glyph-name="eng" unicode="&#x14b;" horiz-adv-x="570" 
d="M133 -8q-72 0 -72 68v240q0 96 61.5 152t162.5 56t162.5 -56t61.5 -152v-240q0 -68 -72 -68t-72 68v232q0 47 -21 71.5t-59 24.5t-59 -24.5t-21 -71.5v-232q0 -68 -72 -68z" />
    <glyph glyph-name="Omacron" unicode="&#x14c;" horiz-adv-x="640" 
d="M320 -8q-87 0 -148 34.5t-92.5 113.5t-31.5 214t31.5 213t92.5 111t148 33q88 0 148.5 -33t92 -111t31.5 -213t-31.5 -214t-92 -113.5t-148.5 -34.5zM320 124q40 0 68.5 19t44 69t15.5 142q0 93 -15.5 141.5t-44 66t-68.5 17.5q-39 0 -68 -17.5t-44.5 -66t-15.5 -141.5
q0 -92 15.5 -142t44.5 -69t68 -19zM210 790q-23 0 -37 12.5t-14 40.5t14 40t37 12h220q23 0 37 -12t14 -40t-14 -40.5t-37 -12.5h-220z" />
    <glyph glyph-name="omacron" unicode="&#x14d;" horiz-adv-x="532" 
d="M266 -8q-107 0 -169 61t-62 197q0 137 62 197.5t169 60.5t169 -60.5t62 -197.5q0 -136 -62 -197t-169 -61zM266 112q28 0 47 11.5t29.5 41.5t10.5 85t-10.5 85t-29.5 41.5t-47 11.5q-27 0 -46.5 -11.5t-30 -41.5t-10.5 -85t10.5 -85t30 -41.5t46.5 -11.5zM156 590
q-23 0 -37 12.5t-14 40.5t14 40t37 12h220q23 0 37 -12t14 -40t-14 -40.5t-37 -12.5h-220z" />
    <glyph glyph-name="Ohungarumlaut" unicode="&#x150;" horiz-adv-x="640" 
d="M320 -8q-87 0 -148 34.5t-92.5 113.5t-31.5 214t31.5 213t92.5 111t148 33q88 0 148.5 -33t92 -111t31.5 -213t-31.5 -214t-92 -113.5t-148.5 -34.5zM320 124q40 0 68.5 19t44 69t15.5 142q0 93 -15.5 141.5t-44 66t-68.5 17.5q-39 0 -68 -17.5t-44.5 -66t-15.5 -141.5
q0 -92 15.5 -142t44.5 -69t68 -19zM250 752q-8 -6 -23 -4.5t-21 10.5q-8 12 0 30q3 5 13.5 30t23.5 58t22 60q3 7 6.5 11t7.5 7q16 11 38 5t34 -23q16 -24 -6 -63q-7 -13 -20.5 -32t-28.5 -38t-27.5 -33t-18.5 -18zM396 752q-8 -6 -23 -4.5t-21 10.5q-8 12 0 30q3 5 13.5 30
t23.5 58t22 60q3 7 6.5 11t7.5 7q16 11 38 5t34 -23q16 -24 -6 -63q-7 -13 -20.5 -32t-28.5 -38t-27.5 -33t-18.5 -18z" />
    <glyph glyph-name="ohungarumlaut" unicode="&#x151;" horiz-adv-x="532" 
d="M266 -8q-107 0 -169 61t-62 197q0 137 62 197.5t169 60.5t169 -60.5t62 -197.5q0 -136 -62 -197t-169 -61zM266 112q28 0 47 11.5t29.5 41.5t10.5 85t-10.5 85t-29.5 41.5t-47 11.5q-27 0 -46.5 -11.5t-30 -41.5t-10.5 -85t10.5 -85t30 -41.5t46.5 -11.5zM196 552
q-8 -6 -23 -4.5t-21 10.5q-8 12 0 30q3 5 13.5 30t23.5 58t22 60q3 7 6.5 11t7.5 7q16 11 38 5t34 -23q16 -24 -6 -63q-7 -13 -20.5 -32t-28.5 -38t-27.5 -33t-18.5 -18zM342 552q-8 -6 -23 -4.5t-21 10.5q-8 12 0 30q3 5 13.5 30t23.5 58t22 60q3 7 6.5 11t7.5 7
q16 11 38 5t34 -23q16 -24 -6 -63q-7 -13 -20.5 -32t-28.5 -38t-27.5 -33t-18.5 -18z" />
    <glyph glyph-name="OE" unicode="&#x152;" horiz-adv-x="920" 
d="M320 -8q-142 0 -207 87t-65 275q0 187 65 272t207 85q101 0 170 -67q56 56 203 56h125q33 0 51.5 -17.5t18.5 -49.5q0 -31 -18.5 -48t-51.5 -17h-132q-50 0 -72 -20t-22 -65q0 -16 -2 -39.5t-6 -53.5q17 14 43 22.5t51 8.5h99q28 0 43.5 -17t15.5 -47t-16 -48t-43 -18
h-107q-46 0 -62 -18.5t-16 -74.5v-66h226q37 0 53.5 -16t16.5 -52q0 -34 -16 -49t-54 -15h-325q-28 0 -40 27q-57 -35 -133 -35zM320 124q128 0 128 230q0 225 -128 225q-69 0 -98.5 -51.5t-29.5 -173.5t30 -176t98 -54z" />
    <glyph glyph-name="oe" unicode="&#x153;" horiz-adv-x="823" 
d="M266 -8q-107 0 -169 61t-62 197q0 137 62 197.5t169 60.5t169 -60.5t62 -197.5q0 -136 -62 -197t-169 -61zM266 112q28 0 47 11.5t29.5 41.5t10.5 85t-10.5 85t-29.5 41.5t-47 11.5q-27 0 -46.5 -11.5t-30 -41.5t-10.5 -85t10.5 -85t30 -41.5t46.5 -11.5zM618 -8
q-100 0 -156.5 33t-80 91t-23.5 133q0 138 61 198.5t164 60.5q62 0 110 -21t75 -59.5t27 -93.5q0 -160 -228 -160h-58q8 -31 26.5 -48.5t65.5 -17.5q26 0 42 3t30.5 6t33.5 3q27 0 43 -9.5t16 -38.5q0 -41 -35.5 -60.5t-112.5 -19.5zM502 248q8 11 18 14.5t31 3.5
q59 0 81.5 11.5t22.5 41.5q0 38 -21 58.5t-53 20.5q-37 0 -58 -31t-21 -119z" />
    <glyph glyph-name="Racute" unicode="&#x154;" horiz-adv-x="589" 
d="M141 -6q-34 0 -54 15.5t-20 44.5v432q0 116 61.5 170.5t192.5 54.5q107 0 163.5 -53.5t56.5 -154.5q0 -35 -2 -67.5t-6 -45.5q-15 -55 -55 -84q54 -45 54 -104v-148q0 -62 -69 -62q-34 0 -54 15.5t-20 46.5v132q0 54 -16.5 76t-66.5 22q-54 0 -74.5 -23.5t-20.5 -86.5
v-120q0 -60 -70 -60zM203 366q25 21 44.5 27.5t56.5 6.5q50 0 73.5 5t30.5 21t7 50q0 68 -20.5 94.5t-73.5 26.5q-59 0 -83.5 -27t-24.5 -94q0 -33 -2.5 -58.5t-7.5 -51.5zM179 776q-13 0 -24.5 10.5t-11.5 23.5q0 8 5 16t18 15q4 2 22 13.5t43.5 28t53 34.5t49.5 34
q8 5 15 7t13 2q24 0 39.5 -20t15.5 -46q0 -19 -12 -33.5t-40 -28.5q-17 -9 -44.5 -18.5t-57 -18t-52.5 -14t-32 -5.5z" />
    <glyph glyph-name="racute" unicode="&#x155;" horiz-adv-x="417" 
d="M133 -8q-72 0 -72 68v379q0 69 72 69q36 0 52 -15.5t16 -50.5q18 33 51.5 49.5t78.5 16.5q86 0 86 -75q0 -28 -21 -42t-69 -14q-47 0 -74 -8.5t-37.5 -31t-10.5 -64.5v-213q0 -68 -72 -68zM93 576q-13 0 -24.5 10.5t-11.5 23.5q0 8 5 16t18 15q4 2 22 13.5t43.5 28
t53 34.5t49.5 34q8 5 15 7t13 2q24 0 39.5 -20t15.5 -46q0 -19 -12 -33.5t-40 -28.5q-17 -9 -44.5 -18.5t-57 -18t-52.5 -14t-32 -5.5z" />
    <glyph glyph-name="uni0156" unicode="&#x156;" horiz-adv-x="589" 
d="M141 -6q-34 0 -54 15.5t-20 44.5v432q0 116 61.5 170.5t192.5 54.5q107 0 163.5 -53.5t56.5 -154.5q0 -35 -2 -67.5t-6 -45.5q-15 -55 -55 -84q54 -45 54 -104v-148q0 -62 -69 -62q-34 0 -54 15.5t-20 46.5v132q0 54 -16.5 76t-66.5 22q-54 0 -74.5 -23.5t-20.5 -86.5
v-120q0 -60 -70 -60zM203 366q25 21 44.5 27.5t56.5 6.5q50 0 73.5 5t30.5 21t7 50q0 68 -20.5 94.5t-73.5 26.5q-59 0 -83.5 -27t-24.5 -94q0 -33 -2.5 -58.5t-7.5 -51.5zM256 -275q-17 -1 -26.5 6t-10.5 18v10t2.5 24t7.5 48t15 81q5 23 19 34.5t31 12.5q20 2 38 -9
t20 -32q1 -11 -4 -25l-54 -134q-4 -8 -10.5 -20t-27.5 -14z" />
    <glyph glyph-name="uni0157" unicode="&#x157;" horiz-adv-x="417" 
d="M133 -8q-72 0 -72 68v379q0 69 72 69q36 0 52 -15.5t16 -50.5q18 33 51.5 49.5t78.5 16.5q86 0 86 -75q0 -28 -21 -42t-69 -14q-47 0 -74 -8.5t-37.5 -31t-10.5 -64.5v-213q0 -68 -72 -68zM98 -275q-17 -1 -26.5 6t-10.5 18v10t2.5 24t7.5 48t15 81q5 23 19 34.5t31 12.5
q20 2 38 -9t20 -32q1 -11 -4 -25l-54 -134q-4 -8 -10.5 -20t-27.5 -14z" />
    <glyph glyph-name="Rcaron" unicode="&#x158;" horiz-adv-x="589" 
d="M141 -6q-34 0 -54 15.5t-20 44.5v432q0 116 61.5 170.5t192.5 54.5q107 0 163.5 -53.5t56.5 -154.5q0 -35 -2 -67.5t-6 -45.5q-15 -55 -55 -84q54 -45 54 -104v-148q0 -62 -69 -62q-34 0 -54 15.5t-20 46.5v132q0 54 -16.5 76t-66.5 22q-54 0 -74.5 -23.5t-20.5 -86.5
v-120q0 -60 -70 -60zM203 366q25 21 44.5 27.5t56.5 6.5q50 0 73.5 5t30.5 21t7 50q0 68 -20.5 94.5t-73.5 26.5q-59 0 -83.5 -27t-24.5 -94q0 -33 -2.5 -58.5t-7.5 -51.5zM346 805q-21 -10 -36 -14t-29.5 -0.5t-36.5 14.5l-70 36q-50 24 -50 60q0 26 15 40.5t38 14.5
q13 0 28 -9l90 -57l90 57q15 9 28 9q23 0 38.5 -14.5t15.5 -40.5q0 -35 -51 -60z" />
    <glyph glyph-name="rcaron" unicode="&#x159;" horiz-adv-x="417" 
d="M133 -8q-72 0 -72 68v379q0 69 72 69q36 0 52 -15.5t16 -50.5q18 33 51.5 49.5t78.5 16.5q86 0 86 -75q0 -28 -21 -42t-69 -14q-47 0 -74 -8.5t-37.5 -31t-10.5 -64.5v-213q0 -68 -72 -68zM260 605q-21 -10 -36 -14t-29.5 -0.5t-36.5 14.5l-70 36q-50 24 -50 60
q0 26 15 40.5t38 14.5q13 0 28 -9l90 -57l90 57q15 9 28 9q23 0 38.5 -14.5t15.5 -40.5q0 -35 -51 -60z" />
    <glyph glyph-name="Sacute" unicode="&#x15a;" horiz-adv-x="556" 
d="M238 -8q-38 0 -80 6t-68 16q-42 17 -42 57q0 29 17.5 46.5t55.5 17.5q26 0 63 -7t65 -7q62 0 89 16t27 65q0 29 -20.5 49t-81.5 38q-111 33 -160.5 82t-49.5 127q0 68 30.5 115.5t84.5 72.5t123 25q81 0 134 -22q42 -16 42 -57q0 -29 -17.5 -46.5t-55.5 -17.5
q-25 0 -54 5.5t-57 5.5q-43 0 -65 -15t-22 -50q0 -32 31 -58t114 -51q95 -28 131 -75.5t36 -120.5q0 -106 -70.5 -161.5t-199.5 -55.5zM162 776q-13 0 -24.5 10.5t-11.5 23.5q0 8 5 16t18 15q4 2 22 13.5t43.5 28t53 34.5t49.5 34q8 5 15 7t13 2q24 0 39.5 -20t15.5 -46
q0 -19 -12 -33.5t-40 -28.5q-17 -9 -44.5 -18.5t-57 -18t-52.5 -14t-32 -5.5z" />
    <glyph glyph-name="sacute" unicode="&#x15b;" horiz-adv-x="467" 
d="M226 -8q-188 0 -188 83q0 26 14 41t37 15q10 0 19.5 -2.5t37.5 -11.5q12 -4 32 -8t39 -4q36 0 51 9t15 30q0 17 -8 26.5t-34 18.5t-81 25q-50 14 -80.5 50.5t-30.5 90.5q0 76 55 116t151 40q72 0 113 -20t41 -58q0 -24 -14 -40t-38 -16q-10 0 -23.5 3t-32.5 8
q-14 5 -29.5 8t-32.5 3q-48 0 -48 -34q0 -20 19 -33.5t73 -29.5q74 -22 109 -58.5t35 -96.5q0 -70 -53.5 -112.5t-147.5 -42.5zM118 576q-13 0 -24.5 10.5t-11.5 23.5q0 8 5 16t18 15q4 2 22 13.5t43.5 28t53 34.5t49.5 34q8 5 15 7t13 2q24 0 39.5 -20t15.5 -46
q0 -19 -12 -33.5t-40 -28.5q-17 -9 -44.5 -18.5t-57 -18t-52.5 -14t-32 -5.5z" />
    <glyph glyph-name="Scedilla" unicode="&#x15e;" horiz-adv-x="556" 
d="M212 -236q-44 2 -67.5 17.5t-22.5 41.5q0 16 11 27.5t30 10.5q15 0 24.5 -5.5t24.5 -6.5q48 -1 50 30q1 17 -19 28.5t-50 12.5q-19 2 -19 21q0 8 6 22t15 31q-30 2 -58 7t-47 13q-42 17 -42 57q0 29 17.5 46.5t55.5 17.5q26 0 63 -7t65 -7q62 0 89 16t27 65
q0 29 -20.5 49t-81.5 38q-111 33 -160.5 82t-49.5 127q0 68 30.5 115.5t84.5 72.5t123 25q81 0 134 -22q42 -16 42 -57q0 -29 -17.5 -46.5t-55.5 -17.5q-25 0 -54 5.5t-57 5.5q-43 0 -65 -15t-22 -50q0 -32 31 -58t114 -51q95 -28 131 -75.5t36 -120.5q0 -94 -56.5 -148.5
t-160.5 -65.5l-18 -34q31 -4 52.5 -32t20.5 -62q-1 -50 -37.5 -77.5t-96.5 -25.5z" />
    <glyph glyph-name="scedilla" unicode="&#x15f;" horiz-adv-x="467" 
d="M226 -8q-188 0 -188 83q0 26 14 41t37 15q10 0 19.5 -2.5t37.5 -11.5q12 -4 32 -8t39 -4q36 0 51 9t15 30q0 17 -8 26.5t-34 18.5t-81 25q-50 14 -80.5 50.5t-30.5 90.5q0 76 55 116t151 40q72 0 113 -20t41 -58q0 -24 -14 -40t-38 -16q-10 0 -23.5 3t-32.5 8
q-14 5 -29.5 8t-32.5 3q-48 0 -48 -34q0 -20 19 -33.5t73 -29.5q74 -22 109 -58.5t35 -96.5q0 -70 -53.5 -112.5t-147.5 -42.5zM178 -236q-44 2 -67.5 17.5t-22.5 41.5q0 16 11 27.5t30 10.5q15 0 24.5 -5.5t24.5 -6.5q48 -1 50 30q1 17 -19 28.5t-50 12.5q-19 2 -19 21
q1 9 8.5 27t19.5 38.5t24 36.5l86 -7l-39 -75q31 -4 52.5 -32t20.5 -62q-1 -50 -37.5 -77.5t-96.5 -25.5z" />
    <glyph glyph-name="Scaron" unicode="&#x160;" horiz-adv-x="556" 
d="M238 -8q-38 0 -80 6t-68 16q-42 17 -42 57q0 29 17.5 46.5t55.5 17.5q26 0 63 -7t65 -7q62 0 89 16t27 65q0 29 -20.5 49t-81.5 38q-111 33 -160.5 82t-49.5 127q0 68 30.5 115.5t84.5 72.5t123 25q81 0 134 -22q42 -16 42 -57q0 -29 -17.5 -46.5t-55.5 -17.5
q-25 0 -54 5.5t-57 5.5q-43 0 -65 -15t-22 -50q0 -32 31 -58t114 -51q95 -28 131 -75.5t36 -120.5q0 -106 -70.5 -161.5t-199.5 -55.5zM329 805q-21 -10 -36 -14t-29.5 -0.5t-36.5 14.5l-70 36q-50 24 -50 60q0 26 15 40.5t38 14.5q13 0 28 -9l90 -57l90 57q15 9 28 9
q23 0 38.5 -14.5t15.5 -40.5q0 -35 -51 -60z" />
    <glyph glyph-name="scaron" unicode="&#x161;" horiz-adv-x="467" 
d="M226 -8q-188 0 -188 83q0 26 14 41t37 15q10 0 19.5 -2.5t37.5 -11.5q12 -4 32 -8t39 -4q36 0 51 9t15 30q0 17 -8 26.5t-34 18.5t-81 25q-50 14 -80.5 50.5t-30.5 90.5q0 76 55 116t151 40q72 0 113 -20t41 -58q0 -24 -14 -40t-38 -16q-10 0 -23.5 3t-32.5 8
q-14 5 -29.5 8t-32.5 3q-48 0 -48 -34q0 -20 19 -33.5t73 -29.5q74 -22 109 -58.5t35 -96.5q0 -70 -53.5 -112.5t-147.5 -42.5zM285 605q-21 -10 -36 -14t-29.5 -0.5t-36.5 14.5l-70 36q-50 24 -50 60q0 26 15 40.5t38 14.5q13 0 28 -9l90 -57l90 57q15 9 28 9
q23 0 38.5 -14.5t15.5 -40.5q0 -35 -51 -60z" />
    <glyph glyph-name="Tcaron" unicode="&#x164;" horiz-adv-x="549" 
d="M278 -8q-25 0 -50.5 11.5t-25.5 37.5v468q0 32 16 44t26 15h-193q-24 0 -35.5 21.5t-11.5 44.5q0 25 12 45.5t35 20.5h447q23 0 35 -20.5t12 -45.5q0 -23 -11.5 -44.5t-35.5 -21.5h-152v-527q0 -25 -20.5 -37t-47.5 -12zM326 805q-21 -10 -36 -14t-29.5 -0.5t-36.5 14.5
l-70 36q-50 24 -50 60q0 26 15 40.5t38 14.5q13 0 28 -9l90 -57l90 57q15 9 28 9q23 0 38.5 -14.5t15.5 -40.5q0 -35 -51 -60z" />
    <glyph glyph-name="tcaron" unicode="&#x165;" horiz-adv-x="406" 
d="M288 -8q-93 0 -137.5 44t-44.5 135v208h-26q-68 0 -68 61q0 60 68 60h26v108q0 33 20.5 54t53.5 21q32 0 51 -19.5t19 -53.5v-49q0 -37 -12 -61h95q68 0 68 -60q0 -61 -68 -61h-83v-211q0 -30 7 -42.5t23 -12.5q21 0 31.5 3.5t26.5 3.5q27 0 43 -9.5t16 -38.5
q0 -41 -26 -60.5t-83 -19.5zM364 543q-10 -14 -25 -15q-12 -1 -22 7q-7 6 -10.5 13t-3.5 23q0 -3 4 39.5t10 111.5q1 19 17 31t34 13q19 2 35.5 -8.5t19.5 -37.5q2 -25 -7.5 -59.5t-24 -66.5t-27.5 -51z" />
    <glyph glyph-name="Umacron" unicode="&#x16a;" horiz-adv-x="646" 
d="M315 -8q-121 0 -184.5 60.5t-63.5 182.5v398q0 78 72 78t72 -78v-398q0 -63 27.5 -92t76.5 -29q120 0 120 121v398q0 78 72 78t72 -78v-398q0 -121 -67 -182t-197 -61zM213 790q-23 0 -37 12.5t-14 40.5t14 40t37 12h220q23 0 37 -12t14 -40t-14 -40.5t-37 -12.5h-220z
" />
    <glyph glyph-name="umacron" unicode="&#x16b;" horiz-adv-x="564" 
d="M282 -8q-66 0 -116 27t-77.5 76t-27.5 114v234q0 68 72 68t72 -68v-232q0 -47 20 -73t57 -26t57 26t20 73v232q0 68 72 68t72 -68v-234q0 -65 -27.5 -114t-77 -76t-116.5 -27zM172 590q-23 0 -37 12.5t-14 40.5t14 40t37 12h220q23 0 37 -12t14 -40t-14 -40.5t-37 -12.5
h-220z" />
    <glyph glyph-name="Ubreve" unicode="&#x16c;" horiz-adv-x="646" 
d="M315 -8q-121 0 -184.5 60.5t-63.5 182.5v398q0 78 72 78t72 -78v-398q0 -63 27.5 -92t76.5 -29q120 0 120 121v398q0 78 72 78t72 -78v-398q0 -121 -67 -182t-197 -61zM375 911q-4 29 8.5 44t38.5 15q17 0 33.5 -14t16.5 -49q0 -61 -43.5 -93.5t-106.5 -32.5t-106 32.5
t-43 93.5q0 35 16 49t33 14q26 0 39 -15t8 -44q-2 -15 11.5 -28t41.5 -13q29 0 42 13t11 28z" />
    <glyph glyph-name="ubreve" unicode="&#x16d;" horiz-adv-x="564" 
d="M282 -8q-66 0 -116 27t-77.5 76t-27.5 114v234q0 68 72 68t72 -68v-232q0 -47 20 -73t57 -26t57 26t20 73v232q0 68 72 68t72 -68v-234q0 -65 -27.5 -114t-77 -76t-116.5 -27zM334 711q-4 29 8.5 44t38.5 15q17 0 33.5 -14t16.5 -49q0 -61 -43.5 -93.5t-106.5 -32.5
t-106 32.5t-43 93.5q0 35 16 49t33 14q26 0 39 -15t8 -44q-2 -15 11.5 -28t41.5 -13q29 0 42 13t11 28z" />
    <glyph glyph-name="Uring" unicode="&#x16e;" horiz-adv-x="646" 
d="M315 -8q-121 0 -184.5 60.5t-63.5 182.5v398q0 78 72 78t72 -78v-398q0 -63 27.5 -92t76.5 -29q120 0 120 121v398q0 78 72 78t72 -78v-398q0 -121 -67 -182t-197 -61zM322 765q-48 0 -80 32t-32 81q0 48 32 80t80 32q49 0 81 -32t32 -80q0 -49 -32 -81t-81 -32zM323 840
q17 0 27 10.5t10 27.5t-10 27t-27 10t-27.5 -10t-10.5 -27t10.5 -27.5t27.5 -10.5z" />
    <glyph glyph-name="uring" unicode="&#x16f;" horiz-adv-x="564" 
d="M282 -8q-66 0 -116 27t-77.5 76t-27.5 114v234q0 68 72 68t72 -68v-232q0 -47 20 -73t57 -26t57 26t20 73v232q0 68 72 68t72 -68v-234q0 -65 -27.5 -114t-77 -76t-116.5 -27zM281 565q-48 0 -80 32t-32 81q0 48 32 80t80 32q49 0 81 -32t32 -80q0 -49 -32 -81t-81 -32z
M282 640q17 0 27 10.5t10 27.5t-10 27t-27 10t-27.5 -10t-10.5 -27t10.5 -27.5t27.5 -10.5z" />
    <glyph glyph-name="Uhungarumlaut" unicode="&#x170;" horiz-adv-x="646" 
d="M315 -8q-121 0 -184.5 60.5t-63.5 182.5v398q0 78 72 78t72 -78v-398q0 -63 27.5 -92t76.5 -29q120 0 120 121v398q0 78 72 78t72 -78v-398q0 -121 -67 -182t-197 -61zM253 752q-8 -6 -23 -4.5t-21 10.5q-8 12 0 30q3 5 13.5 30t23.5 58t22 60q3 7 6.5 11t7.5 7
q16 11 38 5t34 -23q16 -24 -6 -63q-7 -13 -20.5 -32t-28.5 -38t-27.5 -33t-18.5 -18zM399 752q-8 -6 -23 -4.5t-21 10.5q-8 12 0 30q3 5 13.5 30t23.5 58t22 60q3 7 6.5 11t7.5 7q16 11 38 5t34 -23q16 -24 -6 -63q-7 -13 -20.5 -32t-28.5 -38t-27.5 -33t-18.5 -18z" />
    <glyph glyph-name="uhungarumlaut" unicode="&#x171;" horiz-adv-x="564" 
d="M282 -8q-66 0 -116 27t-77.5 76t-27.5 114v234q0 68 72 68t72 -68v-232q0 -47 20 -73t57 -26t57 26t20 73v232q0 68 72 68t72 -68v-234q0 -65 -27.5 -114t-77 -76t-116.5 -27zM212 552q-8 -6 -23 -4.5t-21 10.5q-8 12 0 30q3 5 13.5 30t23.5 58t22 60q3 7 6.5 11t7.5 7
q16 11 38 5t34 -23q16 -24 -6 -63q-7 -13 -20.5 -32t-28.5 -38t-27.5 -33t-18.5 -18zM358 552q-8 -6 -23 -4.5t-21 10.5q-8 12 0 30q3 5 13.5 30t23.5 58t22 60q3 7 6.5 11t7.5 7q16 11 38 5t34 -23q16 -24 -6 -63q-7 -13 -20.5 -32t-28.5 -38t-27.5 -33t-18.5 -18z" />
    <glyph glyph-name="Uogonek" unicode="&#x172;" horiz-adv-x="646" 
d="M315 -8q-121 0 -184.5 60.5t-63.5 182.5v398q0 78 72 78t72 -78v-398q0 -63 27.5 -92t76.5 -29q120 0 120 121v398q0 78 72 78t72 -78v-398q0 -169 -130 -221q-41 -25 -68.5 -58.5t-27.5 -57.5q0 -23 23 -37.5t63 -17.5q19 -1 29.5 -13t10.5 -31q0 -24 -15.5 -39.5
t-39.5 -15.5q-70 0 -115 32.5t-45 83.5q0 78 55 132h-4z" />
    <glyph glyph-name="uogonek" unicode="&#x173;" horiz-adv-x="564" 
d="M365 -256q-70 0 -115 32.5t-45 83.5q0 84 60 133q-93 5 -148.5 63.5t-55.5 152.5v234q0 68 72 68t72 -68v-232q0 -47 20 -73t57 -26t57 26t20 73v232q0 68 72 68t72 -68v-234q0 -72 -33.5 -124t-91.5 -76h-1q-37 -23 -60 -55.5t-23 -55.5t23 -37.5t63 -17.5
q19 -1 29.5 -13t10.5 -31q0 -24 -15.5 -39.5t-39.5 -15.5z" />
    <glyph glyph-name="Wcircumflex" unicode="&#x174;" horiz-adv-x="866" 
d="M613 -8q-43 0 -74 25t-45 85l-40 164q-12 -45 -28 -87.5t-31 -75.5q-25 -59 -54.5 -85t-67.5 -26q-43 0 -72.5 29t-43.5 81l-132 502q-16 51 5.5 79t57.5 28q33 0 51.5 -22t31.5 -75l116 -474l69 218q20 62 25.5 98.5t5.5 56.5q0 32 -6.5 54t-11.5 41q-12 52 7.5 72
t50.5 20q32 0 52.5 -19.5t30.5 -66.5l109 -473q48 140 68.5 226t20.5 131q0 46 -4 71t-8.5 41.5t-4.5 33.5q0 25 18.5 46t61.5 21q33 0 51 -24t24.5 -59t6.5 -68q0 -47 -11 -108t-28.5 -125.5t-38.5 -123.5t-42 -102q-28 -59 -56 -84t-64 -25zM492 939l70 -36q51 -25 51 -60
q0 -25 -15.5 -40t-38.5 -15q-13 0 -28 9l-90 57l-90 -57q-15 -9 -28 -9q-23 0 -38 15t-15 40q0 36 50 60l70 36q22 11 36.5 14.5t29.5 0t36 -14.5z" />
    <glyph glyph-name="wcircumflex" unicode="&#x175;" horiz-adv-x="790" 
d="M238 -8q-42 0 -66 24t-44 81l-100 303q-8 27 -8 39q0 29 21.5 50.5t53.5 21.5q25 0 42.5 -12t23.5 -33l95 -316q39 63 55.5 116t16.5 115l-2 69q0 26 21 43.5t52 17.5q18 0 32 -13t27 -45q9 -22 20.5 -57t29 -93.5t43.5 -152.5q35 39 55 96.5t15 134.5l-4 69
q-1 26 21.5 43.5t54.5 17.5q60 0 69 -57q2 -13 3 -30t1 -34q0 -73 -22.5 -146.5t-62.5 -135.5q-42 -65 -72.5 -90.5t-66.5 -25.5q-24 0 -48.5 27.5t-45.5 75.5t-34 108q-10 -31 -31.5 -67.5t-48.5 -69.5t-52.5 -53.5t-43.5 -20.5zM452 739l70 -36q51 -25 51 -60
q0 -25 -15.5 -40t-38.5 -15q-13 0 -28 9l-90 57l-90 -57q-15 -9 -28 -9q-23 0 -38 15t-15 40q0 36 50 60l70 36q22 11 36.5 14.5t29.5 0t36 -14.5z" />
    <glyph glyph-name="Ycircumflex" unicode="&#x176;" horiz-adv-x="575" 
d="M308 -8q-74 0 -74 67v199l-208 341q-18 31 -13.5 56t23 40.5t42.5 15.5q33 0 52.5 -20t44.5 -68l136 -245q40 37 63 62.5t33 48.5t10 51t-6 62t-6 50q0 25 21 42t51 17q36 0 55.5 -35.5t19.5 -103.5q0 -56 -14.5 -105t-52 -99t-107.5 -109v-200q0 -34 -16.5 -50.5
t-53.5 -16.5zM338 939l70 -36q51 -25 51 -60q0 -25 -15.5 -40t-38.5 -15q-13 0 -28 9l-90 57l-90 -57q-15 -9 -28 -9q-23 0 -38 15t-15 40q0 36 50 60l70 36q22 11 36.5 14.5t29.5 0t36 -14.5z" />
    <glyph glyph-name="ycircumflex" unicode="&#x177;" horiz-adv-x="532" 
d="M155 -230q-139 0 -139 80q0 29 16 38.5t43 9.5q28 0 49 -4.5t47 -4.5q29 0 41 7t12 26q0 12 -5 31t-19.5 56t-41.5 102l-125 303q-6 15 -6 32q0 34 25 49.5t52 15.5q25 0 40.5 -12.5t22.5 -32.5l125 -324q38 77 50.5 132t10.5 101q-1 29 -3.5 47.5t-3.5 23.5
q-4 32 19.5 48.5t55.5 16.5q29 0 44.5 -12.5t22.5 -34.5q5 -16 6.5 -36.5t1.5 -33.5q0 -52 -9.5 -106t-27 -101.5t-43.5 -82.5q-4 -5 -14.5 -20t-25.5 -29.5t-31 -20.5q17 -18 24 -47.5t7 -61.5q0 -68 -52.5 -111.5t-168.5 -43.5zM314 739l70 -36q51 -25 51 -60
q0 -25 -15.5 -40t-38.5 -15q-13 0 -28 9l-90 57l-90 -57q-15 -9 -28 -9q-23 0 -38 15t-15 40q0 36 50 60l70 36q22 11 36.5 14.5t29.5 0t36 -14.5z" />
    <glyph glyph-name="Ydieresis" unicode="&#x178;" horiz-adv-x="575" 
d="M308 -8q-74 0 -74 67v199l-208 341q-18 31 -13.5 56t23 40.5t42.5 15.5q33 0 52.5 -20t44.5 -68l136 -245q40 37 63 62.5t33 48.5t10 51t-6 62t-6 50q0 25 21 42t51 17q36 0 55.5 -35.5t19.5 -103.5q0 -56 -14.5 -105t-52 -99t-107.5 -109v-200q0 -34 -16.5 -50.5
t-53.5 -16.5zM183 802q-31 0 -49.5 18.5t-18.5 47.5q0 30 18.5 48.5t49.5 18.5q30 0 48.5 -18.5t18.5 -48.5q0 -29 -18.5 -47.5t-48.5 -18.5zM392 802q-31 0 -49 18.5t-18 47.5q0 30 18 48.5t49 18.5q30 0 49 -18.5t19 -48.5q0 -29 -19 -47.5t-49 -18.5z" />
    <glyph glyph-name="Zacute" unicode="&#x179;" horiz-adv-x="618" 
d="M126 0q-28 0 -45 20.5t-17 44.5q0 12 4 24t18 40q10 19 27 47.5t44.5 72.5t68 110t96.5 160q20 35 33 42t11 7h-242q-25 0 -41.5 19.5t-15.5 48.5q2 32 21.5 48t49.5 16h338q35 0 53 -20t16 -50q0 -13 -15 -39t-41 -70l-203 -333q-10 -16 -23 -27t-22 -16.5t-8 -5.5h268
q26 0 42 -20.5t15 -51.5q-1 -30 -18 -48.5t-44 -18.5h-370zM193 776q-13 0 -24.5 10.5t-11.5 23.5q0 8 5 16t18 15q4 2 22 13.5t43.5 28t53 34.5t49.5 34q8 5 15 7t13 2q24 0 39.5 -20t15.5 -46q0 -19 -12 -33.5t-40 -28.5q-17 -9 -44.5 -18.5t-57 -18t-52.5 -14t-32 -5.5z
" />
    <glyph glyph-name="zacute" unicode="&#x17a;" horiz-adv-x="472" 
d="M107 0q-25 0 -41.5 20t-16.5 49q0 19 9 34l154 241q11 17 18 24t15 10h-140q-67 0 -67 61t67 61h247q27 0 45 -20t18 -49q0 -19 -9 -34l-163 -243q-18 -28 -41 -32h170q67 0 67 -63q0 -59 -67 -59h-265zM120 576q-13 0 -24.5 10.5t-11.5 23.5q0 8 5 16t18 15q4 2 22 13.5
t43.5 28t53 34.5t49.5 34q8 5 15 7t13 2q24 0 39.5 -20t15.5 -46q0 -19 -12 -33.5t-40 -28.5q-17 -9 -44.5 -18.5t-57 -18t-52.5 -14t-32 -5.5z" />
    <glyph glyph-name="Zdotaccent" unicode="&#x17b;" horiz-adv-x="618" 
d="M126 0q-28 0 -45 20.5t-17 44.5q0 12 4 24t18 40q10 19 27 47.5t44.5 72.5t68 110t96.5 160q20 35 33 42t11 7h-242q-25 0 -41.5 19.5t-15.5 48.5q2 32 21.5 48t49.5 16h338q35 0 53 -20t16 -50q0 -13 -15 -39t-41 -70l-203 -333q-10 -16 -23 -27t-22 -16.5t-8 -5.5h268
q26 0 42 -20.5t15 -51.5q-1 -30 -18 -48.5t-44 -18.5h-370zM309 794q-37 0 -62 24t-25 59q0 37 25 61t62 24q38 0 62.5 -24t24.5 -61q0 -35 -24.5 -59t-62.5 -24z" />
    <glyph glyph-name="zdotaccent" unicode="&#x17c;" horiz-adv-x="472" 
d="M107 0q-25 0 -41.5 20t-16.5 49q0 19 9 34l154 241q11 17 18 24t15 10h-140q-67 0 -67 61t67 61h247q27 0 45 -20t18 -49q0 -19 -9 -34l-163 -243q-18 -28 -41 -32h170q67 0 67 -63q0 -59 -67 -59h-265zM236 594q-37 0 -62 24t-25 59q0 37 25 61t62 24q38 0 62.5 -24
t24.5 -61q0 -35 -24.5 -59t-62.5 -24z" />
    <glyph glyph-name="Zcaron" unicode="&#x17d;" horiz-adv-x="618" 
d="M126 0q-28 0 -45 20.5t-17 44.5q0 12 4 24t18 40q10 19 27 47.5t44.5 72.5t68 110t96.5 160q20 35 33 42t11 7h-242q-25 0 -41.5 19.5t-15.5 48.5q2 32 21.5 48t49.5 16h338q35 0 53 -20t16 -50q0 -13 -15 -39t-41 -70l-203 -333q-10 -16 -23 -27t-22 -16.5t-8 -5.5h268
q26 0 42 -20.5t15 -51.5q-1 -30 -18 -48.5t-44 -18.5h-370zM360 805q-21 -10 -36 -14t-29.5 -0.5t-36.5 14.5l-70 36q-50 24 -50 60q0 26 15 40.5t38 14.5q13 0 28 -9l90 -57l90 57q15 9 28 9q23 0 38.5 -14.5t15.5 -40.5q0 -35 -51 -60z" />
    <glyph glyph-name="zcaron" unicode="&#x17e;" horiz-adv-x="472" 
d="M107 0q-25 0 -41.5 20t-16.5 49q0 19 9 34l154 241q11 17 18 24t15 10h-140q-67 0 -67 61t67 61h247q27 0 45 -20t18 -49q0 -19 -9 -34l-163 -243q-18 -28 -41 -32h170q67 0 67 -63q0 -59 -67 -59h-265zM287 605q-21 -10 -36 -14t-29.5 -0.5t-36.5 14.5l-70 36
q-50 24 -50 60q0 26 15 40.5t38 14.5q13 0 28 -9l90 -57l90 57q15 9 28 9q23 0 38.5 -14.5t15.5 -40.5q0 -35 -51 -60z" />
    <glyph glyph-name="florin" unicode="&#x192;" horiz-adv-x="464" 
d="M127 -166q-61 0 -89 14t-28 55q0 30 14 39.5t40.5 9t64.5 -0.5q27 0 40.5 17.5t18.5 45.5t5 57v308h-14q-74 0 -74 60q0 61 74 61h14v4q0 116 50.5 186.5t155.5 70.5q77 0 107.5 -15.5t30.5 -47.5q0 -30 -15 -41t-46 -12t-79 -1q-26 0 -40 -17.5t-19 -45t-5 -57.5v-24h57
q68 0 68 -61q0 -60 -68 -60h-57v-288q0 -116 -50.5 -186.5t-155.5 -70.5z" />
    <glyph glyph-name="uni0218" unicode="&#x218;" horiz-adv-x="556" 
d="M238 -8q-38 0 -80 6t-68 16q-42 17 -42 57q0 29 17.5 46.5t55.5 17.5q26 0 63 -7t65 -7q62 0 89 16t27 65q0 29 -20.5 49t-81.5 38q-111 33 -160.5 82t-49.5 127q0 68 30.5 115.5t84.5 72.5t123 25q81 0 134 -22q42 -16 42 -57q0 -29 -17.5 -46.5t-55.5 -17.5
q-25 0 -54 5.5t-57 5.5q-43 0 -65 -15t-22 -50q0 -32 31 -58t114 -51q95 -28 131 -75.5t36 -120.5q0 -106 -70.5 -161.5t-199.5 -55.5zM239 -275q-17 -1 -26.5 6t-10.5 18v10t2.5 24t7.5 48t15 81q5 23 19 34.5t31 12.5q20 2 38 -9t20 -32q1 -11 -4 -25l-54 -134
q-4 -8 -10.5 -20t-27.5 -14z" />
    <glyph glyph-name="uni0219" unicode="&#x219;" horiz-adv-x="467" 
d="M226 -8q-188 0 -188 83q0 26 14 41t37 15q10 0 19.5 -2.5t37.5 -11.5q12 -4 32 -8t39 -4q36 0 51 9t15 30q0 17 -8 26.5t-34 18.5t-81 25q-50 14 -80.5 50.5t-30.5 90.5q0 76 55 116t151 40q72 0 113 -20t41 -58q0 -24 -14 -40t-38 -16q-10 0 -23.5 3t-32.5 8
q-14 5 -29.5 8t-32.5 3q-48 0 -48 -34q0 -20 19 -33.5t73 -29.5q74 -22 109 -58.5t35 -96.5q0 -70 -53.5 -112.5t-147.5 -42.5zM165 -275q-17 -1 -26.5 6t-10.5 18v10t2.5 24t7.5 48t15 81q5 23 19 34.5t31 12.5q20 2 38 -9t20 -32q1 -11 -4 -25l-54 -134q-4 -8 -10.5 -20
t-27.5 -14z" />
    <glyph glyph-name="uni021A" unicode="&#x21a;" horiz-adv-x="549" 
d="M278 -8q-25 0 -50.5 11.5t-25.5 37.5v468q0 32 16 44t26 15h-193q-24 0 -35.5 21.5t-11.5 44.5q0 25 12 45.5t35 20.5h447q23 0 35 -20.5t12 -45.5q0 -23 -11.5 -44.5t-35.5 -21.5h-152v-527q0 -25 -20.5 -37t-47.5 -12zM236 -275q-17 -1 -26.5 6t-10.5 18v10t2.5 24
t7.5 48t15 81q5 23 19 34.5t31 12.5q20 2 38 -9t20 -32q1 -11 -4 -25l-54 -134q-4 -8 -10.5 -20t-27.5 -14z" />
    <glyph glyph-name="uni021B" unicode="&#x21b;" horiz-adv-x="406" 
d="M288 -8q-93 0 -137.5 44t-44.5 135v208h-26q-68 0 -68 61q0 60 68 60h26v108q0 33 20.5 54t53.5 21q32 0 51 -19.5t19 -53.5v-49q0 -37 -12 -61h95q68 0 68 -60q0 -61 -68 -61h-83v-211q0 -30 7 -42.5t23 -12.5q21 0 31.5 3.5t26.5 3.5q27 0 43 -9.5t16 -38.5
q0 -41 -26 -60.5t-83 -19.5zM184 -275q-17 -1 -26.5 6t-10.5 18v10t2.5 24t7.5 48t15 81q5 23 19 34.5t31 12.5q20 2 38 -9t20 -32q1 -11 -4 -25l-54 -134q-4 -8 -10.5 -20t-27.5 -14z" />
    <glyph glyph-name="uni0237" unicode="&#x237;" horiz-adv-x="266" 
d="M-3 -230q-61 0 -89 14t-28 55q0 30 14 39.5t40.5 9t64.5 -0.5q27 0 40.5 17.5t18.5 45.5t5 57v422q0 41 17.5 60t50.5 19q39 0 55.5 -22.5t16.5 -56.5v-402q0 -116 -50.5 -186.5t-155.5 -70.5z" />
    <glyph glyph-name="circumflex" unicode="&#x2c6;" horiz-adv-x="383" 
d="M242 738l70 -36q51 -25 51 -60q0 -25 -15.5 -40t-38.5 -15q-13 0 -28 9l-90 57l-90 -57q-15 -9 -28 -9q-23 0 -38 15t-15 40q0 36 50 60l70 36q22 11 36.5 14.5t29.5 0t36 -14.5z" />
    <glyph glyph-name="caron" unicode="&#x2c7;" horiz-adv-x="383" 
d="M242 605q-21 -10 -36 -14t-29.5 -0.5t-36.5 14.5l-70 36q-50 24 -50 60q0 26 15 40.5t38 14.5q13 0 28 -9l90 -57l90 57q15 9 28 9q23 0 38.5 -14.5t15.5 -40.5q0 -35 -51 -60z" />
    <glyph glyph-name="breve" unicode="&#x2d8;" horiz-adv-x="339" 
d="M222 711q-4 29 8.5 44t38.5 15q17 0 33.5 -14t16.5 -49q0 -61 -43.5 -93.5t-106.5 -32.5t-106 32.5t-43 93.5q0 35 16 49t33 14q26 0 39 -15t8 -44q-2 -15 11.5 -28t41.5 -13q29 0 42 13t11 28z" />
    <glyph glyph-name="dotaccent" unicode="&#x2d9;" horiz-adv-x="214" 
d="M107 594q-37 0 -62 24t-25 59q0 37 25 61t62 24q38 0 62.5 -24t24.5 -61q0 -35 -24.5 -59t-62.5 -24z" />
    <glyph glyph-name="ring" unicode="&#x2da;" horiz-adv-x="265" 
d="M132 565q-48 0 -80 32t-32 81q0 48 32 80t80 32q49 0 81 -32t32 -80q0 -49 -32 -81t-81 -32zM133 640q17 0 27 10.5t10 27.5t-10 27t-27 10t-27.5 -10t-10.5 -27t10.5 -27.5t27.5 -10.5z" />
    <glyph glyph-name="ogonek" unicode="&#x2db;" horiz-adv-x="255" 
d="M197 -256q-70 0 -115 32.5t-45 83.5q0 104 89 152l103 75q0 -32 -2.5 -50.5t-17.5 -27.5q-37 -23 -60 -55.5t-23 -55.5t23 -37.5t63 -17.5q19 -1 29.5 -13t10.5 -31q0 -24 -15.5 -39.5t-39.5 -15.5z" />
    <glyph glyph-name="tilde" unicode="&#x2dc;" horiz-adv-x="412" 
d="M70 572q-26 0 -38 12.5t-12 29.5q0 21 14 43.5t40.5 38t61.5 15.5t53 -9.5t35 -19.5q11 -7 22.5 -12.5t22.5 -5.5q15 0 23 7t13.5 16t13.5 16t23 7q26 0 38 -12.5t12 -29.5q0 -20 -14 -43t-40 -38.5t-62 -15.5q-34 0 -52 9.5t-36 19.5q-11 6 -22.5 12t-22.5 6
q-15 0 -23 -7t-13.5 -16t-13.5 -16t-23 -7z" />
    <glyph glyph-name="hungarumlaut" unicode="&#x2dd;" horiz-adv-x="342" 
d="M68 552q-8 -6 -23 -4.5t-21 10.5q-8 12 0 30q3 5 13.5 30t23.5 58t22 60q3 7 6.5 11t7.5 7q16 11 38 5t34 -23q16 -24 -6 -63q-7 -13 -20.5 -32t-28.5 -38t-27.5 -33t-18.5 -18zM214 552q-8 -6 -23 -4.5t-21 10.5q-8 12 0 30q3 5 13.5 30t23.5 58t22 60q3 7 6.5 11t7.5 7
q16 11 38 5t34 -23q16 -24 -6 -63q-7 -13 -20.5 -32t-28.5 -38t-27.5 -33t-18.5 -18z" />
    <glyph glyph-name="gravecomb" unicode="&#x300;" 
d="M253 576q-9 0 -32 5.5t-52.5 14t-57 18t-44.5 18.5q-28 14 -40 28.5t-12 33.5q0 26 15.5 46t39.5 20q6 0 13.5 -2t14.5 -7q23 -16 50 -34t52.5 -34.5t43.5 -28t22 -13.5q13 -7 18 -15t5 -16q0 -13 -11 -23.5t-25 -10.5z" />
    <glyph glyph-name="acutecomb" unicode="&#x301;" 
d="M21 576q-13 0 -24.5 10.5t-11.5 23.5q0 8 5 16t18 15q4 2 22 13.5t43.5 28t53 34.5t49.5 34q8 5 15 7t13 2q24 0 39.5 -20t15.5 -46q0 -19 -12 -33.5t-40 -28.5q-17 -9 -44.5 -18.5t-57 -18t-52.5 -14t-32 -5.5z" />
    <glyph glyph-name="uni0302" unicode="&#x302;" 
d="M226 739l70 -36q51 -25 51 -60q0 -25 -15.5 -40t-38.5 -15q-13 0 -28 9l-90 57l-90 -57q-15 -9 -28 -9q-23 0 -38 15t-15 40q0 36 50 60l70 36q22 11 36.5 14.5t29.5 0t36 -14.5z" />
    <glyph glyph-name="tildecomb" unicode="&#x303;" 
d="M50 572q-26 0 -38 12.5t-12 29.5q0 21 14 43.5t40.5 38t61.5 15.5t53 -9.5t35 -19.5q11 -7 22.5 -12.5t22.5 -5.5q15 0 23 7t13.5 16t13.5 16t23 7q26 0 38 -12.5t12 -29.5q0 -20 -14 -43t-40 -38.5t-62 -15.5q-34 0 -52 9.5t-36 19.5q-11 6 -22.5 12t-22.5 6
q-15 0 -23 -7t-13.5 -16t-13.5 -16t-23 -7z" />
    <glyph glyph-name="uni0304" unicode="&#x304;" 
d="M51 590q-23 0 -37 12.5t-14 40.5t14 40t37 12h220q23 0 37 -12t14 -40t-14 -40.5t-37 -12.5h-220z" />
    <glyph glyph-name="uni0306" unicode="&#x306;" 
d="M202 711q-4 29 8.5 44t38.5 15q17 0 33.5 -14t16.5 -49q0 -61 -43.5 -93.5t-106.5 -32.5t-106 32.5t-43 93.5q0 35 16 49t33 14q26 0 39 -15t8 -44q-2 -15 11.5 -28t41.5 -13q29 0 42 13t11 28z" />
    <glyph glyph-name="uni0307" unicode="&#x307;" 
d="M72 594q-37 0 -62 24t-25 59q0 37 25 61t62 24q38 0 62.5 -24t24.5 -61q0 -35 -24.5 -59t-62.5 -24z" />
    <glyph glyph-name="uni0308" unicode="&#x308;" 
d="M59 602q-31 0 -49.5 18.5t-18.5 47.5q0 30 18.5 48.5t49.5 18.5q30 0 48.5 -18.5t18.5 -48.5q0 -29 -18.5 -47.5t-48.5 -18.5zM268 602q-31 0 -49 18.5t-18 47.5q0 30 18 48.5t49 18.5q30 0 49 -18.5t19 -48.5q0 -29 -19 -47.5t-49 -18.5z" />
    <glyph glyph-name="uni030A" unicode="&#x30a;" 
d="M112 565q-48 0 -80 32t-32 81q0 48 32 80t80 32q49 0 81 -32t32 -80q0 -49 -32 -81t-81 -32zM113 640q17 0 27 10.5t10 27.5t-10 27t-27 10t-27.5 -10t-10.5 -27t10.5 -27.5t27.5 -10.5z" />
    <glyph glyph-name="uni030B" unicode="&#x30b;" 
d="M48 552q-8 -6 -23 -4.5t-21 10.5q-8 12 0 30q3 5 13.5 30t23.5 58t22 60q3 7 6.5 11t7.5 7q16 11 38 5t34 -23q16 -24 -6 -63q-7 -13 -20.5 -32t-28.5 -38t-27.5 -33t-18.5 -18zM194 552q-8 -6 -23 -4.5t-21 10.5q-8 12 0 30q3 5 13.5 30t23.5 58t22 60q3 7 6.5 11t7.5 7
q16 11 38 5t34 -23q16 -24 -6 -63q-7 -13 -20.5 -32t-28.5 -38t-27.5 -33t-18.5 -18z" />
    <glyph glyph-name="uni030C" unicode="&#x30c;" 
d="M226 605q-21 -10 -36 -14t-29.5 -0.5t-36.5 14.5l-70 36q-50 24 -50 60q0 26 15 40.5t38 14.5q13 0 28 -9l90 -57l90 57q15 9 28 9q23 0 38.5 -14.5t15.5 -40.5q0 -35 -51 -60z" />
    <glyph glyph-name="uni0312" unicode="&#x312;" 
d="M86 795q16 2 25.5 -4.5t11.5 -17.5v-10.5t-1 -25t-4.5 -50t-9.5 -83.5q-3 -24 -16 -36.5t-30 -14.5q-19 -3 -37 8t-21 32q-2 11 3 26l44 139q3 9 8.5 21.5t26.5 15.5z" />
    <glyph glyph-name="dotbelowcomb" unicode="&#x323;" 
d="M62 -189q-31 0 -49 18t-18 47q0 30 18 48t49 18q30 0 48.5 -18t18.5 -48q0 -29 -18.5 -47t-48.5 -18z" />
    <glyph glyph-name="uni0326" unicode="&#x326;" 
d="M39 -275q-17 -1 -26.5 6t-10.5 18v10t2.5 24t7.5 48t15 81q5 23 19 34.5t31 12.5q20 2 38 -9t20 -32q1 -11 -4 -25l-54 -134q-4 -8 -10.5 -20t-27.5 -14z" />
    <glyph glyph-name="uni0327" unicode="&#x327;" 
d="M90 -236q-44 2 -67.5 17.5t-22.5 41.5q0 16 11 27.5t30 10.5q15 0 24.5 -5.5t24.5 -6.5q48 -1 50 30q1 17 -19 28.5t-50 12.5q-19 2 -19 21q1 9 8.5 27t19.5 38.5t24 36.5l86 -7l-39 -75q31 -4 52.5 -32t20.5 -62q-1 -50 -37.5 -77.5t-96.5 -25.5z" />
    <glyph glyph-name="uni0328" unicode="&#x328;" 
d="M220 -256q-70 0 -115 32.5t-45 83.5q0 104 89 152l103 75q0 -32 -2.5 -50.5t-17.5 -27.5q-37 -23 -60 -55.5t-23 -55.5t23 -37.5t63 -17.5q19 -1 29.5 -13t10.5 -31q0 -24 -15.5 -39.5t-39.5 -15.5z" />
    <glyph glyph-name="Wgrave" unicode="&#x1e80;" horiz-adv-x="866" 
d="M613 -8q-43 0 -74 25t-45 85l-40 164q-12 -45 -28 -87.5t-31 -75.5q-25 -59 -54.5 -85t-67.5 -26q-43 0 -72.5 29t-43.5 81l-132 502q-16 51 5.5 79t57.5 28q33 0 51.5 -22t31.5 -75l116 -474l69 218q20 62 25.5 98.5t5.5 56.5q0 32 -6.5 54t-11.5 41q-12 52 7.5 72
t50.5 20q32 0 52.5 -19.5t30.5 -66.5l109 -473q48 140 68.5 226t20.5 131q0 46 -4 71t-8.5 41.5t-4.5 33.5q0 25 18.5 46t61.5 21q33 0 51 -24t24.5 -59t6.5 -68q0 -47 -11 -108t-28.5 -125.5t-38.5 -123.5t-42 -102q-28 -59 -56 -84t-64 -25zM557 776q-9 0 -32 5.5
t-52.5 14t-57 18t-44.5 18.5q-28 14 -40 28.5t-12 33.5q0 26 15.5 46t39.5 20q6 0 13.5 -2t14.5 -7q23 -16 50 -34t52.5 -34.5t43.5 -28t22 -13.5q13 -7 18 -15t5 -16q0 -13 -11 -23.5t-25 -10.5z" />
    <glyph glyph-name="wgrave" unicode="&#x1e81;" horiz-adv-x="790" 
d="M238 -8q-42 0 -66 24t-44 81l-100 303q-8 27 -8 39q0 29 21.5 50.5t53.5 21.5q25 0 42.5 -12t23.5 -33l95 -316q39 63 55.5 116t16.5 115l-2 69q0 26 21 43.5t52 17.5q18 0 32 -13t27 -45q9 -22 20.5 -57t29 -93.5t43.5 -152.5q35 39 55 96.5t15 134.5l-4 69
q-1 26 21.5 43.5t54.5 17.5q60 0 69 -57q2 -13 3 -30t1 -34q0 -73 -22.5 -146.5t-62.5 -135.5q-42 -65 -72.5 -90.5t-66.5 -25.5q-24 0 -48.5 27.5t-45.5 75.5t-34 108q-10 -31 -31.5 -67.5t-48.5 -69.5t-52.5 -53.5t-43.5 -20.5zM518 576q-9 0 -32 5.5t-52.5 14t-57 18
t-44.5 18.5q-28 14 -40 28.5t-12 33.5q0 26 15.5 46t39.5 20q6 0 13.5 -2t14.5 -7q23 -16 50 -34t52.5 -34.5t43.5 -28t22 -13.5q13 -7 18 -15t5 -16q0 -13 -11 -23.5t-25 -10.5z" />
    <glyph glyph-name="Wacute" unicode="&#x1e82;" horiz-adv-x="866" 
d="M613 -8q-43 0 -74 25t-45 85l-40 164q-12 -45 -28 -87.5t-31 -75.5q-25 -59 -54.5 -85t-67.5 -26q-43 0 -72.5 29t-43.5 81l-132 502q-16 51 5.5 79t57.5 28q33 0 51.5 -22t31.5 -75l116 -474l69 218q20 62 25.5 98.5t5.5 56.5q0 32 -6.5 54t-11.5 41q-12 52 7.5 72
t50.5 20q32 0 52.5 -19.5t30.5 -66.5l109 -473q48 140 68.5 226t20.5 131q0 46 -4 71t-8.5 41.5t-4.5 33.5q0 25 18.5 46t61.5 21q33 0 51 -24t24.5 -59t6.5 -68q0 -47 -11 -108t-28.5 -125.5t-38.5 -123.5t-42 -102q-28 -59 -56 -84t-64 -25zM325 776q-13 0 -24.5 10.5
t-11.5 23.5q0 8 5 16t18 15q4 2 22 13.5t43.5 28t53 34.5t49.5 34q8 5 15 7t13 2q24 0 39.5 -20t15.5 -46q0 -19 -12 -33.5t-40 -28.5q-17 -9 -44.5 -18.5t-57 -18t-52.5 -14t-32 -5.5z" />
    <glyph glyph-name="wacute" unicode="&#x1e83;" horiz-adv-x="790" 
d="M238 -8q-42 0 -66 24t-44 81l-100 303q-8 27 -8 39q0 29 21.5 50.5t53.5 21.5q25 0 42.5 -12t23.5 -33l95 -316q39 63 55.5 116t16.5 115l-2 69q0 26 21 43.5t52 17.5q18 0 32 -13t27 -45q9 -22 20.5 -57t29 -93.5t43.5 -152.5q35 39 55 96.5t15 134.5l-4 69
q-1 26 21.5 43.5t54.5 17.5q60 0 69 -57q2 -13 3 -30t1 -34q0 -73 -22.5 -146.5t-62.5 -135.5q-42 -65 -72.5 -90.5t-66.5 -25.5q-24 0 -48.5 27.5t-45.5 75.5t-34 108q-10 -31 -31.5 -67.5t-48.5 -69.5t-52.5 -53.5t-43.5 -20.5zM286 576q-13 0 -24.5 10.5t-11.5 23.5
q0 8 5 16t18 15q4 2 22 13.5t43.5 28t53 34.5t49.5 34q8 5 15 7t13 2q24 0 39.5 -20t15.5 -46q0 -19 -12 -33.5t-40 -28.5q-17 -9 -44.5 -18.5t-57 -18t-52.5 -14t-32 -5.5z" />
    <glyph glyph-name="Wdieresis" unicode="&#x1e84;" horiz-adv-x="866" 
d="M613 -8q-43 0 -74 25t-45 85l-40 164q-12 -45 -28 -87.5t-31 -75.5q-25 -59 -54.5 -85t-67.5 -26q-43 0 -72.5 29t-43.5 81l-132 502q-16 51 5.5 79t57.5 28q33 0 51.5 -22t31.5 -75l116 -474l69 218q20 62 25.5 98.5t5.5 56.5q0 32 -6.5 54t-11.5 41q-12 52 7.5 72
t50.5 20q32 0 52.5 -19.5t30.5 -66.5l109 -473q48 140 68.5 226t20.5 131q0 46 -4 71t-8.5 41.5t-4.5 33.5q0 25 18.5 46t61.5 21q33 0 51 -24t24.5 -59t6.5 -68q0 -47 -11 -108t-28.5 -125.5t-38.5 -123.5t-42 -102q-28 -59 -56 -84t-64 -25zM336 802q-31 0 -49.5 18.5
t-18.5 47.5q0 30 18.5 48.5t49.5 18.5q30 0 48.5 -18.5t18.5 -48.5q0 -29 -18.5 -47.5t-48.5 -18.5zM545 802q-31 0 -49 18.5t-18 47.5q0 30 18 48.5t49 18.5q30 0 49 -18.5t19 -48.5q0 -29 -19 -47.5t-49 -18.5z" />
    <glyph glyph-name="wdieresis" unicode="&#x1e85;" horiz-adv-x="790" 
d="M238 -8q-42 0 -66 24t-44 81l-100 303q-8 27 -8 39q0 29 21.5 50.5t53.5 21.5q25 0 42.5 -12t23.5 -33l95 -316q39 63 55.5 116t16.5 115l-2 69q0 26 21 43.5t52 17.5q18 0 32 -13t27 -45q9 -22 20.5 -57t29 -93.5t43.5 -152.5q35 39 55 96.5t15 134.5l-4 69
q-1 26 21.5 43.5t54.5 17.5q60 0 69 -57q2 -13 3 -30t1 -34q0 -73 -22.5 -146.5t-62.5 -135.5q-42 -65 -72.5 -90.5t-66.5 -25.5q-24 0 -48.5 27.5t-45.5 75.5t-34 108q-10 -31 -31.5 -67.5t-48.5 -69.5t-52.5 -53.5t-43.5 -20.5zM297 602q-31 0 -49.5 18.5t-18.5 47.5
q0 30 18.5 48.5t49.5 18.5q30 0 48.5 -18.5t18.5 -48.5q0 -29 -18.5 -47.5t-48.5 -18.5zM506 602q-31 0 -49 18.5t-18 47.5q0 30 18 48.5t49 18.5q30 0 49 -18.5t19 -48.5q0 -29 -19 -47.5t-49 -18.5z" />
    <glyph glyph-name="uni1E9E" unicode="&#x1e9e;" horiz-adv-x="600" 
d="M354 568h-110q-22 0 -31 -12.5t-9 -29.5v-467q0 -34 -16.5 -50.5t-53.5 -16.5t-55.5 18t-18.5 49v559q0 35 23.5 58.5t58.5 23.5h345q67 0 67 -60q0 -12 -17 -44.5t-46 -78t-67 -97.5q77 -16 116.5 -71.5t39.5 -144.5q0 -212 -238 -212q-86 0 -86 57q0 34 18.5 46.5
t67.5 12.5q94 0 94 96q0 62 -21 86.5t-72 24.5q-84 0 -84 57q0 9 4 19q6 18 32 53.5t69 98.5q7 11 4 18t-14 7z" />
    <glyph glyph-name="Ygrave" unicode="&#x1ef2;" horiz-adv-x="575" 
d="M308 -8q-74 0 -74 67v199l-208 341q-18 31 -13.5 56t23 40.5t42.5 15.5q33 0 52.5 -20t44.5 -68l136 -245q40 37 63 62.5t33 48.5t10 51t-6 62t-6 50q0 25 21 42t51 17q36 0 55.5 -35.5t19.5 -103.5q0 -56 -14.5 -105t-52 -99t-107.5 -109v-200q0 -34 -16.5 -50.5
t-53.5 -16.5zM404 776q-9 0 -32 5.5t-52.5 14t-57 18t-44.5 18.5q-28 14 -40 28.5t-12 33.5q0 26 15.5 46t39.5 20q6 0 13.5 -2t14.5 -7q23 -16 50 -34t52.5 -34.5t43.5 -28t22 -13.5q13 -7 18 -15t5 -16q0 -13 -11 -23.5t-25 -10.5z" />
    <glyph glyph-name="ygrave" unicode="&#x1ef3;" horiz-adv-x="532" 
d="M155 -230q-139 0 -139 80q0 29 16 38.5t43 9.5q28 0 49 -4.5t47 -4.5q29 0 41 7t12 26q0 12 -5 31t-19.5 56t-41.5 102l-125 303q-6 15 -6 32q0 34 25 49.5t52 15.5q25 0 40.5 -12.5t22.5 -32.5l125 -324q38 77 50.5 132t10.5 101q-1 29 -3.5 47.5t-3.5 23.5
q-4 32 19.5 48.5t55.5 16.5q29 0 44.5 -12.5t22.5 -34.5q5 -16 6.5 -36.5t1.5 -33.5q0 -52 -9.5 -106t-27 -101.5t-43.5 -82.5q-4 -5 -14.5 -20t-25.5 -29.5t-31 -20.5q17 -18 24 -47.5t7 -61.5q0 -68 -52.5 -111.5t-168.5 -43.5zM380 576q-9 0 -32 5.5t-52.5 14t-57 18
t-44.5 18.5q-28 14 -40 28.5t-12 33.5q0 26 15.5 46t39.5 20q6 0 13.5 -2t14.5 -7q23 -16 50 -34t52.5 -34.5t43.5 -28t22 -13.5q13 -7 18 -15t5 -16q0 -13 -11 -23.5t-25 -10.5z" />
    <glyph glyph-name="endash" unicode="&#x2013;" horiz-adv-x="643" 
d="M140 216q-31 0 -49.5 16.5t-18.5 55.5t18.5 55.5t49.5 16.5h363q32 0 50 -16.5t18 -55.5t-18 -55.5t-50 -16.5h-363z" />
    <glyph glyph-name="emdash" unicode="&#x2014;" horiz-adv-x="1018" 
d="M140 216q-31 0 -49.5 16.5t-18.5 55.5t18.5 55.5t49.5 16.5h738q32 0 50 -16.5t18 -55.5t-18 -55.5t-50 -16.5h-738z" />
    <glyph glyph-name="quoteleft" unicode="&#x2018;" horiz-adv-x="233" 
d="M149 711q24 0 36 -11t12 -28q0 -4 -1.5 -15t-6.5 -35.5t-16 -69t-30 -116.5q-9 -33 -30 -48t-45 -15q-28 0 -51 18.5t-23 49.5q0 17 9 36l90 189q6 12 16.5 28.5t39.5 16.5z" />
    <glyph glyph-name="quoteright" unicode="&#x2019;" horiz-adv-x="216" 
d="M71 414q-28 0 -38 12t-12 24q-1 14 3 83.5t14 166.5q2 28 26.5 45t61.5 17q41 0 59 -22t6 -60l-70 -232q-5 -19 -18 -26.5t-32 -7.5z" />
    <glyph glyph-name="quotesinglbase" unicode="&#x201a;" horiz-adv-x="273" 
d="M68 -189q-18 0 -28 10t-10 26q0 3 0.5 10.5t5 30t15.5 69.5t33 129q9 34 38.5 48.5t59.5 14.5q47 0 57 -25t-5 -57l-105 -222q-6 -13 -16 -23.5t-45 -10.5z" />
    <glyph glyph-name="quotedblleft" unicode="&#x201c;" horiz-adv-x="508" 
d="M149 711q24 0 36 -11t12 -28q0 -4 -1.5 -15t-6.5 -35.5t-16 -69t-30 -116.5q-9 -33 -30 -48t-45 -15q-28 0 -51 18.5t-23 49.5q0 17 9 36l90 189q6 12 16.5 28.5t39.5 16.5zM374 711q24 0 36 -11t12 -28q0 -4 -1.5 -15t-6.5 -35.5t-16 -69t-30 -116.5q-9 -33 -30 -48
t-45 -15q-28 0 -51 18.5t-23 49.5q0 17 9 36l90 189q6 12 16.5 28.5t39.5 16.5z" />
    <glyph glyph-name="quotedblright" unicode="&#x201d;" horiz-adv-x="508" 
d="M72 366q-38 0 -41 33q0 3 -1 10.5t0 30.5t4 70.5t10 131.5q3 35 32.5 52.5t59.5 17.5q47 0 58.5 -21t0.5 -55l-59 -199q-10 -31 -19.5 -51t-44.5 -20zM306 373q-24 0 -36 11.5t-12 27.5q0 4 1.5 15t6.5 35.5t16 69t30 116.5q9 33 30 48t45 15q28 0 51 -18.5t23 -49.5
q0 -16 -9 -36l-90 -189q-6 -12 -16.5 -28.5t-39.5 -16.5z" />
    <glyph glyph-name="quotedblbase" unicode="&#x201e;" horiz-adv-x="483" 
d="M309 -189q-24 0 -36 11.5t-12 27.5q0 4 1.5 15t6.5 35.5t16 69t30 116.5q9 33 30 48t45 15q28 0 51 -18.5t23 -49.5q0 -16 -9 -36l-90 -189q-6 -12 -16.5 -28.5t-39.5 -16.5zM84 -189q-24 0 -36 11.5t-12 27.5q0 4 1.5 15t6.5 35.5t16 69t30 116.5q9 33 30 48t45 15
q28 0 51 -18.5t23 -49.5q0 -16 -9 -36l-90 -189q-6 -12 -16.5 -28.5t-39.5 -16.5z" />
    <glyph glyph-name="dagger" unicode="&#x2020;" horiz-adv-x="420" 
d="M213 144q-39 0 -55.5 21t-16.5 57v327h-33q-36 0 -57 16.5t-21 55.5t21 55.5t57 16.5h33v39q0 36 16.5 57t55.5 21t55.5 -21t16.5 -57v-39h27q36 0 57 -16.5t21 -55.5t-21 -55.5t-57 -16.5h-27v-327q0 -36 -16.5 -57t-55.5 -21z" />
    <glyph glyph-name="daggerdbl" unicode="&#x2021;" horiz-adv-x="420" 
d="M213 144q-39 0 -55.5 21t-16.5 57v112h-33q-36 0 -57 16.5t-21 55.5t21 55.5t57 16.5h33v71h-33q-36 0 -57 16.5t-21 55.5t21 55.5t57 16.5h33v39q0 36 16.5 57t55.5 21t55.5 -21t16.5 -57v-39h27q36 0 57 -16.5t21 -55.5t-21 -55.5t-57 -16.5h-27v-71h27q36 0 57 -16.5
t21 -55.5t-21 -55.5t-57 -16.5h-27v-112q0 -36 -16.5 -57t-55.5 -21z" />
    <glyph glyph-name="bullet" unicode="&#x2022;" horiz-adv-x="600" 
d="M319 180q-54 0 -88.5 35.5t-34.5 87.5q0 53 34.5 88t88.5 35q53 0 88 -35t35 -88q0 -52 -35 -87.5t-88 -35.5z" />
    <glyph glyph-name="ellipsis" unicode="&#x2026;" horiz-adv-x="686" 
d="M559 -8q-36 0 -57.5 22t-21.5 56q0 35 21.5 57t57.5 22q35 0 57 -22t22 -57q0 -34 -22 -56t-57 -22zM127 -8q-36 0 -57.5 22t-21.5 56q0 35 21.5 57t57.5 22q35 0 57 -22t22 -57q0 -34 -22 -56t-57 -22zM343 -8q-36 0 -57.5 22t-21.5 56q0 35 21.5 57t57.5 22
q35 0 57 -22t22 -57q0 -34 -22 -56t-57 -22z" />
    <glyph glyph-name="guilsinglleft" unicode="&#x2039;" horiz-adv-x="321" 
d="M169 8q-13 11 -19 25q-12 27 -29 61.5t-33.5 67.5t-27 57.5t-10.5 32.5t10.5 32t27 56.5t33.5 66.5t29 61q3 7 8 14.5t11 12.5q25 23 54.5 16t48.5 -27q17 -18 18.5 -36.5t-7.5 -36.5l-23 -46t-25.5 -50.5t-20.5 -42t-8 -20.5t8 -20.5t20.5 -42t25.5 -50.5l23 -46
q9 -19 7.5 -38t-18.5 -36q-19 -19 -48.5 -26t-54.5 15z" />
    <glyph glyph-name="guilsinglright" unicode="&#x203a;" horiz-adv-x="321" 
d="M152 8q-25 -22 -54 -15t-49 26q-17 17 -18.5 36t7.5 38l23 46t25.5 50.5t20.5 42t8 20.5t-8 20.5t-20.5 42t-25.5 50.5l-23 46q-9 18 -7.5 36.5t18.5 36.5q20 20 49 27t54 -16q6 -5 11 -12.5t8 -14.5q12 -27 29 -61t33.5 -66.5t27 -56.5t10.5 -32t-10.5 -32.5t-27 -57.5
t-33.5 -67.5t-29 -61.5q-6 -14 -19 -25z" />
    <glyph glyph-name="Euro" unicode="&#x20ac;" horiz-adv-x="533" 
d="M9 222q-23 0 -37 12.5t-14 43.5q0 30 14 42.5t37 12.5h39v14v31h-39q-23 0 -37 12.5t-14 43.5q0 30 14 42.5t37 12.5h51q21 108 87 165t191 57q39 0 76.5 -7t62 -25t24.5 -52q0 -25 -18 -42t-58 -17q-22 0 -49 5.5t-63 5.5q-44 0 -68.5 -22t-35.5 -68h103q23 0 37 -12.5
t14 -42.5q0 -31 -14 -43.5t-37 -12.5h-114v-31v-14h114q23 0 37 -12.5t14 -42.5q0 -31 -14 -43.5t-37 -12.5h-102q13 -51 38.5 -74t64.5 -23q36 0 63 5.5t49 5.5q40 0 58 -16.5t18 -42.5q0 -34 -24.5 -52t-62 -25t-76.5 -7q-130 0 -196 57.5t-85 171.5h-48z" />
    <glyph glyph-name="trademark" unicode="&#x2122;" horiz-adv-x="1003" 
d="M809 365v186q0 38 -15.5 55t-50.5 17q-65 0 -65 -72v-186q0 -25 -9.5 -37.5t-33.5 -12.5q-23 0 -32.5 12.5t-9.5 37.5v186q0 72 -64 72q-36 0 -51.5 -17.5t-15.5 -54.5v-186q0 -27 -10 -40t-33 -13t-32.5 13t-9.5 40v194q0 84 32.5 113.5t99.5 29.5q48 0 79 -9.5
t48 -44.5q17 35 48 44.5t79 9.5q58 0 94.5 -33t36.5 -110v-194q0 -53 -42 -53q-43 0 -43 53zM239 365q0 -53 -43 -53q-42 0 -42 53v235q0 13 5 17t18 6h-97q-19 0 -27.5 14t-8.5 27q0 36 36 36h236q36 0 36 -36q0 -16 -8.5 -28.5t-27.5 -12.5h-77v-258z" />
    <glyph glyph-name="emptyset" unicode="&#x2205;" horiz-adv-x="772" 
d="M273 -99q-19 0 -36.5 18.5t-9.5 49.5l13 49q-101 39 -151.5 128t-50.5 206q0 103 39 184t118 128t197 47q18 0 35 -1l4 16q6 21 14 39t23 27t40 2q24 -6 32 -20t7 -30.5t-5 -32.5q-3 -12 -7 -25q100 -38 149.5 -127.5t49.5 -206.5q0 -103 -38 -184.5t-113.5 -128.5
t-190.5 -47q-23 0 -45 2q-3 -13 -6 -25q-7 -31 -18 -49.5t-50 -18.5zM392 599q-88 0 -141 -32t-77 -87.5t-24 -128.5q0 -78 28 -137t91 -88l128 473h-5zM622 351q0 79 -27 138.5t-89 87.5q-20 -71 -42.5 -153t-45.5 -164.5t-42 -156.5h16q84 0 134.5 32t73 88t22.5 128z" />
    <glyph glyph-name="minus" unicode="&#x2212;" horiz-adv-x="559" 
d="M88 259q-31 0 -49.5 15.5t-18.5 46.5q0 32 18.5 47t49.5 15h383q32 0 50 -15t18 -47q0 -31 -18 -46.5t-50 -15.5h-383z" />
    <glyph glyph-name="infinity" unicode="&#x221e;" horiz-adv-x="882" 
d="M35 292q0 60 24 106t68 72t102 26q51 0 106.5 -28.5t104.5 -80.5q49 50 105 79.5t112 29.5q60 0 102.5 -29.5t65 -76t22.5 -98.5t-23 -97t-65.5 -73t-101.5 -28q-56 0 -111 29t-105 79q-105 -108 -212 -108q-57 0 -101 25.5t-68.5 70.5t-24.5 102zM162 295
q0 -35 24 -56.5t61 -21.5q57 0 121 78q-34 43 -62 61.5t-59 18.5q-37 0 -61 -22.5t-24 -57.5zM719 295q0 35 -23.5 57.5t-61.5 22.5q-31 0 -58.5 -18.5t-62.5 -61.5q64 -78 121 -78q38 0 61.5 21.5t23.5 56.5z" />
    <glyph glyph-name="approxequal" unicode="&#x2248;" horiz-adv-x="571" 
d="M98 408q-37 0 -53.5 19.5t-16.5 46.5q0 32 20 67.5t56.5 60t86.5 24.5q49 0 74.5 -15t49.5 -30q16 -11 32 -19.5t31 -8.5q21 0 32 10.5t19 25t19 25.5t33 11q37 0 53.5 -19.5t16.5 -46.5q0 -32 -20 -67.5t-56.5 -60t-86.5 -24.5q-48 0 -73 15t-51 30q-15 10 -31 19.5
t-32 9.5q-21 0 -32 -11t-19 -25.5t-19 -25.5t-33 -11zM90 134q-37 0 -53.5 19.5t-16.5 46.5q0 32 20 67.5t56.5 60t86.5 24.5q49 0 74.5 -15t49.5 -30q16 -11 32 -19.5t31 -8.5q21 0 32 10.5t19 25t19 25.5t33 11q37 0 53.5 -19.5t16.5 -46.5q0 -32 -20 -67.5t-56.5 -60
t-86.5 -24.5q-48 0 -73 15t-51 30q-15 10 -31 19.5t-32 9.5q-21 0 -32 -11t-19 -25.5t-19 -25.5t-33 -11z" />
    <glyph glyph-name="notequal" unicode="&#x2260;" horiz-adv-x="559" 
d="M128 38q-25 0 -40 12.5t-15 32.5q0 10 6 20l26 39h-17q-31 0 -49.5 15.5t-18.5 46.5q0 32 18.5 47t49.5 15h100l72 106h-172q-31 0 -49.5 15.5t-18.5 46.5q0 32 18.5 47t49.5 15h255l38 57q20 30 48 30q52 0 52 -43q0 -15 -9 -31l-9 -13h8q32 0 50 -15t18 -47
q0 -31 -18 -46.5t-50 -15.5h-91l-71 -106h162q32 0 50 -15t18 -47q0 -31 -18 -46.5t-50 -15.5h-245l-50 -75q-19 -29 -48 -29z" />
    <glyph glyph-name="lessequal" unicode="&#x2264;" horiz-adv-x="484" 
d="M359 238l-310 158q-15 8 -22.5 22.5t-6.5 27.5q-1 14 7 28.5t24 22.5l308 157q29 14 52 8t36 -35q13 -28 3 -49.5t-39 -35.5l-192 -96l192 -96q29 -14 39 -35t-3 -50q-13 -28 -36 -34.5t-52 7.5zM396 23h-297q-31 0 -49.5 15.5t-18.5 46.5q0 32 18.5 47t49.5 15h297
q32 0 50 -15t18 -47q0 -31 -18 -46.5t-50 -15.5z" />
    <glyph glyph-name="greaterequal" unicode="&#x2265;" horiz-adv-x="484" 
d="M125 238q-28 -14 -51 -7.5t-37 34.5q-13 29 -2.5 50t38.5 35l192 96l-192 96q-28 14 -38.5 35.5t2.5 49.5q14 29 37 35t51 -8l308 -157q17 -8 24.5 -22.5t6.5 -28.5q1 -13 -6.5 -27.5t-22.5 -22.5zM88 23q-31 0 -49.5 15.5t-18.5 46.5q0 32 18.5 47t49.5 15h297
q32 0 50 -15t18 -47q0 -31 -18 -46.5t-50 -15.5h-297z" />
    <glyph glyph-name="i.loclTRK" horiz-adv-x="270" 
d="M135 -8q-39 0 -55.5 18.5t-16.5 49.5v380q0 32 16.5 50t55.5 18t55.5 -18t16.5 -50v-380q0 -31 -16.5 -49.5t-55.5 -18.5zM135 594q-37 0 -62 24t-25 59q0 37 25 61t62 24q38 0 62.5 -24t24.5 -61q0 -35 -24.5 -59t-62.5 -24z" />
    <glyph glyph-name="periodcentered.loclCAT" horiz-adv-x="244" 
d="M139 199q-36 0 -57.5 22t-21.5 56q0 35 21.5 57t57.5 22q35 0 57 -22t22 -57q0 -34 -22 -56t-57 -22z" />
    <glyph glyph-name="periodcentered.loclCAT.case" horiz-adv-x="278" 
d="M139 199q-36 0 -57.5 22t-21.5 56q0 35 21.5 57t57.5 22q35 0 57 -22t22 -57q0 -34 -22 -56t-57 -22z" />
    <glyph glyph-name="uni030C.alt" 
d="M59 540q-11 -13 -26 -13q-12 0 -21 9q-7 7 -9.5 14t-1.5 23q0 -3 7.5 39.5t19.5 109.5q3 20 19.5 30t35.5 10t34.5 -12t15.5 -39q0 -25 -12.5 -58.5t-29.5 -64t-32 -48.5z" />
    <glyph glyph-name="shortstrokecomb" horiz-adv-x="494" 
d="M148 236q-31 0 -49.5 12t-18.5 40t18.5 40t49.5 12h198q32 0 50 -12t18 -40t-18 -40t-50 -12h-198z" />
    </font>
</defs>
</svg>
